<?xml version="1.0" encoding="UTF-8" standalone="no"?>
<!-- Created with Inkscape (http://www.inkscape.org/) -->

<svg
   width="12.174286mm"
   height="11.921162mm"
   viewBox="0 0 12.174287 11.921161"
   version="1.1"
   id="svg5985"
   inkscape:version="1.2.2 (b0a8486541, 2022-12-01)"
   sodipodi:docname="anniversary.svg"
   xmlns:inkscape="http://www.inkscape.org/namespaces/inkscape"
   xmlns:sodipodi="http://sodipodi.sourceforge.net/DTD/sodipodi-0.dtd"
   xmlns="http://www.w3.org/2000/svg"
   xmlns:svg="http://www.w3.org/2000/svg">
  <sodipodi:namedview
     id="namedview5987"
     pagecolor="#ffffff"
     bordercolor="#000000"
     borderopacity="0.25"
     inkscape:showpageshadow="2"
     inkscape:pageopacity="0.0"
     inkscape:pagecheckerboard="0"
     inkscape:deskcolor="#d1d1d1"
     inkscape:document-units="mm"
     showgrid="false"
     inkscape:zoom="5.3088146"
     inkscape:cx="41.063781"
     inkscape:cy="33.811691"
     inkscape:window-width="796"
     inkscape:window-height="878"
     inkscape:window-x="160"
     inkscape:window-y="18"
     inkscape:window-maximized="1"
     inkscape:current-layer="layer1" />
  <defs
     id="defs5982" />
  <g
     inkscape:label="Layer 1"
     inkscape:groupmode="layer"
     id="layer1"
     transform="translate(0.06258698)">
    <path
       d="m 0.16089458,7.482855 c 0,-0.0375 0.18711,-0.50763 0.30298,-0.76141 0.0607,-0.13275 0.27874,-0.61677 0.48449,-1.07557 0.68694002,-1.53163 1.23978002,-2.65488 1.15352002,-2.34383 -0.0939,0.33848 0.98027,1.4858 1.39106,1.4858 0.0463,0 0.0844,0.0225 0.0844,0.0498 0,0.0695 -0.30761,0.007 -0.53178,-0.10762 -0.32385,-0.16589 -0.95945,-0.97851 -0.96795,-1.23754 0,-0.0348 -0.0441,0.0184 -0.096,0.11814 -0.0939,0.1813 -0.0939,0.1813 0.13359,0.43483 0.15879,0.17694 0.28292,0.38824 0.41111,0.69969 0.10104,0.24541 0.24418,0.51627 0.31807,0.60197 0.16965,0.19683 0.0819,0.20618 -0.0977,0.0104 -0.1456,-0.15877 -0.20557,-0.2677 -0.44789,-0.81449 -0.26901,-0.60711 -0.41679,-0.7194 -0.54566,-0.41438 -0.10458,0.24778 -0.10458,0.24778 0.0186,0.33952 0.14646,0.10866 0.25577,0.31837 0.40228,0.77192 0.0614,0.19023 0.16297,0.38958 0.23682,0.4648 0.0711,0.0724 0.10235,0.13168 0.0695,0.13168 -0.11832,0 -0.29652,-0.22708 -0.39555,-0.50409 -0.0556,-0.15535 -0.1326,-0.37037 -0.17148,-0.47784 -0.13814,-0.38341 -0.28333,-0.4527 -0.3946,-0.18834 -0.0952,0.22625 -0.0952,0.22625 0.02,0.3665 0.0637,0.0772 0.1592,0.28849 0.21217,0.46959 0.0652,0.22317 0.13587,0.36102 0.21913,0.42773 0.13932,0.11156 0.12018,0.17995 -0.0277,0.0993 -0.13796,-0.0752 -0.22008,-0.21928 -0.32817,-0.57546 -0.16065,-0.52974 -0.20321,-0.55163 -0.36545,-0.18801 -0.13764,0.30845 -0.13764,0.30845 -0.0309,0.41988 0.059,0.0613 0.13164,0.18999 0.16151,0.28601 0.03,0.096 0.0933,0.24428 0.14101,0.32948 0.0481,0.0853 0.0702,0.15493 0.0504,0.15493 -0.0814,0 -0.23845,-0.22749 -0.31271,-0.45284 -0.13141,-0.39921 -0.16701,-0.40969 -0.30802002,-0.0907 -0.1205,0.27229 -0.12145,0.28187 -0.0346,0.3435 0.0492,0.0349 0.13041002,0.14632 0.18111002,0.24768 0.13483,0.26914 0.11573,0.2737 0.87128,-0.20811 0.38319,-0.24433 0.981,-0.62217 1.32849,-0.83961 1.00892,-0.63141 1.12283,-0.71214 1.12851,-0.79984 0.0255,-0.39068 -0.33116,-0.9128 -0.49636,-0.72682 -0.0469,0.0526 -0.10654,0.0957 -0.13282,0.0957 -0.0268,0 0,-0.0497 0.0538,-0.1103 0.13505,-0.14647 0.14028,-0.13514 -0.16733,-0.36759 -0.14796,-0.11179 -0.24286,-0.17447 -0.21062,-0.13919 0.14423,0.15805 0,0.42644 -0.22832,0.42644 -0.34058,0 -0.31916,-0.40257 0.0255,-0.47432 0.14446,-0.0301 0.14446,-0.0301 -0.0803,-0.14093 -0.2184,-0.10762 -0.22686,-0.10831 -0.29597,-0.0219 -0.0681,0.0853 -0.0702,0.0846 -0.0492,-0.017 0.0409,-0.19669 -0.46895,-0.21984 -0.55284,-0.0252 -0.0255,0.059 -0.0637,0.10727 -0.085,0.10727 -0.0606,0 0.015,-0.20742 0.10091,-0.27674 0.0487,-0.0389 0.1731,-0.0568 0.33339,-0.0476 0.30257,0.0173 0.39669,-0.23971 0.2822,-0.77037 -0.0973,-0.45088 -0.54061,-0.87954 -0.67371,-0.65137 -0.18811,0.32254 -0.54334,0.44672 -0.54334,0.18992 0,-0.18789 0.11146,-0.33645 0.28084,-0.37435 0.21826,-0.0487 0.15528,-0.18357 -0.16379,-0.35062999 -0.13005,-0.068 -0.15861,-0.0986 -0.0937,-0.0999 0.13286,-0.002 0.39087,0.16829999 0.44857,0.29735999 0.0309,0.0687 0.13492,0.14031 0.28129,0.19327 0.47972,0.17353 0.75091,0.98718 0.52701,1.58133 -0.0127,0.0329 0.0884,0.11202 0.23691,0.18599 0.14214,0.0709 0.3851,0.22382 0.54002,0.33993 0.28156,0.21116 0.28156,0.21116 0.58439,0.0416 0.47213,-0.26433 0.99483,-0.27288 1.2195,-0.0199 0.0643,0.0723 0.12278,0.0864 0.27474,0.0666 0.24677,-0.0322 0.56998,0.12843 0.71931,0.35741 0.11013,0.16866 0.13965,0.33855 0.0589,0.33855 -0.0259,0 -0.0469,-0.0332 -0.0469,-0.0739 0,-0.28095 -0.28469,-0.49816 -0.65297,-0.49816 -0.21871,0 -0.23631,0.008 -0.23631,0.11528 0,0.17501 -0.048,0.26607 -0.13996,0.26607 -0.113,0 -0.15074,-0.17856 -0.0657,-0.31078 0.22785,-0.35427 -0.60495,-0.45431 -1.13993,-0.13691 -0.23754,0.14102 -0.2359,0.12996 -0.0526,0.34259 0.56466,0.65509 0.53929,0.68757 -1.53352,1.95882 -0.87151,0.53451 -1.80208002,1.10833 -2.06786002,1.27514 -0.47822,0.30011 -0.52292,0.32418 -0.52292,0.28119 z m 0.90293002,-0.6198 c 0.0797,-0.0597 0.078,-0.0718 -0.0327,-0.23844 -0.0643,-0.0966 -0.12987002,-0.21687 -0.14556002,-0.26731 -0.0457,-0.14689 -0.0901,-0.10995 -0.23277,0.19394 -0.22162,0.47238 -0.0136,0.63002 0.41143002,0.31181 z m 4.42141,-1.19663 c -0.0127,-0.013 0.0474,-0.0959 0.13418,-0.18419 0.28888,-0.29425 0.14788,-0.76114 -0.22976,-0.76114 -0.27451,0 -0.43662,0.30483 -0.25846,0.48622 0.16351,0.16657 0.45271,-0.0511 0.29856,-0.22459 -0.0893,-0.10044 -0.0955,-0.15262 -0.015,-0.12096 0.17852,0.0697 0.18766,0.34445 0.0155,0.46162 -0.26842,0.18255 -0.60173,-0.19692 -0.44171,-0.50292 0.23054,-0.44082 0.88232,-0.20766 0.88128,0.31522 0,0.21539 -0.29543,0.62203 -0.3851,0.53074 z m -1.89757,-0.99475 c -0.30648,-0.11598 -0.58494,-0.29052 -0.74955,-0.46985 -0.13855,-0.15097 -0.43093,-0.65819 -0.42989,-0.74589 0,-0.0409 0.0659,0.0329 0.14542,0.16404 0.31225,0.51473 0.81385,0.9103 1.32699,1.04644 0.14983,0.0397 0.28333,0.0833 0.29666,0.0969 0.0666,0.0678 -0.3319,0.006 -0.58963,-0.0916 z m 0.1978,-0.12631 c -0.0173,-0.0285 -0.0698,-0.0416 -0.11672,-0.0291 -0.0963,0.0256 -0.16688,-0.0996 -0.0965,-0.1712 0.025,-0.025 0.0323,-0.0773 0.0177,-0.116 -0.0776,-0.20619 0.35945,-0.21602 0.44894,-0.0105 0.0844,0.19421 -0.15055,0.49647 -0.25373,0.32642 z m 2.30003,-1.30676 c -0.0423,-0.0656 -0.11663,-0.11916 -0.16537,-0.11916 -0.23764,0 -0.29029,-0.0884 -0.13851,-0.23246 0.0756,-0.0717 0.0912,-0.12596 0.0675,-0.23566 -0.0359,-0.16554 0.0432,-0.25042 0.0857,-0.0914 0.0521,0.19838 0.03,0.31553 -0.0746,0.39004 -0.10208,0.0727 -0.10072,0.0741 0.0712,0.0741 0.14142,0 0.18548,0.0229 0.2285,0.11918 0.0678,0.15152 0.11386,0.15107 0.15151,-10e-4 0.0209,-0.0851 0.0707,-0.12898 0.16924,-0.14907 0.13964,-0.0284 0.13964,-0.0284 0.0182,-0.14389 -0.0797,-0.0752 -0.114,-0.1478 -0.0984,-0.20844 0.0273,-0.10623 0.0145,-0.11179 -0.10827,-0.0452 -0.0867,0.0473 -0.32716,-0.0222 -0.32716,-0.0947 0,-0.14105 0.53665,-0.0136 0.56643,0.13456 0.0173,0.0876 0.055,0.18309 0.0838,0.21212 0.0852,0.0868 0.0592,0.17624 -0.0651,0.2244 -0.0644,0.025 -0.117,0.0658 -0.117,0.0907 0,0.18521 -0.24232,0.23839 -0.34677,0.0761 z m -4.54659,-0.2173 c -0.11436,-0.12155 -0.16774,-0.14356 -0.32121,-0.13228 -0.22695002,0.0167 -0.26355002,-0.0597 -0.122,-0.25469 0.099,-0.13649 0.10286,-0.21979 0.0195,-0.43999 -0.0474,-0.12624 0.0562,-0.085 0.11436,0.0455 0.0853,0.19071 0.0677,0.39227 -0.04,0.45061 -0.15128,0.0825 -0.10836,0.12106 0.11491,0.10299 0.1917,-0.0155 0.21589,-0.005 0.2987,0.13414 0.12182,0.20402 0.15401,0.20063 0.2154,-0.0226 0.0373,-0.13374 0.0922,-0.21011 0.18556,-0.25569 0.13301,-0.065 0.13301,-0.065 0.007,-0.16702 -0.0872,-0.0708 -0.12691,-0.1493 -0.12982,-0.25675 -0.006,-0.17357 -0.0268,-0.18518 -0.15669,-0.0848 -0.111,0.0855 -0.21285,0.0904 -0.36941,0.0177 -0.16442,-0.0763 -0.14974,-0.13919 0.0241,-0.1038 0.0789,0.0161 0.22795,10e-4 0.33112,-0.0339 0.20694,-0.0695 0.27201,-0.0283 0.27347,0.17362 0,0.0549 0.0427,0.13871 0.0943,0.18615 0.0515,0.0475 0.0936,0.1133 0.0936,0.14643 0,0.0331 0.025,0.0685 0.0544,0.0787 0.03,0.0104 -0.0227,0.0649 -0.11704,0.12154 -0.0943,0.0567 -0.17143,0.13594 -0.17143,0.17614 0,0.23689 -0.22599,0.30346 -0.40051,0.11799 z m 2.79767,-0.0238 c -0.23431,-0.16721 -0.0469,-0.60915 0.22145,-0.52239 0.22754,0.0736 0.21299,0.40591 -0.0177,0.40591 -0.10991,0 -0.19126,-0.11237 -0.14119,-0.19497 0.0432,-0.0719 0.11354,-0.0486 0.0845,0.0281 -0.0173,0.0461 0,0.0715 0.0515,0.0715 0.0498,0 0.0728,-0.0307 0.0629,-0.0834 -0.01,-0.0527 -0.0586,-0.0834 -0.13214,-0.0834 -0.17852,0 -0.18775,0.20346 -0.0155,0.34375 0.15306,0.1247 0.0544,0.15493 -0.11372,0.0349 z m -0.49386,-0.13884 c 0.19057,-0.19413 0.2023,-0.39928 0.0273,-0.47755 -0.11413,-0.0509 -0.14096,-0.11961 -0.0469,-0.12003 0.49209,-0.002 0.66866,-0.44807 0.21749,-0.54902 -0.18311,-0.0411 -0.17079,-0.10078 0.0282,-0.13883 0.3997,-0.0763 0.34081,-0.55645 -0.10058,-0.81991999 -0.23936,-0.14284 -0.24304,-0.1982 -0.007,-0.0975 0.36627,0.15584 0.5994,0.64141999 0.42407,0.88300999 -0.0912,0.12557 -0.0912,0.12945 -0.006,0.24893 0.11732,0.15996 0.0527,0.34448 -0.16751,0.47663 -0.11759,0.0707 -0.15333,0.12042 -0.13587,0.18873 0.0504,0.1976 -0.17116,0.571 -0.3394,0.571 -0.0323,0 0.0141,-0.0744 0.10327,-0.16538 z m 1.13869,-0.33751 c 0,-0.21968 0.26751,-0.49815 0.47845,-0.49815 0.0591,0 0.13374,-0.0429 0.16584,-0.0954 0.0641,-0.10448 0.35531,-0.13573 0.41092,-0.0441 0.0196,0.0331 0.0682,0.0156 0.1356,-0.0487 0.17847,-0.17073 0.47017,-0.23238 0.60927,-0.12879 0.0779,0.058 0.072,0.0622 -0.0619,0.0422 -0.26551,-0.0397 -0.60082,0.18029 -0.5362,0.35184 0.015,0.0394 -0.006,0.066 -0.0504,0.066 -0.0418,0 -0.0752,-0.0314 -0.0752,-0.0699 0,-0.1097 -0.16929,-0.18159 -0.28243,-0.11994 -0.0792,0.0432 -0.0899,0.0806 -0.0639,0.22231 0.0359,0.19428 -0.0618,0.21046 -0.14451,0.024 -0.0889,-0.20055 -0.492,0.0105 -0.492,0.25758 0,0.0633 -0.0209,0.11492 -0.0469,0.11492 -0.0259,0 -0.0469,-0.0332 -0.0469,-0.0739 z m -1.84604,-1.08078 c -0.13233,-0.19252 0.0145,-0.46606999 0.24945,-0.46606999 0.16625,0 0.39565,0.23108999 0.33167,0.33414999 -0.0377,0.0605 -0.0441,0.0587 -0.0446,-0.0117 0,-0.0453 -0.0544,-0.11803 -0.11973,-0.16168 -0.22053,-0.14727999 -0.47963,0.0981 -0.28078,0.2661 0.08,0.0678 0.16579,0.0273 0.16579,-0.0782 0,-0.0514 -0.0296,-0.0664 -0.0964,-0.0486 -0.0612,0.0163 -0.0895,0.006 -0.0779,-0.0302 0.0409,-0.12546 0.24382,-0.0615 0.25996,0.082 0.0259,0.22886 -0.252,0.31041 -0.38728,0.11377 z m 2.05062,-0.0116 c -0.0155,-0.0402 -0.0141,-0.12964 0.006,-0.19876 0.0241,-0.0979 0.006,-0.1557 -0.0965,-0.26124999 -0.13246,-0.14082 -0.0734,-0.32787 0.10336,-0.32787 0.0327,0 0.13186,-0.0776 0.21967,-0.17239 0.15979,-0.17239001 0.15979,-0.17239001 0.26355,-0.0239 0.0573,0.0817 0.14055,0.14858 0.1853,0.14858 0.16047,0 0.27005,0.12572 0.20471,0.23477 -0.0318,0.0537 -0.0585,0.1712 -0.0585,0.26118999 0,0.30474 -0.10426,0.38852 -0.33007,0.2654 -0.0681,-0.0372 -0.13546,-0.0252 -0.27861,0.0491 -0.1641,0.0853 -0.19243,0.0885 -0.21635,0.0251 z m 0.40811,-0.21586 c 0.0634,0 0.16369,0.0345 0.22294,0.0768 0.10768,0.0768 0.10768,0.0768 0.0749,-0.14565 -0.0273,-0.18716999 -0.0173,-0.23905999 0.0636,-0.32706999 0.0963,-0.10461 0.0963,-0.10461 -0.0504,-0.11017 -0.0939,-0.004 -0.18266,-0.0489 -0.24855,-0.12691 -0.10253,-0.12139 -0.10253,-0.12139 -0.2033,0.0174 -0.0629,0.0865 -0.14323,0.13884 -0.21362,0.13884 -0.12159,0 -0.21781,0.10125 -0.12582,0.13252 0.14619,0.0496 0.20398,0.17030999 0.17374,0.36272999 -0.03,0.1929 -0.03,0.1929 0.0803,0.0871 0.0608,-0.0581 0.16238,-0.10577 0.22577,-0.10577 z m -0.89352,-0.46938999 c 0,-0.024 0.0314,-0.0702 0.0702,-0.10287 0.15793,-0.13347 0.0423,-0.45805001 -0.14987,-0.42039001 -0.10558,0.0207 -0.11836,0.25352001 -0.0141,0.25352001 0.0475,0 0.0659,-0.039 0.0573,-0.11898 -0.0127,-0.11364001 -0.009,-0.11527001 0.0693,-0.0349 0.11204,0.11411001 0.0291,0.24917001 -0.15374,0.24917001 -0.18411,0 -0.266,-0.21169 -0.13768,-0.35607001 0.23158,-0.26072 0.62355,0.0104 0.48986,0.33896001 -0.055,0.13511 -0.23122,0.28109 -0.23122,0.19146 z"
       style="fill:#000000;stroke-width:0.357598"
       id="path15723" />
    <path
       d="m 6.5432646,11.699665 c -0.95395,-0.25583 -1.22546,-0.65005 -0.54989,-0.7984 0.30607,-0.0672 0.32539,0.012 0.0323,0.13439 -0.47635,0.19904 -0.29097,0.32547 0.73741,0.50295 0.89697,0.1548 1.15666,0.0293 0.52484,-0.25358 -0.21004,-0.0941 -0.30062,-0.1067 -0.33736,-0.0473 -0.15187,0.24569 -0.10131,-0.27146 0.11809,-1.20896 0.0227,-0.096201 -0.0787,0.12419 -0.2249,0.48975 -0.31894,0.7971 -0.40697,0.64454 -0.10517,-0.18225 0.19088,-0.5232805 0.19675,-0.5704805 0.10226,-0.8334005 -0.15797,-0.4402095 -0.0784,-1.5121095 0.19412,-2.6105895 0.20471,-0.82572 0.34744,-1.15114 0.34744,-0.79238 0,0.41951 1.20259,0.72828 1.4000198,0.35945 0.11682,-0.21836 -0.4532598,-0.48026 -1.0787598,-0.4955 -0.24382,-0.006 -0.26032,-0.0151 -0.11131,-0.061 1.02006,-0.31521 1.4780398,0.18417 1.1952998,1.3034 -0.4984098,1.97355 -0.8928298,2.7525695 -1.3935598,2.7525695 -0.15351,0 -0.44917,1.0552305 -0.30884,1.1020105 1.15756,0.38586 0.66738,0.96325 -0.54234,0.63878 z m 1.30366,-2.3136205 c 0.19885,-0.2975795 0.5673,-1.2064895 0.68066,-1.6791395 0.045,-0.18804 0.045,-0.18804 -0.71863,-0.2099 -0.76369,-0.0219 -0.76369,-0.0219 -0.80398,0.22301 -0.055,0.33496 -0.0515,0.4913 0.0105,0.48147 0.16497,-0.0261 0.29966,0.018 0.2586,0.0843 -0.0259,0.0418 -0.10368,0.0613 -0.17298,0.0431 -0.0856,-0.0223 -0.13887,0.0151 -0.1661,0.11636 -0.063,0.2349 -0.0486,0.61642 0.0214,0.57297 0.0819,-0.0505 0.28629,0.027 0.28629,0.10855 0,0.0344 -0.0664,0.0624 -0.14751,0.0624 -0.12596,0 -0.14051,0.0282 -0.0994,0.1920095 0.12545,0.4995 0.51873,0.50172 0.8509,0.005 z m 0.82594,-2.2082395 c 0.0255,-0.10578 0.0599,-0.23984 0.0769,-0.29782 0.0255,-0.0853 -0.0296,-0.10055 -0.2852798,-0.0803 -0.3213,0.0255 -1.08168,-0.26557 -1.08168,-0.41422 0,-0.21899 -0.12513,0 -0.19589,0.34169 -0.14173,0.68612 -0.1872,0.64298 0.67812,0.64298 0.76196,0 0.76196,0 0.80784,-0.1924 z m 1.3161698,4.24817 c -0.32384,-0.13016 -0.0486,-0.49684 0.4425296,-0.5889 0.18643,-0.035 0.24073,-0.0747 0.2104,-0.15371 -0.0227,-0.0586 -0.0608,-0.32179 -0.0854,-0.58487 -0.0418,-0.4520205 -0.0582,-0.4872805 -0.29466,-0.6413005 C 9.4981644,8.959645 8.7715844,6.140255 9.3153744,5.783955 c 0.20826,-0.13645 0.9808596,-0.21593 1.0851296,-0.11156 0.045,0.0452 -0.0918,0.0818 -0.3981,0.10635 -0.6096796,0.0489 -0.8696396,0.25521 -0.6004496,0.47635 0.3363,0.27618 1.1992096,0.0136 1.1992096,-0.36494 0,-0.21786 0.11887,-0.14369 0.23505,0.14669 0.34103,0.85224 0.4232,2.70161 0.14496,3.26381 -0.14101,0.2851595 -0.14101,0.2851595 0.0177,0.90901 0.18016,0.70851 0.18312,0.72879 0.10495,0.72879 -0.0688,0 -0.26878,-0.61817 -0.33381,-1.0319805 -0.0259,-0.16354 -0.0693,-0.29735 -0.0968,-0.29735 -0.0273,0 -0.009,0.21252 0.0418,0.4722605 0.12204,0.63019 0.1255,0.96776 0.009,0.87286 -0.10504,-0.0856 -0.68948,0.11053 -0.7347296,0.24657 -0.0214,0.0653 0.1093596,0.0857 0.5189196,0.0808 1.0935,-0.0133 1.69881,-0.2719 1.12883,-0.48199 -0.12696,-0.0468 -0.19266,-0.1 -0.14587,-0.11805 0.28024,-0.10855 0.63714,0.34395 0.41602,0.52744 -0.2531,0.21003 -1.56581,0.3586 -1.9178096,0.21712 z m 0.8522696,-2.25419 c 0.47782,-1.16773 0.21576,-1.90989 -0.66561,-1.88465 -0.4201096,0.0121 -0.7638696,0.0371 -0.7638696,0.0556 0,0.28925 0.24773,0.93703 0.35831,0.93703 0.0723,0 0.13142,0.0315 0.13142,0.07 0,0.0385 -0.048,0.07 -0.10641,0.07 -0.1923,0 0.19266,0.63174 0.5242396,0.86029 0.26305,0.1812595 0.41652,0.1494795 0.52192,-0.1082 z m 0.0669,-2.31937 c -0.11268,-0.78572 -0.15015,-0.8409 -0.41425,-0.60903 -0.26,0.22824 -0.5878996,0.3194 -0.9829096,0.27331 -0.24532,-0.0286 -0.25041,-0.0244 -0.2103,0.17597 0.0227,0.11295 0.0409,0.26056 0.0409,0.32817 0,0.11017 0.083,0.12266 0.8037996,0.12064 0.80371,-0.002 0.80371,-0.002 0.76265,-0.28906 z M 8.4720746,4.487705 c -0.0919,-0.13137 -0.0939,-0.17535 -0.0132,-0.29735 0.18134,-0.27376 0.5329698,-0.18717 0.5329698,0.13125 0,0.32337 -0.3348498,0.43036 -0.5199198,0.1661 z m -1.00374,-0.37482 c -0.42179,-0.2954 0.0114,-0.91225 0.44257,-0.62991 0.26647,0.17458 0.2245,0.49479 -0.0862,0.65836 -0.19012,0.1001 -0.17065,0.1016 -0.35636,-0.0285 z m 0.32021,-0.11505 c 0.16793,-0.16786 0.10349,-0.4174 -0.10136,-0.39293 -0.26559,0.0317 -0.38073,0.24452 -0.20357,0.37606 0.16497,0.12251 0.19748,0.12431 0.30498,0.0168 z m 0.7159,-0.47156 c -0.11513,-0.21515 0.0255,-0.4386 0.2577298,-0.41067 0.23432,0.0282 0.36227,0.22149 0.25737,0.38898 -0.11495,0.18371 -0.4214698,0.19661 -0.5150998,0.0216 z"
       style="fill:#000000;stroke-width:0.357598"
       id="path15992" />
  </g>
</svg>
