<?xml version="1.0" encoding="UTF-8" standalone="no"?>
<!-- Created with Inkscape (http://www.inkscape.org/) -->

<svg
   width="15.014238mm"
   height="16.561026mm"
   viewBox="0 0 15.014238 16.561025"
   version="1.1"
   id="svg5984"
   inkscape:version="1.2.2 (b0a8486541, 2022-12-01)"
   sodipodi:docname="birthday.svg"
   xmlns:inkscape="http://www.inkscape.org/namespaces/inkscape"
   xmlns:sodipodi="http://sodipodi.sourceforge.net/DTD/sodipodi-0.dtd"
   xmlns="http://www.w3.org/2000/svg"
   xmlns:svg="http://www.w3.org/2000/svg">
  <sodipodi:namedview
     id="namedview5986"
     pagecolor="#ffffff"
     bordercolor="#000000"
     borderopacity="0.25"
     inkscape:showpageshadow="2"
     inkscape:pageopacity="0.0"
     inkscape:pagecheckerboard="true"
     inkscape:deskcolor="#d1d1d1"
     inkscape:document-units="mm"
     showgrid="false"
     inkscape:zoom="6.1229946"
     inkscape:cx="50.79214"
     inkscape:cy="22.946288"
     inkscape:window-width="956"
     inkscape:window-height="1058"
     inkscape:window-x="0"
     inkscape:window-y="918"
     inkscape:window-maximized="1"
     inkscape:current-layer="layer1" />
  <defs
     id="defs5981" />
  <g
     inkscape:label="Layer 1"
     inkscape:groupmode="layer"
     id="layer1"
     transform="translate(-87.177957,-144.65366)">
    <path
       d="m 91.865722,160.97967 c -3.181752,-0.3838 -5.058065,-1.30733 -4.288371,-2.1107 0.142298,-0.14852 0.161151,-0.21823 0.177398,-0.65557 0.02205,-0.59394 0.09064,-0.77672 0.352294,-0.93842 0.110309,-0.0682 0.200597,-0.13014 0.200597,-0.13768 0,-0.008 -0.06848,-0.15569 -0.152225,-0.32921 -0.125624,-0.26037 -0.141143,-0.34255 -0.08894,-0.47068 0.03474,-0.0854 0.07214,-0.33583 0.08304,-0.55661 0.0151,-0.30451 0.04599,-0.42048 0.128084,-0.48051 0.101624,-0.0743 0.10217,-0.0877 0.01,-0.21965 -0.130026,-0.18562 -0.124133,-0.28184 0.02469,-0.40229 0.146959,-0.11902 0.03656,-0.76821 -0.183077,-1.0767 -0.136483,-0.19169 -0.145295,-0.30035 -0.04651,-0.57354 0.05984,-0.16559 0.05386,-0.24917 -0.03747,-0.51769 -0.05984,-0.17611 -0.0931,-0.38283 -0.07386,-0.45942 0.02765,-0.11066 0,-0.15982 -0.140479,-0.23985 -0.288475,-0.16555 -0.144453,-0.58104 0.246601,-0.7114 0.05027,-0.0166 0.04129,-0.0682 -0.03119,-0.17867 -0.07141,-0.10894 -0.09042,-0.2151 -0.06388,-0.35658 0.02737,-0.1461 0.01196,-0.22274 -0.05569,-0.279 -0.245173,-0.2035 -0.02856,-0.4509 0.474744,-0.54222 0.193017,-0.035 0.413271,-0.10374 0.489422,-0.15274 0.07615,-0.049 0.31629,-0.12184 0.533702,-0.16187 0.395265,-0.0728 0.395265,-0.0728 0.434025,-1.0171 0.03592,-0.87549 0.04798,-0.95041 0.16522,-1.02825 0.125738,-0.0835 0.125269,-0.0851 -0.08324,-0.27604 -0.266999,-0.24457 -0.272697,-0.44184 -0.03183,-1.09525 0.09788,-0.26538 0.177907,-0.54583 0.177907,-0.62323 0,-0.0774 0.02678,-0.15718 0.0593,-0.17734 0.06131,-0.0379 0.07914,0.0302 0.06311,0.24057 -0.0051,0.067 0.07375,0.34713 0.175265,0.62237 0.2089,0.56663 0.201947,0.78636 -0.03174,1.0059 -0.190707,0.17916 -0.18566,0.22916 0.0306,0.30455 0.177929,0.062 0.177929,0.062 0.177929,0.85679 0,0.79474 0,0.79474 0.173074,0.79474 0.352935,0 0.360629,-0.0151 0.360629,-0.71162 0,-0.7298 0.01646,-0.75391 0.446161,-0.64576 0.259714,0.0654 0.259714,0.0654 0.223969,0.65209 -0.03579,0.5867 -0.03579,0.5867 0.210423,0.5867 0.212738,0 0.24756,-0.018 0.256332,-0.13343 0.0053,-0.0734 0.01505,-0.1868 0.02114,-0.25203 0.006,-0.0652 0.01505,-0.48551 0.01919,-0.934 0.0084,-0.81539 0.0084,-0.81539 0.156685,-0.81539 0.181236,0 0.186228,-0.0392 0.0216,-0.17215 -0.195018,-0.15793 -0.218958,-0.62225 -0.05106,-0.99019 0.0729,-0.1598 0.177966,-0.43191 0.233464,-0.60473 0.100955,-0.31418 0.100955,-0.31418 0.289257,0.16689 0.265471,0.67822 0.187424,1.33925 -0.171486,1.4532 -0.147191,0.0467 -0.148796,0.14698 -0.0032,0.14698 0.168162,0 0.18425,0.1017 0.18425,1.16449 0,1.23395 0.496629,1.5404 0.62499,0.38567 0.04493,-0.40385 0.08935,-0.57526 0.163106,-0.6292 0.132963,-0.0972 0.129398,-0.11665 -0.05448,-0.30051 -0.22542,-0.22548 -0.182545,-0.79423 0.10307,-1.36609 0.259051,-0.51881 0.351371,-0.55682 0.274947,-0.11323 -0.05133,0.29801 -0.04156,0.36712 0.09763,0.68793 0.2087,0.48124 0.206076,0.77585 -0.0084,0.9325 -0.163106,0.11914 -0.163106,0.11914 0,0.18137 0.162288,0.062 0.163052,0.0649 0.163052,0.63394 0,0.55138 0.283464,0.73076 0.726451,0.45961 0.02465,-0.0149 0.04447,-0.43796 0.04447,-0.93994 0,-0.76723 0.01505,-0.92102 0.09298,-0.96479 0.08195,-0.0458 0.07666,-0.0797 -0.04447,-0.2846 -0.236265,-0.39979 -0.154884,-1.12843 0.154694,-1.38537 0.05084,-0.0422 0.121841,-0.1859 0.157763,-0.31931 0.08259,-0.30674 0.142944,-0.20915 0.195036,0.31527 0.02114,0.21178 0.0812,0.4975 0.133668,0.63494 0.123486,0.32338 0.06699,0.63419 -0.15579,0.85697 -0.168963,0.16898 -0.168963,0.16898 -0.02678,0.20469 0.141907,0.0357 0.142321,0.038 0.158527,0.99328 0.01819,1.10398 0.345442,1.56866 0.389663,0.55438 0.01273,-0.28564 0.0427,-0.41287 0.103793,-0.43628 0.123937,-0.0476 0.106789,-0.12184 -0.0621,-0.26868 -0.23591,-0.20512 -0.206604,-0.58032 0.08896,-1.13816 0.130512,-0.24624 0.237224,-0.48867 0.237224,-0.53875 0,-0.24554 0.106553,-0.0427 0.178066,0.33891 0.144194,0.77009 0.118162,1.27496 -0.07429,1.44042 -0.200543,0.17243 -0.207136,0.2291 -0.02114,0.18239 0.180217,-0.0452 0.237401,0.13985 0.18149,0.58731 -0.04497,0.35969 0,0.41443 0.303098,0.35785 0.20369,-0.0382 0.20369,-0.0382 0.20369,-0.93038 0,-0.84481 0.0066,-0.8977 0.129102,-0.99668 0.129107,-0.10456 0.129107,-0.10456 -0.02678,-0.24007 -0.163519,-0.14222 -0.248028,-0.39005 -0.229412,-0.67291 0.0141,-0.21258 0.655743,-1.419 0.667525,-1.25495 0.01391,0.19102 0.03706,0.38849 0.0979,0.83021 0.06672,0.48394 -0.0141,0.9042 -0.215198,1.11815 -0.165516,0.17618 -0.160624,0.19927 0.05229,0.246 0.178967,0.0393 0.178967,0.0393 0.138833,1.01901 -0.0387,0.94339 -0.03597,0.97892 0.07304,0.95813 0.09906,-0.019 0.117066,-0.0908 0.143922,-0.57429 0.02405,-0.43352 0.05211,-0.5647 0.129984,-0.60827 0.08946,-0.0501 0.09082,-0.0758 0.01391,-0.26017 -0.142417,-0.34086 -0.107668,-0.72818 0.09849,-1.098 0.09996,-0.17937 0.229121,-0.44455 0.286988,-0.5893 0.105185,-0.26313 0.105185,-0.26313 0.213929,0.20757 0.17135,0.74166 0.148465,1.15895 -0.07909,1.4421 -0.179571,0.22348 -0.181726,0.23278 -0.06149,0.26422 0.120022,0.0314 0.123137,0.0552 0.08308,0.65295 -0.04156,0.62037 -0.04156,0.62037 0.26142,0.68536 0.506674,0.10865 0.475076,0.1532 0.475076,-0.66996 0,-0.59854 0.01646,-0.74123 0.08899,-0.76903 0.127697,-0.049 0.109608,-0.21581 -0.04074,-0.37584 -0.328644,-0.34981 -0.23335,-0.81494 0.26328,-1.28569 0.245027,-0.23221 0.477437,-0.48457 0.516547,-0.56076 0.11114,-0.21653 0.12314,-0.1252 0.034,0.25846 -0.0509,0.219 -0.0693,0.50299 -0.0485,0.75083 0.0419,0.49943 -0.0436,0.7217 -0.352348,0.9166 -0.265376,0.16753 -0.266567,0.28007 -0.0032,0.30631 0.230338,0.0229 0.251718,0.0998 0.252748,0.9081 0,0.6938 0.008,0.70191 0.65905,0.70392 0.25792,0.002 0.63897,0.25723 0.75705,0.50951 0.0445,0.0952 0.10508,0.21311 0.13457,0.26205 0.26138,0.43357 0.2741,0.74096 0.0429,1.03486 -0.0681,0.0866 -0.11407,0.16573 -0.10218,0.17591 0.0117,0.0102 0.0813,0.0496 0.15429,0.0875 0.18128,0.0943 0.22695,0.31518 0.10393,0.5029 -0.0547,0.0836 -0.0879,0.18615 -0.0737,0.22796 0.0141,0.0418 0.003,0.16233 -0.0265,0.26784 -0.0334,0.12232 -0.0283,0.28149 0.0141,0.43938 0.098,0.36404 0.0319,0.61301 -0.20126,0.7571 -0.32579,0.20133 -0.43328,0.88428 -0.20851,1.32489 0.10031,0.19664 0.12782,0.36354 0.13393,0.81304 0.005,0.33571 0.0384,0.6198 0.0834,0.69898 0.0963,0.16969 0.008,0.35455 -0.19338,0.40511 -0.23994,0.0602 -0.31069,0.53655 -0.11077,0.74604 0.13194,0.13826 0.15392,0.22193 0.17729,0.67516 0.0229,0.44059 0.0494,0.54704 0.17932,0.71737 1.00649,1.3196 -5.09982,2.51962 -9.884211,1.94247 z m 3.854583,-0.0245 c 3.977952,-0.27248 6.727795,-1.16106 5.849295,-1.89014 -0.0901,-0.0748 -0.61757,0.15209 -1.18293,0.50898 -0.633779,0.40008 -3.626579,0.88342 -4.873914,0.78711 -0.307914,-0.0237 -0.371006,-0.0237 -1.838336,0.002 -1.137631,0.02 -2.495998,-0.11656 -3.231962,-0.3252 -0.309814,-0.0879 -0.656761,-0.1837 -0.770913,-0.21299 -0.114165,-0.0293 -0.33988,-0.1738 -0.501558,-0.32113 -0.219313,-0.19983 -0.341918,-0.26788 -0.48257,-0.26788 -0.119512,0 -0.302276,-0.0782 -0.499153,-0.2136 -0.310497,-0.21363 -0.310497,-0.21363 -0.466209,-0.0978 -0.62485,0.4647 0.74192,1.34953 2.572189,1.66516 2.104339,0.36286 3.797108,0.47683 5.426061,0.36523 z m -1.12428,-0.77173 c 0.26332,-0.0373 0.463426,-0.034 0.622699,0.0102 0.143471,0.0399 0.453755,0.0512 0.798078,0.0291 2.469924,-0.15884 3.353297,-0.33082 4.482688,-0.87259 0.97495,-0.4677 0.98843,-0.48314 0.93621,-1.07499 -0.0476,-0.53848 -0.26411,-0.85503 -0.33417,-0.48844 -0.0211,0.11164 -0.008,0.14345 0.0524,0.12045 0.0507,-0.0196 0.0814,0.01 0.0814,0.0776 0,0.14756 -0.41244,0.41104 -0.75757,0.48394 -0.690181,0.14579 -0.941324,0.21189 -1.062069,0.27963 -0.07128,0.04 -0.314821,0.0727 -0.541278,0.0727 -0.22963,0 -0.504832,0.0389 -0.622094,0.0879 -0.156471,0.0654 -0.435097,0.0862 -1.08949,0.0815 -0.677001,-0.005 -0.947387,0.0165 -1.175704,0.0927 -0.715783,0.23924 -2.11397,0.28838 -2.443183,0.0859 -0.129238,-0.0795 -0.289921,-0.1155 -0.504005,-0.11291 -0.622912,0.008 -1.5084,-0.0368 -1.576388,-0.0788 -0.116771,-0.0721 -1.049321,-0.20506 -1.215701,-0.17325 -0.180549,0.0345 -0.613809,-0.1563 -0.822941,-0.36241 -0.186092,-0.18343 -0.36625,-0.27291 -0.549481,-0.27291 -0.107886,0 -0.190262,-0.0595 -0.285597,-0.20626 -0.208291,-0.32068 -0.40329,-0.3362 -0.511526,-0.0407 -0.05785,0.15798 -0.05785,0.15798 -0.06251,0.004 -0.0032,-0.0846 0.04863,-0.20216 0.113911,-0.26122 0.118007,-0.10677 0.164088,-0.32614 0.06852,-0.32614 -0.167098,0 -0.365017,0.58382 -0.369969,1.09114 -0.0032,0.25639 0.444205,0.57948 0.906963,0.656 0.151443,0.025 0.290881,0.11078 0.447102,0.27501 0.319128,0.33538 1.521419,0.68695 2.624064,0.76731 0.40771,0.0297 0.821318,0.078 0.9192,0.1073 0.20212,0.0606 1.289578,0.0304 1.87042,-0.0519 z m 0.738824,-1.09251 c 0.293563,-0.0444 0.693798,-0.12449 0.88952,-0.17789 0.267136,-0.0729 0.488759,-0.0882 0.889503,-0.0614 0.320537,0.0214 0.652178,0.009 0.830203,-0.0316 0.16307,-0.037 0.536681,-0.0858 0.830262,-0.10849 0.293527,-0.0227 0.591983,-0.074 0.663242,-0.11413 0.07124,-0.0401 0.194585,-0.0729 0.274106,-0.0729 0.07957,0 0.269427,-0.0552 0.421965,-0.12267 0.18106,-0.0801 0.33567,-0.10986 0.44545,-0.0857 0.13625,0.0299 0.19197,0.007 0.29359,-0.12255 0.17638,-0.22426 0.15917,-0.61788 -0.0271,-0.61788 -0.10363,0 -0.2033,-0.18703 -0.2033,-0.38154 0,-0.1828 -0.003,-0.18306 -0.28025,-0.034 -0.435079,0.23319 -0.584971,-0.23179 -0.19177,-0.59481 0.23972,-0.22129 0.24833,-0.24036 0.15532,-0.34309 -0.16712,-0.18472 0.0165,-0.54422 0.27812,-0.54422 0.22256,0 0.39436,-0.16362 0.39436,-0.37563 0,-0.10502 0.0436,-0.25316 0.0968,-0.32912 0.0532,-0.076 0.10414,-0.24869 0.11328,-0.38383 0.009,-0.13515 0.0389,-0.51667 0.0663,-0.8479 0.0478,-0.57807 0.0143,-0.76976 -0.0624,-0.35946 -0.11307,0.60279 -1.611648,2.26399 -2.180508,2.41715 -0.742271,0.1999 -2.120018,-0.11909 -2.569916,-0.59503 -0.09785,-0.1035 -0.268805,-0.22642 -0.379896,-0.27313 -0.255508,-0.10743 -0.568942,-0.44992 -0.727451,-0.79489 -0.06746,-0.14675 -0.182077,-0.3469 -0.254704,-0.44474 -0.07259,-0.0978 -0.175092,-0.25796 -0.227652,-0.35581 -0.05262,-0.0978 -0.09669,-0.14295 -0.09802,-0.10024 -0.0082,0.26456 -0.486058,1.07356 -0.695522,1.1772 -0.121195,0.06 -0.303781,0.22914 -0.405637,0.37594 -0.214947,0.3096 -0.517946,0.53369 -0.721694,0.53369 -0.08516,0 -0.218881,0.0809 -0.332246,0.20107 -0.352763,0.37394 -1.320158,0.64014 -1.764281,0.48551 -0.145077,-0.0505 -0.315294,-0.0922 -0.37819,-0.0927 -0.122409,-0.002 -0.864034,-0.45912 -0.864034,-0.53382 0,-0.17812 -1.088608,-1.65977 -1.164054,-1.58434 -0.117499,0.11751 0.05828,0.78824 0.236478,0.90244 0.156549,0.10035 0.189261,0.16186 0.204903,0.38544 0.01196,0.17307 0.06536,0.31788 0.152302,0.41433 0.354213,0.39286 0.119376,1.36534 -0.377681,1.56426 -0.458924,0.1836 -0.182194,0.93631 0.377172,1.02575 0.159605,0.0255 0.305195,0.1054 0.442619,0.24281 0.260987,0.26101 0.522839,0.36942 0.892062,0.36942 0.161232,0 0.502345,0.0449 0.75799,0.0999 0.255645,0.0549 0.718325,0.1052 1.028181,0.11176 0.906959,0.0192 1.291142,0.0624 1.443717,0.16236 0.25424,0.1666 0.699223,0.17034 1.728909,0.0145 z m -0.929204,-1.15386 c -0.217507,-0.0194 -0.405714,-0.0485 -0.418223,-0.0648 -0.01214,-0.0162 -0.06638,-0.0996 -0.119785,-0.18512 -0.08155,-0.13067 -0.150324,-0.15985 -0.432283,-0.18323 -0.602355,-0.0499 -0.620466,-0.45546 -0.03438,-0.77199 0.18987,-0.10256 0.18987,-0.10256 0.05971,-0.27859 -0.167535,-0.22655 -0.06409,-0.41697 0.289944,-0.53384 0.203807,-0.0673 0.241471,-0.10706 0.270482,-0.28572 0.114733,-0.70689 1.046874,-0.53213 1.046874,0.19628 0,0.26063 0,0.26163 0.268759,0.32911 0.589519,0.14845 0.620603,1.06076 0.0361,1.06076 -0.286533,0 -0.305563,0.0222 -0.235696,0.27519 0.0666,0.24121 -0.05883,0.50234 -0.233582,0.4864 -0.05638,-0.005 -0.280427,-0.0251 -0.497921,-0.0445 z m 0.625596,-0.21597 c 0.01741,-0.0455 0.0036,-0.16407 -0.03133,-0.26352 -0.08392,-0.24074 0.0141,-0.35624 0.302999,-0.35624 0.52423,0 0.495452,-0.72998 -0.03465,-0.87989 -0.239144,-0.0677 -0.245132,-0.0758 -0.273461,-0.37051 -0.03638,-0.37862 -0.192317,-0.55236 -0.495784,-0.55236 -0.253416,0 -0.395264,0.14927 -0.34229,0.36026 0.04587,0.18277 -0.05382,0.29449 -0.304586,0.34155 -0.343895,0.0645 -0.413194,0.18196 -0.256681,0.43514 0.125169,0.20256 0.126306,0.2155 0.02405,0.2761 -0.364135,0.21542 -0.480851,0.32012 -0.499094,0.44775 -0.02828,0.19919 0.123528,0.29255 0.413212,0.25369 0.219664,-0.0295 0.252712,-0.0147 0.420852,0.18938 0.168744,0.20477 0.200615,0.219 0.425662,0.18977 0.133763,-0.0174 0.296596,-0.0102 0.361866,0.0161 0.141925,0.057 0.246128,0.0256 0.289394,-0.0872 z m -0.995778,-0.56503 c -0.339803,-0.4038 -0.19304,-0.80178 0.357087,-0.96837 0.529123,-0.16024 0.5764,0.84694 0.05006,1.06684 -0.256449,0.10718 -0.228398,0.11398 -0.407146,-0.0985 z m 0.55381,-0.15168 c 0.355286,-0.45164 -0.114934,-0.93535 -0.5026,-0.51704 -0.233819,0.2523 -0.08373,0.6733 0.240061,0.6733 0.08024,0 0.191926,-0.0665 0.262539,-0.15626 z m 6.586767,0.12661 c 0.028,-0.28218 0.0387,-0.29737 0.21733,-0.31471 0.23909,-0.0232 0.27052,-0.11129 0.14027,-0.39302 -0.0815,-0.17632 -0.0929,-0.27798 -0.0514,-0.46252 0.038,-0.16891 0.0322,-0.26178 -0.0198,-0.32479 -0.0403,-0.0486 -0.0657,-0.1924 -0.0565,-0.31968 0.0306,-0.42226 -0.22797,-0.40433 -0.28507,0.0198 -0.0351,0.26094 -0.14712,0.35905 -0.48915,0.4286 -0.17494,0.0356 -0.27777,0.24157 -0.17288,0.34641 0.11792,0.118 0.0683,0.27111 -0.14238,0.43923 -0.337704,0.26944 -0.24441,0.70821 0.0994,0.46742 0.25296,-0.1772 0.37708,-0.11965 0.34791,0.16133 -0.016,0.1531 0.11426,0.28685 0.25915,0.26618 0.10177,-0.0145 0.12902,-0.0704 0.15341,-0.31422 z m -0.32279,-0.51725 c -0.12738,-0.18186 -0.1155,-0.41576 0.0306,-0.60148 0.12955,-0.16473 0.25033,-0.2114 0.19866,-0.0768 -0.0171,0.0437 0.0104,0.11366 0.0611,0.15552 0.10604,0.088 0.1182,0.25695 0.0303,0.42122 -0.0433,0.0809 -0.0422,0.1147 0.004,0.1147 0.0357,0 0.0484,0.0267 0.0283,0.0593 -0.064,0.10364 -0.2568,0.064 -0.35245,-0.0725 z m -11.976435,0.15935 c 0.265784,-0.28184 0.266371,-1.01951 0,-1.33482 -0.120923,-0.14371 -0.141771,-0.20798 -0.09559,-0.29427 0.113523,-0.21213 -0.01564,-0.41473 -0.264062,-0.41473 -0.243863,0 -0.293113,0.14119 -0.120727,0.34607 0.152634,0.18144 0.152634,0.18144 0,0.28227 -0.207999,0.13626 -0.175128,0.32094 0.07182,0.40447 0.325261,0.10996 0.500935,0.45233 0.342918,0.66806 -0.12466,0.17011 -0.407833,-0.0639 -0.432847,-0.35764 -0.01564,-0.18146 -0.119731,-0.31498 -0.134432,-0.17202 -0.0032,0.0245 -0.01623,0.13788 -0.03087,0.25202 -0.05096,0.40375 -0.04024,0.52978 0.05769,0.6792 0.143885,0.21963 0.363744,0.19837 0.60612,-0.0586 z m 3.059965,-1.03402 c 0.275262,-0.0859 0.455442,-0.1857 0.586581,-0.32477 0.11773,-0.12477 0.287552,-0.22547 0.448726,-0.26605 0.213029,-0.0536 0.30805,-0.12799 0.531883,-0.41624 0.177557,-0.22863 0.350844,-0.38226 0.49743,-0.44091 0.31453,-0.12584 0.503068,-0.62689 0.298556,-0.79347 -0.06924,-0.0565 -0.162915,-0.20936 -0.208018,-0.33984 -0.08214,-0.23718 -0.08214,-0.23718 -0.338803,0.0304 -0.141143,0.14715 -0.334123,0.30726 -0.428836,0.3558 -0.09473,0.0486 -0.226006,0.17029 -0.291744,0.27054 -0.06578,0.10027 -0.305286,0.31361 -0.532234,0.47411 -0.227007,0.16051 -0.482688,0.37518 -0.568138,0.4771 -0.155867,0.18579 -0.677806,0.4592 -0.746144,0.39084 -0.01983,-0.02 0.05133,-0.0832 0.158563,-0.14043 0.231413,-0.12342 0.01137,-0.15846 -0.348297,-0.0554 -0.160996,0.0462 -0.204181,0.0334 -0.31408,-0.093 -0.100856,-0.11603 -0.162774,-0.13874 -0.297556,-0.10914 -0.149465,0.0328 -0.166416,0.0228 -0.138952,-0.0822 0.03988,-0.15268 -0.179689,-0.21863 -0.421592,-0.12664 -0.239457,0.091 -0.270405,0.0205 -0.0346,-0.0787 0.226238,-0.0951 -0.132276,-0.59739 -0.463272,-0.6491 -0.154534,-0.0241 -0.155216,-0.026 -0.02528,-0.0697 0.07341,-0.0247 0.13345,-0.0537 0.13345,-0.0645 0,-0.011 -0.06004,-0.13468 -0.13345,-0.27534 -0.07337,-0.14067 -0.17953,-0.36329 -0.235969,-0.49471 -0.137346,-0.31997 -0.328372,-0.51922 -0.451995,-0.47136 -0.0538,0.0207 -0.170822,0.0525 -0.26011,0.0706 -0.135582,0.0273 -0.156626,0.0558 -0.127497,0.17186 0.01919,0.0765 0,0.2741 -0.04197,0.43907 -0.07253,0.28308 -0.06954,0.30727 0.05334,0.43015 0.130239,0.13022 0.130239,0.13022 0.134941,-0.10534 0.0045,-0.23556 0.0045,-0.23556 0.09463,0.019 0.04954,0.13993 0.154375,0.29658 0.233013,0.34808 0.07864,0.0515 0.206413,0.22008 0.28401,0.37456 0.418619,0.83345 1.079646,1.46888 1.577821,1.5168 0.08148,0.008 0.264903,0.0676 0.407556,0.13273 0.187165,0.0855 0.302667,0.10467 0.415108,0.0689 0.08569,-0.0272 0.33452,-0.10532 0.553028,-0.17355 z m 7.272346,-0.20925 c 0.342877,-0.19603 0.951204,-0.69389 0.955414,-0.78193 0.003,-0.0387 0.15077,-0.23883 0.33089,-0.44477 0.54328,-0.62104 0.76496,-1.18288 0.49456,-1.25357 -0.11233,-0.0294 -0.12228,-0.061 -0.0875,-0.27813 0.0302,-0.18942 0.022,-0.23525 -0.0364,-0.20197 -0.16701,0.0951 -0.2831,0.22653 -0.2831,0.32035 0,0.0545 -0.0667,0.16175 -0.14823,0.23835 -0.0815,0.0766 -0.14846,0.16797 -0.14864,0.20307 0,0.11154 -0.59979,0.95035 -0.732262,1.02531 -0.06999,0.0396 -0.27397,0.11536 -0.453404,0.16837 -0.179376,0.053 -0.370811,0.13635 -0.425372,0.18515 -0.234305,0.20947 -1.400792,0.0817 -1.733388,-0.18979 -0.100992,-0.0824 -0.330408,-0.26643 -0.509784,-0.40885 -0.24977,-0.19829 -0.354072,-0.33188 -0.445397,-0.57053 -0.140575,-0.36757 -0.283991,-0.49013 -0.398038,-0.34031 -0.0417,0.0547 -0.17707,0.10747 -0.300948,0.11728 -0.225243,0.0178 -0.225243,0.0178 -0.05287,0.25506 0.09485,0.13045 0.188324,0.30394 0.20784,0.38545 0.05115,0.21403 0.514091,0.7493 0.722554,0.83554 0.09786,0.0405 0.276203,0.17303 0.396343,0.29456 0.513363,0.51946 2.060154,0.77728 2.647731,0.44136 z m -7.206039,-0.96173 c 0.136428,-0.12553 0.400507,-0.34324 0.586754,-0.4837 0.186328,-0.14049 0.354486,-0.30503 0.373688,-0.36568 0.01919,-0.0607 0.133709,-0.16834 0.254317,-0.23932 0.320892,-0.18881 0.798332,-0.72824 0.619662,-0.70001 -0.14821,0.0234 -0.248852,-0.0222 -0.282446,-0.12785 -0.07089,-0.22342 -0.496038,-0.43939 -0.711514,-0.36143 -0.259951,0.094 -0.38612,0.084 -0.602105,-0.0477 -0.157331,-0.096 -0.220972,-0.10415 -0.394732,-0.0508 -0.178121,0.0546 -0.23687,0.0452 -0.419142,-0.0674 -0.119317,-0.0737 -0.243745,-0.11141 -0.284578,-0.0862 -0.190066,0.11748 -1.319221,0.0326 -1.433268,-0.10769 -0.07592,-0.0934 -0.158686,-0.12914 -0.266826,-0.1151 -0.235578,0.0306 -0.260928,0.0653 -0.160014,0.21935 0.126597,0.19326 0.11552,0.39826 -0.02646,0.4869 -0.178653,0.11154 -0.147505,0.26414 0.186837,0.91495 0.655193,1.27559 1.836222,1.79773 2.559776,1.13175 z m 6.593343,0.008 c 0.06521,-0.0417 0.252026,-0.10814 0.415054,-0.14767 0.445888,-0.10798 0.609503,-0.21123 0.739902,-0.46679 0.06505,-0.12758 0.145781,-0.24894 0.179334,-0.26967 0.03356,-0.0207 0.11701,-0.14931 0.18543,-0.28569 0.0685,-0.13643 0.17853,-0.30711 0.24476,-0.37939 0.12327,-0.13457 0.14741,-0.33877 0.0734,-0.62154 -0.0306,-0.11719 -0.008,-0.20822 0.0871,-0.34097 0.13036,-0.18307 0.081,-0.25842 -0.0589,-0.0899 -0.056,0.0675 -0.13885,0.0818 -0.3186,0.055 -0.216939,-0.0323 -0.261533,-0.0166 -0.417045,0.14598 -0.211679,0.22143 -0.297188,0.22603 -0.583821,0.0313 -0.18787,-0.12765 -0.227571,-0.1368 -0.257309,-0.0593 -0.01919,0.0504 -0.09238,0.0926 -0.162265,0.0938 -0.06991,0.002 -0.193803,0.0402 -0.275356,0.0868 -0.218022,0.12467 -0.703979,0.1103 -0.976853,-0.0288 -0.231,-0.11779 -0.231,-0.11779 -0.516869,0.0657 -0.284028,0.18227 -0.335083,0.18771 -0.712141,0.0759 -0.06885,-0.0205 -0.130299,0.0274 -0.194291,0.15105 -0.06605,0.12776 -0.136641,0.18094 -0.24028,0.18094 -0.164124,0 -0.205453,0.15908 -0.05616,0.21636 0.106121,0.0407 0.354031,0.45658 0.405732,0.68047 0.02287,0.0988 0.101133,0.18261 0.214593,0.22957 0.09824,0.0408 0.178635,0.0942 0.178635,0.11897 0,0.42079 1.584532,0.85292 2.045921,0.55792 z m 3.11126,-1.08778 c 0.12713,-0.23762 0.0567,-0.5969 -0.11695,-0.5969 -0.10559,0 -0.19698,0.44487 -0.13094,0.63748 0.0383,0.11188 0.17851,0.0889 0.24789,-0.0406 z m -7.066757,-0.25592 c 0.05691,-0.21606 0.186778,-0.24075 0.526108,-0.10004 0.257896,0.10701 0.400312,-0.005 0.355778,-0.27933 -0.0301,-0.18519 -0.02346,-0.19284 0.186914,-0.21032 0.34446,-0.0286 0.33622,-0.25757 -0.01982,-0.54929 -0.273597,-0.22419 -0.273597,-0.22419 -0.142553,-0.36367 0.2688,-0.28609 -0.06121,-0.4156 -0.495043,-0.1943 -0.214106,0.10924 -0.272714,0.11678 -0.427504,0.0548 -0.397592,-0.15908 -0.492714,-0.1719 -0.619115,-0.0834 -0.14504,0.1016 -0.160778,0.27192 -0.03479,0.37647 0.144804,0.12022 0.102561,0.28006 -0.118648,0.44879 -0.300007,0.22883 -0.275225,0.33234 0.07415,0.31028 0.281659,-0.0178 0.281659,-0.0178 0.311984,0.30835 0.04761,0.51342 0.295773,0.68705 0.402504,0.2817 z M 94.50797,152.641 c -0.217881,-0.31108 -0.05581,-0.75772 0.27487,-0.75772 0.190693,0 0.463053,0.26796 0.463053,0.45555 0,0.3552 -0.544547,0.57822 -0.737923,0.30217 z m 0.503091,-0.0954 c 0.170213,-0.13782 0.125833,-0.36819 -0.09362,-0.48559 -0.205526,-0.11004 -0.347592,-0.018 -0.373002,0.24177 -0.03128,0.31897 0.214948,0.44764 0.466619,0.24382 z m 6.235059,0.25686 c 0.0727,-0.1597 0.16352,-0.18743 0.26878,-0.0821 0.0954,0.0953 0.2614,-0.25064 0.24402,-0.50846 -0.008,-0.12511 0.0253,-0.24705 0.0872,-0.31541 0.1515,-0.16742 0.12243,-0.29556 -0.0919,-0.40537 -0.24494,-0.12552 -0.2892,-0.1937 -0.2493,-0.3841 0.0592,-0.28266 -0.24194,-0.3696 -0.47459,-0.13698 -0.0651,0.0651 -0.0726,0.12492 -0.0298,0.23719 0.0939,0.24699 0.074,0.27426 -0.16996,0.23303 -0.16855,-0.0285 -0.24684,-0.0145 -0.30377,0.0541 -0.0942,0.11351 0.009,0.27033 0.17876,0.27033 0.19268,0 0.19229,0.12613 0,0.30257 -0.12688,0.11587 -0.18279,0.21634 -0.17004,0.30565 0.0192,0.13687 0.032,0.13868 0.42813,0.0615 0.1799,-0.035 0.19576,0.0692 0.063,0.41252 -0.0652,0.16844 0.14258,0.12654 0.22051,-0.0445 z m 0.006,-0.83039 c 0.003,-0.44489 0.003,-0.44489 0.18593,-0.30429 0.24057,0.1848 0.26655,0.40429 0.071,0.59983 -0.22651,0.22652 -0.26005,0.18794 -0.25695,-0.29554 z m -12.050864,0.41073 c 0.06468,-0.0779 0.05955,-0.12705 -0.03088,-0.29497 -0.1203,-0.22341 -0.05846,-0.38243 0.148755,-0.38243 0.367249,0 0.332014,-0.42674 -0.03911,-0.47443 -0.192903,-0.0248 -0.229999,-0.0515 -0.226065,-0.16307 0.0032,-0.0734 -0.02919,-0.13343 -0.07085,-0.13343 -0.04156,0 -0.110428,-0.0724 -0.152966,-0.16093 -0.112151,-0.23327 -0.353704,-0.3539 -0.56199,-0.28065 -0.211797,0.0745 -0.238889,0.21669 -0.083,0.43557 0.165162,0.232 0.155572,0.28118 -0.0635,0.32495 -0.315217,0.0631 -0.496725,0.45199 -0.210933,0.45199 0.215239,0 0.274202,0.097 0.201948,0.33245 -0.08968,0.29225 0,0.36598 0.329113,0.2745 0.226161,-0.0626 0.260755,-0.0581 0.340644,0.0449 0.108454,0.13972 0.313725,0.15225 0.418892,0.0255 z m -0.843167,-0.64421 c -0.05407,-0.11868 -0.05191,-0.18737 0.01,-0.31489 0.04347,-0.0897 0.0729,-0.1982 0.06531,-0.24116 -0.01018,-0.0578 0.0141,-0.0631 0.09416,-0.0203 0.39291,0.21033 0.473681,0.68069 0.1218,0.70982 -0.189497,0.0156 -0.232172,-0.004 -0.291194,-0.13341 z m 8.601547,0.43899 c 0.248655,-0.18012 0.248655,-0.18012 0.433392,-0.0486 0.271014,0.19299 0.729525,0.21709 1.047129,0.0551 0.474098,-0.24183 0.512131,-0.24653 0.725219,-0.0893 0.246032,0.18153 0.244722,0.18163 0.497193,-0.04 0.180731,-0.1587 0.239516,-0.17889 0.421651,-0.14472 0.28162,0.0528 0.39546,-0.0389 0.31416,-0.25291 -0.0789,-0.20737 0.12356,-0.39387 0.37326,-0.34392 0.15379,0.0307 0.15986,0.0241 0.10602,-0.11761 -0.0754,-0.19832 0.009,-0.34981 0.24038,-0.43038 0.3036,-0.10587 0.58744,0.0763 0.49488,0.31758 -0.0643,0.16757 0.094,0.0891 0.18831,-0.0933 0.27896,-0.53942 -0.38859,-1.42638 -1.13362,-1.50617 -0.44868,-0.048 -0.51638,-0.0115 -0.48884,0.26355 0.0198,0.20005 0.46384,0.45905 0.46384,0.27068 0,-0.04 0.0534,-0.12106 0.11859,-0.18012 0.14103,-0.12754 0.14829,-0.10029 0.0327,0.12241 -0.1494,0.28797 0.0283,0.36537 0.26381,0.11479 0.0766,-0.0815 0.18131,-0.14682 0.2327,-0.14513 0.068,0.002 0.0557,0.0294 -0.0451,0.0996 -0.13858,0.0965 -0.13858,0.0965 0,0.20312 0.1386,0.10663 0.1386,0.10663 -0.0706,0.10795 -0.11505,0.002 -0.26591,0.0411 -0.33525,0.0896 -0.0693,0.0486 -0.29031,0.12662 -0.49097,0.17342 -0.20067,0.0468 -0.406633,0.11977 -0.457606,0.16207 -0.0553,0.0459 -0.287243,0.0829 -0.574836,0.0915 -0.939107,0.0283 -2.379773,0.17218 -2.500168,0.2497 -0.100328,0.0645 -0.1726,0.062 -0.43191,-0.0149 -0.195349,-0.0581 -0.360315,-0.0744 -0.442614,-0.044 -0.0731,0.027 -0.20418,0.0231 -0.296032,-0.009 -0.09067,-0.0316 -0.264257,-0.0398 -0.385807,-0.0182 -0.302157,0.0536 -0.784081,0.0347 -1.436514,-0.0563 -0.146786,-0.0205 -0.413685,-0.0151 -0.593042,0.012 -0.267509,0.0403 -0.36349,0.0296 -0.533744,-0.0597 -0.154261,-0.081 -0.287515,-0.10129 -0.519219,-0.0792 -0.171464,0.0162 -0.395006,0.006 -0.496821,-0.0234 -0.118085,-0.0339 -0.227007,-0.0307 -0.300789,0.009 -0.08554,0.0458 -0.17787,0.037 -0.354349,-0.0336 -0.131235,-0.0525 -0.349293,-0.0915 -0.484584,-0.0867 -0.135255,0.005 -0.386002,-0.0114 -0.557257,-0.0359 -0.221446,-0.0318 -0.311338,-0.025 -0.311338,0.0237 0,0.0701 -0.400567,-0.16203 -0.635131,-0.36813 -0.09923,-0.0871 -0.183095,-0.10671 -0.344909,-0.0805 -0.151484,0.0246 -0.206923,0.0141 -0.190185,-0.0362 0.0131,-0.0389 0.114798,-0.0867 0.22628,-0.1062 0.111487,-0.0194 0.333405,-0.10632 0.493223,-0.19294 0.15976,-0.0867 0.354073,-0.15753 0.43177,-0.15753 0.16356,0 0.253162,-0.16518 0.131398,-0.24232 -0.127461,-0.0807 -0.180044,-0.0648 -0.213852,0.0644 -0.03347,0.12811 -0.106707,0.15434 -0.165457,0.0593 -0.06282,-0.10161 -0.316176,-0.065 -0.435334,0.0629 -0.07778,0.0835 -0.218744,0.13299 -0.445201,0.15638 -0.581315,0.06 -0.727019,0.43458 -0.192903,0.49603 0.218804,0.0252 0.328094,0.0756 0.449407,0.20754 0.08816,0.0959 0.211288,0.20448 0.273579,0.24136 0.06229,0.0369 0.110918,0.12591 0.108004,0.19779 -0.0041,0.10779 0.02028,0.12586 0.140338,0.10294 0.21076,-0.0403 0.357246,0.13793 0.404227,0.49185 0.04871,0.36715 0.143262,0.43265 0.495456,0.34327 0.193977,-0.0492 0.305309,-0.0468 0.462308,0.01 0.167162,0.0604 0.234073,0.0602 0.349143,-0.002 0.119626,-0.064 0.175479,-0.0603 0.350921,0.0233 0.240844,0.11484 0.401331,0.12529 0.566574,0.0368 0.09451,-0.0505 0.151715,-0.0334 0.297183,0.089 0.204944,0.17242 0.247778,0.17818 0.608584,0.0817 0.226084,-0.0605 0.274752,-0.0565 0.360888,0.0296 0.131063,0.13106 0.242545,0.12558 0.484371,-0.0239 0.23104,-0.14279 0.226243,-0.12772 0.111309,-0.34998 -0.194176,-0.37555 0.244077,-0.63925 0.686946,-0.41329 0.238011,0.1214 0.238011,0.1214 0.550895,-0.0317 0.32136,-0.15722 0.445065,-0.15385 0.644425,0.0174 0.127306,0.10931 0.133704,0.26858 0.0151,0.36727 -0.403836,0.33511 0.824255,0.7348 1.268633,0.41288 z m -1.481445,-1.32529 c 0.478496,0.10348 1.157497,0.11337 1.932516,0.0282 0.326158,-0.0358 0.859883,-0.081 1.186058,-0.10035 0.326139,-0.0194 0.624345,-0.0608 0.662637,-0.0922 0.03829,-0.0313 0.162032,-0.0396 0.274888,-0.0184 0.121095,0.0227 0.220954,0.0131 0.243545,-0.0235 0.02114,-0.0341 0.19715,-0.0932 0.391205,-0.13143 0.52576,-0.10344 0.6109,-0.18655 0.35249,-0.34408 -0.25885,-0.15778 -0.37668,-0.16197 -0.33743,-0.012 0.0346,0.13265 -0.0914,0.18097 -0.475487,0.1822 -0.255176,0.002 -0.304817,-0.0413 -0.187187,-0.15888 0.164088,-0.16407 -0.279799,-0.43334 -0.714488,-0.43334 -0.116106,0 -0.140752,0.61 -0.02797,0.69247 0.059,0.0431 0.09551,0.0797 0.08112,0.0813 -0.751842,0.0815 -0.785786,0.0635 -0.775,-0.41325 0.0063,-0.28159 -0.01273,-0.37209 -0.085,-0.39977 -0.147268,-0.0565 -0.22667,0.0639 -0.143999,0.21833 0.10156,0.18981 -0.02028,0.24472 -0.313552,0.14129 -0.129635,-0.0457 -0.291099,-0.0832 -0.358715,-0.0832 -0.09571,0 -0.107217,-0.0159 -0.05184,-0.0712 0.176716,-0.17674 0.08557,-0.34394 -0.187501,-0.34394 -0.258659,0 -0.258659,0 -0.29912,0.44622 -0.04406,0.48626 -0.01783,0.58668 0.142785,0.54469 0.05793,-0.0151 0.13686,-0.008 0.175365,0.0159 0.136287,0.0842 -0.506711,0.10671 -0.857454,0.03 -0.195686,-0.0428 -0.298634,-0.0801 -0.228708,-0.0828 0.255622,-0.01 0.315744,-1.07238 0.06069,-1.07238 -0.178457,0 -0.233386,0.0575 -0.150346,0.1576 0.05431,0.0655 -0.01682,0.0795 -0.400822,0.0787 -0.311219,0 -0.437703,-0.0194 -0.379599,-0.0561 0.122604,-0.0775 0.07685,-0.0994 -0.294801,-0.14071 -0.497643,-0.0553 -0.833454,0.85 -0.376917,1.01618 0.139479,0.0508 0.07194,0.0625 -0.383182,0.0664 -0.499313,0.004 -0.549641,-0.005 -0.522412,-0.0991 0.1221,-0.4213 0.0665,-0.93404 -0.103379,-0.95346 -0.337416,-0.0386 -0.476291,0.0336 -0.371793,0.193 0.121432,0.18533 0.06272,0.22779 -0.157467,0.1139 -0.122882,-0.0636 -0.266886,-0.0831 -0.452054,-0.0612 -0.149424,0.0176 -0.23832,0.0184 -0.197564,0.002 0.213379,-0.0873 -0.09808,-0.30161 -0.316545,-0.21778 -0.183291,0.0703 -0.205549,0.79035 -0.02437,0.79035 0.277158,0 0.0878,0.10808 -0.253393,0.14463 -0.54543,0.0584 -0.568452,0.0404 -0.531902,-0.4151 0.03056,-0.38183 0.03056,-0.38183 -0.182941,-0.38183 -0.219254,0 -0.449762,0.22906 -0.285555,0.2838 0.186851,0.0623 0.02619,0.13129 -0.3058,0.13129 -0.397357,0 -0.562249,-0.0802 -0.447925,-0.218 0.102424,-0.12344 -0.05423,-0.0975 -0.408984,0.0676 -0.360883,0.16802 -0.367559,0.18961 -0.119121,0.38643 0.211697,0.16773 1.019587,0.27648 2.45943,0.33122 0.431028,0.0165 0.862074,0.0627 0.958,0.10303 0.106276,0.0447 0.309674,0.0613 0.52098,0.0425 0.334223,-0.0297 0.919686,0.0149 1.414024,0.10805 0.158977,0.0299 0.304017,0.0176 0.439544,-0.0371 0.134682,-0.0544 0.273456,-0.0663 0.415131,-0.0357 z m 1.022638,-0.87136 c 0.0216,-0.30725 0.05818,-0.82819 0.08165,-1.1576 0.04252,-0.59678 -0.06759,-0.84557 -0.278663,-0.62961 -0.08621,0.0881 -0.131317,2.19736 -0.04918,2.29635 0.146841,0.17693 0.207095,0.0524 0.246191,-0.50914 z m -2.460862,0.41915 c 0.09026,-0.7391 0.145627,-2.36651 0.08438,-2.48091 -0.152443,-0.28486 -0.384656,-0.15061 -0.427368,0.2471 -0.133649,1.24388 -0.126524,2.23252 0.01646,2.29052 0.183936,0.0746 0.313198,0.0522 0.326453,-0.0567 z m -2.454141,-1.32087 c 0.01919,-0.69129 0.02619,-1.26505 0.01605,-1.275 -0.286029,-0.28603 -0.660245,1.95682 -0.427604,2.56308 0.198074,0.51621 0.377526,-0.0455 0.411416,-1.28808 z m 6.922302,1.26161 c 0.05227,-0.0976 0.20408,-2.31099 0.160932,-2.34609 -0.08786,-0.0715 -0.283501,-0.0726 -0.354131,-0.002 -0.128302,0.12832 -0.236088,2.2384 -0.12376,2.42275 0.05419,0.0889 0.254726,0.0416 0.316959,-0.0748 z m 1.550042,-0.68133 c 0.1042,-1.45559 0.0611,-1.80869 -0.220509,-1.80869 -0.186601,0 -0.31132,1.69527 -0.164893,2.24182 0.107281,0.4006 0.344872,0.13362 0.385402,-0.43313 z m -9.662108,-0.87468 c 0.02114,-1.01865 0.01137,-1.21211 -0.06442,-1.275 -0.295932,-0.24545 -0.363216,0.005 -0.363216,1.35299 0,1.82762 0.389567,1.75653 0.42764,-0.078 z m 7.333541,-0.80058 c 0.0076,-0.81401 -0.215398,-1.23623 -0.313121,-0.59302 -0.130144,0.8564 -0.08294,2.52849 0.0719,2.54636 0.182881,0.0212 0.226243,-0.32939 0.241217,-1.95334 z m 1.775421,1.60113 c -0.01741,-0.15147 -0.03669,-0.16229 -0.270759,-0.15183 -0.190398,0.008 -0.252062,-0.0108 -0.252062,-0.0785 0,-0.15837 -0.206217,-0.0619 -0.225674,0.10558 -0.01605,0.13594 0.01114,0.16358 0.207586,0.21575 0.43402,0.1151 0.562149,0.0936 0.540909,-0.091 z m -6.749465,-0.72644 c 0.05221,-1.40927 0,-1.98659 -0.177888,-1.98659 -0.13586,0 -0.30811,2.52498 -0.189402,2.77573 0.166125,0.35077 0.338825,-0.0205 0.36729,-0.78914 z m 2.832823,-0.52378 c 0.01037,-0.82057 -0.0051,-1.25781 -0.04443,-1.26268 -0.03328,-0.004 -0.100546,-0.007 -0.149446,-0.007 -0.0489,0 -0.115656,0.003 -0.148269,0.007 -0.144239,0.018 -0.07235,2.43737 0.07411,2.49602 0.244036,0.0977 0.251516,0.0633 0.268035,-1.23334 z m -4.552551,1.03136 c 0,-0.35438 -0.428363,-0.34028 -0.463367,0.0151 -0.01801,0.18429 -0.01291,0.18881 0.222405,0.18881 0.235069,0 0.240962,-0.005 0.240962,-0.20406 z m 1.186021,-0.12212 c 0,-0.19727 -0.01018,-0.20755 -0.205471,-0.20755 -0.263102,0 -0.409452,0.20905 -0.235442,0.3363 0.225811,0.16513 0.440913,0.10235 0.440913,-0.12875 z m 1.274996,0.0889 c 0.07723,-0.24347 -0.01742,-0.36298 -0.256623,-0.32336 -0.342077,0.0567 -0.375548,0.0772 -0.355404,0.21687 0.03174,0.21921 0.547721,0.30899 0.612027,0.10649 z m 3.706332,-0.0256 c 0,-0.17413 -0.157608,-0.23887 -0.377621,-0.15524 -0.288985,0.1099 -0.193845,0.29952 0.150283,0.29952 0.201265,0 0.227338,-0.0165 0.227338,-0.14428 z m -2.144644,-0.085 c 0.03056,-0.21645 -0.06333,-0.26453 -0.427759,-0.21901 -0.596703,0.0746 -0.524995,0.40327 0.08173,0.37465 0.292545,-0.0137 0.328213,-0.0299 0.346029,-0.15564 z m 1.550097,-1.57663 c 0.09038,-0.16892 0.05527,-0.77012 -0.05734,-0.98049 -0.09811,-0.18337 -0.363157,0.24599 -0.402112,0.65144 -0.04093,0.42547 0.283523,0.65784 0.459452,0.32905 z m 2.195427,-0.4432 c 0.09428,-0.33938 0.0216,-0.95323 -0.112878,-0.95323 -0.07186,0 -0.409452,0.65902 -0.425312,0.83023 -0.02496,0.26874 0.0032,0.42341 0.06801,0.38299 0.03501,-0.0216 0.07822,0.018 0.09666,0.0885 0.04714,0.18018 0.289453,-0.0459 0.373516,-0.34851 z m -4.673532,0.14328 c 0.07098,-0.15577 0.06938,-0.16356 -0.177593,-0.84701 -0.113429,-0.31388 -0.113429,-0.31388 -0.194627,-0.11863 -0.242785,0.58429 0.118671,1.52211 0.37222,0.96564 z m 5.907862,-0.10607 c 0.39689,-0.42245 0.19485,-1.33222 -0.211123,-0.95075 -0.388294,0.36484 -0.454423,0.97914 -0.112583,1.04597 0.07008,0.0137 0.14273,0.0286 0.161542,0.033 0.01901,0.005 0.09175,-0.0533 0.162164,-0.12821 z m -9.750659,-0.30638 c 0.133136,-0.20317 0.0479,-0.84319 -0.140793,-1.05735 -0.04763,-0.0541 -0.297147,0.66719 -0.297147,0.85912 0,0.30198 0.285343,0.43114 0.43794,0.19823 z m 7.429303,-0.37225 c 0.102657,-0.24564 0.08806,-1.09752 -0.02046,-1.20621 -0.07901,-0.079 -0.445769,0.73543 -0.445769,0.98996 0,0.45538 0.307032,0.59774 0.4664,0.21625 z m -2.093471,-0.0933 c 0.108763,-0.22266 0.108568,-0.232 -0.0151,-0.59719 -0.06889,-0.20406 -0.12531,-0.42915 -0.12531,-0.50025 0,-0.21489 -0.09672,-0.14612 -0.229899,0.16344 -0.323184,0.75122 0.02737,1.63573 0.370028,0.934 z m -2.81979,-0.0555 c 0.173855,-0.28597 0.20091,-0.61518 0.08156,-0.99083 -0.114306,-0.35979 -0.485571,0.22489 -0.485571,0.76473 0,0.4065 0.219609,0.52942 0.404014,0.2261 z m -1.616872,1.01456 c -0.227535,-0.17895 -0.197151,-0.42361 0.137446,-1.10792 0.30243,-0.61837 0.360061,-0.5498 0.527341,0.6275 0.05703,0.40147 -0.371479,0.71117 -0.664787,0.48042 z m 0.434415,-0.13396 c 0.09706,-0.0615 0.06538,-0.89097 -0.03801,-0.99431 -0.09383,-0.0938 -0.427604,0.51861 -0.42835,0.78578 0,0.27209 0.214262,0.36822 0.466346,0.20853 z"
       style="fill:#000000;stroke-width:0.357598"
       id="path96951-7-7-48" />
  </g>
</svg>
