<?xml version="1.0" encoding="UTF-8" standalone="no"?>
<!-- Created with Inkscape (http://www.inkscape.org/) -->

<svg
   width="10.221574mm"
   height="13.989679mm"
   viewBox="0 0 10.221574 13.989678"
   version="1.1"
   id="svg5985"
   inkscape:version="1.2.2 (b0a8486541, 2022-12-01)"
   sodipodi:docname="christmas_eve.svg"
   xmlns:inkscape="http://www.inkscape.org/namespaces/inkscape"
   xmlns:sodipodi="http://sodipodi.sourceforge.net/DTD/sodipodi-0.dtd"
   xmlns="http://www.w3.org/2000/svg"
   xmlns:svg="http://www.w3.org/2000/svg">
  <sodipodi:namedview
     id="namedview5987"
     pagecolor="#ffffff"
     bordercolor="#000000"
     borderopacity="0.25"
     inkscape:showpageshadow="2"
     inkscape:pageopacity="0.0"
     inkscape:pagecheckerboard="0"
     inkscape:deskcolor="#d1d1d1"
     inkscape:document-units="mm"
     showgrid="false"
     inkscape:zoom="5.3088146"
     inkscape:cx="32.587312"
     inkscape:cy="34.000057"
     inkscape:window-width="956"
     inkscape:window-height="1058"
     inkscape:window-x="0"
     inkscape:window-y="918"
     inkscape:window-maximized="1"
     inkscape:current-layer="g118372" />
  <defs
     id="defs5982">
    <clipPath
       clipPathUnits="userSpaceOnUse"
       id="clipPath25107-2">
      <path
         id="path25109-8"
         style="fill:#ff0000;fill-opacity:1;fill-rule:nonzero;stroke:none;stroke-width:323.257"
         d="m 422.36252,921.96649 -226.92065,0.0423 v 505.51131 c 0.43641,-0.046 0.8707,-0.085 1.30626,-0.1397 0.68488,-0.089 1.36171,-0.2666 2.04997,-0.3217 4.17402,-0.3344 0.72509,-0.042 3.72025,-0.085 0.49482,0 0.98626,-0.059 1.48023,-0.089 2.64088,-0.2032 5.26059,-0.4897 7.91163,-0.5206 3.07432,-0.042 0.33016,0.1185 2.88511,-0.059 0.13122,0 0.26667,-0.042 0.39789,-0.051 h 0.0423 c 0,0 0.0508,0 0.0677,0 0.0762,0 0.15238,-0.042 0.23281,-0.042 0.0423,0 0.0423,-0.042 0.0762,-0.042 0,0 0.0423,0 0.0508,0 0.0423,0 -0.0423,0.042 -0.0593,0.042 0.27937,-0.063 0.56212,-0.1186 0.84319,-0.182 0,-1.0295 0.0423,-2.0526 0.14815,-3.0752 0.0466,-0.4106 0.45037,-0.4813 0.95069,-0.4631 0.50075,0 1.09462,0.1185 1.50436,0.059 0.53757,0.042 1.07599,0.042 1.61229,0.089 0.3471,0.042 0.68615,0.1058 1.03324,0.1481 0.58837,0.072 1.18012,0.1439 1.76933,0.2074 0.31747,0.042 0.63451,0.042 0.9507,0.059 1.4197,0.093 2.84109,0.1481 4.25783,0.2709 2.80215,0.254 5.60133,0.5765 8.39967,0.8681 4.47624,0.4466 8.92158,1.1112 13.35973,1.8354 0.20741,-0.3598 0.82371,-0.4241 1.93441,-0.4233 0.0423,-0.11 0.2582,0 0.38942,0 h 1.05822 c 2.814,0.042 5.61953,-0.051 8.43268,-0.1227 0.85462,0.042 1.70965,0.051 2.56299,0.1058 1.42944,0.097 2.84575,0.3005 4.27434,0.4063 1.69102,0.127 2.27219,0.144 3.02564,0.2159 0.33016,-0.1608 0.64593,-0.3598 0.96721,-0.5375 1.05948,-0.5783 1.94118,-1.1218 3.11665,-1.4879 2.64468,-0.8241 5.46249,-0.6523 8.1766,-1.0417 3.19072,-0.2159 5.15688,-0.3979 8.32517,-0.4381 2.38479,-0.042 4.77508,-0.047 7.15945,0 2.09145,0.042 4.1774,0.1651 6.26673,0.2709 10.25282,0.5189 8.59735,0.4487 17.7911,1.1162 3.7719,0.2963 7.5476,0.5765 11.3178,0.8927 5.70631,0.4779 11.40203,1.0371 17.10496,1.5543 0.27513,-0.046 0.5545,-0.08 0.82667,-0.1397 0.54689,-0.1227 1.06837,-0.3301 1.60383,-0.4961 5.31265,-1.6994 -0.2709,0.1059 3.53866,-1.1657 1.99876,-0.6667 4.26968,-1.5183 6.40727,-1.3803 -0.26667,0.085 -1.08065,0.2963 -0.80212,0.2582 0.55916,-0.08 1.09503,-0.2921 1.65335,-0.381 1.27112,-0.1989 3.82607,-0.3132 4.95243,-0.3047 5.21403,0.042 5.28811,0.165 10.37515,0.6696 2.68701,0.3344 5.37953,0.6265 8.06062,1.0087 1.96616,0.2794 3.92004,0.6442 5.87816,0.9752 5.72916,0.9685 11.45537,1.9734 17.17945,2.9681 0.0931,-0.042 0.18201,-0.093 0.2709,-0.1227 0.8106,-0.2879 2.17103,-0.3937 3.32364,-0.3387 0.35133,-0.1777 0.70477,-0.3428 1.08319,-0.4546 0.62434,-0.182 1.14964,0.051 1.70287,0.1143 1.30711,0.444 2.65273,0.764 3.97677,1.1573 z m -2.62902,505.85881 c 0.11852,0.042 0.23704,-4e-4 0.35556,0.042 0.22857,0.081 0.93461,0.2752 0.69461,0.2328 -0.35556,-0.063 -0.70223,-0.1608 -1.04975,-0.2582 z m -4.34884,0.3556 c -0.36825,0.055 -0.66836,0.1185 -1.20678,0.4148 -0.0847,0.046 -0.24127,0.1524 -0.37249,0.2328 0.0847,0 0.18201,0.051 0.26243,0.059 0.43683,-0.2413 0.87663,-0.4674 1.3143,-0.7027 z m -196.68708,10.7311 c -0.16084,0 -0.35979,0.042 -0.53715,0.059 -0.98117,0.2285 -1.52552,0.2709 -2.65399,0.3809 -0.73652,0.042 -1.4705,0.093 -2.20744,0.1058 -2.54225,0.055 0.69081,-0.2031 -2.80257,0 -1.44001,0.076 -2.87707,0.2413 -4.31539,0.3641 0.0423,0.8525 0.0635,1.7189 0,2.662 -0.26244,4.0716 -0.67768,8.1343 -0.98371,12.2025 -0.055,0.6992 -0.12699,1.3989 -0.14815,2.0999 -0.0423,1.0692 0,2.138 0,3.2076 0.0931,4.1254 -0.002,8.2655 -0.26244,12.3845 -0.0804,1.3241 -0.19895,2.6481 -0.33016,3.9683 -0.32593,3.2991 -0.28784,0.8495 -0.25821,3.5217 0,0.3979 0.0508,0.7924 0.0423,1.1907 -0.14815,7.4566 -0.0593,0.326 -0.2963,5.8947 -0.26667,6.2498 0.0762,0.2159 -0.0762,5.3241 -0.0423,1.3939 -0.12275,2.7814 -0.18201,4.1749 -0.20741,4.6874 -1.00573,9.3254 -1.47981,13.9883 -0.17778,1.7604 -0.19471,2.4419 -0.31323,4.4064 -0.0423,0.6649 -0.0847,1.3265 -0.0931,1.9924 -0.0931,5.4299 0.10159,10.872 0.10582,16.3032 -0.003,0.9262 0,1.8515 0,2.7776 -8.5e-4,0.2074 0,5.57 0,6.4568 -0.002,1.8773 -0.0804,3.7545 0,5.6301 0.0423,0.5905 0.11429,1.1729 0.17355,1.7609 0.40635,1.8912 0.39789,3.8493 0.70307,5.7541 0.24974,1.5691 0.24974,0.9397 0.53715,2.042 0.21588,0.8376 0.40636,1.6808 0.61165,2.5215 0.89186,3.727 1.04848,7.5789 1.49674,11.3758 0.52275,3.6356 0.18201,7.3084 0.15661,10.9622 0.0889,2.1088 0.001,4.1753 -0.23281,6.2752 -0.34709,2.9287 -0.30476,0.5173 -0.26243,3.1166 0.0593,2.2384 -0.0466,4.486 0.10582,6.7214 0.0593,0.3979 0.11429,0.7932 0.17355,1.1903 h 0.0508 c 0.11429,1.0967 0.19894,2.1922 0.2963,3.2906 -4.2e-4,0.6235 -0.0593,1.2559 0,1.8764 0.0423,0.2625 0.16931,0.4974 0.24127,0.7526 0.0931,0.3386 0.17355,0.6819 0.25397,1.0252 0.33863,1.4544 0.64467,2.8864 0.90922,4.3569 0.4999,2.9592 0.0974,5.9662 0.10582,8.9448 -0.0423,1.5023 0.15662,3.0232 0.0423,4.5224 -0.0762,0.9169 -0.19894,1.8303 -0.2963,2.7446 -0.23281,1.4053 -0.56043,2.789 -0.91768,4.1668 -0.14392,0.5622 -0.23704,1.145 -0.44657,1.6868 -0.2328,0.6007 -0.4927,1.192 -0.74413,1.7854 -0.0635,0.8047 -0.11852,1.6098 -0.18202,2.414 -0.31746,0.6701 -0.62942,1.3418 -0.95069,2.0089 0,0.4944 0,0.1186 -0.0593,1.3478 -0.19048,1.8802 -0.11006,1.2817 -0.47959,3.4887 -0.0762,0.455 -0.20317,0.9046 -0.24127,1.3642 -0.0423,0.3133 0.0466,0.6223 0.0593,0.9342 0.0423,0.8953 0.0593,1.7914 0.10159,2.6871 0.12699,1.9763 0.0804,3.9564 0.0593,5.9357 0,1.1716 -0.13122,0.7018 0.11429,1.4053 0.50117,2.3776 0.80889,4.7924 1.27324,7.1759 0.45207,1.4633 0.33016,2.9867 0.3217,4.4894 v 0.042 c 0.0423,0.2032 0.0677,0.4106 0.10158,0.6117 -0.0466,-0.1185 -0.0762,-0.2455 -0.12275,-0.381 8.5e-4,0.1397 0,0.2836 0,0.4233 8.5e-4,0.042 0.0635,-0.042 0.0974,-0.042 0.0423,0 0.0423,0.059 0.0423,0.059 0.54774,1.4489 0.81822,2.2363 0.5871,4.7121 0,0.1058 0,0.2116 0,0.3132 4.18418,3.1348 4.34926,8.7836 -0.21587,12.6405 -0.0974,0.5897 -0.19048,1.1167 -0.33017,1.951 -0.36825,1.2482 -0.83091,2.7429 -1.46372,4.1253 -0.0974,0.6121 -0.21164,1.1865 -0.39788,1.5543 0.002,0.063 0,0.127 0,0.1905 0,1.76 0.0466,2.4512 -0.38943,4.4068 0,0.047 -0.0423,0.093 -0.0423,0.1397 0.0677,0.3048 0,0.6222 0,0.9342 -0.003,0.8355 -0.0508,1.669 -0.0508,2.505 0.002,1.9039 0,3.8091 0,5.7126 -0.0847,0.9622 0.0931,1.9493 0,2.9101 -0.0889,0.919 -0.20741,1.8362 -0.31323,2.7531 -0.93927,5.01 0.77038,-4.2511 -0.5126,3.5132 -0.0423,0.1778 -0.0423,0.1143 -0.0804,0.3387 0.0423,0.1524 0.0804,0.3005 0.10582,0.4546 0.0931,0.5054 8.4e-4,1.0328 0,1.5462 -0.002,0.6582 0,1.3093 0,1.9675 0,0.6967 -8.5e-4,1.3807 0,2.0669 0,0 0.0423,0.042 0.0593,0.068 0.0635,0.072 0.10159,0.1524 0.15661,0.2328 0.24128,0.3386 0.19471,0.2582 0.38096,0.5291 0.0974,0.1397 0.18625,0.2878 0.28783,0.4233 0.10159,0.042 0.20318,0.059 0.30477,0.097 0.20741,-0.1186 0.44657,-0.2244 0.71916,-0.3133 0.65948,-0.2201 0.49524,-0.1947 1.43028,-0.3217 0.21164,-0.042 0.4326,-0.042 0.64509,-0.051 0.86435,0 0.82794,0.042 1.57081,0.059 h 0.37249 c 0.2582,-0.047 0.51345,-0.1185 0.76869,-0.1736 0.21164,-0.042 0.41905,-0.051 0.62815,-0.068 h 0.0931 c 0,0.042 -0.10582,0.059 -0.0762,0.059 0.0762,0 0.14392,-0.051 0.21588,-0.076 0.34286,-0.1228 0.21587,-0.085 0.52106,-0.1736 0.17355,-0.042 0.35556,-0.051 0.52911,-0.076 h 0.12275 c 0.24551,0 0.48932,-0.042 0.73567,0 0.13545,0 0.2709,-8e-4 0.40636,0.042 0.2328,0.042 0.13545,0.042 0.40635,0.051 h 0.31323 c -3.85444,-2.5207 -1.74097,-7.835 4.97699,-7.1265 2.58712,0.2709 5.00704,1.2547 7.50654,1.9014 0.66413,0.1736 1.34012,0.3217 2.00891,0.4712 0.47238,-0.8128 0.95705,-1.6174 1.50478,-2.381 0.0593,-0.063 1.74012,0.042 1.92637,0.042 1.06668,0 2.08764,-0.1016 3.14966,-0.1481 0.47832,-0.042 0.96467,-0.1059 1.43875,-0.042 1.61272,0.2201 1.68086,0.3175 2.73654,0.8678 0.40212,0.2497 0.80466,0.4986 1.20678,0.7526 0,0.042 -0.0423,0 -0.0423,0 -0.27091,-0.1059 -1.05187,-0.4843 -0.8106,-0.3217 0.40636,0.2709 0.88763,0.4343 1.31473,0.6696 h 0.16508 c 0.25397,-0.1947 0.52233,-0.2582 0.81017,-0.1397 h 0.0677 c 0.0466,0 0.0931,-0.042 0.13969,-0.042 0.0423,0.072 0.0508,0.1524 0.0804,0.2243 0.0804,0.055 0.072,0.199 0.14815,0.2582 0.072,0 0.14392,0 0.21588,0 0.18624,-0.042 0.34286,-0.165 0.5291,-0.2074 0.37249,-0.08 0.74752,-0.1608 1.12425,-0.2074 0.6544,-0.063 0.97652,-0.042 1.49631,0 -0.0423,-0.051 -0.0677,-0.097 -0.0974,-0.1481 0.10158,0.051 0.20317,0.11 0.30476,0.165 0.0423,0 0.055,0 0.0974,0 0.16931,0.042 0.33439,0.068 0.50413,0.068 0.10159,0 0.21164,-0.042 0.31323,-0.042 0.18625,0 0.36826,0 0.55408,0 0.43133,0.042 0.86774,0.059 1.29779,0.097 1.33462,0.1101 0.29207,0.1058 1.2652,0.1058 0.75176,-0.068 1.49166,0.127 2.23199,0.2074 0.0466,0.042 0.10158,0 0.14815,0 0.20317,-0.042 0.40212,-0.042 0.60318,-0.042 1.47769,-0.042 2.9613,0 4.43983,0 1.17716,0 0.89779,-0.042 2.56257,0.2328 0.37249,0.059 0.73525,0.1693 1.10774,0.2328 2.8995,0.4953 -0.55239,-0.1566 1.81081,0.2074 0.44996,0.072 0.89187,0.1736 1.33928,0.2582 0.28783,0.081 0.56762,0.2074 0.86816,0.2498 0.0423,0 -0.0466,-0.1397 0,-0.1397 0.19048,-0.085 0.40635,-0.051 0.60318,-0.051 2.94056,0.042 0.81271,0.046 3.15813,0.1143 0.61207,0.042 1.22287,0.042 1.83536,0.042 0.43683,0 0.87747,8e-4 1.31473,0 2.57146,-0.042 0.86435,-0.042 2.81061,-0.042 0.2709,8e-4 0.54562,0 0.81863,0 0,0 0.0423,0 0.0593,-0.042 0.61758,0 1.23473,0 1.85188,0 0.003,0 0,0 0,0 0.29206,0 0.57863,-0.042 0.86816,-0.08 1.29779,-0.1608 2.58669,-0.419 3.8938,-0.4961 0.39788,-0.042 0.80508,-0.042 1.20721,-0.042 1.38837,0.1016 2.77675,0.059 4.16681,0.059 1.18139,0 2.33527,-0.326 3.51327,-0.3979 0.56255,-0.051 1.1234,-0.051 1.68679,-0.051 1.69653,0.072 3.39517,0.076 5.09255,0.076 1.04424,0 2.08891,0 3.13315,0 1.07176,-0.2709 2.19008,-0.2709 3.28216,-0.2709 0.11005,-5e-4 0.21587,0.042 0.32169,0 0.0593,0 -0.13121,0 -0.17354,-0.051 0.30053,-0.051 0.60064,-0.1143 0.90117,-0.1566 h 0.0889 0.0423 c 0.055,-0.042 0.11005,-0.047 0.16508,-0.068 0.055,0 0.10159,-0.051 0.15662,-0.068 h 0.0423 c 0.0974,-0.042 0.19047,-0.072 0.28783,-0.1058 0.85207,-0.1101 1.01715,-0.1355 1.25673,-0.1312 0.38519,-0.1439 0.77546,-0.2921 1.17377,-0.3895 0.58287,-0.1439 1.20467,0.127 1.79431,0.081 h 2.96765 c 0.0423,0 0.0804,0 0.12275,0 0,0 0,0 0,0 0.34286,-0.1609 0.70816,-0.2625 1.07472,-0.3471 0.52572,-0.364 1.12848,-0.6074 1.71981,-0.8432 0.15239,-0.4021 0.16085,-0.4428 0.50414,-1.1243 0.0762,-0.1523 0.0804,-0.4465 0.24973,-0.4465 0.0423,0 0,0 0,0.042 0,0 0,-0.051 0,-0.068 0,-0.042 0.0423,-0.047 0.0423,-0.072 0,0.055 -0.0423,0.1016 -0.0423,0.1566 -0.0423,0.2413 -0.0762,0.4813 -0.14815,0.7107 -0.072,0.2328 0.0423,-0.3555 0.11429,-0.6696 -0.0635,0.097 -0.22434,0.254 -0.22434,0.364 0,0.199 0.0423,0.5926 0.0423,0.8847 0.13545,-0.1397 0.29206,-0.3005 0.33016,-0.3386 0.17355,-0.1651 0.22434,-0.2074 0.2582,-0.2244 -0.0635,-0.4355 -0.10582,-0.8728 -0.11428,-1.2978 -0.0762,0.127 -0.15662,0.2625 -0.21588,0.3979 0.055,-0.2963 0.11852,-0.5943 0.25821,-0.8601 0.66328,-1.2762 0.98202,-1.399 1.86838,-1.9839 0.33016,-0.1905 0.67387,-0.3514 1.01673,-0.5211 0,0 0.0423,0 0.0508,-0.042 0.40636,-0.2921 0.91345,-0.5947 1.44679,-0.8102 0.0974,-1.3532 0.42837,-2.4491 0.90964,-3.2987 0.15662,-0.2963 -0.0423,-0.5879 0.18201,-0.9176 0.67726,-0.9973 1.90563,-1.3893 2.90205,-1.9184 0.16084,-0.042 0.31746,-0.097 0.47916,-0.097 3.45527,-0.436 -0.89314,0.2116 -1.04975,0.5375 -0.0423,0.047 -0.0931,0.3048 -0.12275,0.381 0.29629,-0.085 0.59302,-0.1397 0.8927,-0.1397 0.49144,4e-4 0.9833,0.127 1.44679,0.3556 0.24551,-0.4843 0.50117,-0.9651 0.7361,-1.4553 0.54519,0.2794 1.10985,0.5219 1.64488,0.8187 -0.055,-0.042 -0.10159,-0.072 -0.15661,-0.1059 -0.055,-0.042 0.19047,0.047 0.16508,0.097 0.0466,0.042 0.0931,0.051 0.13968,0.085 0.0804,0.046 0.17355,0.08 0.25821,0.1312 0.0423,0.042 0.055,0.051 0.0847,0.076 0.11006,0.068 0.22434,0.1312 0.33016,0.2074 0.16932,0.1185 0.27937,0.2201 0.43006,0.3301 0.469,-0.127 0.94816,-0.1989 1.43833,-0.1989 h 0.77715 c 0.81059,-0.042 1.61356,-0.042 2.42246,0.042 0.67006,0.059 0.46942,-0.063 0.71069,0.097 -0.055,0.046 -0.23704,0.1397 -0.16508,0.1397 0.20318,-0.042 0.38519,-0.1228 0.57863,-0.1821 0.30054,-0.093 0.60065,-0.182 0.90118,-0.2709 0.81271,-0.2455 1.09715,-0.3344 2.02542,-0.5375 h 0.10582 c 0.89652,-0.4331 1.19197,-0.4779 2.09145,-0.6282 0.38519,-0.042 0.76826,-0.072 1.15769,-0.1143 0.49397,-0.042 0.99302,-0.051 1.48784,-0.051 0.60403,-0.042 1.20594,-0.068 1.81082,-0.076 0.60445,0 1.20763,0 1.81039,0.076 0.6108,0.085 1.22795,0.1566 1.83536,0.2625 0.23704,0.042 0.46181,0.127 0.69461,0.1904 1.23642,0.3429 2.32257,0.6566 3.41422,1.4223 0.3344,0.2328 0.54731,0.5964 0.82668,0.8927 0.2709,0.6455 0.56889,1.2813 0.81863,1.9344 0.0423,0.089 0.0423,0.182 0.0423,0.2794 0.0423,0.309 0.0847,0.6214 0.0423,0.9261 -0.0423,0.4504 -0.17355,0.7755 -0.28784,1.1243 0,-0.1016 0.0423,-0.2074 0.0423,-0.3133 -0.38095,0.9998 -0.949,1.9357 -1.26477,2.9596 -0.0423,0.1016 -0.0423,0.144 -0.0423,0.1821 -0.0423,0.042 -0.0635,0.089 -0.0974,0.1312 0,0.042 -0.055,0.042 -0.0508,0.042 0,-0.064 0.13545,-0.2328 0.0889,-0.182 -0.4635,0.6417 -0.82117,1.371 -1.52933,1.8108 -0.30053,0.2244 -0.5545,0.5207 -0.8762,0.7107 -0.99726,0.5951 -1.77992,0.8508 -2.86056,1.0582 -0.10159,0.042 -0.20318,0.042 -0.30477,0.059 0.78816,0.4106 1.58309,0.8394 2.0504,1.5543 0.0889,-4e-4 0.17354,0 0.26243,0 h 0.46308 0.73567 c 0.11005,0 0.23704,-0.047 0.32169,0 0.0677,0.055 -0.16508,0 -0.24974,0.051 -0.0508,0 -0.0974,0.042 -0.14815,0.051 0.40636,-0.072 0.81906,-0.1566 1.23176,-0.199 1.41081,-0.1397 2.76617,0.4462 4.16682,0.3641 h 0.72763 c 0.0423,0 0.0762,8e-4 0.11429,-0.042 0.30053,-0.042 0.60657,-0.042 0.90964,-0.042 1.13229,0.042 1.10477,0 2.42204,0.1397 0.91514,0.097 -0.66118,0.1016 1.08318,0.1481 0.49144,0 0.97991,-0.042 1.47177,-0.042 0.78223,0 1.56573,0.047 2.34754,0.072 2.585,0.3047 5.18905,0.546 7.72199,1.1657 0.2836,0 0.56212,0 0.84318,0.051 0.11852,0 0.23704,0.042 0.35556,0.059 0.16508,0.042 0.48805,-0.051 0.58667,0 h 0.0423 c 1.56912,-0.6577 1.46372,-0.6599 3.3812,-1.1987 1.22838,-0.3429 0.54308,0.042 1.90987,-0.4148 0.51894,-0.1651 1.02054,-0.3937 1.52933,-0.5871 0.87323,-0.2498 1.73928,-0.4944 2.61251,-0.7442 0.52234,-0.072 1.04552,-0.1693 1.57081,-0.2158 4.25952,-0.3725 8.53809,-0.042 12.80607,-0.072 4.58757,-0.1143 9.07862,-0.5668 13.57476,-0.093 -0.0423,-0.5858 -0.0635,-1.1133 -0.0804,-2.0339 -0.309,0.1609 -0.60488,0.3386 -0.92573,0.4796 -0.52022,0.2286 -0.74159,-0.254 -0.83514,-0.9507 -0.39366,0 -0.77123,-0.042 -1.14075,0 0.36402,-2.1359 0.60868,-3.6428 0.83471,-4.9355 -0.055,-0.6311 -0.0423,-1.2665 0.0677,-1.9018 -0.055,-2.6583 0,-5.314 0.0762,-7.9697 0,-0.1989 0.0847,-1.357 0.10582,-1.7608 -1.04213,-0.059 -2.06817,-0.2201 -3.04215,-0.5042 -1.26985,-0.3682 -0.31746,-2.6307 -0.26244,-3.9517 0.28784,-7.4901 0.88086,-8.3921 2.59559,-15.8487 0.18201,-0.4385 0.34709,-0.9007 0.49609,-1.3638 0,-0.3175 0.0762,-0.8758 0.0847,-1.1082 0.23704,-1.4713 0.44021,-2.9515 0.63662,-4.4309 -1.48108,-0.875 -2.71368,-2.5118 -3.4557,-4.7704 -0.26244,-0.8043 -0.2709,-2.188 -0.14815,-3.8113 -0.76488,-0.051 -1.53187,-0.127 -2.28998,-0.2624 -0.99091,-0.1778 1.03028,-1.7537 1.75241,-2.4551 0.17354,-0.1693 0.66625,-0.5672 0.94265,-0.8106 0.75768,-4.9922 2.1541,-10.6096 2.49654,-11.5904 0.35979,-1.0311 0.86181,-1.9945 1.40573,-2.9431 0.0423,-1.6842 0.0635,-3.3689 0,-5.0515 -0.0423,-0.9676 -0.21588,-1.923 -0.3217,-2.8851 -0.12698,-1.4307 -0.2836,-2.8588 -0.38942,-4.2908 -0.0635,-0.8898 -0.0974,-1.7867 -0.12275,-2.6786 -0.11006,-3.5187 -0.13546,-4.8292 -0.0889,-8.1846 -0.11006,-0.2498 -0.22434,-0.4593 -0.33017,-0.7276 -0.12275,-0.3048 -0.0423,-0.6316 0.0804,-0.9592 -0.26244,-1.1632 -0.53249,-2.3251 0.33863,-2.7941 0.84572,-0.455 1.76637,-0.6464 2.72003,-0.7192 -0.0847,-0.237 -0.17355,-0.4766 -0.22434,-0.7196 -0.0847,-0.6108 -0.22011,-1.2203 -0.26244,-1.8353 -0.0466,-0.593 -0.0423,-1.1907 0,-1.7854 0.0423,-0.9825 0.0804,-1.9649 0.17355,-2.9431 0.0593,-0.6252 0.16931,-1.2394 0.2709,-1.8604 -0.11429,-0.6116 -0.25397,-1.2207 -0.35556,-1.8353 -0.23281,-1.4506 -0.538,-2.9986 -0.47112,-4.4725 0,-0.042 -0.004,-0.042 0,-0.068 -3.34099,-1.5966 -2.37039,-0.585 -0.95916,-5.6462 -0.11852,0 -0.22858,-0.042 -0.33863,-0.042 -0.31746,0.4398 -0.63112,0.8817 -0.95916,1.3143 0.0508,-0.1566 0.0466,-0.3471 0.14815,-0.4792 0.2328,-0.3048 0.49947,-0.5689 0.76868,-0.8436 0,0 0,0 -0.0423,-0.042 h 0.0423 c 0.0466,-0.063 0.0931,-0.127 0.13969,-0.1905 -0.0593,0.063 -0.11429,0.1185 -0.17355,0.182 -0.23281,-0.051 -0.43726,-0.1185 -0.41482,-0.3217 0.23704,-2.0825 1.28001,-4.0005 2.0669,-5.9442 -0.64043,0.051 -0.35556,-0.051 -0.8017,0.1058 0.2963,-0.1269 0.59937,-0.2285 0.90117,-0.3386 -0.62604,-1.3469 -0.99726,-2.8055 -1.52128,-4.1998 0,0 0.0423,-0.042 0.0593,-0.042 -1.24531,-0.2539 -4.2663,-0.5604 -4.35688,-2.3394 -0.0847,-1.6466 0.96213,-3.217 1.9014,-4.572 0,-4e-4 0.0423,0 0.0423,0 -0.11006,-0.5583 -0.21165,-1.153 -0.25821,-1.5128 -0.68064,-0.047 -1.3634,-0.072 -2.04192,-0.1397 -0.38096,-0.042 -1.07261,0.2032 -1.13272,-0.1735 -0.34286,-2.1342 0.0423,-4.3209 0.0677,-6.4818 0.76488,-0.2963 1.53399,9e-4 2.29844,-0.042 0.14815,0 1.01885,-0.08 1.52933,-0.1143 -0.28784,-0.8576 -0.40636,-1.7782 -0.59514,-2.6785 -1.1598,-0.085 -3.77486,-0.2752 -4.34037,-1.3973 -0.71704,-1.4235 -0.4364,-3.1666 -0.65313,-4.7454 0.74414,-0.2456 1.476,-0.5071 2.21548,-0.7687 -0.72975,-0.309 -1.23473,-0.7734 -1.09123,-1.4303 0.47365,-2.1706 2.38309,-3.8032 4.01782,-5.3076 0.26244,-0.2413 0.60826,-0.3259 0.97567,-0.364 4.3e-4,0 0,-0.042 0,-0.042 -2.27685,-0.7776 -2.38775,-1.5429 -1.22329,-3.4642 0,0 0,-0.042 0.0508,-0.051 0.0974,-1.5374 0.14392,-1.9378 2.06691,-2.3645 0.0931,-0.1185 0.17354,-0.2455 0.26243,-0.364 0.42498,-0.5439 0.85335,-1.0798 1.28171,-1.6203 0.0677,-0.4432 0.16085,-0.88 0.2709,-1.3148 -1.06879,-0.11 -2.1414,-0.2412 -3.20765,-0.3724 -0.51514,0.042 -1.07599,0.076 -1.55431,0.097 -1.95346,0.1058 -3.90649,0.1482 -5.86123,0.2159 -0.79874,0.237 -1.53821,0.3471 -1.96785,-0.2328 l -0.0423,-0.042 c -1.22202,0.3302 -2.50077,0.6472 -2.45547,0 0.14391,-2.1113 0.35979,-4.491 1.6288,-6.1672 -0.0508,-0.042 -0.10159,-0.063 -0.14815,-0.097 v 0 c 0,0 -0.0423,9e-4 -0.0508,-0.042 -0.0466,-0.042 -0.0847,-0.068 -0.13122,-0.1058 -1.60213,0.072 -1.15345,0.085 -0.14815,-0.1312 -0.91852,-0.7721 -1.69314,-1.4777 -2.26499,-2.108 -1.33886,-1.4777 -1.68595,-2.5778 -0.83515,-3.3567 -0.24973,-0.9845 -0.46053,-2.0038 -0.85165,-2.852 1.44891,-0.4022 1.74648,-0.4301 2.67855,-0.4796 0.309,-0.2117 0.63366,-0.3725 0.97567,-0.4881 -0.055,-0.2709 -0.10582,-0.5452 -0.14814,-0.8182 -0.072,-0.4902 0.938,-0.3302 1.40573,-0.4961 0.9418,-0.1312 1.88065,-0.3005 2.82712,-0.3894 1.14456,-0.1101 2.29039,-0.182 3.43919,-0.2413 -0.58117,-0.042 -1.26054,0.064 -1.64489,-0.3471 -1.23811,-1.3227 -2.5105,-2.8504 -2.85252,-4.6294 -0.0423,-0.1228 0,-0.2371 0,-0.3556 -0.43683,0.042 -0.43386,0.042 -1.23176,0.1058 h -0.20741 c -0.31323,0.1185 -0.64212,0.2667 -0.69461,0.042 h -0.27936 c -0.15662,-2.177 -0.73821,-4.365 -0.47112,-6.5313 0.0508,-0.4309 0.85715,-0.1016 1.28975,-0.1397 0.63493,-0.055 1.27451,-0.1016 1.90986,-0.1482 0.38519,-0.051 0.76488,-0.1058 1.14922,-0.1397 0.11005,0 0.22011,9e-4 0.33016,-0.042 -1.37271,-0.059 -3.31009,-0.1693 -4.18332,-0.5291 -0.8762,-0.3598 -1.52129,-1.1386 -2.28193,-1.7033 0.20317,-1.6224 0.0593,-3.3198 0.6036,-4.861 0.19048,-0.5371 0.92572,-0.6713 1.43875,-0.9177 0.12275,-0.059 0.25397,-0.11 0.38095,-0.1651 -0.10582,-0.4673 -0.22434,-0.9325 -0.38095,-1.3638 0.25397,-0.1524 0.49947,-0.3259 0.74371,-0.4961 -0.69969,-0.2328 -0.97229,-0.5977 -0.85123,-1.1987 -1.79515,-0.2836 -3.20596,-0.6502 -3.73676,-1.1327 -1.46753,-1.3334 1.17843,-3.7876 1.76891,-5.6797 3.93317,-0.5392 3.71898,-0.5905 6.34928,-0.5706 0.87662,0 2.06986,0.042 3.83623,0.042 1.29483,0 2.59093,0.042 3.88534,0.051 0,-0.1694 0.0423,-0.3429 0.0423,-0.5126 -1.38668,-0.042 -2.63029,-0.068 -3.46416,-0.1143 -0.37249,0.08 -0.74583,0.1608 -0.8762,0 -0.66795,0.051 -1.3888,0.1143 -1.41378,-0.4064 -0.0593,-1.186 0.0423,-2.3763 0.23281,-3.5552 -1.21483,-0.1777 -2.30606,-0.5443 -3.00109,-1.4878 -3.78671,-5.1408 -0.27514,-7.6052 2.80257,-8.6642 0.80551,-0.2752 1.66013,-0.4064 2.48849,-0.6036 -0.30899,-2.0432 -0.2582,-4.1719 -0.0593,-6.2168 0.0423,-0.381 0.50371,-0.4352 0.97525,-0.4716 -1.51282,-0.3767 -3.1903,-0.8639 -3.43919,-1.4878 -0.95112,-2.3861 -0.83768,-5.2327 -0.13968,-7.7051 0.36402,-1.2923 5.5954,-2.2904 6.21721,-2.4474 2.92871,-0.6976 1.88362,-0.4444 2.64553,-0.6282 -0.36826,-0.4673 -0.65821,-0.9587 -0.97567,-1.4387 -6.29425,3.879 -10.90637,-2.1528 -5.31604,-7.4155 -2.2832,-4.0077 -2.10754,-4.254 0.14815,-6.1838 0.51091,-0.3598 1.01631,-0.7298 1.5378,-1.0752 0.56932,-0.3767 1.1598,-0.7166 1.73589,-1.0827 0.15661,-0.097 0.309,-0.199 0.46307,-0.2963 -0.18201,0 -0.36825,0 -0.57016,0.051 -0.41059,0.097 -0.79832,0.254 -1.19917,0.3809 -1.16149,0.3133 -2.34458,0.6781 -3.54628,0.8271 -0.92827,0.1143 -1.86076,0.1778 -2.79453,0.2413 -0.0423,0 -0.0974,-0.042 -0.0762,-0.051 0.13968,-0.11 0.64,-0.2497 0.46307,-0.2624 -0.24974,-0.042 -0.46731,0.1608 -0.70265,0.2412 -0.10159,0.042 -0.47958,0.1651 -0.86816,0.2963 -0.65567,0.3725 -1.30245,0.7628 -1.98394,1.0832 -0.27513,0.1313 -0.59471,0.1313 -0.89313,0.1905 -0.58583,0.1143 -1.17208,0.2201 -1.76087,0.3132 -2.84278,0.4648 -5.72112,0.7857 -8.60623,0.6616 h -19.20487 -7.15945 c -5.62969,-0.042 -11.25219,0.127 -16.88188,0.089 -4.84662,-0.055 -7.92009,-0.064 -12.65707,-0.2497 -3.33084,-0.1312 -6.6587,-0.2667 -9.987,-0.455 -0.31323,0 -0.63027,-0.047 -0.94265,-0.068 -2.51855,0.1482 -5.03413,0.182 -7.55607,0.1397 -0.37672,0 -0.75683,0.042 -1.13271,0.059 -2.10753,0 -2.02753,0.042 -4.28237,-0.2328 -0.76827,-0.042 -1.53018,-0.063 -2.29844,-0.097 -0.62562,0.6032 -2.26077,0.3937 -3.25718,0.5537 h -0.21588 c -0.2455,0.076 -0.49693,0.1397 -0.73567,0.2328 -4.59222,1.76 -8.12157,0.9613 -10.06953,-0.9092 -1.67113,-0.1694 -3.34268,-0.3387 -5.01,-0.5376 -0.44911,0 -0.89906,8e-4 -1.34774,-0.042 -3.09929,-0.1143 -1.35875,-0.1863 -5.21657,-0.199 -2.28658,0 -4.56513,0.2413 -6.85383,0.08 -0.9617,0 -1.92383,-0.072 -2.88511,-0.1058 -1.39007,-0.089 -2.78691,-0.1439 -4.17486,-0.2624 -0.65652,-0.055 -1.30584,-0.1736 -1.95939,-0.2582 -1.23091,-0.1524 -2.4631,-0.2625 -3.6957,-0.3979 -0.69462,0.8817 -2.11389,1.6953 -2.96766,2.1494 -0.12698,0.063 -2.08806,1.0566 -2.19939,0.9842 -2.41907,-1.5759 -5.18863,-2.9084 -7.25003,-4.8945 -2.18669,-0.2201 -2.05081,-0.2032 -4.07581,-0.5041 -0.81059,-0.097 -1.62626,-0.2201 -2.43897,-0.2963 -0.62985,-0.059 -1.26223,-0.076 -1.89335,-0.1143 -2.49992,-0.1524 -5.00069,-0.2709 -7.49003,-0.5536 -0.75472,-0.1186 -1.51325,-0.2202 -2.26543,-0.3556 -1.6089,-0.2878 0.22434,-0.1101 -1.8269,-0.4148 -1.39218,-0.2032 -2.81696,-0.2032 -4.19983,-0.4877 -1.58351,-0.2328 -0.96255,-0.1481 -2.1414,-0.3132 -0.24551,-0.042 -0.49016,-0.08 -0.73567,-0.093 -0.9998,-0.059 -2.0106,0.059 -3.00913,-0.068 z m 180.23526,97.6612 h 0.21587 l 0.0423,-0.042 c -0.0889,0 -0.17354,0.042 -0.2582,0.042 z m -83.37575,178.623 c 0,0 0.0423,-0.042 0.0423,-0.042 0,0 0,0 0,0 0,0 0,0.042 0,0.059 z m -11.40881,-269.6043 -0.0423,0.042 z m 106.02786,24.8595 c -0.11852,0.042 -0.24127,0.059 -0.36402,0.093 0.11005,0.051 0.30899,0.2667 0.33016,0.1482 0,-0.081 -8.5e-4,-0.1609 0.0423,-0.2413 z m -3.4557,52.4146 v 0 h -0.13122 c 0.21588,0.042 0.16085,0.042 0.3471,0.059 -0.0423,-0.042 -0.12699,-0.059 -0.21588,-0.068 z m 0.0762,0.2793 c -0.0974,0.042 -0.19048,0.059 -0.28783,0.093 -0.4381,0.1651 -0.35556,0.5173 -0.11429,0.6616 0.13122,-0.2582 0.26667,-0.5049 0.41482,-0.7526 z m 6.35774,103.1182 c -0.18624,0.063 -0.37672,0.1736 -0.5291,0.2074 1.01461,0.549 1.15557,0.5876 0.5291,-0.2074 z m -208.75748,40.8733 c 0.23281,0.7674 0.26244,0.8085 0.43006,1.2648 v 0 c -4.2e-4,-0.089 0,-0.1821 0,-0.2709 -0.16508,-0.381 -0.54307,-1.338 -0.4381,-0.9922 z m -3.34014,26.4223 c 0.0677,0.1989 0.23704,0.7056 0.37249,1.0912 0.0423,-0.042 0.072,-0.08 0.10582,-0.1143 -0.072,-0.1439 -0.57228,-1.244 -0.47958,-0.9756 z m 1.1162,2.29 c -0.0804,0.127 -0.15238,0.2539 -0.2328,0.3809 0.20317,0.6345 0.41058,1.3279 0.62857,2.0999 -0.0423,-0.5773 -0.11852,-1.1644 -0.24127,-2.1498 -0.16508,-0.3514 -0.0423,-0.047 -0.15661,-0.3302 z m 0.24128,3.9848 c 8.4e-4,0 -4.3e-4,0.042 0,0.051 0,0 0,-0.042 0,-0.051 z m 0,0.051 c -0.15662,0.4457 -0.30477,0.8956 -0.43853,1.3477 -0.12275,0.4191 0.3471,-0.8068 0.43853,-1.2318 0,-0.051 0,-0.08 0,-0.1142 z m 130.79639,9.6399 c -0.0677,-0.042 -0.16085,-9e-4 -0.27937,0.042 -0.0466,0.042 -0.0804,0.055 -0.12275,0.085 h 0.47154 c -0.0423,-0.042 -0.0423,-0.093 -0.0677,-0.1058 z m -132.70626,2.1579 c 0,0 -0.0423,0.047 0,0.1227 0.24551,1.835 0.82033,3.6149 1.22372,5.4232 0.11852,-1.0942 0.12275,-1.7719 -0.43006,-3.7533 -0.14391,-0.5207 -0.709,-1.8735 -0.79366,-1.7939 z m 119.74357,0.5866 c -0.15661,0.4259 -0.25397,0.9706 -0.2709,1.7199 -0.0423,1.3384 1.05991,2.4216 1.78584,3.5877 0.13968,-0.7797 0.16508,-0.9405 0.6036,-1.8929 0,-0.097 -0.0508,-0.199 -0.0677,-0.2963 -0.86181,-0.4462 -0.85165,-1.3626 -1.10774,-2.1499 -0.0508,-0.042 -0.11005,-0.076 -0.15661,-0.1143 0.86731,1.3622 -0.25821,2.9914 -0.5126,1.8354 -0.0974,-0.447 -0.21588,-0.8855 -0.2709,-1.3393 v -0.7522 c -0.002,-0.2116 0.001,-0.4063 0,-0.5955 z m 1.61187,1.6204 c 0.002,0.2116 0.0423,0.4262 0,0.6366 0.0423,-0.042 0.0804,-0.055 0.12276,-0.072 v 0 c -0.0677,-0.1693 -0.11852,-0.3597 -0.13969,-0.5625 z m 0.13969,0.5625 c 0,0.042 -8.5e-4,0.042 0.0423,0.068 0.0466,0.097 0.11852,0.182 0.17354,0.2709 -0.0423,-0.1355 -0.055,-0.2709 -0.0762,-0.4064 v 0 c -0.0423,0.042 -0.0847,0.047 -0.12275,0.076 z m 0.12275,-0.076 c 0,0 0.0423,-0.042 0.0593,-0.042 -0.0423,-0.1439 -0.0847,-0.2921 -0.12275,-0.4381 0,0 0,0 0,0 0.0423,0.1651 0.055,0.3259 0.0804,0.4881 z m -6.15076,1.5378 c -0.0423,0.063 -0.13122,0.2032 -0.28783,0.4546 0.11429,0 0.23281,-0.042 0.34709,-0.042 0,-0.1397 -0.0423,-0.2794 -0.0593,-0.4233 z m 13.07063,0.4233 c -0.0423,0 -0.0762,0.051 -0.12276,0.068 0.0423,0.1016 0.055,0.199 0.0974,0.2963 0,-0.1227 -8.5e-4,-0.2412 0.0423,-0.364 z m -12.96311,0.3471 c -0.19895,0 -0.39789,0 -0.59514,0.042 -0.0423,0.051 -0.0593,0.093 -0.0931,0.1482 0,0.1989 0,0.4021 0.0423,0.6036 0.23704,0 0.48086,0 0.74414,0.042 0,-0.2709 -0.0466,-0.5426 -0.0847,-0.8186 z m 12.59908,0.4631 -0.0423,0.051 c 0.0423,0 0.13545,0.072 0.21588,0.1143 0.0423,0 0.0423,0 0.0593,0 -0.0889,-0.042 -0.18202,-0.076 -0.24974,-0.1313 0,-0.042 0.002,-0.042 0,-0.042 z m 0.24974,0.1735 c 0,0 0.0423,0 0.0508,0.042 h -0.0423 c 0,0 -0.0423,0 -0.0677,-0.042 -0.0593,0 -0.10159,-0.042 -0.14815,-0.042 v 0 c 0.0423,0.097 0.0466,0.2032 0.0762,0.2878 -0.12699,0 -0.24551,-0.042 -0.37249,-0.042 0,0.3005 0.0423,0.5871 0.23281,1.2068 0.0466,0.1524 0.16508,0.5947 0.20741,0.4381 0.055,-0.3852 0.0931,-0.7822 0.11428,-1.1738 0.25397,0.574 0.52572,0.7649 0.74414,0.8432 0.10159,-0.068 0.20318,-0.063 0.30476,-0.1312 0,-0.042 -8.4e-4,-0.055 0.0423,-0.1651 0.0804,-0.3386 0.10582,-0.5765 0.13969,-0.8351 -0.0423,0 -0.0635,-9e-4 -0.0974,0 h -0.13122 c 0.0466,0.042 0.10159,0.076 0.13969,0.1227 0.072,0.08 -0.16508,-0.08 -0.27937,-0.1397 -0.27937,-0.042 -0.55662,-0.059 -0.83472,-0.08 l -0.0423,-0.042 v 0.4063 c -0.055,-0.1227 -0.11429,-0.2582 -0.16508,-0.4232 h 0.16508 v -0.2625 c 0,0 -0.0423,0 -0.0593,0 z m -10.45811,0 c -0.0423,0 0.27937,0.1947 0.68615,0.4233 0.0677,0 0.13122,0 0.19894,0 -0.22434,-0.11 -0.45037,-0.2286 -0.67768,-0.3386 -0.12698,-0.059 -0.19048,-0.085 -0.20741,-0.08 z m -4.54693,0 c 0.0762,0 -0.16085,-8e-4 -0.2328,0.042 -0.0423,0 -0.0423,0 -0.0593,0.042 0.0974,0 0.19471,-0.042 0.28783,-0.068 z m 16.69987,0.4631 c 0.0593,0 0.0889,0.042 0.13969,0.042 0.0423,0 -0.0508,9e-4 -0.0847,-0.042 z m -25.03308,0.4796 c -0.24974,0.042 -0.48297,0.097 -0.90964,0.3132 -0.0423,0 -0.12699,0.059 -0.0847,0.059 0.33439,-0.1143 0.66244,-0.2413 0.99218,-0.3725 z m -1.85188,0.364 c -0.11852,0 -0.23704,0.042 -0.35556,0.042 -0.2328,0.1186 -0.5964,0.2879 -0.70265,0.3556 0,0 0.0423,0 0.0508,0 0.33862,-0.1185 0.67725,-0.254 1.00868,-0.3979 z m 70.24714,2.4055 c -0.0635,0 -0.17354,0.042 -0.26243,0.051 0.055,0.042 0.12275,0.063 0.15661,0.085 0.0593,-0.042 0.12275,-0.072 0.18201,-0.093 h 0.0762 c -0.0508,0 -0.10583,-0.042 -0.14815,-0.042 z m -73.76083,6.6803 0.0423,0.042 c -0.48889,0.1523 -1.15387,0.2328 -1.57081,0.2709 v 0 c 0.21588,-0.072 0.74414,-0.2328 0.55408,-0.1905 -0.38096,0.085 -0.74329,0.2413 -1.12424,0.3132 -1.19579,0.2244 -2.414,0.097 -3.62121,0.1397 h -1.87685 c -0.78604,0 -1.5725,0 -2.356,-0.076 0.10582,-0.042 0.43725,-0.1227 0.3217,-0.1227 -2.37675,0.4232 1.42604,0.042 -2.0504,0.3809 -0.12698,0 -0.38942,0.127 -0.38942,0 -0.003,-0.042 0.002,-0.068 0,-0.097 -0.0847,0 -0.16931,0.042 -0.26244,0.042 0,-0.1609 -0.0423,-0.3471 -0.0508,-0.5211 h -0.92615 -0.0804 c 0.18201,0.3259 0.48804,0.5287 1.00022,0.5291 h 0.0423 v 0.051 c -0.97948,-8e-4 -1.95516,-8e-4 -2.93506,0 -1.98394,0 -3.9683,0 -5.95224,0 -0.85969,0 -1.72446,4e-4 -2.58754,0 -0.0677,0.2413 -0.13968,0.4843 -0.20741,0.7272 h 1.38922 1.91791 2.05843 2.52998 2.18246 c 0.46773,0 0.93207,0 1.39726,0.051 0.20318,0.042 0.40212,0.063 0.60318,0.097 0.25821,0.042 0.52276,0.08 0.78562,0.093 0.25397,0 0.52741,4e-4 0.77715,-0.042 h 0.25821 0.86815 c 0.40636,0 0.82753,-0.076 1.23176,-0.1143 0.44572,-0.042 0.3471,-0.042 0.79366,-0.1058 0.0847,0 0.16085,-0.042 0.24974,-0.051 0.22011,-0.042 0.44022,-0.042 0.6616,-0.051 0.19471,0 0.63111,0.042 0.82667,0.042 h 0.26244 0.6036 c 0.38519,0 0.76361,0.068 1.1488,0.08 0.45757,0 0.89863,-0.042 1.35621,0 0.11852,0 0.66244,0.089 0.76022,0.097 h 0.15661 c 0.23281,-0.7611 0.91049,-2.1122 0.57017,0.042 h 0.2963 c 0.19047,-0.419 0.38942,-0.8402 0.6036,-1.2483 -0.0423,-0.042 -0.055,-0.072 -0.0762,-0.1058 h 0.12275 c 0.0423,-0.068 0.0762,-0.1439 0.11429,-0.2159 0,0 -8.5e-4,-0.042 0.0423,-0.042 h -0.20741 z m 0.55366,0.042 v 0 c 0,0 0.0423,0 0.0593,0 0,0 -0.0423,-0.042 -0.0508,-0.042 z m 0.0508,0.042 c 0,0 0.0423,0 0.0423,0 0.71663,0.051 -0.0508,-9e-4 0.31323,0.042 0.35133,0.042 0.34287,0.042 0.74414,0.042 1.07303,0.042 2.15791,0.089 3.22416,-0.068 h -1.36382 c -0.68445,0 -1.36594,0.042 -2.0504,0 H 301.151 c -0.10159,0 -0.21164,-0.042 -0.3217,-0.042 z m -12.68204,0.089 v 0.4961 c 0.32169,-0.072 0.54815,-0.2455 0.69418,-0.4961 -0.055,-4e-4 -0.11005,8e-4 -0.16508,0 z m -43.45319,0.2624 c -0.18625,0 -0.38096,0.042 -0.57017,0.042 -0.70392,0.042 -1.40319,0.089 -2.10838,0.1059 -0.68318,0 0.0466,-0.042 -0.86816,0 -0.16931,0 -0.33862,0.042 -0.50413,0.042 -0.26244,0 -0.5236,0.042 -0.78519,0.042 h -0.49609 -0.84319 c 0.5672,0.047 1.12806,0.097 1.69441,0.1482 h 0.41482 1.78584 c 1.07557,0 2.14902,0 3.22417,0.051 0.96339,0.042 1.92256,0.072 2.88511,0.1142 0.15238,0 0.30476,-4e-4 0.45503,0.042 -0.072,0 -0.14392,8e-4 -0.21588,-0.042 -0.40635,-0.055 -0.52699,-0.063 -1.00868,-0.1058 -0.34287,-0.042 -0.68657,0 -1.0252,-0.068 -0.8652,-0.1228 -1.42266,-0.2074 -1.94288,-0.364 h -0.0931 z m -17.95618,0.2074 c -0.0423,0 -0.0762,-8e-4 -0.11429,0.042 -0.42328,0.072 -0.84741,0.081 -1.27324,0.076 h -1.85991 c 0.61334,0.076 1.38541,0.2667 1.76086,0.381 0.12275,0.042 0.24974,0.051 0.37249,0.085 -0.0423,0 -0.11428,-0.042 -0.15661,-0.051 0.10582,0 0.19048,-9e-4 0.27937,0.042 0.0719,0.042 0.13121,0.059 0.19894,0.093 -0.11006,-0.042 -0.21164,-0.059 -0.3217,-0.085 0.20741,0.076 0.16508,0.046 0.73567,0.2624 -0.11429,-0.051 -0.2328,-0.1058 -0.34709,-0.1566 0.309,0.072 0.6163,0.1693 0.92572,0.2412 0.0847,-0.093 0.17355,-0.1904 0.25821,-0.2793 0.11428,-0.1312 0.2836,-0.2074 0.4381,-0.2879 0.36826,-0.1989 0.55281,-0.2412 0.76868,-0.3132 h -0.20741 -1.13271 -0.16508 -0.12275 c 0,0 8.4e-4,-8e-4 -0.0423,0 z" />
    </clipPath>
    <rect
       x="788.86603"
       y="2424.0505"
       width="618.71844"
       height="187.82526"
       id="rect98160-5-7-6" />
    <linearGradient
       id="linearGradient50678"
       inkscape:swatch="solid">
      <stop
         style="stop-color:#110814;stop-opacity:1;"
         offset="0"
         id="stop50676" />
    </linearGradient>
  </defs>
  <g
     inkscape:label="Layer 1"
     inkscape:groupmode="layer"
     id="layer1"
     transform="translate(0.06258698)">
    <g
       id="g118372"
       transform="translate(80.937536,-98.660824)"
       style="stroke-width:0.581868">
      <path
         style="fill:#000000;stroke-width:0.264583"
         d="m -74.227305,112.47348 c -0.0045,-0.006 -0.03683,-0.0312 -0.07571,-0.0561 -0.241771,-0.15394 -0.369819,-0.42996 -0.397102,-0.85627 -0.02092,-0.32597 -0.04711,-0.41459 -0.120135,-0.40535 -0.05361,0.007 -0.214443,-0.068 -0.223901,-0.1041 -0.0059,-0.0216 -0.02546,-0.0279 -0.108722,-0.0345 -0.220082,-0.0174 -0.332169,-0.0771 -0.356587,-0.18981 -0.0068,-0.0313 -0.02228,-0.0499 -0.05111,-0.0619 -0.02274,-0.009 -0.06721,-0.0451 -0.09858,-0.0792 -0.06034,-0.0655 -0.06143,-0.0699 -0.06343,-0.26095 v -0.0776 l -0.0617,-0.0107 c -0.298884,-0.0519 -0.759827,-0.26852 -1.113458,-0.52331 -0.07594,-0.0547 -0.0904,-0.0596 -0.213079,-0.0712 -0.135778,-0.0129 -0.274056,-0.0432 -0.359042,-0.0787 -0.143008,-0.0598 -0.336762,0.009 -0.249775,0.089 0.0341,0.0314 0.0572,0.0816 0.107949,0.2365 l 0.06452,0.19666 -0.02728,0.059 c -0.01501,0.0325 -0.0341,0.0849 -0.04274,0.1165 -0.01,0.0366 -0.03137,0.0693 -0.0592,0.0899 -0.0241,0.0179 -0.05593,0.0591 -0.07071,0.0917 -0.01455,0.0326 -0.0382,0.0765 -0.0517,0.0977 -0.0241,0.0372 -0.0241,0.0396 0.005,0.071 0.08749,0.0951 0.109677,0.21185 0.06912,0.3642 -0.0141,0.0528 -0.01592,0.0869 -0.0068,0.11172 0.03092,0.0818 -0.0082,0.19709 -0.107722,0.31838 -0.131958,0.16031 -0.606997,0.28745 -0.657789,0.17603 -0.0191,-0.0417 -0.03456,-0.0449 -0.06089,-0.0129 -0.265689,0.3201 -1.231502,0.44994 -1.716545,0.23075 -0.696213,-0.31463 -0.398966,-1.17874 0.417882,-1.21478 0.265007,-0.0117 0.292108,-0.0233 0.222309,-0.0953 -0.03319,-0.0341 -0.05557,-0.0782 -0.07407,-0.14469 -0.01455,-0.0526 -0.02819,-0.0966 -0.03047,-0.0977 -0.234633,-0.1274 -0.287061,-0.38743 -0.111724,-0.55402 0.03956,-0.0375 0.04411,-0.0503 0.04411,-0.12596 0,-0.0795 0.0045,-0.0875 0.05738,-0.14163 l 0.05738,-0.0574 -0.05798,-0.13216 c -0.115089,-0.2624 -0.170291,-0.47523 -0.170655,-0.65783 -1.82e-4,-0.12093 0,-0.1222 -0.07462,-0.17763 -0.03592,-0.027 -0.06939,-0.0735 -0.101674,-0.1413 -0.02637,-0.0556 -0.07689,-0.13087 -0.111905,-0.16725 -0.126775,-0.13167 -0.165289,-0.31409 -0.103175,-0.489 0.0382,-0.10728 0.0382,-0.10732 0.01228,-0.17382 -0.09849,-0.25519 0.06753,-0.68441 0.264689,-0.68441 0.0082,0 0.05288,-0.0367 0.09981,-0.0817 l 0.0853,-0.0817 -0.01228,-0.0772 c -0.0068,-0.0425 -0.0091,-0.10185 -0.005,-0.13197 0.0059,-0.0421 0,-0.062 -0.02137,-0.0861 -0.143735,-0.15729 -0.122046,-0.42919 0.05598,-0.70194 0.130503,-0.19989 0.162697,-0.32138 0.18184,-0.68602 0.02319,-0.44007 0.140279,-0.66442 0.692575,-1.32613 0.0919,-0.11013 0.125774,-0.17383 0.163561,-0.3074 0.05607,-0.19831 0.04502,-0.29579 -0.07003,-0.62502 -0.182341,-0.52124 -0.232859,-0.81684 -0.169927,-0.99432 0.03911,-0.11038 0.03137,-0.16101 -0.03001,-0.20227 -0.127593,-0.0852 -0.174019,-0.15523 -0.174019,-0.26246 0,-0.0473 -0.01228,-0.0877 -0.04411,-0.1442 -0.06098,-0.10804 -0.05447,-0.22436 0.02137,-0.37735 0.02819,-0.0574 0.05161,-0.10814 0.05161,-0.11279 0,-0.0137 -0.130003,-0.0755 -0.21367,-0.10158 -0.691529,-0.21544 -1.007328,-0.670618 -0.787565,-1.135138 0.230268,-0.48671 0.911975,-0.51784 1.623193,-0.0741 0.04911,0.0306 0.09131,0.0532 0.09367,0.0503 0,-0.003 0.02319,-0.0405 0.0457,-0.0834 0.0472,-0.0891 0.07594,-0.11795 0.204621,-0.205 0.4664,-0.31557 0.92698,0.0667 0.525695,0.43633 -0.09149,0.0842 -0.103447,0.11563 -0.0773,0.20244 0.02819,0.0942 0.02546,0.19109 -0.0082,0.269268 -0.03183,0.0746 -0.02956,0.0853 0.02137,0.0981 0.237406,0.0596 0.381187,0.27724 0.332669,0.50355 -0.01319,0.0617 -0.01137,0.0777 0.0141,0.12798 0.0341,0.0672 0.03774,0.1395 0.0091,0.20737 -0.02273,0.054 -0.02001,0.058 0.0628,0.10033 0.08562,0.0437 0.110496,0.0394 0.151738,-0.0259 0.02046,-0.0322 0.05038,-0.0698 0.06689,-0.0836 0.01637,-0.0137 0.02274,-0.0252 0.01364,-0.0255 -0.07712,-0.002 -0.08162,-0.19218 -0.0068,-0.27769 0.04229,-0.0484 0.04365,-0.0533 0.03638,-0.15274 -0.01364,-0.18477 0.10231,-0.30076 0.293199,-0.29297 0.06912,0.003 0.08721,-0.002 0.134277,-0.0382 0.04988,-0.038 0.06407,-0.0414 0.170564,-0.0414 h 0.116134 l 0.09149,-0.0852 c 0.49482,-0.461148 1.225772,-0.608878 1.887154,-0.381428 0.554342,0.19064 1.089677,0.825808 1.255283,1.489398 0.01182,0.0469 0.0341,0.13652 0.0502,0.19921 0.0979,0.38518 0.09531,0.7783 -0.0068,1.02256 -0.01137,0.0267 -0.02046,0.0648 -0.02046,0.0846 0,0.0198 -0.02546,0.11026 -0.0562,0.20112 l -0.0562,0.16519 0.03228,0.0581 c 0.02592,0.0466 0.0432,0.0603 0.08612,0.0693 0.209214,0.0435 0.248319,0.32088 0.05657,0.40125 -0.03865,0.0163 -0.04502,0.0268 -0.05247,0.0903 -0.01864,0.15917 -0.0964,0.21512 -0.228176,0.16457 -0.01546,-0.006 -0.02819,0.006 -0.04229,0.0402 -0.102811,0.24596 -0.3906,0.1419 -0.392737,-0.14201 -1.82e-4,-0.0254 -0.0068,-0.0462 -0.0141,-0.0462 -0.01773,0 -0.06789,-0.0526 -0.101628,-0.10653 -0.05047,-0.0808 -0.02637,-0.21732 0.04743,-0.26905 0.02455,-0.0171 0.03047,-0.0336 0.02728,-0.072 -0.01046,-0.1221 0.147828,-0.24874 0.246819,-0.19739 0.02137,0.011 0.04661,0.0199 0.05652,0.0199 0.07926,0 -0.04993,-0.48971 -0.16829,-0.63801 -0.0482,-0.0604 -0.122864,-0.1243 -0.122909,-0.10522 -4.6e-5,0.0169 -0.119453,0.0898 -0.1471,0.0898 -0.01546,0 -0.02319,0.012 -0.02319,0.035 0,0.063 -0.06261,0.10214 -0.151511,0.0947 -0.07521,-0.006 -0.08449,0.094 -0.01682,0.18117 0.04729,0.061 0.02546,0.21574 -0.04047,0.28875 -0.02137,0.0234 -0.02046,0.0335 0.0082,0.13069 0.07071,0.24332 0.0082,0.46288 -0.131458,0.46288 -0.02774,0 -0.02819,-0.003 0.0045,0.0607 0.02365,0.0467 0.05629,0.15695 0.0793,0.26917 0.02501,0.12106 0.407106,0.36378 0.724178,0.45979 0.147191,0.0446 0.147009,0.0446 0.224037,-0.0282 0.08067,-0.0762 0.14901,-0.0891 0.264416,-0.0499 0.0562,0.019 0.09872,0.0236 0.164334,0.0175 0.08981,-0.008 0.162606,0.0282 0.212351,0.10681 0.0091,0.0138 0.02956,0.0166 0.07339,0.01 0.142007,-0.0213 0.24832,0.098 0.24832,0.27846 0,0.0509 0,0.0536 0.0391,0.0479 0.02137,-0.003 0.0668,-0.01 0.100719,-0.0142 0.109268,-0.0144 0.156649,-0.0461 0.307478,-0.20564 0.200256,-0.21177 0.371046,-0.20449 0.578032,0.0246 0.191844,0.21234 0.06612,0.5932 -0.233632,0.70773 l -0.09717,0.0371 0.146327,0.15118 c 0.771877,0.79726 0.357087,2.06166 -0.616183,1.87842 -0.431797,-0.0813 -0.597904,-0.237 -0.692893,-0.64956 -0.02046,-0.0896 -0.0562,-0.12521 -0.209214,-0.20973 l -0.116362,-0.0642 -0.06589,0.0225 c -0.07998,0.0272 -0.160241,0.0189 -0.218853,-0.0229 -0.03456,-0.0246 -0.04861,-0.0275 -0.07198,-0.015 -0.02092,0.011 -0.05211,0.0113 -0.108858,9.1e-4 -0.0849,-0.0157 -0.105812,-0.0274 -0.159605,-0.0894 -0.03001,-0.0347 -0.04411,-0.0392 -0.119499,-0.0392 -0.04702,0 -0.117998,-0.009 -0.15774,-0.0206 -0.03956,-0.0113 -0.113815,-0.0307 -0.164606,-0.0431 -0.05084,-0.0124 -0.106858,-0.0263 -0.124592,-0.0308 -0.03001,-0.008 -0.03138,-0.005 -0.01773,0.0298 0.03683,0.0964 0.0341,0.22402 -0.0059,0.32539 l -0.03865,0.0966 0.04611,0.0865 c 0.03956,0.0742 0.04611,0.10083 0.04611,0.18713 -4.5e-5,0.14506 0.153284,0.3066 0.291063,0.3066 0.135823,0 0.253002,0.10031 0.316526,0.271 0.02683,0.0725 0.03729,0.0838 0.121818,0.13233 0.458442,0.26366 0.335988,0.94254 -0.205485,1.13915 -0.334715,0.12154 -0.379505,0.15566 -0.366273,0.27905 0.005,0.0489 0.01364,0.12811 0.01819,0.1759 l 0.0082,0.0869 0.11918,0.007 c 0.275784,0.0172 0.458807,0.19089 0.490091,0.4651 0.03047,0.26591 0.03047,0.26361 0.005,0.31239 -0.02137,0.0413 -0.02228,0.0572 -0.0068,0.12992 0.01637,0.0763 0.01501,0.1144 -0.0068,0.23242 -0.02728,0.14641 -0.03183,0.13222 0.05893,0.1714 0.25023,0.10797 0.35686,0.19592 0.446621,0.36842 0.293381,0.56374 0.227629,1.32199 -0.139825,1.61201 -0.04747,0.0375 -0.07098,0.0657 -0.06589,0.079 0.0059,0.0153 -0.0045,0.0206 -0.03547,0.0206 -0.02365,0 -0.04729,0.006 -0.05206,0.0142 -0.01046,0.0169 -0.939712,0.0201 -0.946988,0.003 z m 0.691302,-0.14803 c 0.44862,-0.15267 0.589036,-0.3414 0.5894,-0.79192 9.1e-5,-0.14582 -0.005,-0.18578 -0.0588,-0.45541 -0.04893,-0.2455 -0.174292,-0.43474 -0.341126,-0.51481 -0.04183,-0.02 -0.110587,-0.0626 -0.153011,-0.0946 -0.0924,-0.0697 -0.08212,-0.069 -0.195209,-0.0133 -0.0939,0.0462 -0.123955,0.0774 -0.168653,0.1753 -0.112315,0.24585 -0.296338,0.38607 -0.489409,0.37298 -0.08371,-0.006 -0.09699,-0.003 -0.142053,0.0322 -0.02728,0.0212 -0.0763,0.0519 -0.108722,0.0684 l -0.05902,0.0299 0.02637,0.10339 c 0.01455,0.0569 0.03319,0.18647 0.04138,0.28804 0.05502,0.67394 0.481724,0.99627 1.058801,0.79987 z m -0.864366,-0.84619 c -0.118317,-0.19143 0.525376,-0.48769 0.834855,-0.38425 0.0949,0.0317 0.07371,0.0811 -0.02274,0.0534 -0.235633,-0.0676 -0.76442,0.16058 -0.76442,0.32979 0,0.0148 -0.03865,0.0157 -0.04761,9.1e-4 z m -4.782,0.3448 c 0.292427,-0.0612 0.473994,-0.14113 0.613455,-0.27025 0.06607,-0.0612 0.103038,-0.0823 0.199028,-0.11394 0.462717,-0.15225 0.650514,-0.36496 0.538882,-0.61033 -0.04047,-0.0887 -0.06357,-0.10203 -0.126229,-0.0722 -0.126047,0.0601 -0.17561,0.0692 -0.316072,0.0579 -0.19871,-0.016 -0.243453,-0.0123 -0.328167,0.0268 -0.205167,0.0948 -0.338307,0.0899 -0.481496,-0.0177 -0.04274,-0.0322 -0.0683,-0.0385 -0.18466,-0.0457 -0.09558,-0.006 -0.151601,-0.0169 -0.192071,-0.0377 -0.04938,-0.0254 -0.0607,-0.0267 -0.0838,-0.01 -0.02546,0.0185 -0.02455,0.0203 0.01364,0.0348 0.07994,0.0304 0.233905,0.1432 0.233905,0.17136 0,0.0363 -0.005,0.0353 -0.09949,-0.0225 -0.23636,-0.14359 -0.388917,-0.16502 -0.624959,-0.0878 -0.323028,0.10574 -0.504232,0.29287 -0.504232,0.52073 0,0.31829 0.145827,0.4414 0.596585,0.50371 0.101265,0.014 0.643102,-0.006 0.745776,-0.0273 z m 1.01333,-0.24798 c 0.199483,-0.0686 0.318982,-0.16048 0.351949,-0.27053 0.01501,-0.0506 0.0045,-0.10573 -0.01182,-0.0603 -0.02092,0.0591 -0.296018,0.20875 -0.501049,0.27273 -0.12391,0.0386 -0.132094,0.044 -0.118999,0.0781 0.01273,0.0326 0.156968,0.0224 0.280013,-0.02 z m 3.468831,-0.57678 c 0.04656,-0.0121 0.117771,-0.0407 0.158241,-0.0635 0.0572,-0.0322 0.0904,-0.0412 0.149146,-0.0402 0.148328,0.002 0.291881,-0.1013 0.425567,-0.3075 0.06389,-0.0986 0.130639,-0.16536 0.253685,-0.25372 0.116952,-0.084 0.168517,-0.23756 0.123818,-0.36872 -0.01955,-0.0571 -0.01955,-0.0709 0,-0.12544 0.03001,-0.0874 0.005,-0.36052 -0.04183,-0.44802 -0.06398,-0.12034 -0.282378,-0.24637 -0.402786,-0.23242 l -0.06771,0.008 -0.01864,0.14641 c -0.03092,0.24773 -0.220855,0.6278 -0.334488,0.66988 -0.07498,0.0278 -0.08767,0.0368 -0.106858,0.0757 -0.01,0.0204 -0.03865,0.0515 -0.06389,0.0692 -0.02501,0.0176 -0.06261,0.0499 -0.08339,0.0717 -0.02683,0.0283 -0.05152,0.0396 -0.0863,0.0396 -0.03319,0 -0.05898,0.011 -0.08158,0.0351 -0.07471,0.0795 -0.553705,0.14431 -0.6883,0.0931 -0.149965,-0.057 -0.08749,0.21261 0.0773,0.33358 0.0391,0.0286 0.07103,0.0626 0.0713,0.0756 0,0.0769 0.12441,0.13715 0.280832,0.13766 0.06611,1.7e-4 0.122318,0.007 0.127865,0.0153 0.05338,0.0803 0.167108,0.10568 0.308751,0.0689 z m -4.048955,-0.24756 c 0.03911,-0.006 0.106176,-0.0225 0.149192,-0.0356 0.05629,-0.0171 0.127593,-0.0235 0.255458,-0.0226 0.123182,9.1e-4 0.201075,-0.006 0.255231,-0.0215 0.11959,-0.0348 0.307796,-0.16992 0.259915,-0.18667 -0.03047,-0.0106 -0.01955,-0.0448 0.02137,-0.0662 0.05989,-0.0314 0.102902,-0.0776 0.09399,-0.1009 -0.005,-0.0115 0.0091,-0.0407 0.0291,-0.0649 0.04411,-0.0523 0.0472,-0.10778 0.01046,-0.18079 -0.01455,-0.029 -0.03683,-0.0879 -0.0492,-0.13083 -0.03547,-0.12212 -0.108086,-0.18646 -0.144372,-0.12774 -0.04092,0.0665 -0.430341,0.27526 -0.583125,0.31277 -0.445847,0.10946 -0.782108,-0.0346 -1.117505,-0.47883 -0.08371,-0.1108 -0.141053,-0.083 -0.134778,0.0654 0.0045,0.0694 0,0.0746 -0.05952,0.12623 -0.112996,0.0974 -0.09217,0.26325 0.0542,0.43223 0.0291,0.0333 0.06361,0.0902 0.07712,0.12641 0.06261,0.16758 0.213306,0.26315 0.394692,0.25031 0.0964,-0.007 0.124455,9.1e-4 0.177929,0.0493 0.06639,0.06 0.167835,0.0777 0.310297,0.054 z m 3.608019,-0.46908 c 0.005,-0.008 0.02728,-0.0142 0.04993,-0.0142 0.04679,0 0.113451,-0.0267 0.113451,-0.0455 0,-0.0307 0.07189,-0.0823 0.114497,-0.0823 0.02683,0 0.06148,-0.0141 0.08699,-0.0355 0.02319,-0.0195 0.0542,-0.0355 0.06889,-0.0355 0.01773,0 0.03592,-0.0207 0.05443,-0.0627 0.03047,-0.0685 0.05338,-0.0859 0.133959,-0.10102 0.06398,-0.012 0.124228,-0.0785 0.158922,-0.1753 0.01319,-0.0362 0.03865,-0.10416 0.05738,-0.15103 0.03729,-0.0934 0.06171,-0.20938 0.07221,-0.34092 0.0045,-0.0469 0.0091,-0.0923 0.01228,-0.10089 0.0068,-0.0196 -0.04274,-0.27389 -0.05561,-0.28679 -0.005,-0.005 -0.05611,0.039 -0.113042,0.0982 -0.12541,0.13041 -0.244955,0.19719 -0.352949,0.19719 -0.06357,0 -0.07839,0.007 -0.156376,0.072 -0.144599,0.1208 -0.246319,0.16187 -0.436435,0.17618 -0.168653,0.0127 -0.198301,0.0204 -0.333851,0.0866 -0.182386,0.0891 -0.26046,0.10551 -0.503687,0.10571 -0.135459,1.1e-4 -0.230949,0.007 -0.277557,0.0204 -0.0693,0.0197 -0.26528,0.0908 -0.273738,0.0993 -0.02319,0.023 0.279286,0.24824 0.445074,0.33154 0.271919,0.13659 1.092951,0.31349 1.135512,0.24464 z m -3.31682,-0.25925 c 0.229994,-0.0797 0.391963,-0.17731 0.490864,-0.29567 l 0.05152,-0.0617 -0.04752,-0.0165 c -0.05961,-0.0206 -0.227493,-0.10829 -0.305158,-0.15931 -0.14278,-0.0938 -0.200575,-0.12419 -0.294519,-0.15496 -0.05511,-0.0181 -0.117589,-0.0328 -0.138824,-0.0328 -0.23104,0 -0.519874,-0.15423 -0.785564,-0.41948 -0.07853,-0.0784 -0.177884,-0.17033 -0.220854,-0.20436 l -0.07812,-0.0619 -0.005,0.0444 c -0.02455,0.24681 0.227175,0.85642 0.471993,1.14237 0.215444,0.25173 0.533971,0.33307 0.860592,0.21981 z m 1.548347,-0.47937 c 0.15583,-0.0158 0.298883,-0.0447 0.465718,-0.0942 0.101856,-0.0302 0.128093,-0.033 0.194572,-0.0207 0.1471,0.0272 0.440299,-0.0377 0.617138,-0.1366 0.08799,-0.0492 0.101492,-0.0523 0.263461,-0.0611 0.1978,-0.0108 0.250047,-0.0291 0.390963,-0.13731 0.119044,-0.0914 0.143871,-0.10404 0.20453,-0.10404 0.03092,0 0.08708,-0.0201 0.146509,-0.0524 0.09754,-0.053 0.138961,-0.0832 0.394692,-0.28803 0.128093,-0.10261 0.188752,-0.13956 0.348038,-0.21204 0.56571,-0.25745 0.655197,-0.72744 0.193708,-1.01703 -0.05343,-0.0335 -0.07653,-0.0611 -0.109813,-0.13072 -0.100265,-0.21011 -0.330623,-0.23235 -0.44994,-0.0434 -0.06803,0.10775 -0.06971,0.10906 -0.196709,0.15765 -0.06739,0.0258 -0.130685,0.0643 -0.190025,0.1157 -0.123228,0.10674 -0.184068,0.1344 -0.326803,0.14866 -0.110632,0.011 -0.273601,0.0657 -0.389826,0.13083 -0.01501,0.008 -0.09508,0.0205 -0.177566,0.0266 -0.155649,0.0115 -0.222401,0.0313 -0.38728,0.11453 -0.07748,0.0391 -0.09817,0.0437 -0.170381,0.0371 -0.07062,-0.006 -0.08872,-0.003 -0.128412,0.0259 -0.07953,0.0572 -0.163515,0.0898 -0.270145,0.1048 -0.05657,0.008 -0.179521,0.0309 -0.273283,0.0511 -0.370592,0.0796 -0.719494,0.0361 -0.763238,-0.0952 -0.0045,-0.008 -0.07112,-0.0201 -0.153602,-0.0264 -0.254276,-0.0192 -0.336261,-0.0539 -0.382414,-0.16153 -0.02501,-0.0578 -0.02774,-0.0595 -0.137188,-0.0848 -0.172882,-0.0399 -0.458761,-0.13513 -0.542428,-0.18064 -0.09513,-0.0517 -0.09672,-0.0516 -0.106767,0.0105 -0.01137,0.069 -0.0658,0.14714 -0.102902,0.14726 -0.05779,1.7e-4 -0.159922,-0.0449 -0.199846,-0.0882 -0.107131,-0.11627 -0.149328,-0.1508 -0.247137,-0.20219 -0.121455,-0.0638 -0.174065,-0.11468 -0.272511,-0.26349 -0.293563,-0.44365 -0.565709,-0.26051 -0.488544,0.32871 0.01137,0.0878 0.01,0.10003 -0.02774,0.17646 -0.0733,0.14983 -0.05138,0.25723 0.07771,0.38023 0.04693,0.0447 0.07712,0.0876 0.08662,0.12299 0.01682,0.0633 0.08248,0.12593 0.187024,0.1789 0.04893,0.0247 0.144371,0.10889 0.294245,0.25924 0.304704,0.30566 0.489,0.41473 0.832718,0.49287 0.173428,0.0394 0.325757,0.10366 0.468719,0.19769 0.153557,0.10096 0.371274,0.14836 0.556843,0.12123 0.101401,-0.0148 0.118862,-0.0136 0.198255,0.0139 0.200165,0.0693 0.328895,0.0822 0.573076,0.0574 z m 0.07807,-1.48695 c 0.07812,-0.0117 0.200711,-0.0255 0.272328,-0.0307 0.10272,-0.007 0.139552,-0.0162 0.174019,-0.0414 0.0241,-0.0176 0.06339,-0.0463 0.08749,-0.0639 0.03774,-0.0277 0.06261,-0.0322 0.18325,-0.0336 l 0.139506,-0.002 0.104357,-0.0649 c 0.155239,-0.0965 0.189297,-0.1071 0.395601,-0.12254 0.0954,-0.007 0.15574,-0.0198 0.20594,-0.0433 0.0753,-0.0353 0.36127,-0.11389 0.414154,-0.11389 0.01864,0 0.04365,-0.0173 0.06189,-0.0428 0.03729,-0.0524 0.170063,-0.1441 0.289517,-0.20001 0.07039,-0.0329 0.09581,-0.054 0.1225,-0.10155 0.01864,-0.033 0.05861,-0.087 0.08912,-0.12009 l 0.05538,-0.0601 -0.05279,-0.0644 c -0.06602,-0.0805 -0.0552,-0.0818 -0.225811,0.0264 -0.176792,0.11214 -0.363089,0.20588 -0.512462,0.25787 -0.06252,0.0217 -0.121272,0.0454 -0.13064,0.0525 -0.0091,0.007 -0.0477,0.0214 -0.08517,0.0318 -0.03774,0.0104 -0.132231,0.0382 -0.210351,0.0618 -0.548658,0.16565 -1.290297,0.23292 -1.8395,0.16684 l -0.191753,-0.0231 -0.02819,0.0394 c -0.09699,0.13471 -0.275784,0.24541 -0.396193,0.24541 -0.03592,0 -0.06539,0.005 -0.06539,0.0115 0,0.0348 0.04365,0.0593 0.12782,0.0719 0.05079,0.008 0.117907,0.0201 0.149146,0.0277 0.03137,0.008 0.08703,0.0181 0.123909,0.0232 0.04411,0.006 0.09749,0.0297 0.156195,0.0689 0.126501,0.0845 0.248137,0.0934 0.586399,0.0428 z m -0.979136,-0.40901 c 0.251457,-0.075 0.489273,-0.78126 0.354177,-1.05155 -0.104675,-0.20931 -1.076581,-0.43097 -1.32249,-0.30162 -0.199574,0.10496 -0.402786,0.75795 -0.291835,0.93752 0.06611,0.107 0.20985,0.21196 0.37432,0.27338 0.05698,0.0213 0.116361,0.0436 0.132004,0.0497 0.09649,0.0374 0.278057,0.0775 0.419064,0.0925 0.22472,0.024 0.25464,0.024 0.33476,7e-5 z m -0.526558,-0.28525 c -0.232859,-0.0421 -0.356678,-0.0994 -0.457715,-0.21175 l -0.0643,-0.0715 0.0068,-0.11367 c 0.0241,-0.37088 0.191889,-0.47507 0.61982,-0.385 0.333942,0.0703 0.500186,0.29178 0.269191,0.35872 -0.104903,0.0304 -0.103857,0.0788 0.0045,0.13321 0.07944,0.0405 0.09003,0.0916 0.04047,0.19434 -0.0487,0.1005 -0.19962,0.13509 -0.41761,0.0957 z m 0.337352,-0.11629 c 0.03865,-0.0346 0.02956,-0.0696 -0.02819,-0.11306 -0.07221,-0.0539 -0.08781,-0.0755 -0.08831,-0.12216 0,-0.0806 0.05852,-0.15201 0.126456,-0.15201 0.09522,0 -0.0059,-0.12089 -0.135232,-0.16216 -0.432342,-0.13768 -0.645103,-0.0511 -0.645103,0.26255 0,0.1911 0.620094,0.4219 0.770604,0.28684 z m -0.943713,0.33372 c 0.0045,-0.0469 -0.0045,-0.0621 -0.06543,-0.12784 -0.09817,-0.10499 -0.170927,-0.21657 -0.181158,-0.27796 -0.005,-0.0288 -0.01,-0.058 -0.01182,-0.065 0,-0.007 -0.07598,-0.0399 -0.165198,-0.0733 -0.168153,-0.0629 -0.312434,-0.15389 -0.37232,-0.23493 -0.0391,-0.053 -0.04274,-0.0524 -0.08731,0.0151 -0.04593,0.0694 -0.0462,0.0642 0.005,0.0856 0.05957,0.0247 0.113815,0.091 0.186296,0.22799 0.07807,0.14763 0.128502,0.20126 0.218445,0.23233 0.137915,0.0476 0.193981,0.0836 0.253594,0.1625 0.09558,0.12666 0.21126,0.15588 0.219581,0.0555 z m 2.445906,-0.12517 c 0.446211,-0.0503 0.612,-0.0754 0.80257,-0.12118 0.258141,-0.0621 0.626141,-0.17871 0.727634,-0.23064 0.04092,-0.0209 0.133504,-0.0685 0.205985,-0.10579 0.265826,-0.13682 0.360179,-0.22474 0.346083,-0.32243 -0.0045,-0.0276 -0.01137,-0.0838 -0.01637,-0.1249 l -0.0091,-0.0748 -0.06612,0.0476 c -0.0613,0.0441 -0.10954,0.0659 -0.29088,0.13158 -0.03774,0.0136 -0.08239,0.0352 -0.0994,0.048 -0.03138,0.0236 -0.215534,0.10621 -0.407332,0.18268 -0.220719,0.088 -0.650332,0.14378 -0.802571,0.10414 -0.107358,-0.028 -0.198982,-0.0611 -0.284969,-0.1031 l -0.08608,-0.0421 -0.09149,0.0225 c -0.157649,0.0389 -0.334305,0.0592 -0.543019,0.0625 -0.110859,0.002 -0.202893,0.005 -0.204576,0.006 0,0.002 -0.0091,0.038 -0.01728,0.0807 -0.02365,0.132 -0.05638,0.26457 -0.0853,0.3467 -0.01864,0.0525 -0.02274,0.0817 -0.01273,0.0879 0.04711,0.0291 0.688573,0.0322 0.934528,0.005 z m -2.700546,-0.55506 c 0,-0.0479 0.01501,-0.12441 0.03047,-0.17 0.06029,-0.17911 -0.02137,-0.22912 -0.405742,-0.24862 l -0.181294,-0.009 0.01,0.0748 c 0.02274,0.17093 0.130731,0.29367 0.324803,0.36896 0.06434,0.0249 0.129639,0.0507 0.145281,0.0573 0.06489,0.0274 0.07371,0.019 0.07648,-0.0732 z m 7.406245,0.0144 c 0.36468,-0.0941 0.562026,-0.40832 0.56389,-0.89791 0,-0.4518 -0.54934,-1.12093 -0.696576,-0.84584 -0.01728,0.0323 -0.05361,0.035 -0.0653,0.005 -0.01682,-0.0436 0.186751,-0.19104 0.263643,-0.19104 0.314208,0 0.502459,-0.38629 0.299293,-0.61421 -0.122182,-0.13713 -0.178021,-0.13114 -0.363044,0.0389 -0.18816,0.17295 -0.21517,0.18543 -0.537562,0.24831 -0.443847,0.0866 -0.514009,0.16752 -0.561481,0.64756 -0.01637,0.16423 -0.04597,0.25203 -0.08289,0.24455 -0.02546,-0.005 -0.0291,-0.0369 -0.01137,-0.0964 0.01864,-0.0617 -0.05479,0.0348 -0.112177,0.14751 -0.115589,0.22672 -0.0082,0.47782 0.248091,0.57693 0.113543,0.044 0.151193,0.0949 0.221446,0.29896 0.131276,0.38161 0.434752,0.54096 0.833991,0.43796 z m -3.94378,-0.0753 c 0.06139,-0.0111 0.142825,-0.0244 0.180885,-0.0296 0.0382,-0.005 0.117953,-0.0277 0.177566,-0.0502 0.05961,-0.0224 0.213215,-0.0796 0.341445,-0.1271 0.522284,-0.19341 0.675341,-0.37043 0.576804,-0.66711 -0.04047,-0.12181 -0.270418,-0.15235 -0.37714,-0.0501 -0.04783,0.0458 -0.08044,0.0334 -0.06571,-0.025 0.03183,-0.12685 0.305113,-0.14884 0.743458,-0.0598 0.100173,0.0203 0.204439,0.0381 0.231813,0.0393 l 0.0497,0.002 0.01273,-0.0831 c 0.01228,-0.0825 0.01228,-0.0837 -0.0462,-0.16622 -0.123182,-0.1746 -0.119726,-0.45059 0.0077,-0.62082 0.03228,-0.0429 0.03319,-0.0485 0.01273,-0.0777 -0.06898,-0.0985 0.08712,-0.43847 0.251366,-0.54757 0.06921,-0.046 0.07071,-0.043 -0.05757,-0.11407 -0.141325,-0.0782 -0.268417,-0.1737 -0.432023,-0.32447 l -0.130321,-0.12014 -0.01591,0.054 c -0.05202,0.174 -0.194982,0.33103 -0.30143,0.33103 h -0.06352 l 0.01228,0.0533 c 0.08571,0.375 -0.154375,0.67567 -0.456578,0.57171 -0.04547,-0.0156 -0.08499,-0.0262 -0.0878,-0.0234 -0.0045,0.003 -0.02728,0.0364 -0.05429,0.0746 -0.101037,0.14273 -0.311297,0.26128 -0.46349,0.26128 -0.05779,0 -0.196891,-0.0605 -0.196891,-0.0856 0,-0.008 -0.03047,0.008 -0.06748,0.0351 -0.337216,0.24609 -0.710809,0.2391 -0.853543,-0.016 -0.01046,-0.019 -0.02637,-0.0137 -0.110223,0.0367 -0.116134,0.07 -0.2932,0.12908 -0.387143,0.12908 h -0.06739 l -0.03911,0.0886 c -0.02319,0.0518 -0.0457,0.13796 -0.0547,0.20733 -0.01228,0.0933 -0.02319,0.12817 -0.05229,0.16271 -0.03092,0.0369 -0.03638,0.0555 -0.03274,0.11582 0.0045,0.0639 -0.0045,0.0839 -0.0613,0.18123 -0.06143,0.10243 -0.06571,0.11629 -0.06821,0.21792 l -0.0045,0.10854 0.05679,0.0224 c 0.185069,0.0728 0.286561,0.19843 0.301157,0.37266 l 0.0082,0.0996 0.0517,0.0139 c 0.0798,0.0215 0.641101,-0.0265 0.639873,-0.0547 0,-0.021 -0.131912,-0.0729 -0.184113,-0.0729 -0.05702,0 -0.08271,-0.0392 -0.04229,-0.0643 0.02819,-0.0175 0.340217,0.0699 0.340217,0.0954 0,0.006 0.0082,0.0116 0.01773,0.0117 0.01,4e-5 0.06698,0.0192 0.127184,0.0427 0.183659,0.0714 0.414062,0.09 0.631188,0.0508 z m -3.306044,-0.3669 c 0.07257,-0.11266 0.0899,-0.1346 0.149283,-0.18916 0.03456,-0.0318 0.0929,-0.0734 0.129366,-0.0924 l 0.06639,-0.0345 -0.0082,-0.0852 c -0.01,-0.10398 0.01501,-0.22654 0.06903,-0.33954 0.03501,-0.0735 0.03774,-0.0894 0.02365,-0.12885 -0.03456,-0.0954 -0.01364,-0.20433 0.05648,-0.29428 0.02592,-0.0332 0.04092,-0.0694 0.04092,-0.0986 0,-0.0371 0.0141,-0.0589 0.07107,-0.11187 0.05911,-0.0546 0.0748,-0.08 0.09281,-0.15001 0.01182,-0.0463 0.05243,-0.14551 0.09003,-0.22035 l 0.06839,-0.13607 -0.03365,-0.0415 c -0.03865,-0.0473 -0.09363,-0.16302 -0.0828,-0.17377 0.0045,-0.004 0,-0.0145 -0.0059,-0.0235 -0.02683,-0.0321 -0.0542,-0.26708 -0.04456,-0.38011 l 0.0091,-0.10978 -0.04997,-0.0323 c -0.125137,-0.081 -0.139643,-0.38582 -0.03274,-0.68971 0.03956,-0.11296 0.05152,-0.16334 0.04002,-0.17046 -0.114724,-0.0714 -0.08958,-0.33115 0.05252,-0.54268 0.09276,-0.13814 0.101947,-0.15789 0.08558,-0.1841 -0.0622,-0.0996 0.188342,-0.49359 0.384279,-0.60436 0.01364,-0.008 0.03501,-0.043 0.04693,-0.0781 0.03183,-0.0935 0.07521,-0.14243 0.18034,-0.2039 0.05147,-0.0301 0.104357,-0.0717 0.117452,-0.0923 0.01319,-0.0207 0.04001,-0.0552 0.06029,-0.0768 l 0.03638,-0.0392 -0.04897,-0.0419 c -0.195436,-0.16731 -0.497957,-0.23666 -0.709581,-0.16273 -0.05752,0.0201 -0.116134,0.0335 -0.130321,0.0297 -0.0502,-0.0131 -0.127275,0.0241 -0.186797,0.0903 -0.03729,0.0411 -0.08462,0.0754 -0.126865,0.0916 -0.340945,0.13002 -0.381551,0.77631 -0.102629,1.63405 0.177975,0.54733 0.153557,0.69355 -0.176975,1.05931 -0.07471,0.0826 -0.158104,0.18878 -0.185432,0.23592 -0.02728,0.0472 -0.07912,0.12978 -0.114952,0.18361 -0.149419,0.2243 -0.288516,0.59984 -0.32562,0.8792 -0.03456,0.26164 -0.131549,0.5547 -0.227767,0.68988 -0.0382,0.0534 -0.08453,0.23417 -0.08453,0.32859 0,0.13055 0.09022,0.17948 0.387098,0.20992 0.157149,0.0162 0.306705,0.0669 0.349766,0.11882 0.02728,0.0331 0.03774,0.0298 0.07139,-0.0227 z m 1.255784,-0.26271 c 0.01682,-0.12185 0.05161,-0.23512 0.08972,-0.29155 0.03365,-0.0497 0.04001,-0.0733 0.0382,-0.13644 0,-0.0657 0.0045,-0.0837 0.04001,-0.12941 0.03228,-0.04 0.04602,-0.0764 0.05611,-0.14803 0.0141,-0.098 0.0527,-0.19174 0.101311,-0.24492 l 0.02774,-0.0305 -0.06152,-0.0427 c -0.140734,-0.0979 -0.306751,-0.35162 -0.345538,-0.52814 -0.0091,-0.0388 -0.01455,-0.0438 -0.04047,-0.0348 -0.01682,0.006 -0.07853,0.0118 -0.137096,0.0132 l -0.10654,0.003 -0.04502,0.0743 c -0.02501,0.0409 -0.06498,0.13545 -0.0894,0.2102 -0.05447,0.16667 -0.07748,0.21262 -0.112224,0.22365 -0.02592,0.008 -0.04456,0.061 -0.04456,0.12573 0,0.0161 -0.01319,0.0431 -0.02865,0.06 -0.04743,0.0505 -0.0853,0.17438 -0.08244,0.26944 0,0.0654 -0.0077,0.11414 -0.0432,0.2094 -0.107631,0.29217 -0.09308,0.33073 0.12932,0.34319 0.188434,0.0105 0.314299,0.0282 0.437071,0.061 0.04274,0.0115 0.09936,0.0262 0.125411,0.0327 0.02592,0.006 0.05088,0.0153 0.05529,0.0197 0.01546,0.0157 0.02956,-0.006 0.03683,-0.0587 z m 4.582198,-0.11173 c 0.0045,-0.003 -0.01,-0.0384 -0.02819,-0.0797 -0.08458,-0.18819 -0.02637,-0.42852 0.143644,-0.59348 0.105357,-0.10223 0.11336,-0.1199 0.113951,-0.2512 0,-0.33818 0.104585,-0.47929 0.439436,-0.60166 l 0.10613,-0.0388 -0.005,-0.062 c -0.0091,-0.12841 -0.06639,-0.18893 -0.164288,-0.17305 -0.04502,0.007 -0.05779,9.1e-4 -0.113769,-0.05 -0.07507,-0.0692 -0.112178,-0.0807 -0.199802,-0.062 -0.04743,0.0101 -0.08462,0.009 -0.133731,-0.004 -0.07448,-0.0197 -0.145281,-0.003 -0.161151,0.0387 -0.005,0.0115 -0.03456,0.0251 -0.06689,0.0303 -0.04633,0.007 -0.07944,0.0286 -0.154876,0.0995 -0.05279,0.0495 -0.121272,0.10686 -0.152238,0.12737 -0.109404,0.0724 -0.215762,0.3164 -0.168972,0.38777 0.0291,0.0447 0.02683,0.0659 -0.01273,0.1027 -0.01864,0.0174 -0.04502,0.0585 -0.05843,0.0913 -0.01364,0.0328 -0.03365,0.0765 -0.04456,0.0973 -0.01182,0.0227 -0.01955,0.0791 -0.0191,0.14205 0,0.10764 0.0068,0.12472 0.08999,0.25998 0.03501,0.0566 0.04229,0.0869 0.05052,0.20428 0.01501,0.21564 0.09399,0.30087 0.261188,0.28155 0.06462,-0.007 0.08108,-0.004 0.137369,0.0324 0.05679,0.0363 0.11236,0.0445 0.140416,0.0206 z m -2.982605,-1.03023 c 0.123227,-0.0411 0.140961,-0.0519 0.225038,-0.13722 0.09599,-0.0974 0.116406,-0.0999 0.116907,-0.014 2.27e-4,0.0572 0.04229,0.073 0.170881,0.0642 0.204076,-0.014 0.425931,-0.16616 0.425931,-0.29212 0,-0.0584 0.03683,-0.0646 0.104857,-0.0178 0.227084,0.15625 0.483361,-0.10799 0.400876,-0.41333 -0.04711,-0.17439 -0.0477,-0.16789 0.01455,-0.16798 0.210351,-2.4e-4 0.387098,-0.26095 0.339217,-0.50023 -0.01819,-0.0915 -0.05134,-0.17786 -0.08589,-0.22468 -0.04593,-0.0622 -0.04547,-0.0643 0.02546,-0.0974 0.138187,-0.0646 0.166789,-0.12935 0.149282,-0.33793 -0.0068,-0.0795 -0.02137,-0.15679 -0.0341,-0.17977 -0.02228,-0.0397 -0.02137,-0.0411 0.03592,-0.0981 0.03229,-0.0318 0.05898,-0.068 0.05989,-0.0804 0.005,-0.0651 -0.0082,-0.11122 -0.0391,-0.14817 -0.0341,-0.0403 -0.03501,-0.0814 -0.0045,-0.11524 0.02637,-0.0282 0.01046,-0.0605 -0.04411,-0.0913 -0.05043,-0.0283 -0.109859,-0.0888 -0.196482,-0.19986 -0.03047,-0.0391 -0.11336,-0.009 -0.09649,0.0355 0.01319,0.0344 -0.01955,0.10128 -0.05811,0.11888 l -0.03729,0.0169 0.07171,0.0738 c 0.165516,0.17053 0.197846,0.25114 0.144008,0.35894 -0.03228,0.0651 -0.05329,0.0811 -0.125774,0.0972 -0.02228,0.005 -0.04365,0.0254 -0.05684,0.0542 -0.04229,0.0925 -0.209032,0.12137 -0.369319,0.064 -0.123955,-0.0443 -0.147509,-0.10569 -0.03319,-0.0862 0.182522,0.0311 0.350312,-0.005 0.316754,-0.0672 -0.02228,-0.0419 -0.0082,-0.0522 0.08508,-0.0631 0.263916,-0.0307 -0.01955,-0.37356 -0.425567,-0.51486 l -0.134959,-0.047 -0.02819,0.0324 c -0.293018,0.33431 -1.195079,-0.0307 -1.056755,-0.42766 0.05493,-0.15755 -0.498913,-0.31391 -0.782745,-0.221 -0.132231,0.0433 -0.16206,0.11759 -0.04788,0.1193 0.04411,9.1e-4 0.05788,0.0266 0.05929,0.11172 0,0.0935 0.04274,0.15367 0.14419,0.21073 0.121591,0.0684 0.103356,0.13238 -0.02546,0.0897 -0.130003,-0.043 -0.259232,-0.21428 -0.234132,-0.31029 0.0059,-0.0234 0,-0.0333 -0.03274,-0.0453 -0.09272,-0.0351 -0.132503,-0.11377 -0.07971,-0.15759 0.0934,-0.0776 0.27874,-0.13831 0.436298,-0.14301 l 0.109677,-0.003 0.02728,-0.0535 c 0.01501,-0.0294 0.04229,-0.0634 0.06079,-0.0755 0.03001,-0.0197 0.03319,-0.0312 0.03001,-0.11029 l -0.0045,-0.0883 -0.133322,-0.01 c -0.287516,-0.0213 -0.303794,-0.0159 -0.303794,0.10091 0,0.0436 -0.005,0.0506 -0.04274,0.0585 -0.129458,0.0273 -0.332124,0.17002 -0.241454,0.17002 0.05848,0 0,0.0676 -0.07812,0.0921 -0.117135,0.0362 -0.268054,0.19072 -0.220355,0.22561 0.03137,0.0228 0.02001,0.0658 -0.01728,0.0658 -0.08621,0 -0.33908,0.23348 -0.37864,0.34955 -0.03047,0.0899 -0.0291,0.10334 0.01273,0.11921 0.04688,0.0178 0.04638,0.0196 -0.03183,0.10569 -0.1225,0.13464 -0.22904,0.34716 -0.230222,0.45911 v 0.0605 l 0.05502,-0.009 c 0.07389,-0.0118 0.07871,0.003 0.03547,0.10963 -0.178248,0.43773 -0.195936,0.77504 -0.04047,0.77093 0.07189,-0.002 0.07898,0.0106 0.05279,0.0917 -0.0291,0.0898 -0.02774,0.42646 0,0.5267 0.01182,0.0396 0.01819,0.072 0.01455,0.072 -0.01046,0 0.03365,0.0803 0.05752,0.10405 0.03319,0.033 0.18516,0.0432 0.277239,0.0186 0.09258,-0.0247 0.09967,-0.0218 0.09967,0.041 0,0.131 0.16688,0.43589 0.275193,0.50284 0.190889,0.11799 0.529469,0.0795 0.676342,-0.0768 0.05638,-0.06 0.09867,-0.0473 0.157695,0.0473 0.09021,0.14455 0.229085,0.16928 0.48045,0.0855 z m -1.085399,-1.40432 c -0.0059,-0.009 -0.0045,-0.0231 0.0045,-0.0309 0.0091,-0.009 0.01773,-0.009 0.02455,0.002 0.0059,0.009 0.0045,0.0231 -0.0045,0.0309 -0.0091,0.009 -0.01773,0.009 -0.02455,-0.002 z m 0.86473,-0.76683 c -0.03501,-0.0142 -0.09708,-0.13316 -0.0854,-0.16387 0.01319,-0.0341 0.03456,-0.0243 0.0587,0.0267 0.02274,0.048 0.07089,0.0801 0.120227,0.0801 0.07698,0 0.09799,0.048 0.02728,0.0622 -0.05629,0.0113 -0.08299,0.0101 -0.120682,-0.005 z m 0.170518,-0.18376 c -0.06298,-0.0272 -0.133777,-0.13949 -0.212352,-0.33673 -0.0432,-0.10836 -0.09112,-0.2183 -0.106448,-0.2443 -0.01546,-0.026 -0.0241,-0.0532 -0.01955,-0.0604 0.01773,-0.029 0.04738,-0.01 0.0748,0.0484 0.07348,0.15626 0.247591,0.30177 0.410333,0.34285 0.05311,0.0134 0.111223,0.0302 0.129185,0.0373 0.09681,0.0382 0.263416,0.0123 0.292244,-0.0456 0.02456,-0.0491 0.05779,-0.043 0.06307,0.0115 0.005,0.0468 0.08344,0.13213 0.122227,0.13213 0.03183,0 0.05438,0.0363 0.03319,0.0537 -0.01864,0.0155 -0.139324,-0.027 -0.185568,-0.0655 -0.02774,-0.0232 -0.04861,-0.0171 -0.222992,0.0658 -0.141143,0.0671 -0.303203,0.0932 -0.378049,0.0608 z m 0.143735,-0.0939 c -0.06621,-0.0218 -0.16156,-0.0273 -0.141371,-0.008 0.0191,0.0182 0.06061,0.0265 0.134277,0.0266 l 0.06389,1.6e-4 -0.05679,-0.0187 z m 2.616742,0.96067 c 0.01773,-0.0265 0.03229,-0.0635 0.03229,-0.0821 0,-0.0478 0.03774,-0.0569 0.07798,-0.0188 0.09681,0.0909 0.219172,-0.0595 0.135231,-0.16627 -0.03638,-0.0464 -0.02956,-0.0553 0.05329,-0.0663 0.09049,-0.012 0.131185,-0.0417 0.131185,-0.0956 0,-0.10504 -0.08799,-0.1699 -0.163424,-0.12048 -0.0597,0.0392 -0.09149,0.003 -0.06311,-0.0718 0.05152,-0.13533 -0.118998,-0.18591 -0.208168,-0.0618 l -0.05202,0.0724 -0.03729,-0.0423 c -0.0527,-0.06 -0.08858,-0.0664 -0.134277,-0.0241 -0.05911,0.0548 -0.0477,0.0992 0.03683,0.1424 0.04856,0.0249 0.03274,0.0426 -0.04743,0.0539 -0.18516,0.0259 -0.181659,0.20632 0.005,0.25282 0.07012,0.0175 0.08362,0.0392 0.04456,0.0715 -0.03274,0.0272 -0.02046,0.16574 0.01728,0.19327 0.0497,0.0364 0.135323,0.0181 0.1722,-0.0368 z m 0.172292,-0.88003 c 0.09658,-0.25481 0.172654,-0.60697 0.172654,-0.79937 0,-0.0911 -0.0082,-0.15343 -0.05461,-0.44565 -0.02183,-0.13576 -0.08571,-0.35283 -0.182931,-0.62101 -0.203894,-0.56273 -0.831308,-1.080478 -1.381876,-1.140378 -0.05079,-0.006 -0.105084,-0.0127 -0.120726,-0.0159 -0.103084,-0.0211 -0.495912,9.1e-4 -0.653424,0.0376 -0.227448,0.0521 -0.791476,0.372348 -0.729134,0.413958 0.01864,0.0123 0.264416,0.005 0.370592,-0.0111 0.188979,-0.0286 0.391736,0.062 0.53929,0.24101 0.03183,0.0384 0.04001,0.0408 0.161151,0.0446 0.226129,0.007 0.375457,0.0893 0.375457,0.20645 0,0.0696 0.04411,0.10442 0.213079,0.16861 0.205349,0.078 0.231222,0.0898 0.338808,0.15547 0.110586,0.0675 0.135868,0.0865 0.244181,0.18405 l 0.06802,0.0612 0.01,-0.0954 c 0.0059,-0.0525 0.0059,-0.14072 0,-0.19613 -0.01682,-0.17168 -0.01682,-0.17177 0.0059,-0.17177 0.04047,0 0.07389,0.13091 0.08212,0.32312 0.005,0.12665 0.01364,0.18583 0.02683,0.19695 0.0291,0.0242 0.142598,0.002 0.176611,-0.0343 0.02319,-0.0251 0.03092,-0.0272 0.04092,-0.011 0.03501,0.0564 -0.06489,0.14313 -0.164788,0.14313 -0.05739,0 -0.07948,0.0158 -0.04879,0.0348 0.08062,0.0498 0.115952,0.34584 0.05179,0.43286 -0.04229,0.0576 -0.03274,0.10943 0.03592,0.19243 0.06534,0.079 0.183614,0.25463 0.183614,0.27254 0,0.007 0.0191,0.0582 0.04274,0.11394 0.02319,0.0558 0.0497,0.15152 0.05843,0.2128 0.0091,0.0613 0.01773,0.11813 0.01955,0.12632 0.0091,0.0351 0.103675,0.0192 0.118499,-0.0199 z m -0.792794,-0.56936 c -0.03319,-0.0622 -0.01955,-0.0906 0.04002,-0.0826 0.109904,0.0147 0.16838,-0.0749 0.107403,-0.16461 -0.04547,-0.0669 -0.03683,-0.10158 0.02228,-0.0898 0.11768,0.0236 0.108995,-0.20867 -0.01501,-0.40617 -0.153647,-0.24428 -0.339398,-0.37536 -0.860227,-0.60694 -0.07071,-0.0314 -0.104403,-0.0716 -0.104403,-0.12442 0,-0.0975 -0.13264,-0.17413 -0.301657,-0.17441 -0.15292,-1.7e-4 -0.169472,-0.006 -0.20885,-0.0694 -0.0924,-0.14958 -0.244136,-0.19196 -0.652697,-0.18231 -0.217535,0.005 -0.307705,0.002 -0.362225,-0.0125 -0.09999,-0.0266 -0.10954,-0.0254 -0.180521,0.0227 -0.05284,0.0357 -0.07644,0.0424 -0.151738,0.0426 -0.167062,4.5e-4 -0.244455,0.0664 -0.244545,0.20833 -4.6e-5,0.0518 -0.01046,0.0911 -0.03547,0.13494 -0.132458,0.23175 -0.04001,0.26111 0.779471,0.24712 l 0.598221,-0.0102 0.142871,0.0356 c 0.3911,0.0973 0.645239,0.29271 0.864139,0.6644 0.306841,0.52102 0.371137,0.59397 0.524058,0.59484 0.04879,2.5e-4 0.05243,-0.002 0.03911,-0.0271 z m -1.406749,-0.0229 c 0.12109,-0.0186 0.184659,-0.0729 0.184659,-0.15761 0,-0.10764 0.0587,-0.12973 0.07971,-0.03 l 0.01273,0.0604 0.125455,0.0307 c 0.06898,0.0169 0.166744,0.0504 0.217263,0.0746 0.130366,0.0623 0.175747,0.0452 0.175747,-0.0661 0,-0.044 0.04092,-0.0854 0.106539,-0.10791 0.05088,-0.0174 -0.368773,-0.66288 -0.431069,-0.66288 -0.0077,0 -0.01591,-0.005 -0.01864,-0.0115 -0.01,-0.0242 -0.165016,-0.12984 -0.252093,-0.17176 -0.213807,-0.10289 -0.308296,-0.11291 -0.893059,-0.0947 l -0.373411,0.0116 0.0045,0.0992 c 0.0045,0.10449 0.0068,0.0965 -0.07557,0.15698 -0.05402,0.0393 -0.04633,0.0784 0.01864,0.0959 0.09281,0.025 0.223992,0.0954 0.303658,0.16306 l 0.07171,0.0609 0.03456,-0.0267 c 0.09858,-0.0758 0.129821,-0.009 0.03501,0.075 -0.168563,0.14839 0.0522,0.41688 0.396283,0.48194 0.0477,0.009 0.105857,0.0212 0.129321,0.0271 0.02365,0.006 0.0522,0.009 0.06389,0.006 0.01182,-0.003 0.05011,-0.009 0.08521,-0.0145 z m 0.131367,-0.43187 c -0.0613,-0.0993 0.01682,-0.28483 0.119953,-0.28483 0.161606,0 0.124137,0.29898 -0.03865,0.30949 -0.05102,0.003 -0.06689,-9.1e-4 -0.08121,-0.0246 z m 0.152738,-0.18385 c 0,-0.03 -0.02319,-0.003 -0.03456,0.0411 -0.0091,0.0342 -0.0091,0.0344 0.01273,0.008 0.01228,-0.0151 0.02228,-0.0372 0.02228,-0.049 z m -0.73077,-0.0615 c -0.0668,-0.0953 0.03183,-0.25896 0.145826,-0.24187 0.107404,0.0161 0.0919,0.16739 -0.02546,0.24902 -0.04797,0.0334 -0.0939,0.0307 -0.120317,-0.007 z m 0.140051,-0.11961 c 0.01364,-0.0353 0,-0.0401 -0.01955,-0.006 -0.0091,0.0163 -0.01,0.0296 -0.0045,0.0296 0.0068,0 0.01728,-0.0105 0.02228,-0.0234 z m 0.675933,0.0682 c 0,-0.0296 -0.01,-0.0448 -0.03683,-0.057 -0.04702,-0.0214 -0.03774,-0.0485 0.02046,-0.0604 0.07798,-0.016 0.114679,0.0552 0.06502,0.12621 -0.03001,0.043 -0.04893,0.0396 -0.04893,-0.009 z m -0.780426,-0.27827 c -0.04001,-0.0482 0.107131,-0.13803 0.164425,-0.10048 0.05929,0.0388 0.0382,0.12735 -0.02137,0.0901 -0.02728,-0.017 -0.03729,-0.0147 -0.116679,0.0271 -0.005,0.002 -0.01637,-0.005 -0.02592,-0.0168 z m -3.02644,0.3082 c 0.04411,-0.13717 0.139552,-0.26139 0.232268,-0.30302 0.04047,-0.0181 0.106813,-0.0671 0.148328,-0.10926 0.0853,-0.0867 0.145554,-0.11701 0.233314,-0.11728 0.03365,-9e-5 0.102356,-0.0133 0.153147,-0.0294 0.174792,-0.0553 0.346401,-0.0386 0.528696,0.0515 l 0.0959,0.0474 0.02137,-0.0307 c 0.02819,-0.0399 0.02728,-0.10874 0,-0.18135 -0.01955,-0.0485 -0.02046,-0.0675 -0.0059,-0.1146 0.03365,-0.11182 -0.0045,-0.25401 -0.08776,-0.33464 -0.09663,-0.0928 -0.258323,-0.1288 -0.394646,-0.088 -0.0472,0.0141 -0.0587,0.0125 -0.09622,-0.0142 -0.08358,-0.0596 -0.242362,-0.0443 -0.402376,0.0386 -0.106858,0.0554 -0.15192,0.0706 -0.229904,0.0777 -0.143962,0.0131 -0.192071,0.0641 -0.404877,0.42875 -0.0853,0.14624 -0.09513,0.28531 -0.02728,0.38783 0.02956,0.0444 0.03911,0.0764 0.03911,0.12942 0,0.0926 0.01592,0.13011 0.08653,0.20691 0.07057,0.0766 0.0733,0.0755 0.112405,-0.0456 z m -0.0939,-1.04923 c 0.06994,-0.0944 0.203212,-0.1687 0.328303,-0.18296 0.0583,-0.007 0.126456,-0.0301 0.21558,-0.0741 0.153148,-0.0757 0.218809,-0.0817 0.362544,-0.0331 0.178202,0.0602 0.238634,-0.0121 0.238634,-0.285328 0,-0.18251 0.005,-0.19774 0.09822,-0.29975 0.273374,-0.29913 0.02319,-0.52032 -0.360634,-0.31854 -0.128684,0.0677 -0.218399,0.16709 -0.276511,0.30633 -0.05038,0.1209 -0.145873,0.22805 -0.203303,0.22826 -0.04047,1.5e-4 -0.02865,-0.0383 0.0241,-0.0784 0.04092,-0.0313 0.09354,-0.12726 0.07671,-0.1403 -0.240453,-0.18666 -0.811073,-0.37999 -1.047388,-0.35488 -0.833354,0.0886 -0.789156,0.883078 0.06939,1.247308 0.105494,0.0447 0.230131,0.10535 0.277012,0.13468 l 0.08517,0.0533 0.03547,-0.0735 c 0.01955,-0.0404 0.05402,-0.0985 0.07662,-0.12896 z m 0.208259,-0.448118 c -0.07548,-0.0433 -0.0808,-0.0442 -0.210351,-0.0365 -0.151692,0.009 -0.181203,-0.0186 -0.0602,-0.0565 0.135459,-0.0424 0.343946,0.007 0.381869,0.09 0.02819,0.0614 -0.0082,0.0624 -0.111269,0.003 z"
         id="path35649"
         sodipodi:nodetypes="ccsssssssccssssssccsssscscsscsssscssccscsssscsscsccsssssssssssssscssssssscsssscssccscssscssccssscscsssssssssssssssscssssssssccssscsssscssccsscsssscsssssssscsssscssssssccsssssssssscccsscsssccssssssssssssscssssssscsssssscsssccscsssssscsscccsscscssccsssssscssssscccssssscssscsssscssscsscccsccsssssccscccscsssssssssssssssssssscssssssssssssssssssccccsssccsssscssscssssscscssssssscccssssssccscssscsccssssssssscscssssssssscssscccsscssscscscscccscscsssssscssssssssssssssccssssssccssscssscsscsssssscssscsssccccsscssssssscccsscsscssssscsscscsscssscssscssssssssssssssccssscsscsscccssssccsssssssccscsccscsccssssssccsssscccscsssscsssssscsssssscssssssssscsssccssscsccssccsssscsssssccsccscssssssscccccccsssssssssssssssssssssssssccsssssssscscsssssscsscssssccsssssssscscsssssscssscscccssssssscsscscscscsscsscssccsssscssccssscscsscccsscsscssccssssscsscccsssccssscsscssscscssscscssssssccsssssssssssssscssscssscc" />
    </g>
  </g>
</svg>
