<?xml version="1.0" encoding="UTF-8" standalone="no"?>
<!-- Created with Inkscape (http://www.inkscape.org/) -->

<svg
   width="16.526941mm"
   height="17.630354mm"
   viewBox="0 0 16.526942 17.630353"
   version="1.1"
   id="svg5985"
   inkscape:version="1.2.2 (b0a8486541, 2022-12-01)"
   sodipodi:docname="christmas_tree.svg"
   xmlns:inkscape="http://www.inkscape.org/namespaces/inkscape"
   xmlns:sodipodi="http://sodipodi.sourceforge.net/DTD/sodipodi-0.dtd"
   xmlns="http://www.w3.org/2000/svg"
   xmlns:svg="http://www.w3.org/2000/svg">
  <sodipodi:namedview
     id="namedview5987"
     pagecolor="#ffffff"
     bordercolor="#000000"
     borderopacity="0.25"
     inkscape:showpageshadow="2"
     inkscape:pageopacity="0.0"
     inkscape:pagecheckerboard="0"
     inkscape:deskcolor="#d1d1d1"
     inkscape:document-units="mm"
     showgrid="false"
     inkscape:zoom="5.3088146"
     inkscape:cx="32.493129"
     inkscape:cy="33.811691"
     inkscape:window-width="796"
     inkscape:window-height="878"
     inkscape:window-x="160"
     inkscape:window-y="18"
     inkscape:window-maximized="1"
     inkscape:current-layer="g118372" />
  <defs
     id="defs5982">
    <clipPath
       clipPathUnits="userSpaceOnUse"
       id="clipPath25107-2">
      <path
         id="path25109-8"
         style="fill:#ff0000;fill-opacity:1;fill-rule:nonzero;stroke:none;stroke-width:323.257"
         d="m 422.36252,921.96649 -226.92065,0.0423 v 505.51131 c 0.43641,-0.046 0.8707,-0.085 1.30626,-0.1397 0.68488,-0.089 1.36171,-0.2666 2.04997,-0.3217 4.17402,-0.3344 0.72509,-0.042 3.72025,-0.085 0.49482,0 0.98626,-0.059 1.48023,-0.089 2.64088,-0.2032 5.26059,-0.4897 7.91163,-0.5206 3.07432,-0.042 0.33016,0.1185 2.88511,-0.059 0.13122,0 0.26667,-0.042 0.39789,-0.051 h 0.0423 c 0,0 0.0508,0 0.0677,0 0.0762,0 0.15238,-0.042 0.23281,-0.042 0.0423,0 0.0423,-0.042 0.0762,-0.042 0,0 0.0423,0 0.0508,0 0.0423,0 -0.0423,0.042 -0.0593,0.042 0.27937,-0.063 0.56212,-0.1186 0.84319,-0.182 0,-1.0295 0.0423,-2.0526 0.14815,-3.0752 0.0466,-0.4106 0.45037,-0.4813 0.95069,-0.4631 0.50075,0 1.09462,0.1185 1.50436,0.059 0.53757,0.042 1.07599,0.042 1.61229,0.089 0.3471,0.042 0.68615,0.1058 1.03324,0.1481 0.58837,0.072 1.18012,0.1439 1.76933,0.2074 0.31747,0.042 0.63451,0.042 0.9507,0.059 1.4197,0.093 2.84109,0.1481 4.25783,0.2709 2.80215,0.254 5.60133,0.5765 8.39967,0.8681 4.47624,0.4466 8.92158,1.1112 13.35973,1.8354 0.20741,-0.3598 0.82371,-0.4241 1.93441,-0.4233 0.0423,-0.11 0.2582,0 0.38942,0 h 1.05822 c 2.814,0.042 5.61953,-0.051 8.43268,-0.1227 0.85462,0.042 1.70965,0.051 2.56299,0.1058 1.42944,0.097 2.84575,0.3005 4.27434,0.4063 1.69102,0.127 2.27219,0.144 3.02564,0.2159 0.33016,-0.1608 0.64593,-0.3598 0.96721,-0.5375 1.05948,-0.5783 1.94118,-1.1218 3.11665,-1.4879 2.64468,-0.8241 5.46249,-0.6523 8.1766,-1.0417 3.19072,-0.2159 5.15688,-0.3979 8.32517,-0.4381 2.38479,-0.042 4.77508,-0.047 7.15945,0 2.09145,0.042 4.1774,0.1651 6.26673,0.2709 10.25282,0.5189 8.59735,0.4487 17.7911,1.1162 3.7719,0.2963 7.5476,0.5765 11.3178,0.8927 5.70631,0.4779 11.40203,1.0371 17.10496,1.5543 0.27513,-0.046 0.5545,-0.08 0.82667,-0.1397 0.54689,-0.1227 1.06837,-0.3301 1.60383,-0.4961 5.31265,-1.6994 -0.2709,0.1059 3.53866,-1.1657 1.99876,-0.6667 4.26968,-1.5183 6.40727,-1.3803 -0.26667,0.085 -1.08065,0.2963 -0.80212,0.2582 0.55916,-0.08 1.09503,-0.2921 1.65335,-0.381 1.27112,-0.1989 3.82607,-0.3132 4.95243,-0.3047 5.21403,0.042 5.28811,0.165 10.37515,0.6696 2.68701,0.3344 5.37953,0.6265 8.06062,1.0087 1.96616,0.2794 3.92004,0.6442 5.87816,0.9752 5.72916,0.9685 11.45537,1.9734 17.17945,2.9681 0.0931,-0.042 0.18201,-0.093 0.2709,-0.1227 0.8106,-0.2879 2.17103,-0.3937 3.32364,-0.3387 0.35133,-0.1777 0.70477,-0.3428 1.08319,-0.4546 0.62434,-0.182 1.14964,0.051 1.70287,0.1143 1.30711,0.444 2.65273,0.764 3.97677,1.1573 z m -2.62902,505.85881 c 0.11852,0.042 0.23704,-4e-4 0.35556,0.042 0.22857,0.081 0.93461,0.2752 0.69461,0.2328 -0.35556,-0.063 -0.70223,-0.1608 -1.04975,-0.2582 z m -4.34884,0.3556 c -0.36825,0.055 -0.66836,0.1185 -1.20678,0.4148 -0.0847,0.046 -0.24127,0.1524 -0.37249,0.2328 0.0847,0 0.18201,0.051 0.26243,0.059 0.43683,-0.2413 0.87663,-0.4674 1.3143,-0.7027 z m -196.68708,10.7311 c -0.16084,0 -0.35979,0.042 -0.53715,0.059 -0.98117,0.2285 -1.52552,0.2709 -2.65399,0.3809 -0.73652,0.042 -1.4705,0.093 -2.20744,0.1058 -2.54225,0.055 0.69081,-0.2031 -2.80257,0 -1.44001,0.076 -2.87707,0.2413 -4.31539,0.3641 0.0423,0.8525 0.0635,1.7189 0,2.662 -0.26244,4.0716 -0.67768,8.1343 -0.98371,12.2025 -0.055,0.6992 -0.12699,1.3989 -0.14815,2.0999 -0.0423,1.0692 0,2.138 0,3.2076 0.0931,4.1254 -0.002,8.2655 -0.26244,12.3845 -0.0804,1.3241 -0.19895,2.6481 -0.33016,3.9683 -0.32593,3.2991 -0.28784,0.8495 -0.25821,3.5217 0,0.3979 0.0508,0.7924 0.0423,1.1907 -0.14815,7.4566 -0.0593,0.326 -0.2963,5.8947 -0.26667,6.2498 0.0762,0.2159 -0.0762,5.3241 -0.0423,1.3939 -0.12275,2.7814 -0.18201,4.1749 -0.20741,4.6874 -1.00573,9.3254 -1.47981,13.9883 -0.17778,1.7604 -0.19471,2.4419 -0.31323,4.4064 -0.0423,0.6649 -0.0847,1.3265 -0.0931,1.9924 -0.0931,5.4299 0.10159,10.872 0.10582,16.3032 -0.003,0.9262 0,1.8515 0,2.7776 -8.5e-4,0.2074 0,5.57 0,6.4568 -0.002,1.8773 -0.0804,3.7545 0,5.6301 0.0423,0.5905 0.11429,1.1729 0.17355,1.7609 0.40635,1.8912 0.39789,3.8493 0.70307,5.7541 0.24974,1.5691 0.24974,0.9397 0.53715,2.042 0.21588,0.8376 0.40636,1.6808 0.61165,2.5215 0.89186,3.727 1.04848,7.5789 1.49674,11.3758 0.52275,3.6356 0.18201,7.3084 0.15661,10.9622 0.0889,2.1088 0.001,4.1753 -0.23281,6.2752 -0.34709,2.9287 -0.30476,0.5173 -0.26243,3.1166 0.0593,2.2384 -0.0466,4.486 0.10582,6.7214 0.0593,0.3979 0.11429,0.7932 0.17355,1.1903 h 0.0508 c 0.11429,1.0967 0.19894,2.1922 0.2963,3.2906 -4.2e-4,0.6235 -0.0593,1.2559 0,1.8764 0.0423,0.2625 0.16931,0.4974 0.24127,0.7526 0.0931,0.3386 0.17355,0.6819 0.25397,1.0252 0.33863,1.4544 0.64467,2.8864 0.90922,4.3569 0.4999,2.9592 0.0974,5.9662 0.10582,8.9448 -0.0423,1.5023 0.15662,3.0232 0.0423,4.5224 -0.0762,0.9169 -0.19894,1.8303 -0.2963,2.7446 -0.23281,1.4053 -0.56043,2.789 -0.91768,4.1668 -0.14392,0.5622 -0.23704,1.145 -0.44657,1.6868 -0.2328,0.6007 -0.4927,1.192 -0.74413,1.7854 -0.0635,0.8047 -0.11852,1.6098 -0.18202,2.414 -0.31746,0.6701 -0.62942,1.3418 -0.95069,2.0089 0,0.4944 0,0.1186 -0.0593,1.3478 -0.19048,1.8802 -0.11006,1.2817 -0.47959,3.4887 -0.0762,0.455 -0.20317,0.9046 -0.24127,1.3642 -0.0423,0.3133 0.0466,0.6223 0.0593,0.9342 0.0423,0.8953 0.0593,1.7914 0.10159,2.6871 0.12699,1.9763 0.0804,3.9564 0.0593,5.9357 0,1.1716 -0.13122,0.7018 0.11429,1.4053 0.50117,2.3776 0.80889,4.7924 1.27324,7.1759 0.45207,1.4633 0.33016,2.9867 0.3217,4.4894 v 0.042 c 0.0423,0.2032 0.0677,0.4106 0.10158,0.6117 -0.0466,-0.1185 -0.0762,-0.2455 -0.12275,-0.381 8.5e-4,0.1397 0,0.2836 0,0.4233 8.5e-4,0.042 0.0635,-0.042 0.0974,-0.042 0.0423,0 0.0423,0.059 0.0423,0.059 0.54774,1.4489 0.81822,2.2363 0.5871,4.7121 0,0.1058 0,0.2116 0,0.3132 4.18418,3.1348 4.34926,8.7836 -0.21587,12.6405 -0.0974,0.5897 -0.19048,1.1167 -0.33017,1.951 -0.36825,1.2482 -0.83091,2.7429 -1.46372,4.1253 -0.0974,0.6121 -0.21164,1.1865 -0.39788,1.5543 0.002,0.063 0,0.127 0,0.1905 0,1.76 0.0466,2.4512 -0.38943,4.4068 0,0.047 -0.0423,0.093 -0.0423,0.1397 0.0677,0.3048 0,0.6222 0,0.9342 -0.003,0.8355 -0.0508,1.669 -0.0508,2.505 0.002,1.9039 0,3.8091 0,5.7126 -0.0847,0.9622 0.0931,1.9493 0,2.9101 -0.0889,0.919 -0.20741,1.8362 -0.31323,2.7531 -0.93927,5.01 0.77038,-4.2511 -0.5126,3.5132 -0.0423,0.1778 -0.0423,0.1143 -0.0804,0.3387 0.0423,0.1524 0.0804,0.3005 0.10582,0.4546 0.0931,0.5054 8.4e-4,1.0328 0,1.5462 -0.002,0.6582 0,1.3093 0,1.9675 0,0.6967 -8.5e-4,1.3807 0,2.0669 0,0 0.0423,0.042 0.0593,0.068 0.0635,0.072 0.10159,0.1524 0.15661,0.2328 0.24128,0.3386 0.19471,0.2582 0.38096,0.5291 0.0974,0.1397 0.18625,0.2878 0.28783,0.4233 0.10159,0.042 0.20318,0.059 0.30477,0.097 0.20741,-0.1186 0.44657,-0.2244 0.71916,-0.3133 0.65948,-0.2201 0.49524,-0.1947 1.43028,-0.3217 0.21164,-0.042 0.4326,-0.042 0.64509,-0.051 0.86435,0 0.82794,0.042 1.57081,0.059 h 0.37249 c 0.2582,-0.047 0.51345,-0.1185 0.76869,-0.1736 0.21164,-0.042 0.41905,-0.051 0.62815,-0.068 h 0.0931 c 0,0.042 -0.10582,0.059 -0.0762,0.059 0.0762,0 0.14392,-0.051 0.21588,-0.076 0.34286,-0.1228 0.21587,-0.085 0.52106,-0.1736 0.17355,-0.042 0.35556,-0.051 0.52911,-0.076 h 0.12275 c 0.24551,0 0.48932,-0.042 0.73567,0 0.13545,0 0.2709,-8e-4 0.40636,0.042 0.2328,0.042 0.13545,0.042 0.40635,0.051 h 0.31323 c -3.85444,-2.5207 -1.74097,-7.835 4.97699,-7.1265 2.58712,0.2709 5.00704,1.2547 7.50654,1.9014 0.66413,0.1736 1.34012,0.3217 2.00891,0.4712 0.47238,-0.8128 0.95705,-1.6174 1.50478,-2.381 0.0593,-0.063 1.74012,0.042 1.92637,0.042 1.06668,0 2.08764,-0.1016 3.14966,-0.1481 0.47832,-0.042 0.96467,-0.1059 1.43875,-0.042 1.61272,0.2201 1.68086,0.3175 2.73654,0.8678 0.40212,0.2497 0.80466,0.4986 1.20678,0.7526 0,0.042 -0.0423,0 -0.0423,0 -0.27091,-0.1059 -1.05187,-0.4843 -0.8106,-0.3217 0.40636,0.2709 0.88763,0.4343 1.31473,0.6696 h 0.16508 c 0.25397,-0.1947 0.52233,-0.2582 0.81017,-0.1397 h 0.0677 c 0.0466,0 0.0931,-0.042 0.13969,-0.042 0.0423,0.072 0.0508,0.1524 0.0804,0.2243 0.0804,0.055 0.072,0.199 0.14815,0.2582 0.072,0 0.14392,0 0.21588,0 0.18624,-0.042 0.34286,-0.165 0.5291,-0.2074 0.37249,-0.08 0.74752,-0.1608 1.12425,-0.2074 0.6544,-0.063 0.97652,-0.042 1.49631,0 -0.0423,-0.051 -0.0677,-0.097 -0.0974,-0.1481 0.10158,0.051 0.20317,0.11 0.30476,0.165 0.0423,0 0.055,0 0.0974,0 0.16931,0.042 0.33439,0.068 0.50413,0.068 0.10159,0 0.21164,-0.042 0.31323,-0.042 0.18625,0 0.36826,0 0.55408,0 0.43133,0.042 0.86774,0.059 1.29779,0.097 1.33462,0.1101 0.29207,0.1058 1.2652,0.1058 0.75176,-0.068 1.49166,0.127 2.23199,0.2074 0.0466,0.042 0.10158,0 0.14815,0 0.20317,-0.042 0.40212,-0.042 0.60318,-0.042 1.47769,-0.042 2.9613,0 4.43983,0 1.17716,0 0.89779,-0.042 2.56257,0.2328 0.37249,0.059 0.73525,0.1693 1.10774,0.2328 2.8995,0.4953 -0.55239,-0.1566 1.81081,0.2074 0.44996,0.072 0.89187,0.1736 1.33928,0.2582 0.28783,0.081 0.56762,0.2074 0.86816,0.2498 0.0423,0 -0.0466,-0.1397 0,-0.1397 0.19048,-0.085 0.40635,-0.051 0.60318,-0.051 2.94056,0.042 0.81271,0.046 3.15813,0.1143 0.61207,0.042 1.22287,0.042 1.83536,0.042 0.43683,0 0.87747,8e-4 1.31473,0 2.57146,-0.042 0.86435,-0.042 2.81061,-0.042 0.2709,8e-4 0.54562,0 0.81863,0 0,0 0.0423,0 0.0593,-0.042 0.61758,0 1.23473,0 1.85188,0 0.003,0 0,0 0,0 0.29206,0 0.57863,-0.042 0.86816,-0.08 1.29779,-0.1608 2.58669,-0.419 3.8938,-0.4961 0.39788,-0.042 0.80508,-0.042 1.20721,-0.042 1.38837,0.1016 2.77675,0.059 4.16681,0.059 1.18139,0 2.33527,-0.326 3.51327,-0.3979 0.56255,-0.051 1.1234,-0.051 1.68679,-0.051 1.69653,0.072 3.39517,0.076 5.09255,0.076 1.04424,0 2.08891,0 3.13315,0 1.07176,-0.2709 2.19008,-0.2709 3.28216,-0.2709 0.11005,-5e-4 0.21587,0.042 0.32169,0 0.0593,0 -0.13121,0 -0.17354,-0.051 0.30053,-0.051 0.60064,-0.1143 0.90117,-0.1566 h 0.0889 0.0423 c 0.055,-0.042 0.11005,-0.047 0.16508,-0.068 0.055,0 0.10159,-0.051 0.15662,-0.068 h 0.0423 c 0.0974,-0.042 0.19047,-0.072 0.28783,-0.1058 0.85207,-0.1101 1.01715,-0.1355 1.25673,-0.1312 0.38519,-0.1439 0.77546,-0.2921 1.17377,-0.3895 0.58287,-0.1439 1.20467,0.127 1.79431,0.081 h 2.96765 c 0.0423,0 0.0804,0 0.12275,0 0,0 0,0 0,0 0.34286,-0.1609 0.70816,-0.2625 1.07472,-0.3471 0.52572,-0.364 1.12848,-0.6074 1.71981,-0.8432 0.15239,-0.4021 0.16085,-0.4428 0.50414,-1.1243 0.0762,-0.1523 0.0804,-0.4465 0.24973,-0.4465 0.0423,0 0,0 0,0.042 0,0 0,-0.051 0,-0.068 0,-0.042 0.0423,-0.047 0.0423,-0.072 0,0.055 -0.0423,0.1016 -0.0423,0.1566 -0.0423,0.2413 -0.0762,0.4813 -0.14815,0.7107 -0.072,0.2328 0.0423,-0.3555 0.11429,-0.6696 -0.0635,0.097 -0.22434,0.254 -0.22434,0.364 0,0.199 0.0423,0.5926 0.0423,0.8847 0.13545,-0.1397 0.29206,-0.3005 0.33016,-0.3386 0.17355,-0.1651 0.22434,-0.2074 0.2582,-0.2244 -0.0635,-0.4355 -0.10582,-0.8728 -0.11428,-1.2978 -0.0762,0.127 -0.15662,0.2625 -0.21588,0.3979 0.055,-0.2963 0.11852,-0.5943 0.25821,-0.8601 0.66328,-1.2762 0.98202,-1.399 1.86838,-1.9839 0.33016,-0.1905 0.67387,-0.3514 1.01673,-0.5211 0,0 0.0423,0 0.0508,-0.042 0.40636,-0.2921 0.91345,-0.5947 1.44679,-0.8102 0.0974,-1.3532 0.42837,-2.4491 0.90964,-3.2987 0.15662,-0.2963 -0.0423,-0.5879 0.18201,-0.9176 0.67726,-0.9973 1.90563,-1.3893 2.90205,-1.9184 0.16084,-0.042 0.31746,-0.097 0.47916,-0.097 3.45527,-0.436 -0.89314,0.2116 -1.04975,0.5375 -0.0423,0.047 -0.0931,0.3048 -0.12275,0.381 0.29629,-0.085 0.59302,-0.1397 0.8927,-0.1397 0.49144,4e-4 0.9833,0.127 1.44679,0.3556 0.24551,-0.4843 0.50117,-0.9651 0.7361,-1.4553 0.54519,0.2794 1.10985,0.5219 1.64488,0.8187 -0.055,-0.042 -0.10159,-0.072 -0.15661,-0.1059 -0.055,-0.042 0.19047,0.047 0.16508,0.097 0.0466,0.042 0.0931,0.051 0.13968,0.085 0.0804,0.046 0.17355,0.08 0.25821,0.1312 0.0423,0.042 0.055,0.051 0.0847,0.076 0.11006,0.068 0.22434,0.1312 0.33016,0.2074 0.16932,0.1185 0.27937,0.2201 0.43006,0.3301 0.469,-0.127 0.94816,-0.1989 1.43833,-0.1989 h 0.77715 c 0.81059,-0.042 1.61356,-0.042 2.42246,0.042 0.67006,0.059 0.46942,-0.063 0.71069,0.097 -0.055,0.046 -0.23704,0.1397 -0.16508,0.1397 0.20318,-0.042 0.38519,-0.1228 0.57863,-0.1821 0.30054,-0.093 0.60065,-0.182 0.90118,-0.2709 0.81271,-0.2455 1.09715,-0.3344 2.02542,-0.5375 h 0.10582 c 0.89652,-0.4331 1.19197,-0.4779 2.09145,-0.6282 0.38519,-0.042 0.76826,-0.072 1.15769,-0.1143 0.49397,-0.042 0.99302,-0.051 1.48784,-0.051 0.60403,-0.042 1.20594,-0.068 1.81082,-0.076 0.60445,0 1.20763,0 1.81039,0.076 0.6108,0.085 1.22795,0.1566 1.83536,0.2625 0.23704,0.042 0.46181,0.127 0.69461,0.1904 1.23642,0.3429 2.32257,0.6566 3.41422,1.4223 0.3344,0.2328 0.54731,0.5964 0.82668,0.8927 0.2709,0.6455 0.56889,1.2813 0.81863,1.9344 0.0423,0.089 0.0423,0.182 0.0423,0.2794 0.0423,0.309 0.0847,0.6214 0.0423,0.9261 -0.0423,0.4504 -0.17355,0.7755 -0.28784,1.1243 0,-0.1016 0.0423,-0.2074 0.0423,-0.3133 -0.38095,0.9998 -0.949,1.9357 -1.26477,2.9596 -0.0423,0.1016 -0.0423,0.144 -0.0423,0.1821 -0.0423,0.042 -0.0635,0.089 -0.0974,0.1312 0,0.042 -0.055,0.042 -0.0508,0.042 0,-0.064 0.13545,-0.2328 0.0889,-0.182 -0.4635,0.6417 -0.82117,1.371 -1.52933,1.8108 -0.30053,0.2244 -0.5545,0.5207 -0.8762,0.7107 -0.99726,0.5951 -1.77992,0.8508 -2.86056,1.0582 -0.10159,0.042 -0.20318,0.042 -0.30477,0.059 0.78816,0.4106 1.58309,0.8394 2.0504,1.5543 0.0889,-4e-4 0.17354,0 0.26243,0 h 0.46308 0.73567 c 0.11005,0 0.23704,-0.047 0.32169,0 0.0677,0.055 -0.16508,0 -0.24974,0.051 -0.0508,0 -0.0974,0.042 -0.14815,0.051 0.40636,-0.072 0.81906,-0.1566 1.23176,-0.199 1.41081,-0.1397 2.76617,0.4462 4.16682,0.3641 h 0.72763 c 0.0423,0 0.0762,8e-4 0.11429,-0.042 0.30053,-0.042 0.60657,-0.042 0.90964,-0.042 1.13229,0.042 1.10477,0 2.42204,0.1397 0.91514,0.097 -0.66118,0.1016 1.08318,0.1481 0.49144,0 0.97991,-0.042 1.47177,-0.042 0.78223,0 1.56573,0.047 2.34754,0.072 2.585,0.3047 5.18905,0.546 7.72199,1.1657 0.2836,0 0.56212,0 0.84318,0.051 0.11852,0 0.23704,0.042 0.35556,0.059 0.16508,0.042 0.48805,-0.051 0.58667,0 h 0.0423 c 1.56912,-0.6577 1.46372,-0.6599 3.3812,-1.1987 1.22838,-0.3429 0.54308,0.042 1.90987,-0.4148 0.51894,-0.1651 1.02054,-0.3937 1.52933,-0.5871 0.87323,-0.2498 1.73928,-0.4944 2.61251,-0.7442 0.52234,-0.072 1.04552,-0.1693 1.57081,-0.2158 4.25952,-0.3725 8.53809,-0.042 12.80607,-0.072 4.58757,-0.1143 9.07862,-0.5668 13.57476,-0.093 -0.0423,-0.5858 -0.0635,-1.1133 -0.0804,-2.0339 -0.309,0.1609 -0.60488,0.3386 -0.92573,0.4796 -0.52022,0.2286 -0.74159,-0.254 -0.83514,-0.9507 -0.39366,0 -0.77123,-0.042 -1.14075,0 0.36402,-2.1359 0.60868,-3.6428 0.83471,-4.9355 -0.055,-0.6311 -0.0423,-1.2665 0.0677,-1.9018 -0.055,-2.6583 0,-5.314 0.0762,-7.9697 0,-0.1989 0.0847,-1.357 0.10582,-1.7608 -1.04213,-0.059 -2.06817,-0.2201 -3.04215,-0.5042 -1.26985,-0.3682 -0.31746,-2.6307 -0.26244,-3.9517 0.28784,-7.4901 0.88086,-8.3921 2.59559,-15.8487 0.18201,-0.4385 0.34709,-0.9007 0.49609,-1.3638 0,-0.3175 0.0762,-0.8758 0.0847,-1.1082 0.23704,-1.4713 0.44021,-2.9515 0.63662,-4.4309 -1.48108,-0.875 -2.71368,-2.5118 -3.4557,-4.7704 -0.26244,-0.8043 -0.2709,-2.188 -0.14815,-3.8113 -0.76488,-0.051 -1.53187,-0.127 -2.28998,-0.2624 -0.99091,-0.1778 1.03028,-1.7537 1.75241,-2.4551 0.17354,-0.1693 0.66625,-0.5672 0.94265,-0.8106 0.75768,-4.9922 2.1541,-10.6096 2.49654,-11.5904 0.35979,-1.0311 0.86181,-1.9945 1.40573,-2.9431 0.0423,-1.6842 0.0635,-3.3689 0,-5.0515 -0.0423,-0.9676 -0.21588,-1.923 -0.3217,-2.8851 -0.12698,-1.4307 -0.2836,-2.8588 -0.38942,-4.2908 -0.0635,-0.8898 -0.0974,-1.7867 -0.12275,-2.6786 -0.11006,-3.5187 -0.13546,-4.8292 -0.0889,-8.1846 -0.11006,-0.2498 -0.22434,-0.4593 -0.33017,-0.7276 -0.12275,-0.3048 -0.0423,-0.6316 0.0804,-0.9592 -0.26244,-1.1632 -0.53249,-2.3251 0.33863,-2.7941 0.84572,-0.455 1.76637,-0.6464 2.72003,-0.7192 -0.0847,-0.237 -0.17355,-0.4766 -0.22434,-0.7196 -0.0847,-0.6108 -0.22011,-1.2203 -0.26244,-1.8353 -0.0466,-0.593 -0.0423,-1.1907 0,-1.7854 0.0423,-0.9825 0.0804,-1.9649 0.17355,-2.9431 0.0593,-0.6252 0.16931,-1.2394 0.2709,-1.8604 -0.11429,-0.6116 -0.25397,-1.2207 -0.35556,-1.8353 -0.23281,-1.4506 -0.538,-2.9986 -0.47112,-4.4725 0,-0.042 -0.004,-0.042 0,-0.068 -3.34099,-1.5966 -2.37039,-0.585 -0.95916,-5.6462 -0.11852,0 -0.22858,-0.042 -0.33863,-0.042 -0.31746,0.4398 -0.63112,0.8817 -0.95916,1.3143 0.0508,-0.1566 0.0466,-0.3471 0.14815,-0.4792 0.2328,-0.3048 0.49947,-0.5689 0.76868,-0.8436 0,0 0,0 -0.0423,-0.042 h 0.0423 c 0.0466,-0.063 0.0931,-0.127 0.13969,-0.1905 -0.0593,0.063 -0.11429,0.1185 -0.17355,0.182 -0.23281,-0.051 -0.43726,-0.1185 -0.41482,-0.3217 0.23704,-2.0825 1.28001,-4.0005 2.0669,-5.9442 -0.64043,0.051 -0.35556,-0.051 -0.8017,0.1058 0.2963,-0.1269 0.59937,-0.2285 0.90117,-0.3386 -0.62604,-1.3469 -0.99726,-2.8055 -1.52128,-4.1998 0,0 0.0423,-0.042 0.0593,-0.042 -1.24531,-0.2539 -4.2663,-0.5604 -4.35688,-2.3394 -0.0847,-1.6466 0.96213,-3.217 1.9014,-4.572 0,-4e-4 0.0423,0 0.0423,0 -0.11006,-0.5583 -0.21165,-1.153 -0.25821,-1.5128 -0.68064,-0.047 -1.3634,-0.072 -2.04192,-0.1397 -0.38096,-0.042 -1.07261,0.2032 -1.13272,-0.1735 -0.34286,-2.1342 0.0423,-4.3209 0.0677,-6.4818 0.76488,-0.2963 1.53399,9e-4 2.29844,-0.042 0.14815,0 1.01885,-0.08 1.52933,-0.1143 -0.28784,-0.8576 -0.40636,-1.7782 -0.59514,-2.6785 -1.1598,-0.085 -3.77486,-0.2752 -4.34037,-1.3973 -0.71704,-1.4235 -0.4364,-3.1666 -0.65313,-4.7454 0.74414,-0.2456 1.476,-0.5071 2.21548,-0.7687 -0.72975,-0.309 -1.23473,-0.7734 -1.09123,-1.4303 0.47365,-2.1706 2.38309,-3.8032 4.01782,-5.3076 0.26244,-0.2413 0.60826,-0.3259 0.97567,-0.364 4.3e-4,0 0,-0.042 0,-0.042 -2.27685,-0.7776 -2.38775,-1.5429 -1.22329,-3.4642 0,0 0,-0.042 0.0508,-0.051 0.0974,-1.5374 0.14392,-1.9378 2.06691,-2.3645 0.0931,-0.1185 0.17354,-0.2455 0.26243,-0.364 0.42498,-0.5439 0.85335,-1.0798 1.28171,-1.6203 0.0677,-0.4432 0.16085,-0.88 0.2709,-1.3148 -1.06879,-0.11 -2.1414,-0.2412 -3.20765,-0.3724 -0.51514,0.042 -1.07599,0.076 -1.55431,0.097 -1.95346,0.1058 -3.90649,0.1482 -5.86123,0.2159 -0.79874,0.237 -1.53821,0.3471 -1.96785,-0.2328 l -0.0423,-0.042 c -1.22202,0.3302 -2.50077,0.6472 -2.45547,0 0.14391,-2.1113 0.35979,-4.491 1.6288,-6.1672 -0.0508,-0.042 -0.10159,-0.063 -0.14815,-0.097 v 0 c 0,0 -0.0423,9e-4 -0.0508,-0.042 -0.0466,-0.042 -0.0847,-0.068 -0.13122,-0.1058 -1.60213,0.072 -1.15345,0.085 -0.14815,-0.1312 -0.91852,-0.7721 -1.69314,-1.4777 -2.26499,-2.108 -1.33886,-1.4777 -1.68595,-2.5778 -0.83515,-3.3567 -0.24973,-0.9845 -0.46053,-2.0038 -0.85165,-2.852 1.44891,-0.4022 1.74648,-0.4301 2.67855,-0.4796 0.309,-0.2117 0.63366,-0.3725 0.97567,-0.4881 -0.055,-0.2709 -0.10582,-0.5452 -0.14814,-0.8182 -0.072,-0.4902 0.938,-0.3302 1.40573,-0.4961 0.9418,-0.1312 1.88065,-0.3005 2.82712,-0.3894 1.14456,-0.1101 2.29039,-0.182 3.43919,-0.2413 -0.58117,-0.042 -1.26054,0.064 -1.64489,-0.3471 -1.23811,-1.3227 -2.5105,-2.8504 -2.85252,-4.6294 -0.0423,-0.1228 0,-0.2371 0,-0.3556 -0.43683,0.042 -0.43386,0.042 -1.23176,0.1058 h -0.20741 c -0.31323,0.1185 -0.64212,0.2667 -0.69461,0.042 h -0.27936 c -0.15662,-2.177 -0.73821,-4.365 -0.47112,-6.5313 0.0508,-0.4309 0.85715,-0.1016 1.28975,-0.1397 0.63493,-0.055 1.27451,-0.1016 1.90986,-0.1482 0.38519,-0.051 0.76488,-0.1058 1.14922,-0.1397 0.11005,0 0.22011,9e-4 0.33016,-0.042 -1.37271,-0.059 -3.31009,-0.1693 -4.18332,-0.5291 -0.8762,-0.3598 -1.52129,-1.1386 -2.28193,-1.7033 0.20317,-1.6224 0.0593,-3.3198 0.6036,-4.861 0.19048,-0.5371 0.92572,-0.6713 1.43875,-0.9177 0.12275,-0.059 0.25397,-0.11 0.38095,-0.1651 -0.10582,-0.4673 -0.22434,-0.9325 -0.38095,-1.3638 0.25397,-0.1524 0.49947,-0.3259 0.74371,-0.4961 -0.69969,-0.2328 -0.97229,-0.5977 -0.85123,-1.1987 -1.79515,-0.2836 -3.20596,-0.6502 -3.73676,-1.1327 -1.46753,-1.3334 1.17843,-3.7876 1.76891,-5.6797 3.93317,-0.5392 3.71898,-0.5905 6.34928,-0.5706 0.87662,0 2.06986,0.042 3.83623,0.042 1.29483,0 2.59093,0.042 3.88534,0.051 0,-0.1694 0.0423,-0.3429 0.0423,-0.5126 -1.38668,-0.042 -2.63029,-0.068 -3.46416,-0.1143 -0.37249,0.08 -0.74583,0.1608 -0.8762,0 -0.66795,0.051 -1.3888,0.1143 -1.41378,-0.4064 -0.0593,-1.186 0.0423,-2.3763 0.23281,-3.5552 -1.21483,-0.1777 -2.30606,-0.5443 -3.00109,-1.4878 -3.78671,-5.1408 -0.27514,-7.6052 2.80257,-8.6642 0.80551,-0.2752 1.66013,-0.4064 2.48849,-0.6036 -0.30899,-2.0432 -0.2582,-4.1719 -0.0593,-6.2168 0.0423,-0.381 0.50371,-0.4352 0.97525,-0.4716 -1.51282,-0.3767 -3.1903,-0.8639 -3.43919,-1.4878 -0.95112,-2.3861 -0.83768,-5.2327 -0.13968,-7.7051 0.36402,-1.2923 5.5954,-2.2904 6.21721,-2.4474 2.92871,-0.6976 1.88362,-0.4444 2.64553,-0.6282 -0.36826,-0.4673 -0.65821,-0.9587 -0.97567,-1.4387 -6.29425,3.879 -10.90637,-2.1528 -5.31604,-7.4155 -2.2832,-4.0077 -2.10754,-4.254 0.14815,-6.1838 0.51091,-0.3598 1.01631,-0.7298 1.5378,-1.0752 0.56932,-0.3767 1.1598,-0.7166 1.73589,-1.0827 0.15661,-0.097 0.309,-0.199 0.46307,-0.2963 -0.18201,0 -0.36825,0 -0.57016,0.051 -0.41059,0.097 -0.79832,0.254 -1.19917,0.3809 -1.16149,0.3133 -2.34458,0.6781 -3.54628,0.8271 -0.92827,0.1143 -1.86076,0.1778 -2.79453,0.2413 -0.0423,0 -0.0974,-0.042 -0.0762,-0.051 0.13968,-0.11 0.64,-0.2497 0.46307,-0.2624 -0.24974,-0.042 -0.46731,0.1608 -0.70265,0.2412 -0.10159,0.042 -0.47958,0.1651 -0.86816,0.2963 -0.65567,0.3725 -1.30245,0.7628 -1.98394,1.0832 -0.27513,0.1313 -0.59471,0.1313 -0.89313,0.1905 -0.58583,0.1143 -1.17208,0.2201 -1.76087,0.3132 -2.84278,0.4648 -5.72112,0.7857 -8.60623,0.6616 h -19.20487 -7.15945 c -5.62969,-0.042 -11.25219,0.127 -16.88188,0.089 -4.84662,-0.055 -7.92009,-0.064 -12.65707,-0.2497 -3.33084,-0.1312 -6.6587,-0.2667 -9.987,-0.455 -0.31323,0 -0.63027,-0.047 -0.94265,-0.068 -2.51855,0.1482 -5.03413,0.182 -7.55607,0.1397 -0.37672,0 -0.75683,0.042 -1.13271,0.059 -2.10753,0 -2.02753,0.042 -4.28237,-0.2328 -0.76827,-0.042 -1.53018,-0.063 -2.29844,-0.097 -0.62562,0.6032 -2.26077,0.3937 -3.25718,0.5537 h -0.21588 c -0.2455,0.076 -0.49693,0.1397 -0.73567,0.2328 -4.59222,1.76 -8.12157,0.9613 -10.06953,-0.9092 -1.67113,-0.1694 -3.34268,-0.3387 -5.01,-0.5376 -0.44911,0 -0.89906,8e-4 -1.34774,-0.042 -3.09929,-0.1143 -1.35875,-0.1863 -5.21657,-0.199 -2.28658,0 -4.56513,0.2413 -6.85383,0.08 -0.9617,0 -1.92383,-0.072 -2.88511,-0.1058 -1.39007,-0.089 -2.78691,-0.1439 -4.17486,-0.2624 -0.65652,-0.055 -1.30584,-0.1736 -1.95939,-0.2582 -1.23091,-0.1524 -2.4631,-0.2625 -3.6957,-0.3979 -0.69462,0.8817 -2.11389,1.6953 -2.96766,2.1494 -0.12698,0.063 -2.08806,1.0566 -2.19939,0.9842 -2.41907,-1.5759 -5.18863,-2.9084 -7.25003,-4.8945 -2.18669,-0.2201 -2.05081,-0.2032 -4.07581,-0.5041 -0.81059,-0.097 -1.62626,-0.2201 -2.43897,-0.2963 -0.62985,-0.059 -1.26223,-0.076 -1.89335,-0.1143 -2.49992,-0.1524 -5.00069,-0.2709 -7.49003,-0.5536 -0.75472,-0.1186 -1.51325,-0.2202 -2.26543,-0.3556 -1.6089,-0.2878 0.22434,-0.1101 -1.8269,-0.4148 -1.39218,-0.2032 -2.81696,-0.2032 -4.19983,-0.4877 -1.58351,-0.2328 -0.96255,-0.1481 -2.1414,-0.3132 -0.24551,-0.042 -0.49016,-0.08 -0.73567,-0.093 -0.9998,-0.059 -2.0106,0.059 -3.00913,-0.068 z m 180.23526,97.6612 h 0.21587 l 0.0423,-0.042 c -0.0889,0 -0.17354,0.042 -0.2582,0.042 z m -83.37575,178.623 c 0,0 0.0423,-0.042 0.0423,-0.042 0,0 0,0 0,0 0,0 0,0.042 0,0.059 z m -11.40881,-269.6043 -0.0423,0.042 z m 106.02786,24.8595 c -0.11852,0.042 -0.24127,0.059 -0.36402,0.093 0.11005,0.051 0.30899,0.2667 0.33016,0.1482 0,-0.081 -8.5e-4,-0.1609 0.0423,-0.2413 z m -3.4557,52.4146 v 0 h -0.13122 c 0.21588,0.042 0.16085,0.042 0.3471,0.059 -0.0423,-0.042 -0.12699,-0.059 -0.21588,-0.068 z m 0.0762,0.2793 c -0.0974,0.042 -0.19048,0.059 -0.28783,0.093 -0.4381,0.1651 -0.35556,0.5173 -0.11429,0.6616 0.13122,-0.2582 0.26667,-0.5049 0.41482,-0.7526 z m 6.35774,103.1182 c -0.18624,0.063 -0.37672,0.1736 -0.5291,0.2074 1.01461,0.549 1.15557,0.5876 0.5291,-0.2074 z m -208.75748,40.8733 c 0.23281,0.7674 0.26244,0.8085 0.43006,1.2648 v 0 c -4.2e-4,-0.089 0,-0.1821 0,-0.2709 -0.16508,-0.381 -0.54307,-1.338 -0.4381,-0.9922 z m -3.34014,26.4223 c 0.0677,0.1989 0.23704,0.7056 0.37249,1.0912 0.0423,-0.042 0.072,-0.08 0.10582,-0.1143 -0.072,-0.1439 -0.57228,-1.244 -0.47958,-0.9756 z m 1.1162,2.29 c -0.0804,0.127 -0.15238,0.2539 -0.2328,0.3809 0.20317,0.6345 0.41058,1.3279 0.62857,2.0999 -0.0423,-0.5773 -0.11852,-1.1644 -0.24127,-2.1498 -0.16508,-0.3514 -0.0423,-0.047 -0.15661,-0.3302 z m 0.24128,3.9848 c 8.4e-4,0 -4.3e-4,0.042 0,0.051 0,0 0,-0.042 0,-0.051 z m 0,0.051 c -0.15662,0.4457 -0.30477,0.8956 -0.43853,1.3477 -0.12275,0.4191 0.3471,-0.8068 0.43853,-1.2318 0,-0.051 0,-0.08 0,-0.1142 z m 130.79639,9.6399 c -0.0677,-0.042 -0.16085,-9e-4 -0.27937,0.042 -0.0466,0.042 -0.0804,0.055 -0.12275,0.085 h 0.47154 c -0.0423,-0.042 -0.0423,-0.093 -0.0677,-0.1058 z m -132.70626,2.1579 c 0,0 -0.0423,0.047 0,0.1227 0.24551,1.835 0.82033,3.6149 1.22372,5.4232 0.11852,-1.0942 0.12275,-1.7719 -0.43006,-3.7533 -0.14391,-0.5207 -0.709,-1.8735 -0.79366,-1.7939 z m 119.74357,0.5866 c -0.15661,0.4259 -0.25397,0.9706 -0.2709,1.7199 -0.0423,1.3384 1.05991,2.4216 1.78584,3.5877 0.13968,-0.7797 0.16508,-0.9405 0.6036,-1.8929 0,-0.097 -0.0508,-0.199 -0.0677,-0.2963 -0.86181,-0.4462 -0.85165,-1.3626 -1.10774,-2.1499 -0.0508,-0.042 -0.11005,-0.076 -0.15661,-0.1143 0.86731,1.3622 -0.25821,2.9914 -0.5126,1.8354 -0.0974,-0.447 -0.21588,-0.8855 -0.2709,-1.3393 v -0.7522 c -0.002,-0.2116 0.001,-0.4063 0,-0.5955 z m 1.61187,1.6204 c 0.002,0.2116 0.0423,0.4262 0,0.6366 0.0423,-0.042 0.0804,-0.055 0.12276,-0.072 v 0 c -0.0677,-0.1693 -0.11852,-0.3597 -0.13969,-0.5625 z m 0.13969,0.5625 c 0,0.042 -8.5e-4,0.042 0.0423,0.068 0.0466,0.097 0.11852,0.182 0.17354,0.2709 -0.0423,-0.1355 -0.055,-0.2709 -0.0762,-0.4064 v 0 c -0.0423,0.042 -0.0847,0.047 -0.12275,0.076 z m 0.12275,-0.076 c 0,0 0.0423,-0.042 0.0593,-0.042 -0.0423,-0.1439 -0.0847,-0.2921 -0.12275,-0.4381 0,0 0,0 0,0 0.0423,0.1651 0.055,0.3259 0.0804,0.4881 z m -6.15076,1.5378 c -0.0423,0.063 -0.13122,0.2032 -0.28783,0.4546 0.11429,0 0.23281,-0.042 0.34709,-0.042 0,-0.1397 -0.0423,-0.2794 -0.0593,-0.4233 z m 13.07063,0.4233 c -0.0423,0 -0.0762,0.051 -0.12276,0.068 0.0423,0.1016 0.055,0.199 0.0974,0.2963 0,-0.1227 -8.5e-4,-0.2412 0.0423,-0.364 z m -12.96311,0.3471 c -0.19895,0 -0.39789,0 -0.59514,0.042 -0.0423,0.051 -0.0593,0.093 -0.0931,0.1482 0,0.1989 0,0.4021 0.0423,0.6036 0.23704,0 0.48086,0 0.74414,0.042 0,-0.2709 -0.0466,-0.5426 -0.0847,-0.8186 z m 12.59908,0.4631 -0.0423,0.051 c 0.0423,0 0.13545,0.072 0.21588,0.1143 0.0423,0 0.0423,0 0.0593,0 -0.0889,-0.042 -0.18202,-0.076 -0.24974,-0.1313 0,-0.042 0.002,-0.042 0,-0.042 z m 0.24974,0.1735 c 0,0 0.0423,0 0.0508,0.042 h -0.0423 c 0,0 -0.0423,0 -0.0677,-0.042 -0.0593,0 -0.10159,-0.042 -0.14815,-0.042 v 0 c 0.0423,0.097 0.0466,0.2032 0.0762,0.2878 -0.12699,0 -0.24551,-0.042 -0.37249,-0.042 0,0.3005 0.0423,0.5871 0.23281,1.2068 0.0466,0.1524 0.16508,0.5947 0.20741,0.4381 0.055,-0.3852 0.0931,-0.7822 0.11428,-1.1738 0.25397,0.574 0.52572,0.7649 0.74414,0.8432 0.10159,-0.068 0.20318,-0.063 0.30476,-0.1312 0,-0.042 -8.4e-4,-0.055 0.0423,-0.1651 0.0804,-0.3386 0.10582,-0.5765 0.13969,-0.8351 -0.0423,0 -0.0635,-9e-4 -0.0974,0 h -0.13122 c 0.0466,0.042 0.10159,0.076 0.13969,0.1227 0.072,0.08 -0.16508,-0.08 -0.27937,-0.1397 -0.27937,-0.042 -0.55662,-0.059 -0.83472,-0.08 l -0.0423,-0.042 v 0.4063 c -0.055,-0.1227 -0.11429,-0.2582 -0.16508,-0.4232 h 0.16508 v -0.2625 c 0,0 -0.0423,0 -0.0593,0 z m -10.45811,0 c -0.0423,0 0.27937,0.1947 0.68615,0.4233 0.0677,0 0.13122,0 0.19894,0 -0.22434,-0.11 -0.45037,-0.2286 -0.67768,-0.3386 -0.12698,-0.059 -0.19048,-0.085 -0.20741,-0.08 z m -4.54693,0 c 0.0762,0 -0.16085,-8e-4 -0.2328,0.042 -0.0423,0 -0.0423,0 -0.0593,0.042 0.0974,0 0.19471,-0.042 0.28783,-0.068 z m 16.69987,0.4631 c 0.0593,0 0.0889,0.042 0.13969,0.042 0.0423,0 -0.0508,9e-4 -0.0847,-0.042 z m -25.03308,0.4796 c -0.24974,0.042 -0.48297,0.097 -0.90964,0.3132 -0.0423,0 -0.12699,0.059 -0.0847,0.059 0.33439,-0.1143 0.66244,-0.2413 0.99218,-0.3725 z m -1.85188,0.364 c -0.11852,0 -0.23704,0.042 -0.35556,0.042 -0.2328,0.1186 -0.5964,0.2879 -0.70265,0.3556 0,0 0.0423,0 0.0508,0 0.33862,-0.1185 0.67725,-0.254 1.00868,-0.3979 z m 70.24714,2.4055 c -0.0635,0 -0.17354,0.042 -0.26243,0.051 0.055,0.042 0.12275,0.063 0.15661,0.085 0.0593,-0.042 0.12275,-0.072 0.18201,-0.093 h 0.0762 c -0.0508,0 -0.10583,-0.042 -0.14815,-0.042 z m -73.76083,6.6803 0.0423,0.042 c -0.48889,0.1523 -1.15387,0.2328 -1.57081,0.2709 v 0 c 0.21588,-0.072 0.74414,-0.2328 0.55408,-0.1905 -0.38096,0.085 -0.74329,0.2413 -1.12424,0.3132 -1.19579,0.2244 -2.414,0.097 -3.62121,0.1397 h -1.87685 c -0.78604,0 -1.5725,0 -2.356,-0.076 0.10582,-0.042 0.43725,-0.1227 0.3217,-0.1227 -2.37675,0.4232 1.42604,0.042 -2.0504,0.3809 -0.12698,0 -0.38942,0.127 -0.38942,0 -0.003,-0.042 0.002,-0.068 0,-0.097 -0.0847,0 -0.16931,0.042 -0.26244,0.042 0,-0.1609 -0.0423,-0.3471 -0.0508,-0.5211 h -0.92615 -0.0804 c 0.18201,0.3259 0.48804,0.5287 1.00022,0.5291 h 0.0423 v 0.051 c -0.97948,-8e-4 -1.95516,-8e-4 -2.93506,0 -1.98394,0 -3.9683,0 -5.95224,0 -0.85969,0 -1.72446,4e-4 -2.58754,0 -0.0677,0.2413 -0.13968,0.4843 -0.20741,0.7272 h 1.38922 1.91791 2.05843 2.52998 2.18246 c 0.46773,0 0.93207,0 1.39726,0.051 0.20318,0.042 0.40212,0.063 0.60318,0.097 0.25821,0.042 0.52276,0.08 0.78562,0.093 0.25397,0 0.52741,4e-4 0.77715,-0.042 h 0.25821 0.86815 c 0.40636,0 0.82753,-0.076 1.23176,-0.1143 0.44572,-0.042 0.3471,-0.042 0.79366,-0.1058 0.0847,0 0.16085,-0.042 0.24974,-0.051 0.22011,-0.042 0.44022,-0.042 0.6616,-0.051 0.19471,0 0.63111,0.042 0.82667,0.042 h 0.26244 0.6036 c 0.38519,0 0.76361,0.068 1.1488,0.08 0.45757,0 0.89863,-0.042 1.35621,0 0.11852,0 0.66244,0.089 0.76022,0.097 h 0.15661 c 0.23281,-0.7611 0.91049,-2.1122 0.57017,0.042 h 0.2963 c 0.19047,-0.419 0.38942,-0.8402 0.6036,-1.2483 -0.0423,-0.042 -0.055,-0.072 -0.0762,-0.1058 h 0.12275 c 0.0423,-0.068 0.0762,-0.1439 0.11429,-0.2159 0,0 -8.5e-4,-0.042 0.0423,-0.042 h -0.20741 z m 0.55366,0.042 v 0 c 0,0 0.0423,0 0.0593,0 0,0 -0.0423,-0.042 -0.0508,-0.042 z m 0.0508,0.042 c 0,0 0.0423,0 0.0423,0 0.71663,0.051 -0.0508,-9e-4 0.31323,0.042 0.35133,0.042 0.34287,0.042 0.74414,0.042 1.07303,0.042 2.15791,0.089 3.22416,-0.068 h -1.36382 c -0.68445,0 -1.36594,0.042 -2.0504,0 H 301.151 c -0.10159,0 -0.21164,-0.042 -0.3217,-0.042 z m -12.68204,0.089 v 0.4961 c 0.32169,-0.072 0.54815,-0.2455 0.69418,-0.4961 -0.055,-4e-4 -0.11005,8e-4 -0.16508,0 z m -43.45319,0.2624 c -0.18625,0 -0.38096,0.042 -0.57017,0.042 -0.70392,0.042 -1.40319,0.089 -2.10838,0.1059 -0.68318,0 0.0466,-0.042 -0.86816,0 -0.16931,0 -0.33862,0.042 -0.50413,0.042 -0.26244,0 -0.5236,0.042 -0.78519,0.042 h -0.49609 -0.84319 c 0.5672,0.047 1.12806,0.097 1.69441,0.1482 h 0.41482 1.78584 c 1.07557,0 2.14902,0 3.22417,0.051 0.96339,0.042 1.92256,0.072 2.88511,0.1142 0.15238,0 0.30476,-4e-4 0.45503,0.042 -0.072,0 -0.14392,8e-4 -0.21588,-0.042 -0.40635,-0.055 -0.52699,-0.063 -1.00868,-0.1058 -0.34287,-0.042 -0.68657,0 -1.0252,-0.068 -0.8652,-0.1228 -1.42266,-0.2074 -1.94288,-0.364 h -0.0931 z m -17.95618,0.2074 c -0.0423,0 -0.0762,-8e-4 -0.11429,0.042 -0.42328,0.072 -0.84741,0.081 -1.27324,0.076 h -1.85991 c 0.61334,0.076 1.38541,0.2667 1.76086,0.381 0.12275,0.042 0.24974,0.051 0.37249,0.085 -0.0423,0 -0.11428,-0.042 -0.15661,-0.051 0.10582,0 0.19048,-9e-4 0.27937,0.042 0.0719,0.042 0.13121,0.059 0.19894,0.093 -0.11006,-0.042 -0.21164,-0.059 -0.3217,-0.085 0.20741,0.076 0.16508,0.046 0.73567,0.2624 -0.11429,-0.051 -0.2328,-0.1058 -0.34709,-0.1566 0.309,0.072 0.6163,0.1693 0.92572,0.2412 0.0847,-0.093 0.17355,-0.1904 0.25821,-0.2793 0.11428,-0.1312 0.2836,-0.2074 0.4381,-0.2879 0.36826,-0.1989 0.55281,-0.2412 0.76868,-0.3132 h -0.20741 -1.13271 -0.16508 -0.12275 c 0,0 8.4e-4,-8e-4 -0.0423,0 z" />
    </clipPath>
    <rect
       x="788.86603"
       y="2424.0505"
       width="618.71844"
       height="187.82526"
       id="rect98160-5-7-6" />
  </defs>
  <g
     inkscape:label="Layer 1"
     inkscape:groupmode="layer"
     id="layer1"
     transform="translate(0.06258698)">
    <g
       id="g118372"
       transform="translate(80.937536,-98.660824)"
       style="stroke-width:0.581868">
      <path
         style="fill:#000000;stroke-width:0.264583"
         d="m -67.920719,116.09404 c -0.601632,-0.0767 -0.90429,-0.1631 -1.576312,-0.44984 -1.219315,-0.52027 -2.214321,-0.79464 -2.212229,-0.61002 0,0.16149 0.09358,0.21861 0.377958,0.23528 0.342946,0.0202 0.725633,0.11531 0.969041,0.24107 0.260461,0.13457 0.169836,0.16401 -0.153602,0.0499 -0.354859,-0.12519 -1.243779,-0.14134 -1.715454,-0.0311 -0.588946,0.13759 -0.465263,0.21379 0.357405,0.22022 0.206531,0.001 0.319937,0.0317 0.339763,0.0902 0.04561,0.13443 -0.760737,0.0586 -1.597138,-0.15019 -0.688982,-0.17198 -0.921069,-0.18083 -1.642154,-0.0627 -0.173519,0.0285 -0.168153,0.0205 0.0632,-0.094 0.138961,-0.0688 0.359224,-0.12575 0.4895,-0.12666 0.194163,-0.001 0.236815,-0.0244 0.236815,-0.12797 0,-0.15468 0.06643,-0.16217 -0.589082,0.0665 -1.305029,0.45512 -2.718371,0.58535 -4.876535,0.44932 -1.755514,-0.11066 -1.643609,-0.20687 0.19189,-0.16494 2.418305,0.0553 3.290992,-0.0586 4.675323,-0.60999 1.08904,-0.43377 0.741457,-0.75958 -0.533197,-0.49982 -0.889193,0.1812 -0.966631,0.17233 -1.673393,-0.19194 -0.340763,-0.17561 -0.634554,-0.3043 -0.652879,-0.28598 -0.01819,0.0183 0.03547,0.0596 0.120136,0.0917 0.525695,0.19988 0.405832,1.0827 -0.146918,1.08181 -0.65588,-9.1e-4 -0.824397,-0.84521 -0.221128,-1.10762 0.360907,-0.15699 -0.06903,-0.11288 -0.719994,0.0739 -1.173071,0.3365 -1.346089,-0.16152 -0.375821,-1.08181 0.608044,-0.57673 0.856772,-0.97896 0.60527,-0.97896 -0.559298,0 -0.593129,-0.37431 -0.07462,-0.82497 0.670112,-0.58232 1.220953,-1.63821 0.854635,-1.63821 -0.279194,0 -0.208213,-0.19886 0.211033,-0.59145 0.757872,-0.70969 1.062121,-1.35706 0.687482,-1.46298 -0.37714,-0.10664 -0.346401,-0.2865 0.133322,-0.78056 0.819759,-0.84428 1.246417,-1.54805 1.131374,-1.86621 -0.142371,-0.39365 -0.09681,-0.57 0.249047,-0.96361 0.592129,-0.6739 1.090177,-1.48858 0.965722,-1.5796 -0.09031,-0.066 -0.0989,-0.13802 -0.05661,-0.47465 0.09858,-0.78471 0.09372,-0.80808 -0.220946,-1.04213 -0.48136,-0.35811 -0.568392,-0.44598 -0.568392,-0.57385 0,-0.15276 0.218399,-0.24151 0.722176,-0.29343 0.474358,-0.04891 0.512554,-0.08365 0.668703,-0.607931 0.238224,-0.799951 0.442618,-0.814065 0.778879,-0.05378 0.204622,0.46274 0.23627,0.48116 0.882873,0.513632 0.772286,0.03879 0.841857,0.261539 0.23245,0.744209 -0.384097,0.3042 -0.40897,0.38433 -0.261006,0.84088 0.194208,0.59918 0.196118,0.8019 0.0082,0.8019 -0.208487,0 0.143735,0.73098 0.669066,1.38846 1.075489,1.34612 1.132238,1.4589 0.8339,1.65697 -0.160787,0.10676 0.161696,0.7088 0.782108,1.46015 0.167426,0.20277 0.304431,0.4025 0.304431,0.44384 0,0.11989 -0.188388,0.3559 -0.28406,0.3559 -0.279103,0 0.03319,0.66109 0.609226,1.28977 0.470583,0.51356 0.431387,0.85763 -0.09767,0.85763 -0.162514,0 0.263234,0.66033 0.798842,1.23906 0.269236,0.29087 0.489045,0.5645 0.488545,0.60807 0,0.13951 -0.0999,0.2412 -0.279058,0.28913 -0.220036,0.0588 0.26387,0.75142 1.060393,1.51767 0.265553,0.25544 0.481906,0.51123 0.480769,0.56843 -0.0082,0.39357 -0.620639,0.55428 -1.132647,0.29692 -0.289471,-0.14549 -0.507461,-0.17461 -0.507461,-0.0678 0,0.0528 0.0382,0.0959 0.0849,0.0959 0.301521,0 0.393646,0.54405 0.127593,0.75333 -0.218536,0.1719 -0.373411,0.16526 -0.5628,-0.0242 -0.248365,-0.24838 -0.14951,-0.72919 0.149965,-0.72919 0.04092,0 0.07398,-0.0426 0.07398,-0.0947 0,-0.18788 -0.535062,-0.0446 -0.989412,0.26506 -0.416291,0.28366 -0.90238,0.33347 -1.584451,0.16235 -0.492774,-0.12363 -0.962993,-0.11764 -0.962993,0.0122 0,0.045 0.18184,0.1239 0.422202,0.18323 0.232222,0.0573 0.807753,0.25703 1.278974,0.44384 1.884334,0.74703 2.913352,0.84814 4.540591,0.44615 0.673978,-0.1665 0.717585,-0.17006 0.819304,-0.0668 0.331578,0.33653 -1.80917,0.65351 -3.208416,0.47505 z m -4.726434,-0.62353 c 0.153512,-0.0679 0.398466,-0.14255 0.544338,-0.16588 0.270691,-0.0433 0.307205,-0.17736 0.172155,-0.63208 -0.01364,-0.0465 -0.180931,-0.0283 -0.515828,0.0561 -0.495911,0.12501 -0.675568,0.11734 -1.205901,-0.0515 -0.136551,-0.0435 -0.142098,-0.0305 -0.142098,0.333 0,0.37822 0,0.37822 0.331577,0.47596 0.4398,0.12962 0.489682,0.12867 0.815757,-0.0156 z m -4.586563,-0.53681 c 0.222355,-0.22239 0.210578,-0.42136 -0.02228,-0.3748 -0.238043,0.0476 -0.378141,-0.10581 -0.23095,-0.25297 0.09308,-0.0931 0.09049,-0.10143 -0.03228,-0.10143 -0.171746,0 -0.44371,0.27098 -0.44371,0.44211 0,0.36236 0.469174,0.54708 0.729179,0.28709 z m 4.988576,-0.6706 c 0.609726,-0.16727 0.972769,-0.1759 1.472273,-0.035 0.460489,0.12989 0.931208,0.0959 1.161476,-0.0838 0.48668,-0.37998 1.108047,-0.51962 1.564352,-0.35157 1.082037,0.39847 1.376783,0.13945 0.658562,-0.57877 -0.228312,-0.22832 -0.572212,-0.62386 -0.764283,-0.87899 -0.322847,-0.42898 -0.821168,-0.78309 -1.101908,-0.78309 -0.116498,0 -0.0487,0.13202 0.09599,0.18705 0.542883,0.20641 0.388053,1.07612 -0.191571,1.07612 -0.622822,0 -0.730726,-0.88315 -0.133641,-1.09388 0.160196,-0.0565 0.138734,-0.27332 -0.03183,-0.31895 -0.407787,-0.1093 -0.677387,-0.0454 -1.164886,0.27598 -0.524649,0.34594 -0.919568,0.41761 -1.20381,0.21851 -0.138915,-0.0973 -0.138915,-0.0973 -0.03183,0.0896 0.215307,0.37518 -0.152693,0.8048 -0.548839,0.64072 -0.364727,-0.15108 -0.382915,-0.63634 -0.03092,-0.82473 0.203348,-0.10885 0.194072,-0.15521 -0.05147,-0.25701 -0.368091,-0.15256 -0.629642,-0.0958 -1.450901,0.31506 -0.83681,0.41861 -0.976544,0.44725 -1.322172,0.27105 -0.225993,-0.11523 -0.225993,-0.11523 -0.219763,0.12247 0.01319,0.513 -0.595493,0.76778 -0.941804,0.39407 -0.27642,-0.29825 -0.106812,-0.90658 0.252776,-0.90658 0.142871,0 0.119089,-0.11097 -0.0341,-0.15964 -0.384551,-0.12205 -1.214404,0.24333 -1.54771,0.68146 -0.135732,0.17847 -0.435616,0.5284 -0.666338,0.77763 -0.771922,0.83371 -0.644648,1.03961 0.441982,0.71516 0.62073,-0.18534 0.79966,-0.16167 1.48114,0.19595 0.6848,0.35936 0.717448,0.36343 1.474228,0.18369 0.624641,-0.14834 0.825761,-0.13433 1.38124,0.0963 0.466764,0.19373 0.832626,0.20161 1.453447,0.0313 z m -3.547497,-1.66951 c 0.138324,-0.13833 0.18375,-0.32815 0.109177,-0.45626 -0.06148,-0.10568 -0.06521,-0.10575 -0.06698,-0.001 -0.0045,0.13676 -0.208851,0.14702 -0.317709,0.0158 -0.06271,-0.0756 -0.06271,-0.11388 0,-0.18947 0.06639,-0.08 0.05347,-0.0947 -0.08344,-0.0947 -0.180021,0 -0.358678,0.20447 -0.358678,0.41053 0,0.34899 0.475267,0.55786 0.717675,0.31542 z m 6.735042,-0.0312 c 0.07353,-0.0735 0.126365,-0.21053 0.126365,-0.32786 0,-0.19011 -0.005,-0.1946 -0.09103,-0.079 -0.121136,0.16315 -0.324166,0.0472 -0.308933,-0.17654 0.01592,-0.23477 -0.280786,-0.15918 -0.389417,0.0992 -0.190025,0.45199 0.321619,0.82559 0.663064,0.48415 z m -4.968251,-1.01054 c 0.945896,-0.48737 1.185849,-0.50334 1.897476,-0.12631 0.648695,0.34368 0.823897,0.32319 1.473546,-0.17231 0.270101,-0.20603 0.737865,-0.26106 1.073807,-0.12632 0.131595,0.0528 0.400831,0.16997 0.598359,0.26044 0.798978,0.36599 1.08713,0.15743 0.531742,-0.38484 -0.383324,-0.37428 -0.632734,-0.70826 -0.853225,-1.14269 -0.128912,-0.25398 -0.20112,-0.30821 -0.558707,-0.41961 -0.203849,-0.0635 -0.179885,0.0669 0.04738,0.25816 0.40033,0.33685 0.02319,0.93011 -0.470856,0.74055 -0.322302,-0.12368 -0.313389,-0.669 0.01319,-0.81259 0.573713,-0.25219 -0.210032,-0.38255 -0.884236,-0.14708 -0.527742,0.1843 -0.940713,0.18352 -1.369781,-0.003 -0.268599,-0.11648 -0.422793,-0.1431 -0.709217,-0.12239 -0.464718,0.0336 -0.493865,0.0679 -0.251002,0.29473 0.333259,0.31133 0.192253,0.78705 -0.233314,0.78705 -0.464127,0 -0.621139,-0.5108 -0.247546,-0.80526 0.272828,-0.21499 0.217671,-0.20515 -0.322074,0.0575 -1.174708,0.57171 -1.557487,0.59079 -1.683943,0.084 -0.147645,-0.59174 -0.636917,-0.48124 -1.039794,0.23484 -0.364362,0.64755 -0.426977,0.73269 -0.894604,1.21636 -0.579852,0.59977 -0.221492,0.74098 0.731725,0.2883 0.655652,-0.31136 1.010193,-0.32476 1.445945,-0.0547 0.939394,0.58229 0.776379,0.57324 1.705087,0.0947 z m -0.265007,-2.09117 c 0.869095,-0.40386 1.313169,-0.46505 1.796029,-0.24746 0.390509,0.17597 0.821578,0.17778 1.315533,0.005 0.551432,-0.19229 1.47923,-0.0924 1.771202,0.19068 0.100401,0.0974 0.328122,0.0653 0.485635,-0.0684 0.1491,-0.12655 0.1491,-0.12655 -0.01501,-0.26842 -0.269281,-0.23258 -0.70899,-0.81835 -0.877825,-1.16947 -0.0869,-0.18059 -0.187297,-0.32878 -0.223174,-0.32933 -0.03592,-4.5e-4 -0.219718,-0.10045 -0.408424,-0.22204 -0.391463,-0.2522 -0.753643,-0.29115 -1.092632,-0.1175 -0.301066,0.15424 -0.31207,0.22093 -0.07257,0.44031 0.367045,0.3362 0.218626,0.77913 -0.261916,0.78151 -0.457351,0.003 -0.60045,-0.64159 -0.184705,-0.83101 0.324985,-0.14808 0.145645,-0.15843 -0.215716,-0.0125 -0.814756,0.3291 -1.099089,0.32627 -1.810535,-0.018 -0.519556,-0.25141 -0.985228,-0.31177 -1.022151,-0.13248 -0.01455,0.0713 0.03274,0.13133 0.133368,0.1697 0.567483,0.21575 0.415017,1.07787 -0.190571,1.07787 -0.619548,0 -0.724632,-0.88404 -0.130003,-1.09389 0.08731,-0.0308 0.16738,-0.23245 0.09231,-0.23245 -0.305659,0 -0.720767,0.27331 -0.834445,0.5494 -0.192526,0.46759 -0.383006,0.73912 -0.760737,1.08433 -0.466218,0.4261 -0.342718,0.54138 0.278149,0.25964 0.393327,-0.17847 0.829944,-0.0744 0.829944,0.19777 0,0.47253 0.359405,0.46898 1.398427,-0.0138 z m -0.577305,-1.0036 c 0.07348,-0.0735 0.12632,-0.21053 0.12632,-0.32786 0,-0.19011 -0.005,-0.19459 -0.09099,-0.0789 -0.126456,0.17027 -0.324574,0.0464 -0.306841,-0.19185 0.01,-0.12979 -0.01046,-0.16151 -0.08412,-0.13321 -0.0532,0.0204 -0.124228,0.0371 -0.157785,0.0371 -0.0894,0 -0.233087,0.3771 -0.196755,0.51616 0.07562,0.28926 0.494274,0.39452 0.710218,0.17858 z m 2.398753,-1.04189 c 0.122272,-0.0432 0.416518,-0.18181 0.653878,-0.30787 0.579852,-0.30795 0.890103,-0.30943 1.365552,-0.006 0.718084,0.45748 1.137785,0.19476 0.640237,-0.40082 -0.135777,-0.16255 -0.348856,-0.46607 -0.473493,-0.6745 -0.213943,-0.3577 -0.226675,-0.36799 -0.226812,-0.18347 -2.27e-4,0.24302 -0.189934,0.42559 -0.4423,0.42559 -0.442346,0 -0.610317,-0.52451 -0.252639,-0.78895 0.193072,-0.14272 0.243363,-0.24264 0.122136,-0.24264 -0.03729,0 -0.163924,-0.0736 -0.281877,-0.1636 -0.326257,-0.24885 -0.650832,-0.2671 -1.048843,-0.059 -0.239998,0.12549 -0.382324,0.16212 -0.523649,0.13478 -0.106721,-0.0206 -0.319164,-0.0632 -0.472039,-0.0944 -0.277921,-0.0569 -0.277921,-0.0569 -0.07889,0.0988 0.351584,0.27516 0.180339,0.84132 -0.254504,0.84132 -0.404968,0 -0.559525,-0.58251 -0.225447,-0.8499 0.235133,-0.18823 -0.005,-0.1372 -0.288789,0.0613 -0.07371,0.0516 -0.238725,0.0939 -0.366636,0.0939 -0.210987,0 -0.248728,0.0278 -0.406287,0.30001 -0.245636,0.42426 -0.496411,0.74564 -0.935847,1.19934 -0.286287,0.29552 -0.36368,0.41211 -0.309523,0.46624 0.119226,0.11926 0.714674,0.0774 1.054663,-0.0741 0.420156,-0.18725 0.828671,-0.14206 1.436987,0.159 0.496321,0.24561 0.767103,0.25911 1.314169,0.0655 z m 1.795893,-2.42979 c 0.221627,-0.0843 0.170154,-0.19223 -0.417519,-0.87596 -0.560526,-0.65222 -0.870368,-1.1161 -1.101772,-1.6497 -0.362771,-0.83651 -1.09827,-0.75949 -1.56026,0.1634 -0.177929,0.35549 -0.817621,1.22914 -1.077217,1.47122 -0.486453,0.45361 0.103174,1.12439 0.676751,0.7699 0.246409,-0.15228 0.646648,-0.17437 1.07649,-0.0594 0.251365,0.0672 0.299838,0.0605 0.521966,-0.0723 0.339762,-0.20313 0.689346,-0.19428 1.066941,0.027 0.165425,0.0969 0.374957,0.1987 0.465627,0.22616 0.09072,0.0274 0.170154,0.0524 0.176565,0.0553 0.0059,0.003 0.08403,-0.0221 0.172428,-0.0557 z m -2.656985,-3.15845 c 0.398375,-0.27064 0.520466,-0.26708 0.940849,0.0273 0.361133,0.25297 0.469901,0.0943 0.303885,-0.4432 -0.1481,-0.47949 -0.130821,-0.53911 0.245364,-0.84571 0.391645,-0.31924 0.267417,-0.604124 -0.211033,-0.48403 -0.359088,0.0901 -0.540655,-0.0172 -0.751006,-0.443809 -0.252002,-0.511008 -0.380686,-0.529737 -0.515691,-0.07507 -0.154375,0.519799 -0.228948,0.596609 -0.624277,0.643069 -0.668702,0.0786 -0.702442,0.17192 -0.199437,0.55171 0.376321,0.28413 0.400012,0.35797 0.292517,0.91189 -0.09449,0.48688 -0.005,0.51394 0.518829,0.15779 z"
         id="path14704" />
    </g>
  </g>
</svg>
