<?xml version="1.0" encoding="UTF-8" standalone="no"?>
<!-- Created with Inkscape (http://www.inkscape.org/) -->

<svg
   width="10.092662mm"
   height="10.501436mm"
   viewBox="0 0 10.092663 10.501436"
   version="1.1"
   id="svg5985"
   inkscape:version="1.2.2 (b0a8486541, 2022-12-01)"
   sodipodi:docname="father_day.svg"
   xmlns:inkscape="http://www.inkscape.org/namespaces/inkscape"
   xmlns:sodipodi="http://sodipodi.sourceforge.net/DTD/sodipodi-0.dtd"
   xmlns="http://www.w3.org/2000/svg"
   xmlns:svg="http://www.w3.org/2000/svg">
  <sodipodi:namedview
     id="namedview5987"
     pagecolor="#ffffff"
     bordercolor="#000000"
     borderopacity="0.25"
     inkscape:showpageshadow="2"
     inkscape:pageopacity="0.0"
     inkscape:pagecheckerboard="0"
     inkscape:deskcolor="#d1d1d1"
     inkscape:document-units="mm"
     showgrid="false"
     inkscape:zoom="5.3088146"
     inkscape:cx="41.063781"
     inkscape:cy="33.811691"
     inkscape:window-width="796"
     inkscape:window-height="878"
     inkscape:window-x="160"
     inkscape:window-y="18"
     inkscape:window-maximized="1"
     inkscape:current-layer="layer1" />
  <defs
     id="defs5982">
    <clipPath
       clipPathUnits="userSpaceOnUse"
       id="clipPath25107-2">
      <path
         id="path25109-8"
         style="fill:#ff0000;fill-opacity:1;fill-rule:nonzero;stroke:none;stroke-width:323.257"
         d="m 422.36252,921.96649 -226.92065,0.0423 v 505.51131 c 0.43641,-0.046 0.8707,-0.085 1.30626,-0.1397 0.68488,-0.089 1.36171,-0.2666 2.04997,-0.3217 4.17402,-0.3344 0.72509,-0.042 3.72025,-0.085 0.49482,0 0.98626,-0.059 1.48023,-0.089 2.64088,-0.2032 5.26059,-0.4897 7.91163,-0.5206 3.07432,-0.042 0.33016,0.1185 2.88511,-0.059 0.13122,0 0.26667,-0.042 0.39789,-0.051 h 0.0423 c 0,0 0.0508,0 0.0677,0 0.0762,0 0.15238,-0.042 0.23281,-0.042 0.0423,0 0.0423,-0.042 0.0762,-0.042 0,0 0.0423,0 0.0508,0 0.0423,0 -0.0423,0.042 -0.0593,0.042 0.27937,-0.063 0.56212,-0.1186 0.84319,-0.182 0,-1.0295 0.0423,-2.0526 0.14815,-3.0752 0.0466,-0.4106 0.45037,-0.4813 0.95069,-0.4631 0.50075,0 1.09462,0.1185 1.50436,0.059 0.53757,0.042 1.07599,0.042 1.61229,0.089 0.3471,0.042 0.68615,0.1058 1.03324,0.1481 0.58837,0.072 1.18012,0.1439 1.76933,0.2074 0.31747,0.042 0.63451,0.042 0.9507,0.059 1.4197,0.093 2.84109,0.1481 4.25783,0.2709 2.80215,0.254 5.60133,0.5765 8.39967,0.8681 4.47624,0.4466 8.92158,1.1112 13.35973,1.8354 0.20741,-0.3598 0.82371,-0.4241 1.93441,-0.4233 0.0423,-0.11 0.2582,0 0.38942,0 h 1.05822 c 2.814,0.042 5.61953,-0.051 8.43268,-0.1227 0.85462,0.042 1.70965,0.051 2.56299,0.1058 1.42944,0.097 2.84575,0.3005 4.27434,0.4063 1.69102,0.127 2.27219,0.144 3.02564,0.2159 0.33016,-0.1608 0.64593,-0.3598 0.96721,-0.5375 1.05948,-0.5783 1.94118,-1.1218 3.11665,-1.4879 2.64468,-0.8241 5.46249,-0.6523 8.1766,-1.0417 3.19072,-0.2159 5.15688,-0.3979 8.32517,-0.4381 2.38479,-0.042 4.77508,-0.047 7.15945,0 2.09145,0.042 4.1774,0.1651 6.26673,0.2709 10.25282,0.5189 8.59735,0.4487 17.7911,1.1162 3.7719,0.2963 7.5476,0.5765 11.3178,0.8927 5.70631,0.4779 11.40203,1.0371 17.10496,1.5543 0.27513,-0.046 0.5545,-0.08 0.82667,-0.1397 0.54689,-0.1227 1.06837,-0.3301 1.60383,-0.4961 5.31265,-1.6994 -0.2709,0.1059 3.53866,-1.1657 1.99876,-0.6667 4.26968,-1.5183 6.40727,-1.3803 -0.26667,0.085 -1.08065,0.2963 -0.80212,0.2582 0.55916,-0.08 1.09503,-0.2921 1.65335,-0.381 1.27112,-0.1989 3.82607,-0.3132 4.95243,-0.3047 5.21403,0.042 5.28811,0.165 10.37515,0.6696 2.68701,0.3344 5.37953,0.6265 8.06062,1.0087 1.96616,0.2794 3.92004,0.6442 5.87816,0.9752 5.72916,0.9685 11.45537,1.9734 17.17945,2.9681 0.0931,-0.042 0.18201,-0.093 0.2709,-0.1227 0.8106,-0.2879 2.17103,-0.3937 3.32364,-0.3387 0.35133,-0.1777 0.70477,-0.3428 1.08319,-0.4546 0.62434,-0.182 1.14964,0.051 1.70287,0.1143 1.30711,0.444 2.65273,0.764 3.97677,1.1573 z m -2.62902,505.85881 c 0.11852,0.042 0.23704,-4e-4 0.35556,0.042 0.22857,0.081 0.93461,0.2752 0.69461,0.2328 -0.35556,-0.063 -0.70223,-0.1608 -1.04975,-0.2582 z m -4.34884,0.3556 c -0.36825,0.055 -0.66836,0.1185 -1.20678,0.4148 -0.0847,0.046 -0.24127,0.1524 -0.37249,0.2328 0.0847,0 0.18201,0.051 0.26243,0.059 0.43683,-0.2413 0.87663,-0.4674 1.3143,-0.7027 z m -196.68708,10.7311 c -0.16084,0 -0.35979,0.042 -0.53715,0.059 -0.98117,0.2285 -1.52552,0.2709 -2.65399,0.3809 -0.73652,0.042 -1.4705,0.093 -2.20744,0.1058 -2.54225,0.055 0.69081,-0.2031 -2.80257,0 -1.44001,0.076 -2.87707,0.2413 -4.31539,0.3641 0.0423,0.8525 0.0635,1.7189 0,2.662 -0.26244,4.0716 -0.67768,8.1343 -0.98371,12.2025 -0.055,0.6992 -0.12699,1.3989 -0.14815,2.0999 -0.0423,1.0692 0,2.138 0,3.2076 0.0931,4.1254 -0.002,8.2655 -0.26244,12.3845 -0.0804,1.3241 -0.19895,2.6481 -0.33016,3.9683 -0.32593,3.2991 -0.28784,0.8495 -0.25821,3.5217 0,0.3979 0.0508,0.7924 0.0423,1.1907 -0.14815,7.4566 -0.0593,0.326 -0.2963,5.8947 -0.26667,6.2498 0.0762,0.2159 -0.0762,5.3241 -0.0423,1.3939 -0.12275,2.7814 -0.18201,4.1749 -0.20741,4.6874 -1.00573,9.3254 -1.47981,13.9883 -0.17778,1.7604 -0.19471,2.4419 -0.31323,4.4064 -0.0423,0.6649 -0.0847,1.3265 -0.0931,1.9924 -0.0931,5.4299 0.10159,10.872 0.10582,16.3032 -0.003,0.9262 0,1.8515 0,2.7776 -8.5e-4,0.2074 0,5.57 0,6.4568 -0.002,1.8773 -0.0804,3.7545 0,5.6301 0.0423,0.5905 0.11429,1.1729 0.17355,1.7609 0.40635,1.8912 0.39789,3.8493 0.70307,5.7541 0.24974,1.5691 0.24974,0.9397 0.53715,2.042 0.21588,0.8376 0.40636,1.6808 0.61165,2.5215 0.89186,3.727 1.04848,7.5789 1.49674,11.3758 0.52275,3.6356 0.18201,7.3084 0.15661,10.9622 0.0889,2.1088 0.001,4.1753 -0.23281,6.2752 -0.34709,2.9287 -0.30476,0.5173 -0.26243,3.1166 0.0593,2.2384 -0.0466,4.486 0.10582,6.7214 0.0593,0.3979 0.11429,0.7932 0.17355,1.1903 h 0.0508 c 0.11429,1.0967 0.19894,2.1922 0.2963,3.2906 -4.2e-4,0.6235 -0.0593,1.2559 0,1.8764 0.0423,0.2625 0.16931,0.4974 0.24127,0.7526 0.0931,0.3386 0.17355,0.6819 0.25397,1.0252 0.33863,1.4544 0.64467,2.8864 0.90922,4.3569 0.4999,2.9592 0.0974,5.9662 0.10582,8.9448 -0.0423,1.5023 0.15662,3.0232 0.0423,4.5224 -0.0762,0.9169 -0.19894,1.8303 -0.2963,2.7446 -0.23281,1.4053 -0.56043,2.789 -0.91768,4.1668 -0.14392,0.5622 -0.23704,1.145 -0.44657,1.6868 -0.2328,0.6007 -0.4927,1.192 -0.74413,1.7854 -0.0635,0.8047 -0.11852,1.6098 -0.18202,2.414 -0.31746,0.6701 -0.62942,1.3418 -0.95069,2.0089 0,0.4944 0,0.1186 -0.0593,1.3478 -0.19048,1.8802 -0.11006,1.2817 -0.47959,3.4887 -0.0762,0.455 -0.20317,0.9046 -0.24127,1.3642 -0.0423,0.3133 0.0466,0.6223 0.0593,0.9342 0.0423,0.8953 0.0593,1.7914 0.10159,2.6871 0.12699,1.9763 0.0804,3.9564 0.0593,5.9357 0,1.1716 -0.13122,0.7018 0.11429,1.4053 0.50117,2.3776 0.80889,4.7924 1.27324,7.1759 0.45207,1.4633 0.33016,2.9867 0.3217,4.4894 v 0.042 c 0.0423,0.2032 0.0677,0.4106 0.10158,0.6117 -0.0466,-0.1185 -0.0762,-0.2455 -0.12275,-0.381 8.5e-4,0.1397 0,0.2836 0,0.4233 8.5e-4,0.042 0.0635,-0.042 0.0974,-0.042 0.0423,0 0.0423,0.059 0.0423,0.059 0.54774,1.4489 0.81822,2.2363 0.5871,4.7121 0,0.1058 0,0.2116 0,0.3132 4.18418,3.1348 4.34926,8.7836 -0.21587,12.6405 -0.0974,0.5897 -0.19048,1.1167 -0.33017,1.951 -0.36825,1.2482 -0.83091,2.7429 -1.46372,4.1253 -0.0974,0.6121 -0.21164,1.1865 -0.39788,1.5543 0.002,0.063 0,0.127 0,0.1905 0,1.76 0.0466,2.4512 -0.38943,4.4068 0,0.047 -0.0423,0.093 -0.0423,0.1397 0.0677,0.3048 0,0.6222 0,0.9342 -0.003,0.8355 -0.0508,1.669 -0.0508,2.505 0.002,1.9039 0,3.8091 0,5.7126 -0.0847,0.9622 0.0931,1.9493 0,2.9101 -0.0889,0.919 -0.20741,1.8362 -0.31323,2.7531 -0.93927,5.01 0.77038,-4.2511 -0.5126,3.5132 -0.0423,0.1778 -0.0423,0.1143 -0.0804,0.3387 0.0423,0.1524 0.0804,0.3005 0.10582,0.4546 0.0931,0.5054 8.4e-4,1.0328 0,1.5462 -0.002,0.6582 0,1.3093 0,1.9675 0,0.6967 -8.5e-4,1.3807 0,2.0669 0,0 0.0423,0.042 0.0593,0.068 0.0635,0.072 0.10159,0.1524 0.15661,0.2328 0.24128,0.3386 0.19471,0.2582 0.38096,0.5291 0.0974,0.1397 0.18625,0.2878 0.28783,0.4233 0.10159,0.042 0.20318,0.059 0.30477,0.097 0.20741,-0.1186 0.44657,-0.2244 0.71916,-0.3133 0.65948,-0.2201 0.49524,-0.1947 1.43028,-0.3217 0.21164,-0.042 0.4326,-0.042 0.64509,-0.051 0.86435,0 0.82794,0.042 1.57081,0.059 h 0.37249 c 0.2582,-0.047 0.51345,-0.1185 0.76869,-0.1736 0.21164,-0.042 0.41905,-0.051 0.62815,-0.068 h 0.0931 c 0,0.042 -0.10582,0.059 -0.0762,0.059 0.0762,0 0.14392,-0.051 0.21588,-0.076 0.34286,-0.1228 0.21587,-0.085 0.52106,-0.1736 0.17355,-0.042 0.35556,-0.051 0.52911,-0.076 h 0.12275 c 0.24551,0 0.48932,-0.042 0.73567,0 0.13545,0 0.2709,-8e-4 0.40636,0.042 0.2328,0.042 0.13545,0.042 0.40635,0.051 h 0.31323 c -3.85444,-2.5207 -1.74097,-7.835 4.97699,-7.1265 2.58712,0.2709 5.00704,1.2547 7.50654,1.9014 0.66413,0.1736 1.34012,0.3217 2.00891,0.4712 0.47238,-0.8128 0.95705,-1.6174 1.50478,-2.381 0.0593,-0.063 1.74012,0.042 1.92637,0.042 1.06668,0 2.08764,-0.1016 3.14966,-0.1481 0.47832,-0.042 0.96467,-0.1059 1.43875,-0.042 1.61272,0.2201 1.68086,0.3175 2.73654,0.8678 0.40212,0.2497 0.80466,0.4986 1.20678,0.7526 0,0.042 -0.0423,0 -0.0423,0 -0.27091,-0.1059 -1.05187,-0.4843 -0.8106,-0.3217 0.40636,0.2709 0.88763,0.4343 1.31473,0.6696 h 0.16508 c 0.25397,-0.1947 0.52233,-0.2582 0.81017,-0.1397 h 0.0677 c 0.0466,0 0.0931,-0.042 0.13969,-0.042 0.0423,0.072 0.0508,0.1524 0.0804,0.2243 0.0804,0.055 0.072,0.199 0.14815,0.2582 0.072,0 0.14392,0 0.21588,0 0.18624,-0.042 0.34286,-0.165 0.5291,-0.2074 0.37249,-0.08 0.74752,-0.1608 1.12425,-0.2074 0.6544,-0.063 0.97652,-0.042 1.49631,0 -0.0423,-0.051 -0.0677,-0.097 -0.0974,-0.1481 0.10158,0.051 0.20317,0.11 0.30476,0.165 0.0423,0 0.055,0 0.0974,0 0.16931,0.042 0.33439,0.068 0.50413,0.068 0.10159,0 0.21164,-0.042 0.31323,-0.042 0.18625,0 0.36826,0 0.55408,0 0.43133,0.042 0.86774,0.059 1.29779,0.097 1.33462,0.1101 0.29207,0.1058 1.2652,0.1058 0.75176,-0.068 1.49166,0.127 2.23199,0.2074 0.0466,0.042 0.10158,0 0.14815,0 0.20317,-0.042 0.40212,-0.042 0.60318,-0.042 1.47769,-0.042 2.9613,0 4.43983,0 1.17716,0 0.89779,-0.042 2.56257,0.2328 0.37249,0.059 0.73525,0.1693 1.10774,0.2328 2.8995,0.4953 -0.55239,-0.1566 1.81081,0.2074 0.44996,0.072 0.89187,0.1736 1.33928,0.2582 0.28783,0.081 0.56762,0.2074 0.86816,0.2498 0.0423,0 -0.0466,-0.1397 0,-0.1397 0.19048,-0.085 0.40635,-0.051 0.60318,-0.051 2.94056,0.042 0.81271,0.046 3.15813,0.1143 0.61207,0.042 1.22287,0.042 1.83536,0.042 0.43683,0 0.87747,8e-4 1.31473,0 2.57146,-0.042 0.86435,-0.042 2.81061,-0.042 0.2709,8e-4 0.54562,0 0.81863,0 0,0 0.0423,0 0.0593,-0.042 0.61758,0 1.23473,0 1.85188,0 0.003,0 0,0 0,0 0.29206,0 0.57863,-0.042 0.86816,-0.08 1.29779,-0.1608 2.58669,-0.419 3.8938,-0.4961 0.39788,-0.042 0.80508,-0.042 1.20721,-0.042 1.38837,0.1016 2.77675,0.059 4.16681,0.059 1.18139,0 2.33527,-0.326 3.51327,-0.3979 0.56255,-0.051 1.1234,-0.051 1.68679,-0.051 1.69653,0.072 3.39517,0.076 5.09255,0.076 1.04424,0 2.08891,0 3.13315,0 1.07176,-0.2709 2.19008,-0.2709 3.28216,-0.2709 0.11005,-5e-4 0.21587,0.042 0.32169,0 0.0593,0 -0.13121,0 -0.17354,-0.051 0.30053,-0.051 0.60064,-0.1143 0.90117,-0.1566 h 0.0889 0.0423 c 0.055,-0.042 0.11005,-0.047 0.16508,-0.068 0.055,0 0.10159,-0.051 0.15662,-0.068 h 0.0423 c 0.0974,-0.042 0.19047,-0.072 0.28783,-0.1058 0.85207,-0.1101 1.01715,-0.1355 1.25673,-0.1312 0.38519,-0.1439 0.77546,-0.2921 1.17377,-0.3895 0.58287,-0.1439 1.20467,0.127 1.79431,0.081 h 2.96765 c 0.0423,0 0.0804,0 0.12275,0 0,0 0,0 0,0 0.34286,-0.1609 0.70816,-0.2625 1.07472,-0.3471 0.52572,-0.364 1.12848,-0.6074 1.71981,-0.8432 0.15239,-0.4021 0.16085,-0.4428 0.50414,-1.1243 0.0762,-0.1523 0.0804,-0.4465 0.24973,-0.4465 0.0423,0 0,0 0,0.042 0,0 0,-0.051 0,-0.068 0,-0.042 0.0423,-0.047 0.0423,-0.072 0,0.055 -0.0423,0.1016 -0.0423,0.1566 -0.0423,0.2413 -0.0762,0.4813 -0.14815,0.7107 -0.072,0.2328 0.0423,-0.3555 0.11429,-0.6696 -0.0635,0.097 -0.22434,0.254 -0.22434,0.364 0,0.199 0.0423,0.5926 0.0423,0.8847 0.13545,-0.1397 0.29206,-0.3005 0.33016,-0.3386 0.17355,-0.1651 0.22434,-0.2074 0.2582,-0.2244 -0.0635,-0.4355 -0.10582,-0.8728 -0.11428,-1.2978 -0.0762,0.127 -0.15662,0.2625 -0.21588,0.3979 0.055,-0.2963 0.11852,-0.5943 0.25821,-0.8601 0.66328,-1.2762 0.98202,-1.399 1.86838,-1.9839 0.33016,-0.1905 0.67387,-0.3514 1.01673,-0.5211 0,0 0.0423,0 0.0508,-0.042 0.40636,-0.2921 0.91345,-0.5947 1.44679,-0.8102 0.0974,-1.3532 0.42837,-2.4491 0.90964,-3.2987 0.15662,-0.2963 -0.0423,-0.5879 0.18201,-0.9176 0.67726,-0.9973 1.90563,-1.3893 2.90205,-1.9184 0.16084,-0.042 0.31746,-0.097 0.47916,-0.097 3.45527,-0.436 -0.89314,0.2116 -1.04975,0.5375 -0.0423,0.047 -0.0931,0.3048 -0.12275,0.381 0.29629,-0.085 0.59302,-0.1397 0.8927,-0.1397 0.49144,4e-4 0.9833,0.127 1.44679,0.3556 0.24551,-0.4843 0.50117,-0.9651 0.7361,-1.4553 0.54519,0.2794 1.10985,0.5219 1.64488,0.8187 -0.055,-0.042 -0.10159,-0.072 -0.15661,-0.1059 -0.055,-0.042 0.19047,0.047 0.16508,0.097 0.0466,0.042 0.0931,0.051 0.13968,0.085 0.0804,0.046 0.17355,0.08 0.25821,0.1312 0.0423,0.042 0.055,0.051 0.0847,0.076 0.11006,0.068 0.22434,0.1312 0.33016,0.2074 0.16932,0.1185 0.27937,0.2201 0.43006,0.3301 0.469,-0.127 0.94816,-0.1989 1.43833,-0.1989 h 0.77715 c 0.81059,-0.042 1.61356,-0.042 2.42246,0.042 0.67006,0.059 0.46942,-0.063 0.71069,0.097 -0.055,0.046 -0.23704,0.1397 -0.16508,0.1397 0.20318,-0.042 0.38519,-0.1228 0.57863,-0.1821 0.30054,-0.093 0.60065,-0.182 0.90118,-0.2709 0.81271,-0.2455 1.09715,-0.3344 2.02542,-0.5375 h 0.10582 c 0.89652,-0.4331 1.19197,-0.4779 2.09145,-0.6282 0.38519,-0.042 0.76826,-0.072 1.15769,-0.1143 0.49397,-0.042 0.99302,-0.051 1.48784,-0.051 0.60403,-0.042 1.20594,-0.068 1.81082,-0.076 0.60445,0 1.20763,0 1.81039,0.076 0.6108,0.085 1.22795,0.1566 1.83536,0.2625 0.23704,0.042 0.46181,0.127 0.69461,0.1904 1.23642,0.3429 2.32257,0.6566 3.41422,1.4223 0.3344,0.2328 0.54731,0.5964 0.82668,0.8927 0.2709,0.6455 0.56889,1.2813 0.81863,1.9344 0.0423,0.089 0.0423,0.182 0.0423,0.2794 0.0423,0.309 0.0847,0.6214 0.0423,0.9261 -0.0423,0.4504 -0.17355,0.7755 -0.28784,1.1243 0,-0.1016 0.0423,-0.2074 0.0423,-0.3133 -0.38095,0.9998 -0.949,1.9357 -1.26477,2.9596 -0.0423,0.1016 -0.0423,0.144 -0.0423,0.1821 -0.0423,0.042 -0.0635,0.089 -0.0974,0.1312 0,0.042 -0.055,0.042 -0.0508,0.042 0,-0.064 0.13545,-0.2328 0.0889,-0.182 -0.4635,0.6417 -0.82117,1.371 -1.52933,1.8108 -0.30053,0.2244 -0.5545,0.5207 -0.8762,0.7107 -0.99726,0.5951 -1.77992,0.8508 -2.86056,1.0582 -0.10159,0.042 -0.20318,0.042 -0.30477,0.059 0.78816,0.4106 1.58309,0.8394 2.0504,1.5543 0.0889,-4e-4 0.17354,0 0.26243,0 h 0.46308 0.73567 c 0.11005,0 0.23704,-0.047 0.32169,0 0.0677,0.055 -0.16508,0 -0.24974,0.051 -0.0508,0 -0.0974,0.042 -0.14815,0.051 0.40636,-0.072 0.81906,-0.1566 1.23176,-0.199 1.41081,-0.1397 2.76617,0.4462 4.16682,0.3641 h 0.72763 c 0.0423,0 0.0762,8e-4 0.11429,-0.042 0.30053,-0.042 0.60657,-0.042 0.90964,-0.042 1.13229,0.042 1.10477,0 2.42204,0.1397 0.91514,0.097 -0.66118,0.1016 1.08318,0.1481 0.49144,0 0.97991,-0.042 1.47177,-0.042 0.78223,0 1.56573,0.047 2.34754,0.072 2.585,0.3047 5.18905,0.546 7.72199,1.1657 0.2836,0 0.56212,0 0.84318,0.051 0.11852,0 0.23704,0.042 0.35556,0.059 0.16508,0.042 0.48805,-0.051 0.58667,0 h 0.0423 c 1.56912,-0.6577 1.46372,-0.6599 3.3812,-1.1987 1.22838,-0.3429 0.54308,0.042 1.90987,-0.4148 0.51894,-0.1651 1.02054,-0.3937 1.52933,-0.5871 0.87323,-0.2498 1.73928,-0.4944 2.61251,-0.7442 0.52234,-0.072 1.04552,-0.1693 1.57081,-0.2158 4.25952,-0.3725 8.53809,-0.042 12.80607,-0.072 4.58757,-0.1143 9.07862,-0.5668 13.57476,-0.093 -0.0423,-0.5858 -0.0635,-1.1133 -0.0804,-2.0339 -0.309,0.1609 -0.60488,0.3386 -0.92573,0.4796 -0.52022,0.2286 -0.74159,-0.254 -0.83514,-0.9507 -0.39366,0 -0.77123,-0.042 -1.14075,0 0.36402,-2.1359 0.60868,-3.6428 0.83471,-4.9355 -0.055,-0.6311 -0.0423,-1.2665 0.0677,-1.9018 -0.055,-2.6583 0,-5.314 0.0762,-7.9697 0,-0.1989 0.0847,-1.357 0.10582,-1.7608 -1.04213,-0.059 -2.06817,-0.2201 -3.04215,-0.5042 -1.26985,-0.3682 -0.31746,-2.6307 -0.26244,-3.9517 0.28784,-7.4901 0.88086,-8.3921 2.59559,-15.8487 0.18201,-0.4385 0.34709,-0.9007 0.49609,-1.3638 0,-0.3175 0.0762,-0.8758 0.0847,-1.1082 0.23704,-1.4713 0.44021,-2.9515 0.63662,-4.4309 -1.48108,-0.875 -2.71368,-2.5118 -3.4557,-4.7704 -0.26244,-0.8043 -0.2709,-2.188 -0.14815,-3.8113 -0.76488,-0.051 -1.53187,-0.127 -2.28998,-0.2624 -0.99091,-0.1778 1.03028,-1.7537 1.75241,-2.4551 0.17354,-0.1693 0.66625,-0.5672 0.94265,-0.8106 0.75768,-4.9922 2.1541,-10.6096 2.49654,-11.5904 0.35979,-1.0311 0.86181,-1.9945 1.40573,-2.9431 0.0423,-1.6842 0.0635,-3.3689 0,-5.0515 -0.0423,-0.9676 -0.21588,-1.923 -0.3217,-2.8851 -0.12698,-1.4307 -0.2836,-2.8588 -0.38942,-4.2908 -0.0635,-0.8898 -0.0974,-1.7867 -0.12275,-2.6786 -0.11006,-3.5187 -0.13546,-4.8292 -0.0889,-8.1846 -0.11006,-0.2498 -0.22434,-0.4593 -0.33017,-0.7276 -0.12275,-0.3048 -0.0423,-0.6316 0.0804,-0.9592 -0.26244,-1.1632 -0.53249,-2.3251 0.33863,-2.7941 0.84572,-0.455 1.76637,-0.6464 2.72003,-0.7192 -0.0847,-0.237 -0.17355,-0.4766 -0.22434,-0.7196 -0.0847,-0.6108 -0.22011,-1.2203 -0.26244,-1.8353 -0.0466,-0.593 -0.0423,-1.1907 0,-1.7854 0.0423,-0.9825 0.0804,-1.9649 0.17355,-2.9431 0.0593,-0.6252 0.16931,-1.2394 0.2709,-1.8604 -0.11429,-0.6116 -0.25397,-1.2207 -0.35556,-1.8353 -0.23281,-1.4506 -0.538,-2.9986 -0.47112,-4.4725 0,-0.042 -0.004,-0.042 0,-0.068 -3.34099,-1.5966 -2.37039,-0.585 -0.95916,-5.6462 -0.11852,0 -0.22858,-0.042 -0.33863,-0.042 -0.31746,0.4398 -0.63112,0.8817 -0.95916,1.3143 0.0508,-0.1566 0.0466,-0.3471 0.14815,-0.4792 0.2328,-0.3048 0.49947,-0.5689 0.76868,-0.8436 0,0 0,0 -0.0423,-0.042 h 0.0423 c 0.0466,-0.063 0.0931,-0.127 0.13969,-0.1905 -0.0593,0.063 -0.11429,0.1185 -0.17355,0.182 -0.23281,-0.051 -0.43726,-0.1185 -0.41482,-0.3217 0.23704,-2.0825 1.28001,-4.0005 2.0669,-5.9442 -0.64043,0.051 -0.35556,-0.051 -0.8017,0.1058 0.2963,-0.1269 0.59937,-0.2285 0.90117,-0.3386 -0.62604,-1.3469 -0.99726,-2.8055 -1.52128,-4.1998 0,0 0.0423,-0.042 0.0593,-0.042 -1.24531,-0.2539 -4.2663,-0.5604 -4.35688,-2.3394 -0.0847,-1.6466 0.96213,-3.217 1.9014,-4.572 0,-4e-4 0.0423,0 0.0423,0 -0.11006,-0.5583 -0.21165,-1.153 -0.25821,-1.5128 -0.68064,-0.047 -1.3634,-0.072 -2.04192,-0.1397 -0.38096,-0.042 -1.07261,0.2032 -1.13272,-0.1735 -0.34286,-2.1342 0.0423,-4.3209 0.0677,-6.4818 0.76488,-0.2963 1.53399,9e-4 2.29844,-0.042 0.14815,0 1.01885,-0.08 1.52933,-0.1143 -0.28784,-0.8576 -0.40636,-1.7782 -0.59514,-2.6785 -1.1598,-0.085 -3.77486,-0.2752 -4.34037,-1.3973 -0.71704,-1.4235 -0.4364,-3.1666 -0.65313,-4.7454 0.74414,-0.2456 1.476,-0.5071 2.21548,-0.7687 -0.72975,-0.309 -1.23473,-0.7734 -1.09123,-1.4303 0.47365,-2.1706 2.38309,-3.8032 4.01782,-5.3076 0.26244,-0.2413 0.60826,-0.3259 0.97567,-0.364 4.3e-4,0 0,-0.042 0,-0.042 -2.27685,-0.7776 -2.38775,-1.5429 -1.22329,-3.4642 0,0 0,-0.042 0.0508,-0.051 0.0974,-1.5374 0.14392,-1.9378 2.06691,-2.3645 0.0931,-0.1185 0.17354,-0.2455 0.26243,-0.364 0.42498,-0.5439 0.85335,-1.0798 1.28171,-1.6203 0.0677,-0.4432 0.16085,-0.88 0.2709,-1.3148 -1.06879,-0.11 -2.1414,-0.2412 -3.20765,-0.3724 -0.51514,0.042 -1.07599,0.076 -1.55431,0.097 -1.95346,0.1058 -3.90649,0.1482 -5.86123,0.2159 -0.79874,0.237 -1.53821,0.3471 -1.96785,-0.2328 l -0.0423,-0.042 c -1.22202,0.3302 -2.50077,0.6472 -2.45547,0 0.14391,-2.1113 0.35979,-4.491 1.6288,-6.1672 -0.0508,-0.042 -0.10159,-0.063 -0.14815,-0.097 v 0 c 0,0 -0.0423,9e-4 -0.0508,-0.042 -0.0466,-0.042 -0.0847,-0.068 -0.13122,-0.1058 -1.60213,0.072 -1.15345,0.085 -0.14815,-0.1312 -0.91852,-0.7721 -1.69314,-1.4777 -2.26499,-2.108 -1.33886,-1.4777 -1.68595,-2.5778 -0.83515,-3.3567 -0.24973,-0.9845 -0.46053,-2.0038 -0.85165,-2.852 1.44891,-0.4022 1.74648,-0.4301 2.67855,-0.4796 0.309,-0.2117 0.63366,-0.3725 0.97567,-0.4881 -0.055,-0.2709 -0.10582,-0.5452 -0.14814,-0.8182 -0.072,-0.4902 0.938,-0.3302 1.40573,-0.4961 0.9418,-0.1312 1.88065,-0.3005 2.82712,-0.3894 1.14456,-0.1101 2.29039,-0.182 3.43919,-0.2413 -0.58117,-0.042 -1.26054,0.064 -1.64489,-0.3471 -1.23811,-1.3227 -2.5105,-2.8504 -2.85252,-4.6294 -0.0423,-0.1228 0,-0.2371 0,-0.3556 -0.43683,0.042 -0.43386,0.042 -1.23176,0.1058 h -0.20741 c -0.31323,0.1185 -0.64212,0.2667 -0.69461,0.042 h -0.27936 c -0.15662,-2.177 -0.73821,-4.365 -0.47112,-6.5313 0.0508,-0.4309 0.85715,-0.1016 1.28975,-0.1397 0.63493,-0.055 1.27451,-0.1016 1.90986,-0.1482 0.38519,-0.051 0.76488,-0.1058 1.14922,-0.1397 0.11005,0 0.22011,9e-4 0.33016,-0.042 -1.37271,-0.059 -3.31009,-0.1693 -4.18332,-0.5291 -0.8762,-0.3598 -1.52129,-1.1386 -2.28193,-1.7033 0.20317,-1.6224 0.0593,-3.3198 0.6036,-4.861 0.19048,-0.5371 0.92572,-0.6713 1.43875,-0.9177 0.12275,-0.059 0.25397,-0.11 0.38095,-0.1651 -0.10582,-0.4673 -0.22434,-0.9325 -0.38095,-1.3638 0.25397,-0.1524 0.49947,-0.3259 0.74371,-0.4961 -0.69969,-0.2328 -0.97229,-0.5977 -0.85123,-1.1987 -1.79515,-0.2836 -3.20596,-0.6502 -3.73676,-1.1327 -1.46753,-1.3334 1.17843,-3.7876 1.76891,-5.6797 3.93317,-0.5392 3.71898,-0.5905 6.34928,-0.5706 0.87662,0 2.06986,0.042 3.83623,0.042 1.29483,0 2.59093,0.042 3.88534,0.051 0,-0.1694 0.0423,-0.3429 0.0423,-0.5126 -1.38668,-0.042 -2.63029,-0.068 -3.46416,-0.1143 -0.37249,0.08 -0.74583,0.1608 -0.8762,0 -0.66795,0.051 -1.3888,0.1143 -1.41378,-0.4064 -0.0593,-1.186 0.0423,-2.3763 0.23281,-3.5552 -1.21483,-0.1777 -2.30606,-0.5443 -3.00109,-1.4878 -3.78671,-5.1408 -0.27514,-7.6052 2.80257,-8.6642 0.80551,-0.2752 1.66013,-0.4064 2.48849,-0.6036 -0.30899,-2.0432 -0.2582,-4.1719 -0.0593,-6.2168 0.0423,-0.381 0.50371,-0.4352 0.97525,-0.4716 -1.51282,-0.3767 -3.1903,-0.8639 -3.43919,-1.4878 -0.95112,-2.3861 -0.83768,-5.2327 -0.13968,-7.7051 0.36402,-1.2923 5.5954,-2.2904 6.21721,-2.4474 2.92871,-0.6976 1.88362,-0.4444 2.64553,-0.6282 -0.36826,-0.4673 -0.65821,-0.9587 -0.97567,-1.4387 -6.29425,3.879 -10.90637,-2.1528 -5.31604,-7.4155 -2.2832,-4.0077 -2.10754,-4.254 0.14815,-6.1838 0.51091,-0.3598 1.01631,-0.7298 1.5378,-1.0752 0.56932,-0.3767 1.1598,-0.7166 1.73589,-1.0827 0.15661,-0.097 0.309,-0.199 0.46307,-0.2963 -0.18201,0 -0.36825,0 -0.57016,0.051 -0.41059,0.097 -0.79832,0.254 -1.19917,0.3809 -1.16149,0.3133 -2.34458,0.6781 -3.54628,0.8271 -0.92827,0.1143 -1.86076,0.1778 -2.79453,0.2413 -0.0423,0 -0.0974,-0.042 -0.0762,-0.051 0.13968,-0.11 0.64,-0.2497 0.46307,-0.2624 -0.24974,-0.042 -0.46731,0.1608 -0.70265,0.2412 -0.10159,0.042 -0.47958,0.1651 -0.86816,0.2963 -0.65567,0.3725 -1.30245,0.7628 -1.98394,1.0832 -0.27513,0.1313 -0.59471,0.1313 -0.89313,0.1905 -0.58583,0.1143 -1.17208,0.2201 -1.76087,0.3132 -2.84278,0.4648 -5.72112,0.7857 -8.60623,0.6616 h -19.20487 -7.15945 c -5.62969,-0.042 -11.25219,0.127 -16.88188,0.089 -4.84662,-0.055 -7.92009,-0.064 -12.65707,-0.2497 -3.33084,-0.1312 -6.6587,-0.2667 -9.987,-0.455 -0.31323,0 -0.63027,-0.047 -0.94265,-0.068 -2.51855,0.1482 -5.03413,0.182 -7.55607,0.1397 -0.37672,0 -0.75683,0.042 -1.13271,0.059 -2.10753,0 -2.02753,0.042 -4.28237,-0.2328 -0.76827,-0.042 -1.53018,-0.063 -2.29844,-0.097 -0.62562,0.6032 -2.26077,0.3937 -3.25718,0.5537 h -0.21588 c -0.2455,0.076 -0.49693,0.1397 -0.73567,0.2328 -4.59222,1.76 -8.12157,0.9613 -10.06953,-0.9092 -1.67113,-0.1694 -3.34268,-0.3387 -5.01,-0.5376 -0.44911,0 -0.89906,8e-4 -1.34774,-0.042 -3.09929,-0.1143 -1.35875,-0.1863 -5.21657,-0.199 -2.28658,0 -4.56513,0.2413 -6.85383,0.08 -0.9617,0 -1.92383,-0.072 -2.88511,-0.1058 -1.39007,-0.089 -2.78691,-0.1439 -4.17486,-0.2624 -0.65652,-0.055 -1.30584,-0.1736 -1.95939,-0.2582 -1.23091,-0.1524 -2.4631,-0.2625 -3.6957,-0.3979 -0.69462,0.8817 -2.11389,1.6953 -2.96766,2.1494 -0.12698,0.063 -2.08806,1.0566 -2.19939,0.9842 -2.41907,-1.5759 -5.18863,-2.9084 -7.25003,-4.8945 -2.18669,-0.2201 -2.05081,-0.2032 -4.07581,-0.5041 -0.81059,-0.097 -1.62626,-0.2201 -2.43897,-0.2963 -0.62985,-0.059 -1.26223,-0.076 -1.89335,-0.1143 -2.49992,-0.1524 -5.00069,-0.2709 -7.49003,-0.5536 -0.75472,-0.1186 -1.51325,-0.2202 -2.26543,-0.3556 -1.6089,-0.2878 0.22434,-0.1101 -1.8269,-0.4148 -1.39218,-0.2032 -2.81696,-0.2032 -4.19983,-0.4877 -1.58351,-0.2328 -0.96255,-0.1481 -2.1414,-0.3132 -0.24551,-0.042 -0.49016,-0.08 -0.73567,-0.093 -0.9998,-0.059 -2.0106,0.059 -3.00913,-0.068 z m 180.23526,97.6612 h 0.21587 l 0.0423,-0.042 c -0.0889,0 -0.17354,0.042 -0.2582,0.042 z m -83.37575,178.623 c 0,0 0.0423,-0.042 0.0423,-0.042 0,0 0,0 0,0 0,0 0,0.042 0,0.059 z m -11.40881,-269.6043 -0.0423,0.042 z m 106.02786,24.8595 c -0.11852,0.042 -0.24127,0.059 -0.36402,0.093 0.11005,0.051 0.30899,0.2667 0.33016,0.1482 0,-0.081 -8.5e-4,-0.1609 0.0423,-0.2413 z m -3.4557,52.4146 v 0 h -0.13122 c 0.21588,0.042 0.16085,0.042 0.3471,0.059 -0.0423,-0.042 -0.12699,-0.059 -0.21588,-0.068 z m 0.0762,0.2793 c -0.0974,0.042 -0.19048,0.059 -0.28783,0.093 -0.4381,0.1651 -0.35556,0.5173 -0.11429,0.6616 0.13122,-0.2582 0.26667,-0.5049 0.41482,-0.7526 z m 6.35774,103.1182 c -0.18624,0.063 -0.37672,0.1736 -0.5291,0.2074 1.01461,0.549 1.15557,0.5876 0.5291,-0.2074 z m -208.75748,40.8733 c 0.23281,0.7674 0.26244,0.8085 0.43006,1.2648 v 0 c -4.2e-4,-0.089 0,-0.1821 0,-0.2709 -0.16508,-0.381 -0.54307,-1.338 -0.4381,-0.9922 z m -3.34014,26.4223 c 0.0677,0.1989 0.23704,0.7056 0.37249,1.0912 0.0423,-0.042 0.072,-0.08 0.10582,-0.1143 -0.072,-0.1439 -0.57228,-1.244 -0.47958,-0.9756 z m 1.1162,2.29 c -0.0804,0.127 -0.15238,0.2539 -0.2328,0.3809 0.20317,0.6345 0.41058,1.3279 0.62857,2.0999 -0.0423,-0.5773 -0.11852,-1.1644 -0.24127,-2.1498 -0.16508,-0.3514 -0.0423,-0.047 -0.15661,-0.3302 z m 0.24128,3.9848 c 8.4e-4,0 -4.3e-4,0.042 0,0.051 0,0 0,-0.042 0,-0.051 z m 0,0.051 c -0.15662,0.4457 -0.30477,0.8956 -0.43853,1.3477 -0.12275,0.4191 0.3471,-0.8068 0.43853,-1.2318 0,-0.051 0,-0.08 0,-0.1142 z m 130.79639,9.6399 c -0.0677,-0.042 -0.16085,-9e-4 -0.27937,0.042 -0.0466,0.042 -0.0804,0.055 -0.12275,0.085 h 0.47154 c -0.0423,-0.042 -0.0423,-0.093 -0.0677,-0.1058 z m -132.70626,2.1579 c 0,0 -0.0423,0.047 0,0.1227 0.24551,1.835 0.82033,3.6149 1.22372,5.4232 0.11852,-1.0942 0.12275,-1.7719 -0.43006,-3.7533 -0.14391,-0.5207 -0.709,-1.8735 -0.79366,-1.7939 z m 119.74357,0.5866 c -0.15661,0.4259 -0.25397,0.9706 -0.2709,1.7199 -0.0423,1.3384 1.05991,2.4216 1.78584,3.5877 0.13968,-0.7797 0.16508,-0.9405 0.6036,-1.8929 0,-0.097 -0.0508,-0.199 -0.0677,-0.2963 -0.86181,-0.4462 -0.85165,-1.3626 -1.10774,-2.1499 -0.0508,-0.042 -0.11005,-0.076 -0.15661,-0.1143 0.86731,1.3622 -0.25821,2.9914 -0.5126,1.8354 -0.0974,-0.447 -0.21588,-0.8855 -0.2709,-1.3393 v -0.7522 c -0.002,-0.2116 0.001,-0.4063 0,-0.5955 z m 1.61187,1.6204 c 0.002,0.2116 0.0423,0.4262 0,0.6366 0.0423,-0.042 0.0804,-0.055 0.12276,-0.072 v 0 c -0.0677,-0.1693 -0.11852,-0.3597 -0.13969,-0.5625 z m 0.13969,0.5625 c 0,0.042 -8.5e-4,0.042 0.0423,0.068 0.0466,0.097 0.11852,0.182 0.17354,0.2709 -0.0423,-0.1355 -0.055,-0.2709 -0.0762,-0.4064 v 0 c -0.0423,0.042 -0.0847,0.047 -0.12275,0.076 z m 0.12275,-0.076 c 0,0 0.0423,-0.042 0.0593,-0.042 -0.0423,-0.1439 -0.0847,-0.2921 -0.12275,-0.4381 0,0 0,0 0,0 0.0423,0.1651 0.055,0.3259 0.0804,0.4881 z m -6.15076,1.5378 c -0.0423,0.063 -0.13122,0.2032 -0.28783,0.4546 0.11429,0 0.23281,-0.042 0.34709,-0.042 0,-0.1397 -0.0423,-0.2794 -0.0593,-0.4233 z m 13.07063,0.4233 c -0.0423,0 -0.0762,0.051 -0.12276,0.068 0.0423,0.1016 0.055,0.199 0.0974,0.2963 0,-0.1227 -8.5e-4,-0.2412 0.0423,-0.364 z m -12.96311,0.3471 c -0.19895,0 -0.39789,0 -0.59514,0.042 -0.0423,0.051 -0.0593,0.093 -0.0931,0.1482 0,0.1989 0,0.4021 0.0423,0.6036 0.23704,0 0.48086,0 0.74414,0.042 0,-0.2709 -0.0466,-0.5426 -0.0847,-0.8186 z m 12.59908,0.4631 -0.0423,0.051 c 0.0423,0 0.13545,0.072 0.21588,0.1143 0.0423,0 0.0423,0 0.0593,0 -0.0889,-0.042 -0.18202,-0.076 -0.24974,-0.1313 0,-0.042 0.002,-0.042 0,-0.042 z m 0.24974,0.1735 c 0,0 0.0423,0 0.0508,0.042 h -0.0423 c 0,0 -0.0423,0 -0.0677,-0.042 -0.0593,0 -0.10159,-0.042 -0.14815,-0.042 v 0 c 0.0423,0.097 0.0466,0.2032 0.0762,0.2878 -0.12699,0 -0.24551,-0.042 -0.37249,-0.042 0,0.3005 0.0423,0.5871 0.23281,1.2068 0.0466,0.1524 0.16508,0.5947 0.20741,0.4381 0.055,-0.3852 0.0931,-0.7822 0.11428,-1.1738 0.25397,0.574 0.52572,0.7649 0.74414,0.8432 0.10159,-0.068 0.20318,-0.063 0.30476,-0.1312 0,-0.042 -8.4e-4,-0.055 0.0423,-0.1651 0.0804,-0.3386 0.10582,-0.5765 0.13969,-0.8351 -0.0423,0 -0.0635,-9e-4 -0.0974,0 h -0.13122 c 0.0466,0.042 0.10159,0.076 0.13969,0.1227 0.072,0.08 -0.16508,-0.08 -0.27937,-0.1397 -0.27937,-0.042 -0.55662,-0.059 -0.83472,-0.08 l -0.0423,-0.042 v 0.4063 c -0.055,-0.1227 -0.11429,-0.2582 -0.16508,-0.4232 h 0.16508 v -0.2625 c 0,0 -0.0423,0 -0.0593,0 z m -10.45811,0 c -0.0423,0 0.27937,0.1947 0.68615,0.4233 0.0677,0 0.13122,0 0.19894,0 -0.22434,-0.11 -0.45037,-0.2286 -0.67768,-0.3386 -0.12698,-0.059 -0.19048,-0.085 -0.20741,-0.08 z m -4.54693,0 c 0.0762,0 -0.16085,-8e-4 -0.2328,0.042 -0.0423,0 -0.0423,0 -0.0593,0.042 0.0974,0 0.19471,-0.042 0.28783,-0.068 z m 16.69987,0.4631 c 0.0593,0 0.0889,0.042 0.13969,0.042 0.0423,0 -0.0508,9e-4 -0.0847,-0.042 z m -25.03308,0.4796 c -0.24974,0.042 -0.48297,0.097 -0.90964,0.3132 -0.0423,0 -0.12699,0.059 -0.0847,0.059 0.33439,-0.1143 0.66244,-0.2413 0.99218,-0.3725 z m -1.85188,0.364 c -0.11852,0 -0.23704,0.042 -0.35556,0.042 -0.2328,0.1186 -0.5964,0.2879 -0.70265,0.3556 0,0 0.0423,0 0.0508,0 0.33862,-0.1185 0.67725,-0.254 1.00868,-0.3979 z m 70.24714,2.4055 c -0.0635,0 -0.17354,0.042 -0.26243,0.051 0.055,0.042 0.12275,0.063 0.15661,0.085 0.0593,-0.042 0.12275,-0.072 0.18201,-0.093 h 0.0762 c -0.0508,0 -0.10583,-0.042 -0.14815,-0.042 z m -73.76083,6.6803 0.0423,0.042 c -0.48889,0.1523 -1.15387,0.2328 -1.57081,0.2709 v 0 c 0.21588,-0.072 0.74414,-0.2328 0.55408,-0.1905 -0.38096,0.085 -0.74329,0.2413 -1.12424,0.3132 -1.19579,0.2244 -2.414,0.097 -3.62121,0.1397 h -1.87685 c -0.78604,0 -1.5725,0 -2.356,-0.076 0.10582,-0.042 0.43725,-0.1227 0.3217,-0.1227 -2.37675,0.4232 1.42604,0.042 -2.0504,0.3809 -0.12698,0 -0.38942,0.127 -0.38942,0 -0.003,-0.042 0.002,-0.068 0,-0.097 -0.0847,0 -0.16931,0.042 -0.26244,0.042 0,-0.1609 -0.0423,-0.3471 -0.0508,-0.5211 h -0.92615 -0.0804 c 0.18201,0.3259 0.48804,0.5287 1.00022,0.5291 h 0.0423 v 0.051 c -0.97948,-8e-4 -1.95516,-8e-4 -2.93506,0 -1.98394,0 -3.9683,0 -5.95224,0 -0.85969,0 -1.72446,4e-4 -2.58754,0 -0.0677,0.2413 -0.13968,0.4843 -0.20741,0.7272 h 1.38922 1.91791 2.05843 2.52998 2.18246 c 0.46773,0 0.93207,0 1.39726,0.051 0.20318,0.042 0.40212,0.063 0.60318,0.097 0.25821,0.042 0.52276,0.08 0.78562,0.093 0.25397,0 0.52741,4e-4 0.77715,-0.042 h 0.25821 0.86815 c 0.40636,0 0.82753,-0.076 1.23176,-0.1143 0.44572,-0.042 0.3471,-0.042 0.79366,-0.1058 0.0847,0 0.16085,-0.042 0.24974,-0.051 0.22011,-0.042 0.44022,-0.042 0.6616,-0.051 0.19471,0 0.63111,0.042 0.82667,0.042 h 0.26244 0.6036 c 0.38519,0 0.76361,0.068 1.1488,0.08 0.45757,0 0.89863,-0.042 1.35621,0 0.11852,0 0.66244,0.089 0.76022,0.097 h 0.15661 c 0.23281,-0.7611 0.91049,-2.1122 0.57017,0.042 h 0.2963 c 0.19047,-0.419 0.38942,-0.8402 0.6036,-1.2483 -0.0423,-0.042 -0.055,-0.072 -0.0762,-0.1058 h 0.12275 c 0.0423,-0.068 0.0762,-0.1439 0.11429,-0.2159 0,0 -8.5e-4,-0.042 0.0423,-0.042 h -0.20741 z m 0.55366,0.042 v 0 c 0,0 0.0423,0 0.0593,0 0,0 -0.0423,-0.042 -0.0508,-0.042 z m 0.0508,0.042 c 0,0 0.0423,0 0.0423,0 0.71663,0.051 -0.0508,-9e-4 0.31323,0.042 0.35133,0.042 0.34287,0.042 0.74414,0.042 1.07303,0.042 2.15791,0.089 3.22416,-0.068 h -1.36382 c -0.68445,0 -1.36594,0.042 -2.0504,0 H 301.151 c -0.10159,0 -0.21164,-0.042 -0.3217,-0.042 z m -12.68204,0.089 v 0.4961 c 0.32169,-0.072 0.54815,-0.2455 0.69418,-0.4961 -0.055,-4e-4 -0.11005,8e-4 -0.16508,0 z m -43.45319,0.2624 c -0.18625,0 -0.38096,0.042 -0.57017,0.042 -0.70392,0.042 -1.40319,0.089 -2.10838,0.1059 -0.68318,0 0.0466,-0.042 -0.86816,0 -0.16931,0 -0.33862,0.042 -0.50413,0.042 -0.26244,0 -0.5236,0.042 -0.78519,0.042 h -0.49609 -0.84319 c 0.5672,0.047 1.12806,0.097 1.69441,0.1482 h 0.41482 1.78584 c 1.07557,0 2.14902,0 3.22417,0.051 0.96339,0.042 1.92256,0.072 2.88511,0.1142 0.15238,0 0.30476,-4e-4 0.45503,0.042 -0.072,0 -0.14392,8e-4 -0.21588,-0.042 -0.40635,-0.055 -0.52699,-0.063 -1.00868,-0.1058 -0.34287,-0.042 -0.68657,0 -1.0252,-0.068 -0.8652,-0.1228 -1.42266,-0.2074 -1.94288,-0.364 h -0.0931 z m -17.95618,0.2074 c -0.0423,0 -0.0762,-8e-4 -0.11429,0.042 -0.42328,0.072 -0.84741,0.081 -1.27324,0.076 h -1.85991 c 0.61334,0.076 1.38541,0.2667 1.76086,0.381 0.12275,0.042 0.24974,0.051 0.37249,0.085 -0.0423,0 -0.11428,-0.042 -0.15661,-0.051 0.10582,0 0.19048,-9e-4 0.27937,0.042 0.0719,0.042 0.13121,0.059 0.19894,0.093 -0.11006,-0.042 -0.21164,-0.059 -0.3217,-0.085 0.20741,0.076 0.16508,0.046 0.73567,0.2624 -0.11429,-0.051 -0.2328,-0.1058 -0.34709,-0.1566 0.309,0.072 0.6163,0.1693 0.92572,0.2412 0.0847,-0.093 0.17355,-0.1904 0.25821,-0.2793 0.11428,-0.1312 0.2836,-0.2074 0.4381,-0.2879 0.36826,-0.1989 0.55281,-0.2412 0.76868,-0.3132 h -0.20741 -1.13271 -0.16508 -0.12275 c 0,0 8.4e-4,-8e-4 -0.0423,0 z" />
    </clipPath>
  </defs>
  <g
     inkscape:label="Layer 1"
     inkscape:groupmode="layer"
     id="layer1"
     transform="translate(0.06258698)">
    <path
       style="fill:#000000;stroke-width:5.536"
       d="m 206.74638,1716.2093 c 2.88381,-50.2882 3.94602,-53.6736 18.24175,-58.1382 l 7.14204,-2.2305 3.04064,-3.6878 c 4.84189,-5.8725 6.07902,-7.0768 7.2697,-7.0768 0.61507,0 1.59224,-0.5237 2.17148,-1.1637 1.3511,-1.493 2.91101,-1.4759 4.8541,0.053 l 1.54644,1.2169 0.66241,-2.284 c 0.36433,-1.2562 1.08343,-3.0982 1.59801,-4.0933 1.02578,-1.9836 1.01529,-1.9987 -2.078,-2.9955 -4.74424,-1.5287 -8.33574,-6.2928 -8.89294,-11.7963 l -0.39462,-3.8975 -2.59843,-1.5228 c -9.18448,-5.3825 -12.72438,-14.2012 -7.81154,-19.4604 l 1.68596,-1.8048 -1.90712,-4.201 c -1.04891,-2.3106 -2.37508,-5.6191 -2.94704,-7.3523 l -1.03993,-3.1513 0.34952,-4.5324 0.34951,-4.5325 -0.85258,0.3272 c -1.32372,0.508 -1.05582,-1.5048 0.81081,-6.0916 2.71697,-6.6764 4.48637,-9.1502 9.55236,-13.3552 7.00206,-5.8121 8.28229,-6.6949 14.52746,-10.0178 l 5.66878,-3.0163 5.09577,-0.8793 c 2.80267,-0.4836 5.28814,-1.1814 5.52326,-1.5506 l 0.42749,-0.6714 0.009,0.6702 c 0.005,0.3864 1.52721,0.8464 3.59465,1.0864 14.82975,1.7212 33.30051,14.181 36.02578,24.3019 0.64429,2.3927 0.15698,6.6516 -1.41249,12.3448 -0.44112,1.6001 -0.95348,4.4804 -1.13856,6.4005 -0.18509,1.9202 -0.49901,4.5386 -0.6976,5.8187 l -0.36107,2.3275 1.78786,0.9942 c 4.28541,2.3831 3.76113,11.6362 -0.95615,16.8749 l -0.89596,0.995 0.42716,2.2053 0.42717,2.2053 0.74975,-2.4914 c 0.90488,-3.0069 1.81831,-4.2001 3.21522,-4.2001 1.16787,0 2.55689,-3.312 1.99888,-4.7661 -0.93294,-2.4312 5.14635,-12.6236 9.76168,-16.3661 10.37645,-8.4143 30.60878,-8.9939 39.54146,-1.1328 0.54813,0.4824 1.37366,0.7323 1.83452,0.5555 0.46085,-0.1769 1.32158,0.045 1.91274,0.4928 1.48927,1.1283 1.94762,1.0471 1.94762,-0.3452 0,-0.6581 0.74243,-1.9018 1.64984,-2.7639 0.90741,-0.862 2.22233,-2.5239 2.92204,-3.6931 5.60695,-9.3688 17.34835,-10.5175 26.15747,-2.559 5.73709,5.1831 6.22579,10.1153 2.13707,21.5682 l -2.69715,7.555 0.27719,2.5955 c 0.45701,4.2791 3.83271,6.0219 6.6101,3.4127 1.56792,-1.473 1.76262,-3.6811 0.39221,-4.448 -1.44052,-0.8061 -0.39719,-1.8511 1.84823,-1.8511 h 1.98878 l 1.03169,1.5745 c 0.70387,1.0743 1.03168,2.7065 1.03168,5.137 v 3.5624 l -1.7456,2.802 c -1.21427,1.9491 -2.71972,3.3521 -4.94588,4.6093 l -3.20027,1.8073 h -4.36401 -4.364 l -3.33728,-1.5603 c -4.46596,-2.0879 -7.04795,-4.1346 -9.07306,-7.1919 l -1.68254,-2.5402 -0.67096,4.0629 c -1.90493,11.5347 -8.39329,19.881 -19.85728,25.5433 -2.40021,1.1855 -5.54229,2.8276 -6.98241,3.6491 -3.22741,1.8412 -9.77941,3.3496 -14.66156,3.3753 l -3.66727,0.019 1.37071,1.142 c 0.75389,0.6281 3.76505,2.4911 6.69148,4.1399 12.98019,7.3136 15.533,10.9468 19.39385,27.6018 2.3375,10.0835 -19.72798,19.3715 -35.22617,14.8276 l -1.95146,-0.5721 0.34543,1.8677 c 0.18998,1.0278 0.61257,4.4867 0.93908,7.687 106.88292,-4.0679 -115.76514,31.778 -116.1269,8.575 z m 155.04417,-155.0035 c -5.34375,-8.5405 -5.54404,-16.7025 -0.49802,-20.2955 3.23138,-2.301 8.42909,-0.5931 9.89014,3.2498 l 0.49616,1.305 2.2178,-0.7641 c 8.99655,-3.0996 12.08423,9.0897 3.98392,15.7273 -3.08925,2.5314 -7.09438,4.3122 -10.64378,4.7326 l -2.76654,0.3277 z m 12.15146,0.1011 c 4.61154,-2.4572 7.11792,-5.8652 7.11792,-9.6783 v -2.5136 l -1.60013,-1.4964 c -2.28591,-2.1378 -3.85356,-2.3722 -6.28167,-0.9396 -2.51358,1.483 -2.59125,1.4892 -2.59399,0.2069 -0.003,-1.7528 -2.10959,-4.5699 -4.00208,-5.3538 l -1.81442,-0.7516 -1.81933,0.7536 c -5.09343,2.1098 -5.16933,10.3527 -0.17163,18.6405 l 1.96073,3.2515 3.51627,-0.4809 c 1.93395,-0.2645 4.49369,-1.0017 5.68833,-1.6383 z m -53.97817,-8.0835 c 0,-0.353 -1.32592,-2.6156 -2.94649,-5.028 -11.9789,-17.8314 -9.14128,-35.1379 5.56142,-33.9186 l 3.06638,0.2543 2.35438,1.8647 c 1.29491,1.0256 2.67512,2.5893 3.06713,3.4749 l 0.71275,1.6102 2.96569,-1.0251 c 7.06752,-2.4431 13.22557,0.3051 14.93855,6.6666 2.35153,8.7329 -7.90299,19.0379 -24.19207,24.3112 -2.24019,0.7253 -4.40037,1.5691 -4.80041,1.8752 -0.47864,0.3662 -0.72733,0.337 -0.72733,-0.085 z m 7.30855,-3.8333 c 13.12015,-4.6893 21.20296,-12.2571 21.20296,-19.8518 0,-7.1404 -7.17254,-10.7543 -14.66688,-7.3899 l -2.73859,1.2295 -0.36756,-1.1581 c -1.70859,-5.3833 -8.58314,-8.3278 -13.52553,-5.7932 -9.18121,4.7084 -8.73116,15.9848 1.25049,31.3321 2.78617,4.2838 1.88762,4.1181 8.84511,1.6314 z m -45.54092,-18.0891 c -4.70243,-1.2667 -6.64279,-2.2501 -9.57218,-4.8511 -8.21841,-7.2972 -3.93241,-19.0955 5.43436,-14.9595 l 0.97893,0.4323 0.94039,-1.8185 c 5.31645,-10.2809 16.32616,0.01 12.28004,11.4749 -0.84698,2.4006 -6.05479,10.6446 -6.68113,10.5763 -0.19306,-0.021 -1.71425,-0.4055 -3.38041,-0.8544 z m 5.53485,-4.1986 c 4.56969,-7.2009 5.32565,-13.7207 2.04319,-17.6217 l -1.45184,-1.7254 h -2.02306 c -3.42619,0 -6.01963,2.4944 -6.01963,5.7897 0,0.656 -0.26184,1.1927 -0.58187,1.1927 -0.32003,0 -0.58187,-0.2551 -0.58187,-0.567 0,-0.6776 -3.06662,-2.3424 -4.31486,-2.3424 -0.4848,0 -1.83513,0.8374 -3.00074,1.8608 l -2.11929,1.8607 0.25236,3.0432 c 0.42248,5.0944 3.96341,8.6201 10.39361,10.3489 5.01804,1.3492 5.44823,1.2423 7.404,-1.8395 z m -58.08808,184.016 c 0.32327,-4.8004 0.74095,-9.3826 0.92819,-10.1827 1.27886,-5.4645 0.64868,-35.5782 -0.86057,-41.1228 l -0.34429,-1.2649 -5.15592,1.6605 c -8.49869,2.7371 -11.37709,7.8887 -12.84001,22.9802 -0.9218,9.5094 -1.49525,16.987 -1.82954,23.8566 -0.20246,4.1604 -0.57273,9.1353 -0.82284,11.0555 8.50326,9.8561 19.90648,7.9839 20.92498,-6.9824 z m 72.94907,-2.3275 -1.60734,-9.3099 0.0397,-15.7104 c 0.0257,-10.1681 0.33489,-17.9065 0.87641,-21.9357 l 0.83669,-6.2252 -2.64636,-0.5839 c -1.45552,-0.3212 -3.56282,-0.7414 -4.68292,-0.9339 -1.12009,-0.1924 -2.98873,-0.7549 -4.15253,-1.2501 l -2.116,-0.9002 -2.49456,2.7063 c -1.74985,1.8984 -3.25047,2.9084 -5.02661,3.3835 -1.40509,0.3758 -2.9012,1.2406 -3.36145,1.943 l -0.82939,1.2658 0.54558,5.2733 c 0.30006,2.9004 0.42915,5.6131 0.28686,6.0284 -2.05742,6.0049 -2.21759,26.9383 -0.24643,32.2067 l 1.21982,3.2603 -1.11684,1.2638 c -0.61425,0.6951 -2.6466,3.424 -4.51632,6.0642 -3.96372,5.5972 -3.57486,5.4573 -6.80031,2.4467 -1.38695,-1.2946 -4.51437,-3.956 -6.94982,-5.9143 l -4.4281,-3.5605 2.79241,-5.8685 c 3.7062,-7.7891 5.75409,-14.1799 8.63545,-26.9487 1.31638,-5.8336 2.65139,-11.285 2.9667,-12.1143 l 0.57327,-1.5078 -0.87763,-0.8776 c -0.48269,-0.4827 -1.16589,-1.4163 -1.51822,-2.0746 l -0.6406,-1.197 -0.47198,0.7636 -0.47197,0.7637 -3.10216,-0.704 c -1.70618,-0.3873 -4.58649,-1.3123 -6.40068,-2.0556 l -3.29852,-1.3516 -1.26829,1.7155 -1.2683,1.7155 -1.95314,-0.3664 -1.95314,-0.3665 -0.90488,1.7499 c -0.99149,1.9173 -2.50138,2.948 -4.31855,2.948 -0.82948,0 -1.50881,0.7552 -2.3113,2.5694 -1.28532,2.9057 -3.52723,4.6688 -5.465,4.2979 l -1.30813,-0.2503 0.10248,13.7111 0.10248,13.7112 -1.05773,7.8552 c -0.58175,4.3204 -1.23066,10.1463 -1.44203,12.9466 1.62542,2.234 77.71712,24.3869 72.02938,-8.5826 z m 18.71572,-3.7821 c -0.19931,-1.7602 -0.49204,-3.7296 -0.6505,-4.3766 l -0.28812,-1.1763 -2.43371,0.2321 c -1.33853,0.1277 -3.22351,0.823 -4.18882,1.5452 -0.96532,0.7222 -2.34616,1.4926 -3.06853,1.7121 l -1.31342,0.399 -1.74139,-1.7414 c -2.14437,-2.1444 -2.14655,-2.4272 -0.0529,-6.8527 l 1.68755,-3.5672 -1.03818,0.2715 c -5.37488,1.4056 -5.83824,-5.5529 -0.55179,-8.2867 l 1.68329,-0.8704 -2.0256,-2.6537 c -3.27495,-4.2904 -2.31879,-8.0455 2.2343,-8.7747 l 2.22337,-0.3561 2.72251,2.5888 c 1.49737,1.4238 3.16771,2.9225 3.71185,3.3304 l 0.98935,0.7415 -0.34037,-2.2292 c -1.58319,-10.369 -5.72706,-16.1059 -13.33193,-18.4571 l -1.21999,-0.3772 -0.81655,8.0116 c -1.67113,16.3962 -1.01478,34.321 1.86843,51.0261 23.49346,31.2265 17.50842,3.3171 15.94115,-10.139 z m -47.47935,7.0282 c 1.62508,-2.3751 2.8648,-4.4081 2.75494,-4.518 -0.46619,-0.4662 -5.50359,2.8517 -7.61419,5.0152 l -2.2916,2.3489 1.38602,1.4754 1.38603,1.4753 0.71207,-0.7393 c 0.39163,-0.4066 2.04167,-2.6825 3.66673,-5.0575 z m -0.0947,-4.653 c 2.07821,-1.038 3.29362,-2.3752 2.15882,-2.3752 -2.0652,0 -11.64872,7.7306 -10.96166,8.8423 0.19763,0.3198 1.70271,-0.7266 3.34462,-2.3253 1.64191,-1.5987 4.0981,-3.4625 5.45822,-4.1418 z m -6.9302,2.2314 c 1.81144,-1.6268 4.55126,-3.6021 6.0885,-4.3896 2.0522,-1.0514 2.71763,-1.6957 2.50395,-2.4246 -0.16005,-0.546 -0.46503,-1.9746 -0.67772,-3.1747 -0.21269,-1.2001 -0.51874,-2.182 -0.68011,-2.182 -0.87974,0 -9.04232,5.8936 -11.74236,8.4783 l -3.14632,3.0119 1.98258,1.8021 c 2.44995,2.227 1.79973,2.3555 5.67148,-1.1214 z m 2.89859,-10.6553 c 3.3155,-1.9437 4.75894,-3.1261 4.75894,-3.8984 0,-1.4323 -0.0901,-1.4156 -3.03779,0.5625 -1.36947,0.9191 -3.90006,2.5401 -5.62353,3.6025 -2.99593,1.8466 -8.432,7.8661 -7.89232,8.7393 0.14163,0.2291 1.78261,-1.0757 3.64663,-2.8996 1.86402,-1.824 5.53065,-4.5718 8.14807,-6.1063 z m -1.7872,-2.3642 c 2.0001,-1.164 4.29038,-2.693 5.08952,-3.3977 l 1.45298,-1.2814 0.38528,-4.3641 0.38529,-4.364 -1.59567,1.8872 c -0.87762,1.038 -3.26091,2.9821 -5.29621,4.3202 l -3.70054,2.433 -1.77873,4.4573 c -2.18191,5.4677 -2.19907,5.846 -0.1786,3.9373 0.88008,-0.8313 3.23658,-2.4639 5.23668,-3.6278 z m 45.24516,2.5892 1.67722,-1.7507 1.95538,0.3669 1.95539,0.3668 1.29446,-1.2161 1.29445,-1.2161 2.89155,0.9463 c 11.62294,3.8034 32.46931,-2.3453 32.93046,-9.713 0.04,-0.6391 0.0937,-1.4894 0.11922,-1.8894 0.52971,-8.2882 -7.24785,-10.1271 -27.75793,-6.5631 -10.10355,1.7557 -9.68043,1.8319 -14.60731,-2.633 -4.11194,-3.7264 -4.14309,-3.7405 -6.37478,-2.892 -2.54277,0.9667 -1.20165,5.5285 2.29984,7.8228 2.41171,1.5802 1.25691,3.8289 -1.9663,3.8289 -1.08337,0 -3.57169,2.4727 -3.57169,3.5492 0,1.0971 2.40205,1.7755 4.14067,1.1694 l 1.73071,-0.6034 0.31729,0.8269 c 0.1745,0.4547 -0.61409,2.6885 -1.75244,4.9639 l -2.06971,4.1371 0.70231,1.1246 c 1.01499,1.6253 2.86604,1.3834 4.79121,-0.626 z M 268.61769,1687.61 c 3.37502,-2.6678 6.54348,-6.3542 6.53966,-7.6086 -0.002,-0.5921 -0.54958,-0.307 -1.65233,0.8599 -0.90731,0.9601 -3.10563,2.7929 -4.88516,4.073 -1.83256,1.3183 -3.35184,2.8952 -3.50378,3.6367 -0.371,1.8106 0.19017,1.6566 3.50161,-0.961 z m 0.29232,-4.1445 c 1.35735,-0.9679 3.4498,-2.9626 4.6499,-4.4327 l 2.182,-2.6728 v -3.5356 -3.5356 l -1.47223,2.0041 c -0.80973,1.1022 -2.55198,2.7925 -3.87167,3.7561 l -2.39944,1.7519 -0.9898,4.2122 c -0.5444,2.3167 -0.8946,4.2122 -0.77824,4.2122 0.11637,0 1.32213,-0.7919 2.67948,-1.7598 z m 62.40026,-7.2411 c 10.67708,-1.7844 16.63696,-1.8898 20.65005,-0.3649 l 2.91558,1.1078 -4.6e-4,-0.9623 c -0.002,-5.2285 -7.22342,-13.4445 -15.70996,-17.8749 -1.76015,-0.9189 -4.72016,-2.6803 -6.57779,-3.9143 l -3.37753,-2.2435 -3.31395,-0.1852 c -5.12747,-0.2865 -9.9304,-2.2046 -12.41979,-4.9599 l -2.12342,-2.3503 -4.56806,-1.171 -4.56805,-1.1709 -4.94588,0.3313 c -2.72023,0.1822 -6.03372,0.4636 -7.36331,0.6252 l -2.41744,0.294 0.19092,0.9909 c 0.105,0.545 0.21095,1.9515 0.23544,3.1255 l 0.0445,2.1346 3.63667,1.1854 c 2.00017,0.652 5.83816,1.7368 8.52886,2.4107 13.38832,3.3533 16.97577,7.0085 19.6554,20.0265 l 1.02492,4.9793 0.88764,-0.2777 c 0.48819,-0.1527 4.81523,-0.934 9.61564,-1.7363 z m -59.98979,-3.3226 c 1.23434,-1.0175 2.72837,-2.9158 3.32007,-4.2186 1.18021,-2.5985 1.52073,-4.9442 0.42832,-2.9505 -0.35071,0.6401 -1.87719,2.4729 -3.39218,4.0731 -4.30758,4.5497 -4.5368,6.5419 -0.35621,3.096 z m 0.69271,-4.8594 c 1.03491,-1.1298 2.15136,-2.8279 2.48101,-3.7736 l 0.59936,-1.7193 -1.82088,0.1994 -1.82088,0.1993 -0.67383,1.9741 c -1.91743,5.6175 -1.65635,6.277 1.23522,3.1201 z m -35.90621,-1.498 c 0.62762,-0.6737 1.4688,-2.0159 1.8693,-2.9828 l 0.72817,-1.758 -0.6829,-2.5533 c -0.37559,-1.4043 -0.68289,-3.498 -0.68289,-4.6527 v -2.0994 l -0.96737,0.7986 c -1.45614,1.2021 -2.95806,5.0541 -3.40631,8.7363 -0.65189,5.3551 0.63478,7.2025 3.142,4.5113 z m 8.19949,-8.1972 1.09224,-2.4396 -0.9225,-1.7789 c -0.50738,-0.9784 -1.20807,-3.0528 -1.55709,-4.6098 l -0.63459,-2.8308 -1.3269,1.0852 c -3.16104,2.5853 -1.84181,13.0135 1.64628,13.0135 0.33568,0 1.10183,-1.0978 1.70256,-2.4396 z m 30.42438,-0.1016 c 3.0851,-1.5418 4.24044,-2.6956 2.69914,-2.6956 -1.24743,0 -4.47595,1.8327 -5.83599,3.3129 -1.56172,1.6997 -1.45894,1.6794 3.13685,-0.6173 z m 1.01393,-3.3656 1.83247,-0.6388 -0.38309,-1.5264 c -0.21071,-0.8395 -0.4935,-1.6368 -0.62843,-1.7717 -0.45683,-0.4568 -6.02373,2.4561 -7.30954,3.8248 l -1.27745,1.3598 0.76874,1.4364 0.76875,1.4364 2.19804,-1.7408 c 1.20892,-0.9575 3.02265,-2.0284 4.03051,-2.3797 z m -9.87366,-0.6392 c 0.70715,-3.0048 2.03823,-5.9497 3.77093,-8.3426 l 0.87959,-1.2148 -3.35401,-0.7493 c -4.40528,-0.9843 -9.29406,-3.1743 -10.55099,-4.7266 l -1.00552,-1.2417 -0.98464,2.2461 c -1.07025,2.4414 -2.74114,8.6115 -2.74114,10.1221 0,1.9369 9.15631,6.8771 12.88852,6.9538 0.2081,0 0.70187,-1.3668 1.09726,-3.047 z m -15.25025,1.5099 c 0.33359,-0.5961 0.32248,-1.7471 -0.0292,-3.0206 -0.31247,-1.1317 -0.42571,-2.9351 -0.25165,-4.0078 l 0.31647,-1.9501 -2.06311,-0.9839 -2.06311,-0.9838 -1.05363,1.3012 c -1.23976,1.531 -1.02451,3.9522 0.64174,7.2183 1.58343,3.1038 3.53492,4.1556 4.50245,2.4267 z m 33.80661,-2.0407 c 1.33206,-1.3321 2.30018,-2.7392 2.15137,-3.127 -0.14881,-0.3878 -0.45735,-2.8464 -0.68565,-5.4636 l -0.41509,-4.7586 -1.52236,1.7173 c -1.55444,1.7534 -4.39687,2.9983 -6.84599,2.9983 -1.66497,0 -1.69317,0.3726 -0.19818,2.6184 0.6391,0.9601 1.58832,3.2512 2.10938,5.0914 1.1657,4.1167 2.06065,4.2696 5.40652,0.9238 z m -10.86757,-2.9449 c 1.83818,-0.8937 2.94906,-2.1975 1.87238,-2.1975 -0.94499,0 -4.80681,1.9763 -5.93751,3.0386 -1.8331,1.7221 -1.6492,2.5512 0.28299,1.2759 0.88008,-0.5809 2.58204,-1.5335 3.78214,-2.117 z m 0.91995,-3.1659 c 0.10593,-0.053 -0.1258,-0.6906 -0.51496,-1.4178 l -0.70757,-1.3221 -1.95798,2.1366 c -2.62703,2.8666 -2.46594,3.4796 0.51496,1.9598 1.36011,-0.6935 2.55961,-1.3039 2.66555,-1.3565 z m 47.82201,0.9237 c -1.43432,-0.6506 -3.98727,-2.2244 -5.67321,-3.4973 l -3.06535,-2.3144 v 0.9492 c 0,1.5022 3.36392,4.2489 6.31713,5.1581 4.01176,1.2351 5.41761,1.0634 2.42143,-0.2956 z m 21.68238,-0.5866 c 1.99007,-0.6673 4.88775,-1.9012 6.43929,-2.742 l 2.82097,-1.5287 3.1668,-6.3144 c 2.85958,-5.7019 5.82376,-13.532 6.87761,-18.1679 l 0.39683,-1.7456 -2.30831,2.2414 -2.30831,2.2415 -1.95114,-0.4164 c -6.05216,-1.2915 -10.27921,-4.7038 -9.53717,-7.6989 l 0.39748,-1.6044 -1.98274,1.912 -1.98274,1.9119 -4.60567,-1.4552 c -4.72151,-1.4918 -8.99698,-3.8559 -10.93744,-6.0479 l -1.09496,-1.2369 0.85417,-1.3241 c 0.4698,-0.7282 1.3553,-2.1073 1.96776,-3.0645 l 1.11359,-1.7404 -3.44571,2.7967 c -2.40358,1.9508 -3.81144,2.7098 -4.65494,2.5095 -0.66508,-0.158 -2.39895,-0.4585 -3.85304,-0.668 l -2.6438,-0.3807 -3.53052,6.0122 c -4.72921,8.0535 -5.15208,9.2719 -5.11586,14.7402 l 0.0308,4.655 1.67575,3.4912 c 5.552,11.5668 21.45708,17.9008 34.21126,13.6244 z m -17.32249,-7.8644 c -3.93917,-1.4417 -10.16635,-8.7888 -10.18366,-12.0151 -0.0111,-2.0728 1.49122,-0.9014 2.8403,2.2146 3.24395,7.4924 9.66285,10.2814 18.53941,8.0553 5.77501,-1.4484 5.93405,0.067 0.18379,1.751 -3.86046,1.1307 -8.28075,1.1284 -11.37984,-0.01 z m 16.0819,-9.948 c -0.34155,-0.6103 -0.34782,-1.5265 -0.0164,-2.3982 0.36056,-0.9483 0.31594,-1.6761 -0.13617,-2.2209 l -0.67249,-0.8103 1.13065,0.1726 c 0.62186,0.095 1.88568,0.8726 2.8085,1.7283 l 1.67785,1.5558 -0.79218,1.4802 c -0.92051,1.72 -3.1586,1.9956 -3.99975,0.4925 z m -11.61539,-1.1245 c -0.29192,-0.5216 -1.13422,-0.9798 -1.87179,-1.0182 -1.58454,-0.083 -2.16672,-1.2318 -0.87509,-1.7275 1.26526,-0.4855 3.61729,0.5168 4.32769,1.8442 0.95464,1.7838 -0.59312,2.6665 -1.58081,0.9015 z m -11.10763,-9.1658 c -0.36716,-0.4424 -0.60979,-1.5627 -0.53916,-2.4896 0.0706,-0.9269 -0.0581,-1.9869 -0.28597,-2.3557 -0.22791,-0.3687 -0.14826,-0.8349 0.17698,-1.0359 0.32525,-0.2011 0.59136,-0.088 0.59136,0.2507 0,0.3389 0.19638,0.5606 0.4364,0.4926 0.77242,-0.2188 2.90627,1.2247 3.29049,2.226 0.84846,2.211 -2.22678,4.651 -3.6701,2.9119 z m -40.0415,22.7145 c 1.02981,-0.4304 2.26514,-1.265 2.74519,-1.8545 l 0.8728,-1.0719 -1.16374,0.442 c -2.94947,1.1201 -8.753,1.0763 -13.09202,-0.099 -4.28473,-1.1604 -10.47361,-2.1461 -10.47361,-1.6681 0,2.5729 16.95743,5.9877 21.11138,4.2513 z m 31.99455,-0.5265 c 0.13913,-0.4 -0.74265,-2.1267 -1.95951,-3.837 -1.21686,-1.7103 -2.65276,-4.4353 -3.1909,-6.0554 l -0.97842,-2.9458 0.33239,-4.3949 c 0.2106,-2.7846 0.13552,-4.0836 -0.20494,-3.5453 -0.29553,0.4672 -0.54134,1.4511 -0.54624,2.1864 -0.0187,2.8101 -9.07838,10.1274 -15.61436,12.6113 l -3.01866,1.1472 0.3703,2.0531 c 0.20366,1.1292 0.40102,2.0793 0.43857,2.1114 0.0375,0.032 3.47221,-0.1842 7.63256,-0.4806 l 7.56428,-0.5389 4.07307,1.1291 c 2.24019,0.621 4.24763,1.1645 4.46099,1.2079 0.21334,0.043 0.50174,-0.2485 0.64087,-0.6485 z m -29.53223,-4.1399 c 0.95564,-0.5314 2.1303,-1.2067 2.61034,-1.5006 0.48004,-0.2939 3.10089,-1.5768 5.82411,-2.8508 12.10548,-5.6634 14.54886,-10.7407 11.91332,-24.7555 l -1.08199,-5.7536 0.68594,-6.7566 c 0.37727,-3.7161 0.78663,-7.2802 0.9097,-7.9203 0.87739,-4.5634 1.59492,-13.5563 1.2599,-15.7904 l -0.40399,-2.694 -3.58935,-3.6512 c -3.95185,-4.02 -6.01585,-4.9081 -11.44457,-4.9243 -1.76015,-0.01 -4.48563,-0.3994 -6.05662,-0.876 -4.27212,-1.296 -8.70697,-1.0836 -13.96948,0.6689 l -4.61058,1.5355 0.97192,0.7107 c 3.58258,2.6196 -4.508,3.9049 -14.7385,2.3413 l -2.03654,-0.3113 -3.14241,6.4269 c -2.00117,4.0929 -3.23956,7.438 -3.40991,9.2108 l -0.2675,2.7839 1.234,2.2846 c 0.6787,1.2565 1.5434,2.7209 1.92155,3.2542 l 0.68755,0.9696 -1.92839,3.7992 -1.92839,3.7992 0.39736,1.6318 c 0.21855,0.8974 1.03603,2.608 1.81662,3.8012 2.05559,3.1423 0.96353,4.9828 -2.01172,3.3905 -1.68775,-0.9033 -2.10458,-0.7499 -1.09864,0.4042 0.48816,0.56 1.53552,2.1986 2.32747,3.6412 l 1.43991,2.623 -0.48157,3.7776 c -1.65474,12.9801 3.94624,18.1754 21.60917,20.0438 1.44012,0.1524 3.66576,0.6599 4.94587,1.1279 2.98165,1.0901 9.32351,0.8497 11.64542,-0.4414 z m -8.43355,-6.011 c -3.24248,-1.6814 -6.22598,-6.9967 -4.75366,-8.469 0.46847,-0.4685 0.89674,-0.024 1.58256,1.6427 0.51715,1.2568 1.61951,3.0051 2.44969,3.8852 l 1.5094,1.6001 h 2.65501 c 3.41305,0 5.83823,-1.4889 8.51908,-5.2205 2.15205,-2.9955 3.15488,-3.6313 3.15488,-2.0003 0,5.3381 -10.19728,11.115 -15.11696,8.5639 z m 1.44307,-12.4175 c -2.68087,-0.8641 -4.3036,-2.4085 -4.7162,-4.4884 l -0.37514,-1.8911 h 0.88245 c 0.48536,0 1.04556,0.6498 1.2449,1.4441 0.48298,1.9243 3.47388,3.4132 6.88045,3.425 l 2.75273,0.01 1.46581,-1.377 c 2.01793,-1.8958 1.84966,-3.8086 -0.57072,-6.4877 -2.1841,-2.4175 -2.85787,-5.742 -1.16374,-5.742 0.53491,0 0.87281,0.5441 0.87281,1.4053 0,0.8245 0.74053,2.0872 1.79159,3.0548 6.11465,5.6296 -0.50615,13.4061 -9.06494,10.6474 z m -14.877,-10.7942 c -1.93748,-4.9418 -1.15589,-12.0167 1.56388,-14.156 l 1.44025,-1.1329 1.73018,0.6031 c 3.63626,1.2676 5.35923,11.3728 2.48132,14.5528 -2.23177,2.4661 -4.26691,0.1204 -4.26691,-4.9181 v -3.3882 l 1.36673,-1.3667 c 1.55664,-1.5567 1.11899,-3.2353 -0.84347,-3.2353 -2.39763,0 -3.52025,5.5537 -2.19027,10.8356 0.82024,3.2575 -0.18865,4.9937 -1.28171,2.2057 z m 25.8411,-3.4688 c -0.19019,-0.4957 -0.22753,-2.9442 -0.083,-5.4413 l 0.26282,-4.54 1.28009,-1.7978 c 4.32465,-6.0734 9.47387,0.8909 7.1124,9.6195 l -0.66745,2.4671 -1.53198,0.3845 -1.532,0.3845 -1.06556,-1.3159 c -2.1913,-2.7061 -0.70104,-8.7513 2.15738,-8.7513 1.08524,0 1.07487,-0.5839 -0.0386,-2.1736 -2.00279,-2.8594 -4.3481,1.4579 -4.3481,8.0041 0,3.8337 -0.72159,5.3087 -1.54605,3.1602 z m 7.36473,-5.4995 c 0,-0.6465 -0.38791,-1.1637 -0.8728,-1.1637 -0.48489,0 -0.8728,0.5172 -0.8728,1.1637 0,0.6466 0.38791,1.1638 0.8728,1.1638 0.48489,0 0.8728,-0.5172 0.8728,-1.1638 z m -38.40326,-11.6605 c 0,-2.9716 4.44,-7.0309 6.72941,-6.1524 1.3852,0.5316 0.6829,1.7846 -1.11958,1.9975 -1.0753,0.127 -2.05314,0.9103 -3.08725,2.4729 -1.46768,2.2178 -2.52258,2.9212 -2.52258,1.682 z m 37.53929,-5.7553 c -0.45953,-2.0922 -1.24954,-2.7881 -3.45516,-3.0435 -2.65618,-0.3076 -2.61319,-1.6552 0.0521,-1.6331 3.20242,0.027 5.43076,2.3026 5.43076,5.5471 0,1.555 -1.65062,0.8464 -2.0277,-0.8705 z m 70.62654,53.5491 c 1.64989,-1.5412 2.43536,-3.5673 1.37074,-3.5357 -1.19394,0.035 -4.21854,3.5447 -4.21854,4.8946 0,0.77 1.16276,0.2152 2.8478,-1.3589 z m 7.95359,-7.1508 c 2.42549,-4.7203 3.92893,-11.2732 3.91278,-17.0542 l -0.0146,-5.2368 -1.20713,-2.6184 c -1.43778,-3.1187 -2.73701,-4.7287 -4.9434,-6.1257 -0.89851,-0.569 -2.17006,-2.0859 -2.82568,-3.371 -7.13018,-13.9763 -32.96005,-16.9487 -45.07918,-5.1874 -3.54735,3.4425 -9.14687,12.4545 -8.22646,13.2398 0.60855,0.5192 10.66253,2.4815 11.16648,2.1794 0.34703,-0.208 3.06617,-2.3306 6.04253,-4.7168 6.91776,-5.5461 7.72729,-4.9664 2.74221,1.9638 -2.06446,2.87 -3.76172,5.4312 -3.77168,5.6915 -0.0261,0.6816 10.67999,5.6538 12.92707,6.0037 l 1.89246,0.2947 4.05747,-4.1132 c 4.99086,-5.0594 7.71121,-5.714 4.10668,-0.9882 -0.79016,1.0359 -1.8506,2.8742 -2.35652,4.0851 l -0.91986,2.2015 0.75639,0.9141 c 0.79749,0.9638 7.27423,4.2198 8.39545,4.2205 0.36116,3e-4 1.88699,-1.4396 3.39073,-3.1998 1.50374,-1.7601 3.10969,-3.2002 3.56876,-3.2002 h 0.83469 l -0.37764,2.4729 c -0.519,3.3986 -2.96522,11.8239 -4.32948,14.9116 -1.34314,3.0399 -1.42938,3.6739 -0.27568,2.0268 1.04857,-1.4971 4.03879,-2.7954 5.3125,-2.3066 l 0.94622,0.3631 -0.24818,2.1258 -0.24818,2.1259 1.68441,-1.9863 c 0.92642,-1.0924 2.3155,-3.2145 3.08686,-4.7156 z m 29.2207,-5.4463 c 4.64909,-1.9391 7.69628,-6.1281 7.68214,-10.5607 -0.0113,-3.539 -0.86452,-5.1482 -1.41085,-2.6608 -0.93655,4.2641 -5.94911,6.752 -8.78082,4.3581 -3.93388,-3.3255 -4.10335,-6.4487 -0.80188,-14.7772 8.3053,-20.9515 -12.85592,-37.2237 -24.84591,-19.1056 l -1.47238,2.2249 0.78536,2.3233 0.78535,2.3233 1.11208,-0.8131 c 1.51951,-1.1111 2.84946,-1.0201 4.02163,0.2751 l 0.98489,1.0883 -0.70203,1.5408 -0.70204,1.5408 1.262,1.1757 c 1.913,1.7822 1.03386,4.6216 -1.43096,4.6216 h -0.86424 l 0.9058,1.2932 c 1.16174,1.6586 1.14457,2.7153 -0.0658,4.0528 l -0.97162,1.0736 0.72079,3.9119 c 2.23889,12.1509 14.07209,20.1666 23.78851,16.114 z m -89.59607,-12.3516 c -0.64614,-3.33 -3.19503,0 -3.69412,4.8284 l -0.35979,3.4796 2.1148,-3.7012 c 1.16315,-2.0357 2.03574,-4.1087 1.93911,-4.6068 z m -70.68714,-2.2812 c -1.21196,-1.7597 -2.92777,-3.7152 -3.81292,-4.3454 l -1.60936,-1.146 0.0128,1.6398 c 0.019,2.4444 1.90033,6.1335 4.05056,7.9428 1.98934,1.6739 2.08019,2.6602 0.14988,1.6271 -2.49221,-1.3338 -5.13022,-6.0637 -5.55874,-9.9667 l -0.2236,-2.0366 -0.44704,1.3092 c -0.24587,0.7201 -0.67834,1.3092 -0.96104,1.3092 -0.90734,0 -0.54921,-1.5333 0.60133,-2.5746 l 1.11533,-1.0093 1.35761,0.7012 c 0.74668,0.3857 2.2362,1.3574 3.31005,2.1594 l 1.95244,1.4581 -0.63931,-1.1946 c -2.72129,-5.0848 -6.21559,-6.2511 -7.92648,-2.6457 -2.05674,4.3343 0.82024,10.3147 6.83483,14.2075 l 3.64475,2.359 0.17624,-3.2975 0.17624,-3.2974 z m 73.40584,-1.3102 c 0.99194,-1.9182 1.13055,-2.9382 0.39928,-2.9382 -0.58066,0 -1.83901,2.6067 -1.83901,3.8095 0,1.2963 0.46403,1.0155 1.43973,-0.8713 z m -6.68817,-4.3623 c 0.32642,-0.8586 0.5935,-2.6234 0.5935,-3.9219 v -2.3608 l -0.8728,0.7244 c -0.55485,0.4605 -0.8728,1.7457 -0.8728,3.5281 0,1.542 -0.2579,2.9631 -0.57311,3.1579 -0.35809,0.2213 -0.43316,-0.3455 -0.2001,-1.5108 0.24583,-1.2291 0.16614,-1.7371 -0.23374,-1.49 -0.78851,0.4873 -1.44887,4.0313 -0.97922,5.2552 l 0.36472,0.9504 1.09003,-1.3857 c 0.59951,-0.7622 1.35709,-2.0882 1.68352,-2.9468 z m -65.73989,-0.4826 c -1.68964,-2.8637 -1.61484,-5.0676 0.29588,-8.717 l 1.69335,-3.2342 -1.64223,-3.0174 -1.64223,-3.0173 0.24905,-3.443 0.24904,-3.443 3.1361,-6.0649 3.13609,-6.0648 -0.84621,-1.5899 c -0.46542,-0.8744 -2.18964,-3.0124 -3.83161,-4.751 l -2.98539,-3.1611 -1.21447,0.65 c -3.03263,1.623 -6.17844,5.8391 -7.95379,10.6598 l -1.01549,2.7574 0.65945,0.7946 c 0.474,0.5711 0.49554,1.6589 0.0766,3.868 -1.20099,6.3328 -0.63196,9.5072 3.21145,17.9152 1.23785,2.708 2.61782,4.8928 3.20884,5.0804 0.57034,0.181 2.11668,1.7592 3.43631,3.507 2.70141,3.578 3.46015,4.1201 1.77927,1.2712 z m 63.42405,-3.7326 c 0,-0.5036 0.52752,-1.3732 1.17227,-1.9324 1.26719,-1.099 1.06568,-2.5885 -0.42774,-3.1616 -1.17706,-0.4517 -1.1133,-0.5868 -1.5945,3.3797 -0.29101,2.3988 -0.22628,3.2951 0.21808,3.0205 0.34754,-0.2148 0.63189,-0.8026 0.63189,-1.3062 z m 68.97443,-1.6891 c -1.26956,-0.9283 -0.67816,-1.9815 1.1127,-1.9815 0.74695,0 1.50879,-0.3928 1.69301,-0.8728 l 0.33492,-0.8728 h -1.89795 -1.89795 l -0.56775,1.8911 -0.56777,1.891 0.88384,1.2514 0.88383,1.2513 0.51779,-0.9087 c 0.36002,-0.6318 0.2093,-1.1343 -0.49467,-1.649 z m -2.74652,-2.4635 0.18593,-1.2636 h -1.16986 c -1.53142,0 -2.10456,0.993 -1.2013,2.0814 0.94486,1.1385 1.95288,0.7613 2.18523,-0.8178 z m 3.55312,-3.935 c 0.98549,-0.8293 1.64473,-1.7457 1.46497,-2.0366 -0.55333,-0.8953 -1.4161,-0.595 -2.90434,1.0108 -2.55819,2.7604 -1.5099,3.5074 1.43937,1.0258 z m -4.38318,0.01 c 0.61125,-1.5929 0.38464,-4.1478 -0.42768,-4.822 -1.1533,-0.9569 -1.5466,-0.2118 -1.5466,2.9302 0,2.8419 1.17697,3.9698 1.97428,1.892 z m -63.07928,-23.1594 c 0.0778,-9.5761 -19.73401,-23.9339 -35.48435,-25.7159 -8.20777,-0.9286 -22.03231,4.325 -29.62086,11.2566 l -1.98149,1.8099 0.97663,1.4905 c 0.53715,0.8198 1.21014,1.4906 1.49553,1.4906 0.28539,0 1.45293,1.2724 2.59453,2.8275 l 2.07563,2.8276 3.3562,0.3659 c 1.84591,0.2013 4.58359,0.5321 6.08372,0.7352 1.50014,0.2032 3.72578,0.1752 4.94588,-0.062 l 2.21835,-0.4314 -1.32561,-0.6092 c -2.15954,-0.9924 -1.21817,-1.7655 4.5719,-3.7544 l 5.48172,-1.883 4.11293,-0.01 c 2.26211,0 5.4042,0.358 6.98241,0.8055 1.57822,0.4474 4.90794,0.9516 7.39937,1.1204 l 4.52989,0.3069 2.63406,1.5436 c 1.44873,0.849 3.84258,3.0999 5.31965,5.002 2.66344,3.4297 3.61132,3.6598 3.63391,0.8819 z"
       id="path24060"
       sodipodi:nodetypes="cscsssscsssscsscsscccsssscsscccsssscsscccsssssssssssscsssscsscsscccsscsssscsssscsccssscssscssscsscscsscssscscsscssssssssscssssssscsssssscsssssscssscsscsssccccsscssscssscssscsssscssscsscccsscccccsssscccscccscssscsscsscsscsscsscsccssscccssssssssssssscssssssssssscccsscsssscccccsscssssssscsscsssssssssscccsscssssscssscsscccsscsscssscsssssssssscccsssscsscsssscsscsssssssscssscccsssscsscsscsssscccssssssscsssssssssscscsscsscssssscsscccsscccsscsscssscsscssscssssccssscsscsssscssssssssssssscsssssssscsssscssscscssssscssscscsscsscsscsscccssssscsssscssscssscccscssccsssscccsscssscsssssscsscccsssssssssssssssssscssscsssscsssssssssscssscsssscsssscccssssssssscccsscccsscsscssssscsssscsssscssscsscssscccssssssscsssssscsssscccccccsscsscsssssssssssssssscccccccssscsssssssssssscsscssscssscssccsscsscc"
       clip-path="url(#clipPath25107-2)"
       transform="matrix(0.04779343,0,0,0.04779343,-9.7680722,-71.806377)" />
  </g>
</svg>
