<?xml version="1.0" encoding="UTF-8" standalone="no"?>
<!-- Created with Inkscape (http://www.inkscape.org/) -->

<svg
   width="13.457582mm"
   height="17.500721mm"
   viewBox="0 0 13.457583 17.50072"
   version="1.1"
   id="svg5985"
   inkscape:version="1.2.2 (b0a8486541, 2022-12-01)"
   sodipodi:docname="halloween.svg"
   xmlns:inkscape="http://www.inkscape.org/namespaces/inkscape"
   xmlns:sodipodi="http://sodipodi.sourceforge.net/DTD/sodipodi-0.dtd"
   xmlns="http://www.w3.org/2000/svg"
   xmlns:svg="http://www.w3.org/2000/svg">
  <sodipodi:namedview
     id="namedview5987"
     pagecolor="#ffffff"
     bordercolor="#000000"
     borderopacity="0.25"
     inkscape:showpageshadow="2"
     inkscape:pageopacity="0.0"
     inkscape:pagecheckerboard="0"
     inkscape:deskcolor="#d1d1d1"
     inkscape:document-units="mm"
     showgrid="false"
     inkscape:zoom="5.3088146"
     inkscape:cx="32.493129"
     inkscape:cy="33.811691"
     inkscape:window-width="796"
     inkscape:window-height="878"
     inkscape:window-x="160"
     inkscape:window-y="18"
     inkscape:window-maximized="1"
     inkscape:current-layer="g118372" />
  <defs
     id="defs5982">
    <clipPath
       clipPathUnits="userSpaceOnUse"
       id="clipPath25107-2">
      <path
         id="path25109-8"
         style="fill:#ff0000;fill-opacity:1;fill-rule:nonzero;stroke:none;stroke-width:323.257"
         d="m 422.36252,921.96649 -226.92065,0.0423 v 505.51131 c 0.43641,-0.046 0.8707,-0.085 1.30626,-0.1397 0.68488,-0.089 1.36171,-0.2666 2.04997,-0.3217 4.17402,-0.3344 0.72509,-0.042 3.72025,-0.085 0.49482,0 0.98626,-0.059 1.48023,-0.089 2.64088,-0.2032 5.26059,-0.4897 7.91163,-0.5206 3.07432,-0.042 0.33016,0.1185 2.88511,-0.059 0.13122,0 0.26667,-0.042 0.39789,-0.051 h 0.0423 c 0,0 0.0508,0 0.0677,0 0.0762,0 0.15238,-0.042 0.23281,-0.042 0.0423,0 0.0423,-0.042 0.0762,-0.042 0,0 0.0423,0 0.0508,0 0.0423,0 -0.0423,0.042 -0.0593,0.042 0.27937,-0.063 0.56212,-0.1186 0.84319,-0.182 0,-1.0295 0.0423,-2.0526 0.14815,-3.0752 0.0466,-0.4106 0.45037,-0.4813 0.95069,-0.4631 0.50075,0 1.09462,0.1185 1.50436,0.059 0.53757,0.042 1.07599,0.042 1.61229,0.089 0.3471,0.042 0.68615,0.1058 1.03324,0.1481 0.58837,0.072 1.18012,0.1439 1.76933,0.2074 0.31747,0.042 0.63451,0.042 0.9507,0.059 1.4197,0.093 2.84109,0.1481 4.25783,0.2709 2.80215,0.254 5.60133,0.5765 8.39967,0.8681 4.47624,0.4466 8.92158,1.1112 13.35973,1.8354 0.20741,-0.3598 0.82371,-0.4241 1.93441,-0.4233 0.0423,-0.11 0.2582,0 0.38942,0 h 1.05822 c 2.814,0.042 5.61953,-0.051 8.43268,-0.1227 0.85462,0.042 1.70965,0.051 2.56299,0.1058 1.42944,0.097 2.84575,0.3005 4.27434,0.4063 1.69102,0.127 2.27219,0.144 3.02564,0.2159 0.33016,-0.1608 0.64593,-0.3598 0.96721,-0.5375 1.05948,-0.5783 1.94118,-1.1218 3.11665,-1.4879 2.64468,-0.8241 5.46249,-0.6523 8.1766,-1.0417 3.19072,-0.2159 5.15688,-0.3979 8.32517,-0.4381 2.38479,-0.042 4.77508,-0.047 7.15945,0 2.09145,0.042 4.1774,0.1651 6.26673,0.2709 10.25282,0.5189 8.59735,0.4487 17.7911,1.1162 3.7719,0.2963 7.5476,0.5765 11.3178,0.8927 5.70631,0.4779 11.40203,1.0371 17.10496,1.5543 0.27513,-0.046 0.5545,-0.08 0.82667,-0.1397 0.54689,-0.1227 1.06837,-0.3301 1.60383,-0.4961 5.31265,-1.6994 -0.2709,0.1059 3.53866,-1.1657 1.99876,-0.6667 4.26968,-1.5183 6.40727,-1.3803 -0.26667,0.085 -1.08065,0.2963 -0.80212,0.2582 0.55916,-0.08 1.09503,-0.2921 1.65335,-0.381 1.27112,-0.1989 3.82607,-0.3132 4.95243,-0.3047 5.21403,0.042 5.28811,0.165 10.37515,0.6696 2.68701,0.3344 5.37953,0.6265 8.06062,1.0087 1.96616,0.2794 3.92004,0.6442 5.87816,0.9752 5.72916,0.9685 11.45537,1.9734 17.17945,2.9681 0.0931,-0.042 0.18201,-0.093 0.2709,-0.1227 0.8106,-0.2879 2.17103,-0.3937 3.32364,-0.3387 0.35133,-0.1777 0.70477,-0.3428 1.08319,-0.4546 0.62434,-0.182 1.14964,0.051 1.70287,0.1143 1.30711,0.444 2.65273,0.764 3.97677,1.1573 z m -2.62902,505.85881 c 0.11852,0.042 0.23704,-4e-4 0.35556,0.042 0.22857,0.081 0.93461,0.2752 0.69461,0.2328 -0.35556,-0.063 -0.70223,-0.1608 -1.04975,-0.2582 z m -4.34884,0.3556 c -0.36825,0.055 -0.66836,0.1185 -1.20678,0.4148 -0.0847,0.046 -0.24127,0.1524 -0.37249,0.2328 0.0847,0 0.18201,0.051 0.26243,0.059 0.43683,-0.2413 0.87663,-0.4674 1.3143,-0.7027 z m -196.68708,10.7311 c -0.16084,0 -0.35979,0.042 -0.53715,0.059 -0.98117,0.2285 -1.52552,0.2709 -2.65399,0.3809 -0.73652,0.042 -1.4705,0.093 -2.20744,0.1058 -2.54225,0.055 0.69081,-0.2031 -2.80257,0 -1.44001,0.076 -2.87707,0.2413 -4.31539,0.3641 0.0423,0.8525 0.0635,1.7189 0,2.662 -0.26244,4.0716 -0.67768,8.1343 -0.98371,12.2025 -0.055,0.6992 -0.12699,1.3989 -0.14815,2.0999 -0.0423,1.0692 0,2.138 0,3.2076 0.0931,4.1254 -0.002,8.2655 -0.26244,12.3845 -0.0804,1.3241 -0.19895,2.6481 -0.33016,3.9683 -0.32593,3.2991 -0.28784,0.8495 -0.25821,3.5217 0,0.3979 0.0508,0.7924 0.0423,1.1907 -0.14815,7.4566 -0.0593,0.326 -0.2963,5.8947 -0.26667,6.2498 0.0762,0.2159 -0.0762,5.3241 -0.0423,1.3939 -0.12275,2.7814 -0.18201,4.1749 -0.20741,4.6874 -1.00573,9.3254 -1.47981,13.9883 -0.17778,1.7604 -0.19471,2.4419 -0.31323,4.4064 -0.0423,0.6649 -0.0847,1.3265 -0.0931,1.9924 -0.0931,5.4299 0.10159,10.872 0.10582,16.3032 -0.003,0.9262 0,1.8515 0,2.7776 -8.5e-4,0.2074 0,5.57 0,6.4568 -0.002,1.8773 -0.0804,3.7545 0,5.6301 0.0423,0.5905 0.11429,1.1729 0.17355,1.7609 0.40635,1.8912 0.39789,3.8493 0.70307,5.7541 0.24974,1.5691 0.24974,0.9397 0.53715,2.042 0.21588,0.8376 0.40636,1.6808 0.61165,2.5215 0.89186,3.727 1.04848,7.5789 1.49674,11.3758 0.52275,3.6356 0.18201,7.3084 0.15661,10.9622 0.0889,2.1088 0.001,4.1753 -0.23281,6.2752 -0.34709,2.9287 -0.30476,0.5173 -0.26243,3.1166 0.0593,2.2384 -0.0466,4.486 0.10582,6.7214 0.0593,0.3979 0.11429,0.7932 0.17355,1.1903 h 0.0508 c 0.11429,1.0967 0.19894,2.1922 0.2963,3.2906 -4.2e-4,0.6235 -0.0593,1.2559 0,1.8764 0.0423,0.2625 0.16931,0.4974 0.24127,0.7526 0.0931,0.3386 0.17355,0.6819 0.25397,1.0252 0.33863,1.4544 0.64467,2.8864 0.90922,4.3569 0.4999,2.9592 0.0974,5.9662 0.10582,8.9448 -0.0423,1.5023 0.15662,3.0232 0.0423,4.5224 -0.0762,0.9169 -0.19894,1.8303 -0.2963,2.7446 -0.23281,1.4053 -0.56043,2.789 -0.91768,4.1668 -0.14392,0.5622 -0.23704,1.145 -0.44657,1.6868 -0.2328,0.6007 -0.4927,1.192 -0.74413,1.7854 -0.0635,0.8047 -0.11852,1.6098 -0.18202,2.414 -0.31746,0.6701 -0.62942,1.3418 -0.95069,2.0089 0,0.4944 0,0.1186 -0.0593,1.3478 -0.19048,1.8802 -0.11006,1.2817 -0.47959,3.4887 -0.0762,0.455 -0.20317,0.9046 -0.24127,1.3642 -0.0423,0.3133 0.0466,0.6223 0.0593,0.9342 0.0423,0.8953 0.0593,1.7914 0.10159,2.6871 0.12699,1.9763 0.0804,3.9564 0.0593,5.9357 0,1.1716 -0.13122,0.7018 0.11429,1.4053 0.50117,2.3776 0.80889,4.7924 1.27324,7.1759 0.45207,1.4633 0.33016,2.9867 0.3217,4.4894 v 0.042 c 0.0423,0.2032 0.0677,0.4106 0.10158,0.6117 -0.0466,-0.1185 -0.0762,-0.2455 -0.12275,-0.381 8.5e-4,0.1397 0,0.2836 0,0.4233 8.5e-4,0.042 0.0635,-0.042 0.0974,-0.042 0.0423,0 0.0423,0.059 0.0423,0.059 0.54774,1.4489 0.81822,2.2363 0.5871,4.7121 0,0.1058 0,0.2116 0,0.3132 4.18418,3.1348 4.34926,8.7836 -0.21587,12.6405 -0.0974,0.5897 -0.19048,1.1167 -0.33017,1.951 -0.36825,1.2482 -0.83091,2.7429 -1.46372,4.1253 -0.0974,0.6121 -0.21164,1.1865 -0.39788,1.5543 0.002,0.063 0,0.127 0,0.1905 0,1.76 0.0466,2.4512 -0.38943,4.4068 0,0.047 -0.0423,0.093 -0.0423,0.1397 0.0677,0.3048 0,0.6222 0,0.9342 -0.003,0.8355 -0.0508,1.669 -0.0508,2.505 0.002,1.9039 0,3.8091 0,5.7126 -0.0847,0.9622 0.0931,1.9493 0,2.9101 -0.0889,0.919 -0.20741,1.8362 -0.31323,2.7531 -0.93927,5.01 0.77038,-4.2511 -0.5126,3.5132 -0.0423,0.1778 -0.0423,0.1143 -0.0804,0.3387 0.0423,0.1524 0.0804,0.3005 0.10582,0.4546 0.0931,0.5054 8.4e-4,1.0328 0,1.5462 -0.002,0.6582 0,1.3093 0,1.9675 0,0.6967 -8.5e-4,1.3807 0,2.0669 0,0 0.0423,0.042 0.0593,0.068 0.0635,0.072 0.10159,0.1524 0.15661,0.2328 0.24128,0.3386 0.19471,0.2582 0.38096,0.5291 0.0974,0.1397 0.18625,0.2878 0.28783,0.4233 0.10159,0.042 0.20318,0.059 0.30477,0.097 0.20741,-0.1186 0.44657,-0.2244 0.71916,-0.3133 0.65948,-0.2201 0.49524,-0.1947 1.43028,-0.3217 0.21164,-0.042 0.4326,-0.042 0.64509,-0.051 0.86435,0 0.82794,0.042 1.57081,0.059 h 0.37249 c 0.2582,-0.047 0.51345,-0.1185 0.76869,-0.1736 0.21164,-0.042 0.41905,-0.051 0.62815,-0.068 h 0.0931 c 0,0.042 -0.10582,0.059 -0.0762,0.059 0.0762,0 0.14392,-0.051 0.21588,-0.076 0.34286,-0.1228 0.21587,-0.085 0.52106,-0.1736 0.17355,-0.042 0.35556,-0.051 0.52911,-0.076 h 0.12275 c 0.24551,0 0.48932,-0.042 0.73567,0 0.13545,0 0.2709,-8e-4 0.40636,0.042 0.2328,0.042 0.13545,0.042 0.40635,0.051 h 0.31323 c -3.85444,-2.5207 -1.74097,-7.835 4.97699,-7.1265 2.58712,0.2709 5.00704,1.2547 7.50654,1.9014 0.66413,0.1736 1.34012,0.3217 2.00891,0.4712 0.47238,-0.8128 0.95705,-1.6174 1.50478,-2.381 0.0593,-0.063 1.74012,0.042 1.92637,0.042 1.06668,0 2.08764,-0.1016 3.14966,-0.1481 0.47832,-0.042 0.96467,-0.1059 1.43875,-0.042 1.61272,0.2201 1.68086,0.3175 2.73654,0.8678 0.40212,0.2497 0.80466,0.4986 1.20678,0.7526 0,0.042 -0.0423,0 -0.0423,0 -0.27091,-0.1059 -1.05187,-0.4843 -0.8106,-0.3217 0.40636,0.2709 0.88763,0.4343 1.31473,0.6696 h 0.16508 c 0.25397,-0.1947 0.52233,-0.2582 0.81017,-0.1397 h 0.0677 c 0.0466,0 0.0931,-0.042 0.13969,-0.042 0.0423,0.072 0.0508,0.1524 0.0804,0.2243 0.0804,0.055 0.072,0.199 0.14815,0.2582 0.072,0 0.14392,0 0.21588,0 0.18624,-0.042 0.34286,-0.165 0.5291,-0.2074 0.37249,-0.08 0.74752,-0.1608 1.12425,-0.2074 0.6544,-0.063 0.97652,-0.042 1.49631,0 -0.0423,-0.051 -0.0677,-0.097 -0.0974,-0.1481 0.10158,0.051 0.20317,0.11 0.30476,0.165 0.0423,0 0.055,0 0.0974,0 0.16931,0.042 0.33439,0.068 0.50413,0.068 0.10159,0 0.21164,-0.042 0.31323,-0.042 0.18625,0 0.36826,0 0.55408,0 0.43133,0.042 0.86774,0.059 1.29779,0.097 1.33462,0.1101 0.29207,0.1058 1.2652,0.1058 0.75176,-0.068 1.49166,0.127 2.23199,0.2074 0.0466,0.042 0.10158,0 0.14815,0 0.20317,-0.042 0.40212,-0.042 0.60318,-0.042 1.47769,-0.042 2.9613,0 4.43983,0 1.17716,0 0.89779,-0.042 2.56257,0.2328 0.37249,0.059 0.73525,0.1693 1.10774,0.2328 2.8995,0.4953 -0.55239,-0.1566 1.81081,0.2074 0.44996,0.072 0.89187,0.1736 1.33928,0.2582 0.28783,0.081 0.56762,0.2074 0.86816,0.2498 0.0423,0 -0.0466,-0.1397 0,-0.1397 0.19048,-0.085 0.40635,-0.051 0.60318,-0.051 2.94056,0.042 0.81271,0.046 3.15813,0.1143 0.61207,0.042 1.22287,0.042 1.83536,0.042 0.43683,0 0.87747,8e-4 1.31473,0 2.57146,-0.042 0.86435,-0.042 2.81061,-0.042 0.2709,8e-4 0.54562,0 0.81863,0 0,0 0.0423,0 0.0593,-0.042 0.61758,0 1.23473,0 1.85188,0 0.003,0 0,0 0,0 0.29206,0 0.57863,-0.042 0.86816,-0.08 1.29779,-0.1608 2.58669,-0.419 3.8938,-0.4961 0.39788,-0.042 0.80508,-0.042 1.20721,-0.042 1.38837,0.1016 2.77675,0.059 4.16681,0.059 1.18139,0 2.33527,-0.326 3.51327,-0.3979 0.56255,-0.051 1.1234,-0.051 1.68679,-0.051 1.69653,0.072 3.39517,0.076 5.09255,0.076 1.04424,0 2.08891,0 3.13315,0 1.07176,-0.2709 2.19008,-0.2709 3.28216,-0.2709 0.11005,-5e-4 0.21587,0.042 0.32169,0 0.0593,0 -0.13121,0 -0.17354,-0.051 0.30053,-0.051 0.60064,-0.1143 0.90117,-0.1566 h 0.0889 0.0423 c 0.055,-0.042 0.11005,-0.047 0.16508,-0.068 0.055,0 0.10159,-0.051 0.15662,-0.068 h 0.0423 c 0.0974,-0.042 0.19047,-0.072 0.28783,-0.1058 0.85207,-0.1101 1.01715,-0.1355 1.25673,-0.1312 0.38519,-0.1439 0.77546,-0.2921 1.17377,-0.3895 0.58287,-0.1439 1.20467,0.127 1.79431,0.081 h 2.96765 c 0.0423,0 0.0804,0 0.12275,0 0,0 0,0 0,0 0.34286,-0.1609 0.70816,-0.2625 1.07472,-0.3471 0.52572,-0.364 1.12848,-0.6074 1.71981,-0.8432 0.15239,-0.4021 0.16085,-0.4428 0.50414,-1.1243 0.0762,-0.1523 0.0804,-0.4465 0.24973,-0.4465 0.0423,0 0,0 0,0.042 0,0 0,-0.051 0,-0.068 0,-0.042 0.0423,-0.047 0.0423,-0.072 0,0.055 -0.0423,0.1016 -0.0423,0.1566 -0.0423,0.2413 -0.0762,0.4813 -0.14815,0.7107 -0.072,0.2328 0.0423,-0.3555 0.11429,-0.6696 -0.0635,0.097 -0.22434,0.254 -0.22434,0.364 0,0.199 0.0423,0.5926 0.0423,0.8847 0.13545,-0.1397 0.29206,-0.3005 0.33016,-0.3386 0.17355,-0.1651 0.22434,-0.2074 0.2582,-0.2244 -0.0635,-0.4355 -0.10582,-0.8728 -0.11428,-1.2978 -0.0762,0.127 -0.15662,0.2625 -0.21588,0.3979 0.055,-0.2963 0.11852,-0.5943 0.25821,-0.8601 0.66328,-1.2762 0.98202,-1.399 1.86838,-1.9839 0.33016,-0.1905 0.67387,-0.3514 1.01673,-0.5211 0,0 0.0423,0 0.0508,-0.042 0.40636,-0.2921 0.91345,-0.5947 1.44679,-0.8102 0.0974,-1.3532 0.42837,-2.4491 0.90964,-3.2987 0.15662,-0.2963 -0.0423,-0.5879 0.18201,-0.9176 0.67726,-0.9973 1.90563,-1.3893 2.90205,-1.9184 0.16084,-0.042 0.31746,-0.097 0.47916,-0.097 3.45527,-0.436 -0.89314,0.2116 -1.04975,0.5375 -0.0423,0.047 -0.0931,0.3048 -0.12275,0.381 0.29629,-0.085 0.59302,-0.1397 0.8927,-0.1397 0.49144,4e-4 0.9833,0.127 1.44679,0.3556 0.24551,-0.4843 0.50117,-0.9651 0.7361,-1.4553 0.54519,0.2794 1.10985,0.5219 1.64488,0.8187 -0.055,-0.042 -0.10159,-0.072 -0.15661,-0.1059 -0.055,-0.042 0.19047,0.047 0.16508,0.097 0.0466,0.042 0.0931,0.051 0.13968,0.085 0.0804,0.046 0.17355,0.08 0.25821,0.1312 0.0423,0.042 0.055,0.051 0.0847,0.076 0.11006,0.068 0.22434,0.1312 0.33016,0.2074 0.16932,0.1185 0.27937,0.2201 0.43006,0.3301 0.469,-0.127 0.94816,-0.1989 1.43833,-0.1989 h 0.77715 c 0.81059,-0.042 1.61356,-0.042 2.42246,0.042 0.67006,0.059 0.46942,-0.063 0.71069,0.097 -0.055,0.046 -0.23704,0.1397 -0.16508,0.1397 0.20318,-0.042 0.38519,-0.1228 0.57863,-0.1821 0.30054,-0.093 0.60065,-0.182 0.90118,-0.2709 0.81271,-0.2455 1.09715,-0.3344 2.02542,-0.5375 h 0.10582 c 0.89652,-0.4331 1.19197,-0.4779 2.09145,-0.6282 0.38519,-0.042 0.76826,-0.072 1.15769,-0.1143 0.49397,-0.042 0.99302,-0.051 1.48784,-0.051 0.60403,-0.042 1.20594,-0.068 1.81082,-0.076 0.60445,0 1.20763,0 1.81039,0.076 0.6108,0.085 1.22795,0.1566 1.83536,0.2625 0.23704,0.042 0.46181,0.127 0.69461,0.1904 1.23642,0.3429 2.32257,0.6566 3.41422,1.4223 0.3344,0.2328 0.54731,0.5964 0.82668,0.8927 0.2709,0.6455 0.56889,1.2813 0.81863,1.9344 0.0423,0.089 0.0423,0.182 0.0423,0.2794 0.0423,0.309 0.0847,0.6214 0.0423,0.9261 -0.0423,0.4504 -0.17355,0.7755 -0.28784,1.1243 0,-0.1016 0.0423,-0.2074 0.0423,-0.3133 -0.38095,0.9998 -0.949,1.9357 -1.26477,2.9596 -0.0423,0.1016 -0.0423,0.144 -0.0423,0.1821 -0.0423,0.042 -0.0635,0.089 -0.0974,0.1312 0,0.042 -0.055,0.042 -0.0508,0.042 0,-0.064 0.13545,-0.2328 0.0889,-0.182 -0.4635,0.6417 -0.82117,1.371 -1.52933,1.8108 -0.30053,0.2244 -0.5545,0.5207 -0.8762,0.7107 -0.99726,0.5951 -1.77992,0.8508 -2.86056,1.0582 -0.10159,0.042 -0.20318,0.042 -0.30477,0.059 0.78816,0.4106 1.58309,0.8394 2.0504,1.5543 0.0889,-4e-4 0.17354,0 0.26243,0 h 0.46308 0.73567 c 0.11005,0 0.23704,-0.047 0.32169,0 0.0677,0.055 -0.16508,0 -0.24974,0.051 -0.0508,0 -0.0974,0.042 -0.14815,0.051 0.40636,-0.072 0.81906,-0.1566 1.23176,-0.199 1.41081,-0.1397 2.76617,0.4462 4.16682,0.3641 h 0.72763 c 0.0423,0 0.0762,8e-4 0.11429,-0.042 0.30053,-0.042 0.60657,-0.042 0.90964,-0.042 1.13229,0.042 1.10477,0 2.42204,0.1397 0.91514,0.097 -0.66118,0.1016 1.08318,0.1481 0.49144,0 0.97991,-0.042 1.47177,-0.042 0.78223,0 1.56573,0.047 2.34754,0.072 2.585,0.3047 5.18905,0.546 7.72199,1.1657 0.2836,0 0.56212,0 0.84318,0.051 0.11852,0 0.23704,0.042 0.35556,0.059 0.16508,0.042 0.48805,-0.051 0.58667,0 h 0.0423 c 1.56912,-0.6577 1.46372,-0.6599 3.3812,-1.1987 1.22838,-0.3429 0.54308,0.042 1.90987,-0.4148 0.51894,-0.1651 1.02054,-0.3937 1.52933,-0.5871 0.87323,-0.2498 1.73928,-0.4944 2.61251,-0.7442 0.52234,-0.072 1.04552,-0.1693 1.57081,-0.2158 4.25952,-0.3725 8.53809,-0.042 12.80607,-0.072 4.58757,-0.1143 9.07862,-0.5668 13.57476,-0.093 -0.0423,-0.5858 -0.0635,-1.1133 -0.0804,-2.0339 -0.309,0.1609 -0.60488,0.3386 -0.92573,0.4796 -0.52022,0.2286 -0.74159,-0.254 -0.83514,-0.9507 -0.39366,0 -0.77123,-0.042 -1.14075,0 0.36402,-2.1359 0.60868,-3.6428 0.83471,-4.9355 -0.055,-0.6311 -0.0423,-1.2665 0.0677,-1.9018 -0.055,-2.6583 0,-5.314 0.0762,-7.9697 0,-0.1989 0.0847,-1.357 0.10582,-1.7608 -1.04213,-0.059 -2.06817,-0.2201 -3.04215,-0.5042 -1.26985,-0.3682 -0.31746,-2.6307 -0.26244,-3.9517 0.28784,-7.4901 0.88086,-8.3921 2.59559,-15.8487 0.18201,-0.4385 0.34709,-0.9007 0.49609,-1.3638 0,-0.3175 0.0762,-0.8758 0.0847,-1.1082 0.23704,-1.4713 0.44021,-2.9515 0.63662,-4.4309 -1.48108,-0.875 -2.71368,-2.5118 -3.4557,-4.7704 -0.26244,-0.8043 -0.2709,-2.188 -0.14815,-3.8113 -0.76488,-0.051 -1.53187,-0.127 -2.28998,-0.2624 -0.99091,-0.1778 1.03028,-1.7537 1.75241,-2.4551 0.17354,-0.1693 0.66625,-0.5672 0.94265,-0.8106 0.75768,-4.9922 2.1541,-10.6096 2.49654,-11.5904 0.35979,-1.0311 0.86181,-1.9945 1.40573,-2.9431 0.0423,-1.6842 0.0635,-3.3689 0,-5.0515 -0.0423,-0.9676 -0.21588,-1.923 -0.3217,-2.8851 -0.12698,-1.4307 -0.2836,-2.8588 -0.38942,-4.2908 -0.0635,-0.8898 -0.0974,-1.7867 -0.12275,-2.6786 -0.11006,-3.5187 -0.13546,-4.8292 -0.0889,-8.1846 -0.11006,-0.2498 -0.22434,-0.4593 -0.33017,-0.7276 -0.12275,-0.3048 -0.0423,-0.6316 0.0804,-0.9592 -0.26244,-1.1632 -0.53249,-2.3251 0.33863,-2.7941 0.84572,-0.455 1.76637,-0.6464 2.72003,-0.7192 -0.0847,-0.237 -0.17355,-0.4766 -0.22434,-0.7196 -0.0847,-0.6108 -0.22011,-1.2203 -0.26244,-1.8353 -0.0466,-0.593 -0.0423,-1.1907 0,-1.7854 0.0423,-0.9825 0.0804,-1.9649 0.17355,-2.9431 0.0593,-0.6252 0.16931,-1.2394 0.2709,-1.8604 -0.11429,-0.6116 -0.25397,-1.2207 -0.35556,-1.8353 -0.23281,-1.4506 -0.538,-2.9986 -0.47112,-4.4725 0,-0.042 -0.004,-0.042 0,-0.068 -3.34099,-1.5966 -2.37039,-0.585 -0.95916,-5.6462 -0.11852,0 -0.22858,-0.042 -0.33863,-0.042 -0.31746,0.4398 -0.63112,0.8817 -0.95916,1.3143 0.0508,-0.1566 0.0466,-0.3471 0.14815,-0.4792 0.2328,-0.3048 0.49947,-0.5689 0.76868,-0.8436 0,0 0,0 -0.0423,-0.042 h 0.0423 c 0.0466,-0.063 0.0931,-0.127 0.13969,-0.1905 -0.0593,0.063 -0.11429,0.1185 -0.17355,0.182 -0.23281,-0.051 -0.43726,-0.1185 -0.41482,-0.3217 0.23704,-2.0825 1.28001,-4.0005 2.0669,-5.9442 -0.64043,0.051 -0.35556,-0.051 -0.8017,0.1058 0.2963,-0.1269 0.59937,-0.2285 0.90117,-0.3386 -0.62604,-1.3469 -0.99726,-2.8055 -1.52128,-4.1998 0,0 0.0423,-0.042 0.0593,-0.042 -1.24531,-0.2539 -4.2663,-0.5604 -4.35688,-2.3394 -0.0847,-1.6466 0.96213,-3.217 1.9014,-4.572 0,-4e-4 0.0423,0 0.0423,0 -0.11006,-0.5583 -0.21165,-1.153 -0.25821,-1.5128 -0.68064,-0.047 -1.3634,-0.072 -2.04192,-0.1397 -0.38096,-0.042 -1.07261,0.2032 -1.13272,-0.1735 -0.34286,-2.1342 0.0423,-4.3209 0.0677,-6.4818 0.76488,-0.2963 1.53399,9e-4 2.29844,-0.042 0.14815,0 1.01885,-0.08 1.52933,-0.1143 -0.28784,-0.8576 -0.40636,-1.7782 -0.59514,-2.6785 -1.1598,-0.085 -3.77486,-0.2752 -4.34037,-1.3973 -0.71704,-1.4235 -0.4364,-3.1666 -0.65313,-4.7454 0.74414,-0.2456 1.476,-0.5071 2.21548,-0.7687 -0.72975,-0.309 -1.23473,-0.7734 -1.09123,-1.4303 0.47365,-2.1706 2.38309,-3.8032 4.01782,-5.3076 0.26244,-0.2413 0.60826,-0.3259 0.97567,-0.364 4.3e-4,0 0,-0.042 0,-0.042 -2.27685,-0.7776 -2.38775,-1.5429 -1.22329,-3.4642 0,0 0,-0.042 0.0508,-0.051 0.0974,-1.5374 0.14392,-1.9378 2.06691,-2.3645 0.0931,-0.1185 0.17354,-0.2455 0.26243,-0.364 0.42498,-0.5439 0.85335,-1.0798 1.28171,-1.6203 0.0677,-0.4432 0.16085,-0.88 0.2709,-1.3148 -1.06879,-0.11 -2.1414,-0.2412 -3.20765,-0.3724 -0.51514,0.042 -1.07599,0.076 -1.55431,0.097 -1.95346,0.1058 -3.90649,0.1482 -5.86123,0.2159 -0.79874,0.237 -1.53821,0.3471 -1.96785,-0.2328 l -0.0423,-0.042 c -1.22202,0.3302 -2.50077,0.6472 -2.45547,0 0.14391,-2.1113 0.35979,-4.491 1.6288,-6.1672 -0.0508,-0.042 -0.10159,-0.063 -0.14815,-0.097 v 0 c 0,0 -0.0423,9e-4 -0.0508,-0.042 -0.0466,-0.042 -0.0847,-0.068 -0.13122,-0.1058 -1.60213,0.072 -1.15345,0.085 -0.14815,-0.1312 -0.91852,-0.7721 -1.69314,-1.4777 -2.26499,-2.108 -1.33886,-1.4777 -1.68595,-2.5778 -0.83515,-3.3567 -0.24973,-0.9845 -0.46053,-2.0038 -0.85165,-2.852 1.44891,-0.4022 1.74648,-0.4301 2.67855,-0.4796 0.309,-0.2117 0.63366,-0.3725 0.97567,-0.4881 -0.055,-0.2709 -0.10582,-0.5452 -0.14814,-0.8182 -0.072,-0.4902 0.938,-0.3302 1.40573,-0.4961 0.9418,-0.1312 1.88065,-0.3005 2.82712,-0.3894 1.14456,-0.1101 2.29039,-0.182 3.43919,-0.2413 -0.58117,-0.042 -1.26054,0.064 -1.64489,-0.3471 -1.23811,-1.3227 -2.5105,-2.8504 -2.85252,-4.6294 -0.0423,-0.1228 0,-0.2371 0,-0.3556 -0.43683,0.042 -0.43386,0.042 -1.23176,0.1058 h -0.20741 c -0.31323,0.1185 -0.64212,0.2667 -0.69461,0.042 h -0.27936 c -0.15662,-2.177 -0.73821,-4.365 -0.47112,-6.5313 0.0508,-0.4309 0.85715,-0.1016 1.28975,-0.1397 0.63493,-0.055 1.27451,-0.1016 1.90986,-0.1482 0.38519,-0.051 0.76488,-0.1058 1.14922,-0.1397 0.11005,0 0.22011,9e-4 0.33016,-0.042 -1.37271,-0.059 -3.31009,-0.1693 -4.18332,-0.5291 -0.8762,-0.3598 -1.52129,-1.1386 -2.28193,-1.7033 0.20317,-1.6224 0.0593,-3.3198 0.6036,-4.861 0.19048,-0.5371 0.92572,-0.6713 1.43875,-0.9177 0.12275,-0.059 0.25397,-0.11 0.38095,-0.1651 -0.10582,-0.4673 -0.22434,-0.9325 -0.38095,-1.3638 0.25397,-0.1524 0.49947,-0.3259 0.74371,-0.4961 -0.69969,-0.2328 -0.97229,-0.5977 -0.85123,-1.1987 -1.79515,-0.2836 -3.20596,-0.6502 -3.73676,-1.1327 -1.46753,-1.3334 1.17843,-3.7876 1.76891,-5.6797 3.93317,-0.5392 3.71898,-0.5905 6.34928,-0.5706 0.87662,0 2.06986,0.042 3.83623,0.042 1.29483,0 2.59093,0.042 3.88534,0.051 0,-0.1694 0.0423,-0.3429 0.0423,-0.5126 -1.38668,-0.042 -2.63029,-0.068 -3.46416,-0.1143 -0.37249,0.08 -0.74583,0.1608 -0.8762,0 -0.66795,0.051 -1.3888,0.1143 -1.41378,-0.4064 -0.0593,-1.186 0.0423,-2.3763 0.23281,-3.5552 -1.21483,-0.1777 -2.30606,-0.5443 -3.00109,-1.4878 -3.78671,-5.1408 -0.27514,-7.6052 2.80257,-8.6642 0.80551,-0.2752 1.66013,-0.4064 2.48849,-0.6036 -0.30899,-2.0432 -0.2582,-4.1719 -0.0593,-6.2168 0.0423,-0.381 0.50371,-0.4352 0.97525,-0.4716 -1.51282,-0.3767 -3.1903,-0.8639 -3.43919,-1.4878 -0.95112,-2.3861 -0.83768,-5.2327 -0.13968,-7.7051 0.36402,-1.2923 5.5954,-2.2904 6.21721,-2.4474 2.92871,-0.6976 1.88362,-0.4444 2.64553,-0.6282 -0.36826,-0.4673 -0.65821,-0.9587 -0.97567,-1.4387 -6.29425,3.879 -10.90637,-2.1528 -5.31604,-7.4155 -2.2832,-4.0077 -2.10754,-4.254 0.14815,-6.1838 0.51091,-0.3598 1.01631,-0.7298 1.5378,-1.0752 0.56932,-0.3767 1.1598,-0.7166 1.73589,-1.0827 0.15661,-0.097 0.309,-0.199 0.46307,-0.2963 -0.18201,0 -0.36825,0 -0.57016,0.051 -0.41059,0.097 -0.79832,0.254 -1.19917,0.3809 -1.16149,0.3133 -2.34458,0.6781 -3.54628,0.8271 -0.92827,0.1143 -1.86076,0.1778 -2.79453,0.2413 -0.0423,0 -0.0974,-0.042 -0.0762,-0.051 0.13968,-0.11 0.64,-0.2497 0.46307,-0.2624 -0.24974,-0.042 -0.46731,0.1608 -0.70265,0.2412 -0.10159,0.042 -0.47958,0.1651 -0.86816,0.2963 -0.65567,0.3725 -1.30245,0.7628 -1.98394,1.0832 -0.27513,0.1313 -0.59471,0.1313 -0.89313,0.1905 -0.58583,0.1143 -1.17208,0.2201 -1.76087,0.3132 -2.84278,0.4648 -5.72112,0.7857 -8.60623,0.6616 h -19.20487 -7.15945 c -5.62969,-0.042 -11.25219,0.127 -16.88188,0.089 -4.84662,-0.055 -7.92009,-0.064 -12.65707,-0.2497 -3.33084,-0.1312 -6.6587,-0.2667 -9.987,-0.455 -0.31323,0 -0.63027,-0.047 -0.94265,-0.068 -2.51855,0.1482 -5.03413,0.182 -7.55607,0.1397 -0.37672,0 -0.75683,0.042 -1.13271,0.059 -2.10753,0 -2.02753,0.042 -4.28237,-0.2328 -0.76827,-0.042 -1.53018,-0.063 -2.29844,-0.097 -0.62562,0.6032 -2.26077,0.3937 -3.25718,0.5537 h -0.21588 c -0.2455,0.076 -0.49693,0.1397 -0.73567,0.2328 -4.59222,1.76 -8.12157,0.9613 -10.06953,-0.9092 -1.67113,-0.1694 -3.34268,-0.3387 -5.01,-0.5376 -0.44911,0 -0.89906,8e-4 -1.34774,-0.042 -3.09929,-0.1143 -1.35875,-0.1863 -5.21657,-0.199 -2.28658,0 -4.56513,0.2413 -6.85383,0.08 -0.9617,0 -1.92383,-0.072 -2.88511,-0.1058 -1.39007,-0.089 -2.78691,-0.1439 -4.17486,-0.2624 -0.65652,-0.055 -1.30584,-0.1736 -1.95939,-0.2582 -1.23091,-0.1524 -2.4631,-0.2625 -3.6957,-0.3979 -0.69462,0.8817 -2.11389,1.6953 -2.96766,2.1494 -0.12698,0.063 -2.08806,1.0566 -2.19939,0.9842 -2.41907,-1.5759 -5.18863,-2.9084 -7.25003,-4.8945 -2.18669,-0.2201 -2.05081,-0.2032 -4.07581,-0.5041 -0.81059,-0.097 -1.62626,-0.2201 -2.43897,-0.2963 -0.62985,-0.059 -1.26223,-0.076 -1.89335,-0.1143 -2.49992,-0.1524 -5.00069,-0.2709 -7.49003,-0.5536 -0.75472,-0.1186 -1.51325,-0.2202 -2.26543,-0.3556 -1.6089,-0.2878 0.22434,-0.1101 -1.8269,-0.4148 -1.39218,-0.2032 -2.81696,-0.2032 -4.19983,-0.4877 -1.58351,-0.2328 -0.96255,-0.1481 -2.1414,-0.3132 -0.24551,-0.042 -0.49016,-0.08 -0.73567,-0.093 -0.9998,-0.059 -2.0106,0.059 -3.00913,-0.068 z m 180.23526,97.6612 h 0.21587 l 0.0423,-0.042 c -0.0889,0 -0.17354,0.042 -0.2582,0.042 z m -83.37575,178.623 c 0,0 0.0423,-0.042 0.0423,-0.042 0,0 0,0 0,0 0,0 0,0.042 0,0.059 z m -11.40881,-269.6043 -0.0423,0.042 z m 106.02786,24.8595 c -0.11852,0.042 -0.24127,0.059 -0.36402,0.093 0.11005,0.051 0.30899,0.2667 0.33016,0.1482 0,-0.081 -8.5e-4,-0.1609 0.0423,-0.2413 z m -3.4557,52.4146 v 0 h -0.13122 c 0.21588,0.042 0.16085,0.042 0.3471,0.059 -0.0423,-0.042 -0.12699,-0.059 -0.21588,-0.068 z m 0.0762,0.2793 c -0.0974,0.042 -0.19048,0.059 -0.28783,0.093 -0.4381,0.1651 -0.35556,0.5173 -0.11429,0.6616 0.13122,-0.2582 0.26667,-0.5049 0.41482,-0.7526 z m 6.35774,103.1182 c -0.18624,0.063 -0.37672,0.1736 -0.5291,0.2074 1.01461,0.549 1.15557,0.5876 0.5291,-0.2074 z m -208.75748,40.8733 c 0.23281,0.7674 0.26244,0.8085 0.43006,1.2648 v 0 c -4.2e-4,-0.089 0,-0.1821 0,-0.2709 -0.16508,-0.381 -0.54307,-1.338 -0.4381,-0.9922 z m -3.34014,26.4223 c 0.0677,0.1989 0.23704,0.7056 0.37249,1.0912 0.0423,-0.042 0.072,-0.08 0.10582,-0.1143 -0.072,-0.1439 -0.57228,-1.244 -0.47958,-0.9756 z m 1.1162,2.29 c -0.0804,0.127 -0.15238,0.2539 -0.2328,0.3809 0.20317,0.6345 0.41058,1.3279 0.62857,2.0999 -0.0423,-0.5773 -0.11852,-1.1644 -0.24127,-2.1498 -0.16508,-0.3514 -0.0423,-0.047 -0.15661,-0.3302 z m 0.24128,3.9848 c 8.4e-4,0 -4.3e-4,0.042 0,0.051 0,0 0,-0.042 0,-0.051 z m 0,0.051 c -0.15662,0.4457 -0.30477,0.8956 -0.43853,1.3477 -0.12275,0.4191 0.3471,-0.8068 0.43853,-1.2318 0,-0.051 0,-0.08 0,-0.1142 z m 130.79639,9.6399 c -0.0677,-0.042 -0.16085,-9e-4 -0.27937,0.042 -0.0466,0.042 -0.0804,0.055 -0.12275,0.085 h 0.47154 c -0.0423,-0.042 -0.0423,-0.093 -0.0677,-0.1058 z m -132.70626,2.1579 c 0,0 -0.0423,0.047 0,0.1227 0.24551,1.835 0.82033,3.6149 1.22372,5.4232 0.11852,-1.0942 0.12275,-1.7719 -0.43006,-3.7533 -0.14391,-0.5207 -0.709,-1.8735 -0.79366,-1.7939 z m 119.74357,0.5866 c -0.15661,0.4259 -0.25397,0.9706 -0.2709,1.7199 -0.0423,1.3384 1.05991,2.4216 1.78584,3.5877 0.13968,-0.7797 0.16508,-0.9405 0.6036,-1.8929 0,-0.097 -0.0508,-0.199 -0.0677,-0.2963 -0.86181,-0.4462 -0.85165,-1.3626 -1.10774,-2.1499 -0.0508,-0.042 -0.11005,-0.076 -0.15661,-0.1143 0.86731,1.3622 -0.25821,2.9914 -0.5126,1.8354 -0.0974,-0.447 -0.21588,-0.8855 -0.2709,-1.3393 v -0.7522 c -0.002,-0.2116 0.001,-0.4063 0,-0.5955 z m 1.61187,1.6204 c 0.002,0.2116 0.0423,0.4262 0,0.6366 0.0423,-0.042 0.0804,-0.055 0.12276,-0.072 v 0 c -0.0677,-0.1693 -0.11852,-0.3597 -0.13969,-0.5625 z m 0.13969,0.5625 c 0,0.042 -8.5e-4,0.042 0.0423,0.068 0.0466,0.097 0.11852,0.182 0.17354,0.2709 -0.0423,-0.1355 -0.055,-0.2709 -0.0762,-0.4064 v 0 c -0.0423,0.042 -0.0847,0.047 -0.12275,0.076 z m 0.12275,-0.076 c 0,0 0.0423,-0.042 0.0593,-0.042 -0.0423,-0.1439 -0.0847,-0.2921 -0.12275,-0.4381 0,0 0,0 0,0 0.0423,0.1651 0.055,0.3259 0.0804,0.4881 z m -6.15076,1.5378 c -0.0423,0.063 -0.13122,0.2032 -0.28783,0.4546 0.11429,0 0.23281,-0.042 0.34709,-0.042 0,-0.1397 -0.0423,-0.2794 -0.0593,-0.4233 z m 13.07063,0.4233 c -0.0423,0 -0.0762,0.051 -0.12276,0.068 0.0423,0.1016 0.055,0.199 0.0974,0.2963 0,-0.1227 -8.5e-4,-0.2412 0.0423,-0.364 z m -12.96311,0.3471 c -0.19895,0 -0.39789,0 -0.59514,0.042 -0.0423,0.051 -0.0593,0.093 -0.0931,0.1482 0,0.1989 0,0.4021 0.0423,0.6036 0.23704,0 0.48086,0 0.74414,0.042 0,-0.2709 -0.0466,-0.5426 -0.0847,-0.8186 z m 12.59908,0.4631 -0.0423,0.051 c 0.0423,0 0.13545,0.072 0.21588,0.1143 0.0423,0 0.0423,0 0.0593,0 -0.0889,-0.042 -0.18202,-0.076 -0.24974,-0.1313 0,-0.042 0.002,-0.042 0,-0.042 z m 0.24974,0.1735 c 0,0 0.0423,0 0.0508,0.042 h -0.0423 c 0,0 -0.0423,0 -0.0677,-0.042 -0.0593,0 -0.10159,-0.042 -0.14815,-0.042 v 0 c 0.0423,0.097 0.0466,0.2032 0.0762,0.2878 -0.12699,0 -0.24551,-0.042 -0.37249,-0.042 0,0.3005 0.0423,0.5871 0.23281,1.2068 0.0466,0.1524 0.16508,0.5947 0.20741,0.4381 0.055,-0.3852 0.0931,-0.7822 0.11428,-1.1738 0.25397,0.574 0.52572,0.7649 0.74414,0.8432 0.10159,-0.068 0.20318,-0.063 0.30476,-0.1312 0,-0.042 -8.4e-4,-0.055 0.0423,-0.1651 0.0804,-0.3386 0.10582,-0.5765 0.13969,-0.8351 -0.0423,0 -0.0635,-9e-4 -0.0974,0 h -0.13122 c 0.0466,0.042 0.10159,0.076 0.13969,0.1227 0.072,0.08 -0.16508,-0.08 -0.27937,-0.1397 -0.27937,-0.042 -0.55662,-0.059 -0.83472,-0.08 l -0.0423,-0.042 v 0.4063 c -0.055,-0.1227 -0.11429,-0.2582 -0.16508,-0.4232 h 0.16508 v -0.2625 c 0,0 -0.0423,0 -0.0593,0 z m -10.45811,0 c -0.0423,0 0.27937,0.1947 0.68615,0.4233 0.0677,0 0.13122,0 0.19894,0 -0.22434,-0.11 -0.45037,-0.2286 -0.67768,-0.3386 -0.12698,-0.059 -0.19048,-0.085 -0.20741,-0.08 z m -4.54693,0 c 0.0762,0 -0.16085,-8e-4 -0.2328,0.042 -0.0423,0 -0.0423,0 -0.0593,0.042 0.0974,0 0.19471,-0.042 0.28783,-0.068 z m 16.69987,0.4631 c 0.0593,0 0.0889,0.042 0.13969,0.042 0.0423,0 -0.0508,9e-4 -0.0847,-0.042 z m -25.03308,0.4796 c -0.24974,0.042 -0.48297,0.097 -0.90964,0.3132 -0.0423,0 -0.12699,0.059 -0.0847,0.059 0.33439,-0.1143 0.66244,-0.2413 0.99218,-0.3725 z m -1.85188,0.364 c -0.11852,0 -0.23704,0.042 -0.35556,0.042 -0.2328,0.1186 -0.5964,0.2879 -0.70265,0.3556 0,0 0.0423,0 0.0508,0 0.33862,-0.1185 0.67725,-0.254 1.00868,-0.3979 z m 70.24714,2.4055 c -0.0635,0 -0.17354,0.042 -0.26243,0.051 0.055,0.042 0.12275,0.063 0.15661,0.085 0.0593,-0.042 0.12275,-0.072 0.18201,-0.093 h 0.0762 c -0.0508,0 -0.10583,-0.042 -0.14815,-0.042 z m -73.76083,6.6803 0.0423,0.042 c -0.48889,0.1523 -1.15387,0.2328 -1.57081,0.2709 v 0 c 0.21588,-0.072 0.74414,-0.2328 0.55408,-0.1905 -0.38096,0.085 -0.74329,0.2413 -1.12424,0.3132 -1.19579,0.2244 -2.414,0.097 -3.62121,0.1397 h -1.87685 c -0.78604,0 -1.5725,0 -2.356,-0.076 0.10582,-0.042 0.43725,-0.1227 0.3217,-0.1227 -2.37675,0.4232 1.42604,0.042 -2.0504,0.3809 -0.12698,0 -0.38942,0.127 -0.38942,0 -0.003,-0.042 0.002,-0.068 0,-0.097 -0.0847,0 -0.16931,0.042 -0.26244,0.042 0,-0.1609 -0.0423,-0.3471 -0.0508,-0.5211 h -0.92615 -0.0804 c 0.18201,0.3259 0.48804,0.5287 1.00022,0.5291 h 0.0423 v 0.051 c -0.97948,-8e-4 -1.95516,-8e-4 -2.93506,0 -1.98394,0 -3.9683,0 -5.95224,0 -0.85969,0 -1.72446,4e-4 -2.58754,0 -0.0677,0.2413 -0.13968,0.4843 -0.20741,0.7272 h 1.38922 1.91791 2.05843 2.52998 2.18246 c 0.46773,0 0.93207,0 1.39726,0.051 0.20318,0.042 0.40212,0.063 0.60318,0.097 0.25821,0.042 0.52276,0.08 0.78562,0.093 0.25397,0 0.52741,4e-4 0.77715,-0.042 h 0.25821 0.86815 c 0.40636,0 0.82753,-0.076 1.23176,-0.1143 0.44572,-0.042 0.3471,-0.042 0.79366,-0.1058 0.0847,0 0.16085,-0.042 0.24974,-0.051 0.22011,-0.042 0.44022,-0.042 0.6616,-0.051 0.19471,0 0.63111,0.042 0.82667,0.042 h 0.26244 0.6036 c 0.38519,0 0.76361,0.068 1.1488,0.08 0.45757,0 0.89863,-0.042 1.35621,0 0.11852,0 0.66244,0.089 0.76022,0.097 h 0.15661 c 0.23281,-0.7611 0.91049,-2.1122 0.57017,0.042 h 0.2963 c 0.19047,-0.419 0.38942,-0.8402 0.6036,-1.2483 -0.0423,-0.042 -0.055,-0.072 -0.0762,-0.1058 h 0.12275 c 0.0423,-0.068 0.0762,-0.1439 0.11429,-0.2159 0,0 -8.5e-4,-0.042 0.0423,-0.042 h -0.20741 z m 0.55366,0.042 v 0 c 0,0 0.0423,0 0.0593,0 0,0 -0.0423,-0.042 -0.0508,-0.042 z m 0.0508,0.042 c 0,0 0.0423,0 0.0423,0 0.71663,0.051 -0.0508,-9e-4 0.31323,0.042 0.35133,0.042 0.34287,0.042 0.74414,0.042 1.07303,0.042 2.15791,0.089 3.22416,-0.068 h -1.36382 c -0.68445,0 -1.36594,0.042 -2.0504,0 H 301.151 c -0.10159,0 -0.21164,-0.042 -0.3217,-0.042 z m -12.68204,0.089 v 0.4961 c 0.32169,-0.072 0.54815,-0.2455 0.69418,-0.4961 -0.055,-4e-4 -0.11005,8e-4 -0.16508,0 z m -43.45319,0.2624 c -0.18625,0 -0.38096,0.042 -0.57017,0.042 -0.70392,0.042 -1.40319,0.089 -2.10838,0.1059 -0.68318,0 0.0466,-0.042 -0.86816,0 -0.16931,0 -0.33862,0.042 -0.50413,0.042 -0.26244,0 -0.5236,0.042 -0.78519,0.042 h -0.49609 -0.84319 c 0.5672,0.047 1.12806,0.097 1.69441,0.1482 h 0.41482 1.78584 c 1.07557,0 2.14902,0 3.22417,0.051 0.96339,0.042 1.92256,0.072 2.88511,0.1142 0.15238,0 0.30476,-4e-4 0.45503,0.042 -0.072,0 -0.14392,8e-4 -0.21588,-0.042 -0.40635,-0.055 -0.52699,-0.063 -1.00868,-0.1058 -0.34287,-0.042 -0.68657,0 -1.0252,-0.068 -0.8652,-0.1228 -1.42266,-0.2074 -1.94288,-0.364 h -0.0931 z m -17.95618,0.2074 c -0.0423,0 -0.0762,-8e-4 -0.11429,0.042 -0.42328,0.072 -0.84741,0.081 -1.27324,0.076 h -1.85991 c 0.61334,0.076 1.38541,0.2667 1.76086,0.381 0.12275,0.042 0.24974,0.051 0.37249,0.085 -0.0423,0 -0.11428,-0.042 -0.15661,-0.051 0.10582,0 0.19048,-9e-4 0.27937,0.042 0.0719,0.042 0.13121,0.059 0.19894,0.093 -0.11006,-0.042 -0.21164,-0.059 -0.3217,-0.085 0.20741,0.076 0.16508,0.046 0.73567,0.2624 -0.11429,-0.051 -0.2328,-0.1058 -0.34709,-0.1566 0.309,0.072 0.6163,0.1693 0.92572,0.2412 0.0847,-0.093 0.17355,-0.1904 0.25821,-0.2793 0.11428,-0.1312 0.2836,-0.2074 0.4381,-0.2879 0.36826,-0.1989 0.55281,-0.2412 0.76868,-0.3132 h -0.20741 -1.13271 -0.16508 -0.12275 c 0,0 8.4e-4,-8e-4 -0.0423,0 z" />
    </clipPath>
    <rect
       x="788.86603"
       y="2424.0505"
       width="618.71844"
       height="187.82526"
       id="rect98160-5-7-6" />
  </defs>
  <g
     inkscape:label="Layer 1"
     inkscape:groupmode="layer"
     id="layer1"
     transform="translate(0.06258698)">
    <g
       id="g118372"
       transform="translate(80.937536,-98.660824)"
       style="stroke-width:0.581868">
      <path
         style="fill:#000000;stroke-width:0.264583"
         d="m -80.661345,116.00012 c -0.007,-0.0118 0.006,-0.0359 0.0296,-0.0536 0.0627,-0.0473 0.42552,-0.23114 0.49259,-0.24958 0.0516,-0.0142 0.0533,-0.0183 0.0173,-0.0397 -0.0819,-0.0484 -0.0268,-0.15371 0.12109,-0.23033 l 0.0575,-0.03 -0.0693,-0.0288 c -0.0377,-0.0159 -0.1185,-0.0358 -0.17879,-0.0443 -0.0602,-0.008 -0.11077,-0.0275 -0.11232,-0.0422 -0.0109,-0.10466 0.0815,-0.22352 0.23141,-0.29823 l 0.11463,-0.0571 -0.0851,-0.0549 c -0.10422,-0.0672 -0.12,-0.14589 -0.0474,-0.23781 0.0594,-0.0755 0.2104,-0.15035 0.30484,-0.15109 0.0359,-2.2e-4 0.0613,-0.008 0.0562,-0.0178 -0.11232,-0.21929 -0.20862,-0.44013 -0.21849,-0.50058 -0.0114,-0.0711 -0.007,-0.0784 0.0575,-0.0926 0.0815,-0.0179 0.23796,0.0188 0.34495,0.0808 l 0.075,0.0435 v -0.0775 c 0,-0.0427 0.0214,-0.14615 0.0468,-0.22997 0.0396,-0.12932 0.0551,-0.15242 0.0995,-0.15242 0.0868,0 0.21531,0.16565 0.25409,0.32758 0.015,0.0619 0.0155,0.062 0.0982,0.0274 0.13141,-0.0549 0.15447,-0.0328 0.13564,0.12972 -0.0173,0.14637 -0.006,0.16938 0.0671,0.0945 0.0373,-0.0415 0.0368,-0.0538 -0.0182,-0.23651 -0.0872,-0.2911 -0.11536,-0.52325 -0.1145,-0.94264 0.006,-0.81175 0.14051,-1.53581 0.38988,-2.033 0.11072,-0.22076 0.32925,-0.52378 0.4684,-0.6495 l 0.0909,-0.0821 -0.10726,-0.0266 c -0.48396,-0.12038 -0.91693,-0.64168 -1.03239,-1.243 -0.15383,-0.80119 0.26033,-1.83207 0.94822,-2.3603 0.0377,-0.0293 0.0744,-0.06 0.0807,-0.0683 0.006,-0.008 0.0721,-0.0573 0.14605,-0.10901 0.17962,-0.12536 0.42653,-0.2254 0.67817,-0.27475 l 0.20657,-0.0405 -0.16438,-0.18492 c -0.0904,-0.1017 -0.1983,-0.2344 -0.23981,-0.29487 -0.10327,-0.1504 -0.26478,-0.48153 -0.32335,-0.66305 -0.20612,-0.63839 -0.17925,-1.45906 0.0675,-2.05736 l 0.0672,-0.16297 -0.10927,0.0196 c -0.15738,0.0282 -0.49596,0.0253 -0.50596,-0.004 -0.015,-0.0439 0.39178,-0.53997 0.73995,-0.90291 l 0.18193,-0.18962 -0.0118,-0.17985 c -0.006,-0.0989 -0.006,-0.20581 0.01,-0.23753 0.0123,-0.0317 0.0314,-0.10815 0.0432,-0.16983 0.0196,-0.10383 0.0173,-0.1154 -0.0345,-0.15604 -0.0857,-0.0674 -0.0965,-0.16514 -0.0327,-0.29388 0.0474,-0.0951 0.0503,-0.11681 0.025,-0.16989 -0.0405,-0.0832 -0.0808,-0.31349 -0.0675,-0.38255 0.007,-0.0357 -0.01,-0.0864 -0.0446,-0.137628 -0.0305,-0.0446 -0.0551,-0.0937 -0.0551,-0.10898 0,-0.03 -0.33013,-0.058 -0.68267,-0.058 -0.21576,0 -0.20712,-0.006 -0.34303,0.25383 -0.10645,0.203698 -0.1958,0.323038 -0.242,0.323038 -0.0612,0 -0.0706,-0.043 -0.0706,-0.323748 0,-0.26668 0.073,-0.72621 0.12364,-0.77816 0.0391,-0.0399 0.43771,-0.13839 0.66743,-0.16483 0.10426,-0.012 0.37136,-0.0331 0.5934,-0.0468 0.22217,-0.0137 0.57149,-0.0356 0.77633,-0.0483 0.57122,-0.0358 0.95981,0.026 1.1924,0.18974 0.24095,0.16959 0.91561,0.81183 0.91561,0.87166 0,0.013 0.0196,0.0236 0.0436,0.0236 0.0503,0 0.1577,0.11469 0.23346,0.24944 0.0468,0.0835 0.0575,0.0904 0.10499,0.0687 0.068,-0.031 0.15096,-0.009 0.23445,0.0607 l 0.0664,0.0559 0.16037,-0.0454 c 0.19162,-0.0542 0.50401,-0.0775 0.67953,-0.0507 0.16542,0.0253 0.18166,0.0834 0.0533,0.19059 -0.0486,0.0403 -0.0774,0.0706 -0.0647,0.0674 0.0132,-0.003 0.0851,0.002 0.16092,0.0126 0.5086,0.0677 1.16389,0.5103 1.5544,1.04962 0.33235,0.45918 0.53415,1.2331 0.50291,1.92923 -0.0273,0.61355 -0.0888,0.892 -0.30556,1.3863 -0.006,0.0137 0.0336,0.0378 0.0881,0.0537 0.14237,0.0415 0.3856,0.19039 0.53724,0.32898 0.24218,0.22135 0.42934,0.55619 0.53334,0.95398 0.0826,0.31645 0.10235,0.84418 0.0446,1.19041 -0.0923,0.55195 -0.3876,1.09627 -0.69967,1.28991 -0.0679,0.0421 -0.10613,0.0893 -0.14178,0.17489 -0.0414,0.0996 -0.27887,0.37805 -0.32335,0.37927 -0.007,2.2e-4 -0.0268,0.009 -0.0441,0.0202 -0.0232,0.0148 0.0355,0.0867 0.23208,0.28232 0.29093,0.28997 0.43644,0.50462 0.61132,0.90192 0.21272,0.48327 0.30566,0.93417 0.32362,1.56929 0.0141,0.50321 -0.02,0.89001 -0.12236,1.37934 -0.0673,0.32223 -0.0673,0.3237 -0.008,0.42408 l 0.0474,0.0806 0.0832,-0.092 c 0.0891,-0.0987 0.1361,-0.12986 0.24073,-0.15987 l 0.0664,-0.0191 -0.0155,0.1844 -0.0155,0.1844 0.0669,-0.0186 c 0.0926,-0.0258 0.4046,-0.0206 0.4548,0.008 0.0373,0.021 0.0314,0.0352 -0.0637,0.15079 -0.0575,0.0702 -0.10504,0.13437 -0.10504,0.14261 0,0.008 0.0446,0.015 0.0994,0.015 0.0545,0 0.16447,0.022 0.24409,0.0489 0.12968,0.0438 0.14342,0.0543 0.13168,0.101 -0.0114,0.0442 -0.006,0.0544 0.0612,0.067 0.16797,0.0336 0.38664,0.26418 0.38664,0.40762 0,0.0761 -0.0414,0.0955 -0.14273,0.0665 -0.0985,-0.0282 -0.19376,-0.0275 -0.30143,0.002 -0.112,0.0311 -0.10986,0.0584 0.006,0.0769 0.10222,0.0164 0.19016,0.0874 0.17074,0.13793 -0.009,0.0232 0.025,0.0442 0.11664,0.0732 0.0711,0.0223 0.19889,0.0876 0.28415,0.14506 0.17484,0.11781 0.34149,0.18873 0.44366,0.18873 0.0377,0 0.069,0.0104 0.069,0.0231 0,0.0402 -0.24295,0.0249 -0.40719,-0.0257 -0.0869,-0.0268 -0.24646,-0.0857 -0.35427,-0.13079 -0.1326,-0.0555 -0.24841,-0.0864 -0.35741,-0.0955 -0.11859,-0.01 -0.16306,-0.0227 -0.16797,-0.0485 -0.0132,-0.0683 0.0551,-0.12329 0.17061,-0.13834 l 0.11245,-0.0146 -0.0692,-0.0291 c -0.0377,-0.016 -0.10995,-0.0361 -0.15969,-0.0448 -0.0498,-0.009 -0.0945,-0.0277 -0.0994,-0.0423 -0.0191,-0.0565 0.32331,-0.23817 0.44849,-0.23817 0.0597,0 -0.0504,-0.10549 -0.17166,-0.16405 -0.0802,-0.0388 -0.12641,-0.0462 -0.22108,-0.0354 -0.0659,0.008 -0.14464,0.0166 -0.17515,0.02 -0.0913,0.0104 -0.0823,-0.0485 0.0227,-0.14504 l 0.0985,-0.0909 h -0.0657 c -0.0364,0 -0.12682,0.0171 -0.20148,0.0381 -0.124,0.0348 -0.13883,0.0349 -0.17234,0.001 -0.0332,-0.0335 -0.0332,-0.0416 0,-0.0923 0.02,-0.0306 0.0995,-0.12192 0.17661,-0.20293 0.0771,-0.081 0.14014,-0.15006 0.14014,-0.15343 0,-0.004 -0.0336,-0.006 -0.0749,-0.005 -0.10286,4.5e-4 -0.24705,0.0701 -0.36282,0.17469 -0.0781,0.0706 -0.10422,0.0827 -0.13523,0.0625 -0.0498,-0.0324 -0.0427,-0.1176 0.03,-0.34528 0.0314,-0.0984 0.0533,-0.18232 0.0492,-0.18651 -0.006,-0.004 -0.0337,0.004 -0.0659,0.0189 -0.0833,0.038 -0.15524,0.14539 -0.21394,0.3197 -0.0437,0.12983 -0.0593,0.15159 -0.10586,0.15159 -0.048,0 -0.0575,-0.0148 -0.0753,-0.12114 -0.0114,-0.0666 -0.0273,-0.12115 -0.0364,-0.12115 -0.008,0 -0.0345,0.0597 -0.0575,0.13269 -0.0658,0.20969 -0.16938,0.3954 -0.29402,0.52724 l -0.11518,0.12177 0.0885,0.016 c 0.11464,0.0207 0.16929,0.0498 0.16929,0.0899 0,0.0178 -0.0209,0.0387 -0.0456,0.0467 -0.0428,0.0135 -0.13906,0.11586 -0.1391,0.14752 0,0.008 0.0528,0.0106 0.11722,0.006 0.15042,-0.0104 0.32126,0.0151 0.32126,0.0481 0,0.0141 -0.015,0.042 -0.0332,0.062 -0.0296,0.0329 -0.0155,0.0364 0.14882,0.0364 0.19444,0 0.2606,0.0279 0.21022,0.0887 -0.0209,0.0251 -0.048,0.0282 -0.11332,0.0131 -0.0474,-0.011 -0.1611,-0.0202 -0.25314,-0.0205 -0.092,-2.2e-4 -0.16729,-0.008 -0.16729,-0.0161 0,-0.009 0.0173,-0.0345 0.0378,-0.0577 0.0355,-0.0393 0.0355,-0.0422 -0.006,-0.0422 -0.0214,0 -0.11336,0.0168 -0.2038,0.0374 -0.15324,0.0349 -0.16629,0.0348 -0.1928,-0.001 -0.0236,-0.0327 -0.0141,-0.0606 0.0618,-0.17471 0.0498,-0.0747 0.0902,-0.14283 0.0902,-0.15143 0,-0.028 -0.27955,0.0151 -0.39596,0.061 -0.0623,0.0246 -0.12337,0.0447 -0.13555,0.0447 -0.0332,0 -0.0268,-0.0597 0.01,-0.0897 0.0173,-0.0144 0.0441,-0.10168 0.0587,-0.19401 0.015,-0.0923 0.0521,-0.22203 0.0828,-0.2882 0.0309,-0.0662 0.0492,-0.12033 0.0409,-0.12033 -0.008,0 -0.048,0.0225 -0.0881,0.0502 -0.0824,0.0565 -0.17388,0.19588 -0.21771,0.33183 -0.0414,0.12802 -0.0649,0.1528 -0.11809,0.12431 -0.0604,-0.0323 -0.0586,-0.229 0.006,-0.36557 0.0255,-0.0558 0.0423,-0.10572 0.0368,-0.1109 -0.0191,-0.0188 -0.23559,0.22239 -0.30293,0.33717 -0.051,0.0866 -0.0815,0.11634 -0.11522,0.11195 -0.0528,-0.007 -0.073,-0.0762 -0.08,-0.27133 l -0.006,-0.12691 -0.0437,0.0923 c -0.0241,0.0508 -0.0437,0.11826 -0.0446,0.14998 -0.006,0.0771 -0.0346,0.12501 -0.0752,0.10929 -0.0368,-0.0141 -0.0738,-0.35539 -0.0486,-0.44963 0.0241,-0.0911 -0.0373,-0.0575 -0.0845,0.0461 -0.0314,0.0694 -0.0446,0.15041 -0.045,0.2769 0,0.2045 -0.008,0.20986 -0.16492,0.12301 -0.0902,-0.0498 -0.17557,-0.0694 -0.27124,-0.062 -0.0177,0.001 0.0105,0.0412 0.0626,0.089 0.0521,0.0476 0.0973,0.10693 0.10099,0.13188 0.006,0.038 -0.0114,0.0481 -0.10513,0.0619 -0.0616,0.009 -0.11654,0.0211 -0.12218,0.0268 -0.0132,0.0129 0.11545,0.0884 0.22244,0.13096 0.10209,0.0406 0.18462,0.0926 0.18462,0.11634 0,0.0101 -0.0521,0.005 -0.11614,-0.0123 -0.31543,-0.0832 -0.61868,-0.0638 -0.98473,0.063 -0.11695,0.0405 -0.22076,0.0652 -0.23076,0.055 -0.01,-0.0102 0.0255,-0.0567 0.0795,-0.10322 0.0798,-0.0691 0.10035,-0.1036 0.11195,-0.18828 0.0182,-0.13312 -0.0182,-0.26786 -0.0995,-0.36459 l -0.064,-0.0765 -0.006,0.21011 c -0.006,0.23148 -0.025,0.28492 -0.10213,0.23683 -0.0633,-0.0395 -0.11677,-0.0362 -0.1004,0.006 0.007,0.0191 0.007,0.0593 0,0.0893 -0.0118,0.0467 -0.0314,0.0564 -0.13514,0.0667 -0.0668,0.007 -0.13378,0.002 -0.14879,-0.0101 -0.0336,-0.0276 0.006,-0.14473 0.11696,-0.35655 0.048,-0.0899 0.067,-0.14707 0.0498,-0.14707 -0.062,0 -0.21477,0.13979 -0.3354,0.3067 -0.13983,0.19356 -0.17561,0.21981 -0.22809,0.1673 -0.0364,-0.0362 -0.0355,-0.0427 0.0377,-0.29747 0.0118,-0.041 0.01,-0.0411 -0.0643,-0.003 -0.0418,0.0217 -0.15251,0.11148 -0.24531,0.19936 -0.1467,0.13883 -0.17493,0.15652 -0.21522,0.13496 -0.0667,-0.0356 -0.058,-0.11319 0.0327,-0.28688 0.0432,-0.0834 0.0737,-0.15166 0.067,-0.15166 -0.0396,0 -0.15342,0.11014 -0.22581,0.21916 -0.0462,0.0698 -0.0986,0.12696 -0.11609,0.12696 -0.0177,0 -0.0613,-0.0438 -0.0973,-0.0975 -0.0606,-0.0902 -0.19449,-0.20249 -0.24141,-0.20249 -0.0109,0 0.007,0.053 0.0396,0.11771 0.0849,0.16735 0.071,0.18478 -0.13305,0.16793 -0.19639,-0.0162 -0.37823,0.0133 -0.57717,0.0936 -0.0784,0.0317 -0.14819,0.0518 -0.15515,0.0446 -0.007,-0.007 0.0259,-0.0457 0.0738,-0.0857 0.0474,-0.0401 0.0866,-0.0913 0.0866,-0.11374 0,-0.0225 0.0432,-0.0881 0.0966,-0.14575 l 0.0966,-0.10485 -0.0678,0.0152 c -0.12796,0.0288 -0.29875,0.12469 -0.4674,0.26251 -0.0929,0.0759 -0.18261,0.13274 -0.1993,0.12631 -0.0177,-0.007 -0.0409,-0.0818 -0.0557,-0.18019 -0.0141,-0.0927 -0.0373,-0.19845 -0.0522,-0.23505 l -0.0268,-0.0665 -0.0177,0.0577 c -0.01,0.0317 -0.0182,0.10616 -0.02,0.16541 -0.006,0.20845 -0.0377,0.22496 -0.18193,0.0904 -0.0902,-0.0841 -0.29143,-0.18468 -0.31744,-0.15865 -0.006,0.006 0.0209,0.0764 0.06,0.15574 0.0894,0.18014 0.11136,0.29451 0.0604,0.31405 -0.02,0.008 -0.10068,-0.0207 -0.18175,-0.0643 -0.08,-0.043 -0.1908,-0.0963 -0.24623,-0.11834 -0.0967,-0.0385 -0.10026,-0.0384 -0.0843,10e-4 0.009,0.0227 0.0218,0.0801 0.0291,0.12744 0.0218,0.15021 -0.0414,0.1383 -0.23122,-0.0438 -0.0915,-0.0878 -0.19739,-0.18165 -0.23545,-0.20867 -0.12801,-0.0909 -0.0387,-0.0821 0.139,0.0137 0.0968,0.0523 0.17784,0.0949 0.17998,0.0949 0.006,0 0.006,-0.0307 0.006,-0.0683 -0.006,-0.0557 -0.0273,-0.0869 -0.13842,-0.1688 -0.17129,-0.12612 -0.37272,-0.34691 -0.51851,-0.56831 -0.0619,-0.094 -0.11672,-0.18225 -0.12181,-0.19614 -0.0132,-0.0354 -0.14451,0.093 -0.17793,0.17361 -0.0277,0.0676 -0.10218,0.0913 -0.11982,0.0383 -0.01,-0.0278 -0.006,-0.0604 0.0527,-0.32418 0.0155,-0.0733 0.0227,-0.13958 0.015,-0.14734 -0.0486,-0.0485 -0.24637,0.22243 -0.24637,0.33732 0,0.0227 -0.0164,0.0553 -0.0373,0.0722 -0.0314,0.0261 -0.0414,0.0245 -0.0675,-0.0108 -0.0314,-0.0434 -0.0114,-0.14807 0.058,-0.29484 0.025,-0.0534 0.0214,-0.0778 -0.03,-0.19037 -0.0327,-0.071 -0.0693,-0.12911 -0.0818,-0.12911 -0.0359,0 -0.0767,0.24261 -0.0595,0.35704 0.0191,0.12652 -0.0114,0.13642 -0.11541,0.0374 -0.0651,-0.062 -0.28233,-0.15556 -0.30607,-0.13181 -0.0159,0.0158 0.0763,0.21317 0.1908,0.40852 0.0563,0.0963 0.10263,0.18836 0.10263,0.20457 0,0.0222 -0.0309,0.0256 -0.12496,0.0139 -0.13923,-0.0174 -0.28242,0.0123 -0.35931,0.0747 -0.0503,0.0407 -0.0498,0.0408 0.0905,0.108 0.21881,0.10456 0.27497,0.20388 0.10936,0.19341 -0.10627,-0.007 -0.2294,0.0409 -0.3022,0.11688 l -0.0634,0.0663 0.0885,0.0284 c 0.12005,0.0385 0.23845,0.13054 0.23845,0.18535 0,0.0247 -0.0141,0.045 -0.0309,0.045 -0.0173,0 -0.0486,0.0192 -0.0696,0.0426 -0.0373,0.0409 -0.0327,0.0438 0.11595,0.0683 0.14424,0.0239 0.27051,0.0955 0.23354,0.13247 -0.008,0.008 -0.19398,0.0645 -0.41406,0.12636 -0.22004,0.0618 -0.46008,0.13226 -0.53338,0.15655 -0.0768,0.0255 -0.13892,0.0351 -0.14656,0.0227 z m 3.19787,-0.93195 c -0.0803,-0.17879 -0.0823,-0.19398 -0.025,-0.19398 0.048,0 0.0722,-0.0792 0.0722,-0.23532 0,-0.0728 0.008,-0.0896 0.0387,-0.0836 0.0327,0.006 0.0377,0.033 0.0332,0.16191 l -0.006,0.15445 0.0996,0.0268 c 0.0545,0.0147 0.12673,0.0407 0.15979,0.0579 l 0.0601,0.0311 0.0446,-0.1826 0.0446,-0.18261 -0.0898,-0.13355 c -0.11072,-0.16473 -0.22804,-0.41364 -0.29101,-0.61757 -0.0613,-0.19852 -0.12209,-0.58124 -0.11254,-0.70879 l 0.007,-0.0994 0.03,0.13845 c 0.11736,0.54096 0.41807,1.12189 0.80762,1.56081 l 0.13237,0.14911 0.12086,-0.0548 c 0.13455,-0.0611 0.32621,-0.0885 0.45226,-0.0649 0.0957,0.018 0.10645,0.0598 0.035,0.13559 -0.11304,0.11987 -0.1069,0.12713 0.10563,0.12482 l 0.19516,-0.002 -0.0575,-0.10223 c -0.0789,-0.14109 -0.0751,-0.1505 0.0521,-0.13145 0.11613,0.0174 0.25437,0.0787 0.31566,0.13999 0.0346,0.0343 0.045,0.0291 0.13637,-0.0648 0.10176,-0.10467 0.26282,-0.17862 0.3891,-0.17862 0.0648,0 0.0909,0.0505 0.0414,0.081 -0.0218,0.0137 -0.11509,0.18024 -0.11509,0.20626 0,0.007 0.0557,-0.0181 0.12441,-0.0551 0.13837,-0.0749 0.3549,-0.1458 0.3861,-0.12651 0.0114,0.007 0.02,0.0326 0.02,0.0573 0,0.0575 0.0109,0.0564 0.0996,-0.0102 0.14183,-0.10631 0.37851,-0.19751 0.41584,-0.16023 0.007,0.007 -0.0132,0.0649 -0.045,0.12808 -0.0318,0.0632 -0.0551,0.11714 -0.0509,0.11994 0.03,0.0211 0.18512,0.1057 0.19326,0.1057 0.0191,0 0.01,-0.24688 -0.0132,-0.37042 -0.0296,-0.15581 -0.006,-0.18673 0.0985,-0.12731 0.20544,0.11723 0.3157,0.28951 0.31652,0.49444 0,0.0964 0.008,0.12088 0.0327,0.1112 0.0177,-0.007 0.11564,-0.0247 0.21754,-0.0395 0.14232,-0.0208 0.18234,-0.0346 0.17274,-0.0594 -0.0132,-0.0351 0.11696,-0.10129 0.19962,-0.10129 0.0255,0 0.0468,-0.01 0.0468,-0.0219 0,-0.029 -0.13609,-0.13004 -0.20189,-0.15004 -0.12914,-0.0392 -0.006,-0.10496 0.19776,-0.10496 0.0722,0 0.16506,0.01 0.20616,0.0215 0.0732,0.021 0.0748,0.0198 0.0753,-0.0519 0.006,-0.10347 0.0796,-0.26594 0.17852,-0.36759 0.12136,-0.12476 0.14401,-0.11499 0.14401,0.0621 0,0.0817 0.009,0.15399 0.0195,0.16056 0.0109,0.006 0.0522,-0.0344 0.0919,-0.0909 0.0832,-0.11811 0.11941,-0.13001 0.11996,-0.0394 0.006,0.11438 0.035,0.13062 0.0745,0.0354 0.02,-0.048 0.0884,-0.20702 0.15192,-0.35326 0.22982,-0.52978 0.30075,-0.81575 0.32003,-1.2887 0.0182,-0.4416 0.0575,-0.3764 0.0718,0.11832 0.0114,0.39426 -0.009,0.58403 -0.10058,0.93516 -0.0569,0.21907 -0.19144,0.53958 -0.23818,0.56848 -0.0141,0.009 -0.0259,0.0243 -0.0259,0.0342 0,0.01 0.0595,-0.0119 0.13232,-0.0486 0.0729,-0.0367 0.13573,-0.0565 0.13996,-0.044 0.006,0.0125 -0.006,0.0597 -0.0155,0.10492 -0.0255,0.0925 -0.007,0.10427 0.0545,0.0356 0.0232,-0.0256 0.0858,-0.0742 0.13928,-0.10799 0.0886,-0.056 0.0966,-0.0688 0.0892,-0.14387 -0.0255,-0.25976 -0.0277,-0.44453 -0.006,-0.42262 0.0132,0.013 0.0291,0.12908 0.0368,0.25805 0.009,0.15656 0.0214,0.23132 0.0387,0.22496 0.0868,-0.0326 0.12695,-0.0383 0.13841,-0.0198 0.007,0.0115 -0.0177,0.10542 -0.0557,0.20862 -0.0377,0.10319 -0.0597,0.18762 -0.0486,0.18762 0.0282,0 0.15051,-0.24007 0.2168,-0.42688 0.0834,-0.23512 0.21654,-0.76763 0.26988,-1.0796 0.23317,-1.36384 -0.063,-2.55412 -0.86451,-3.47446 l -0.16146,-0.18548 -0.0923,0.0162 c -0.15324,0.0268 -0.54625,0.0168 -0.66916,-0.017 -0.0635,-0.0175 -0.15519,-0.0515 -0.20376,-0.0757 -0.0829,-0.0412 -0.22453,-0.0405 -0.22231,0.001 0,0.008 0.0474,0.045 0.10432,0.081 0.25623,0.16236 0.4754,0.41573 0.68898,0.79635 0.11036,0.19658 0.33699,0.70718 0.33626,0.75772 0,0.0102 -0.0562,-0.0829 -0.12536,-0.20718 -0.38015,-0.6863 -0.73432,-1.05707 -1.23719,-1.29521 -0.33763,-0.15991 -0.64856,-0.24076 -1.07153,-0.27863 -0.0889,-0.008 -0.17802,-0.0192 -0.19826,-0.025 -0.0255,-0.007 -0.0704,0.0402 -0.14614,0.15397 -0.0601,0.0905 -0.15001,0.20859 -0.19967,0.2625 -0.081,0.0879 -0.0881,0.10491 -0.0682,0.16472 0.0688,0.20703 0.12209,0.94626 0.0765,1.0628 -0.01,0.0252 -0.0318,-0.0831 -0.0551,-0.26923 -0.0337,-0.27257 -0.12114,-0.61685 -0.18075,-0.71324 -0.0291,-0.0472 -0.22122,0.0747 -0.36555,0.23184 -0.0671,0.0731 -0.17611,0.16338 -0.24222,0.2007 -0.1301,0.0733 -0.37428,0.14225 -0.5041,0.14225 -0.12882,0 -0.31389,-0.0653 -0.40033,-0.14115 l -0.0796,-0.0699 -0.0892,0.0717 c -0.0923,0.0741 -0.29488,0.16249 -0.37254,0.16249 -0.0241,0 -0.0503,0.0184 -0.0575,0.0409 -0.007,0.0225 -0.0758,0.11853 -0.15255,0.21344 -0.24259,0.29993 -0.46813,0.81566 -0.5182,1.18487 -0.009,0.0675 -0.0236,0.10401 -0.0364,0.0914 -0.0291,-0.0291 0.0164,-0.38483 0.0844,-0.65373 0.0569,-0.22564 0.27364,-0.70789 0.36018,-0.80067 l 0.0474,-0.0508 -0.0664,-0.0148 c -0.22581,-0.0503 -0.36818,-0.11837 -0.50132,-0.23962 -0.0828,-0.0754 -0.10731,-0.0858 -0.18102,-0.0767 -0.0706,0.009 -0.10845,0.037 -0.21963,0.16389 -0.0738,0.0844 -0.16078,0.18972 -0.19316,0.23414 -0.33158,0.45477 -0.55202,1.38099 -0.55179,2.31831 0,0.58475 0.0773,0.95576 0.28778,1.38517 0.13483,0.27516 0.27492,0.45845 0.47363,0.6196 0.12814,0.10395 0.44944,0.29093 0.50092,0.29153 0.0177,2.1e-4 0.006,-0.0556 -0.0405,-0.15181 z m -0.23414,-0.13961 c -0.0123,-0.0612 0.0498,-0.47698 0.0754,-0.50317 0.0259,-0.0268 0.0259,0.2289 0,0.38647 -0.02,0.12339 -0.0615,0.18694 -0.0757,0.1167 z m 0.57067,-0.0563 c -0.0232,-0.0629 -0.0241,-0.13369 -0.006,-0.14085 0.0368,-0.0118 0.0718,0.11536 0.0405,0.14674 -0.02,0.0204 -0.0296,0.019 -0.0391,-0.006 z m -0.84345,-0.10769 c 0,-0.111 0.074,-0.59331 0.0948,-0.61571 0.0105,-0.0119 0.0268,-0.0151 0.0341,-0.007 0.0164,0.0164 -0.0491,0.62767 -0.0713,0.6632 -0.0273,0.044 -0.0575,0.0227 -0.0581,-0.0404 z m -0.22017,-0.16913 c -0.0377,-0.0614 0.0468,-0.53266 0.13241,-0.73405 0.0658,-0.15513 0.0744,-0.0977 0.0191,0.12446 -0.0273,0.10997 -0.0593,0.29514 -0.0705,0.41146 -0.0114,0.11633 -0.0209,0.2141 -0.0209,0.21727 -0.006,0.0166 -0.0463,0.002 -0.0595,-0.0191 z m 2.90976,-0.10985 c -0.007,-0.0233 0.007,-0.10903 0.0314,-0.19037 0.0373,-0.12241 0.11709,-0.44229 0.11709,-0.46991 0,-0.009 -0.0214,-0.0176 -0.22085,-0.0939 l -0.14005,-0.0536 -0.0871,0.20559 c -0.095,0.22447 -0.15937,0.32164 -0.21298,0.32164 -0.0557,0 -0.30662,-0.25244 -0.41293,-0.41547 -0.17379,-0.26681 -0.51028,-0.92748 -0.60495,-1.18822 -0.11527,-0.31728 -0.13792,-0.45278 -0.0845,-0.50614 0.0643,-0.0643 0.10967,-0.0321 0.20139,0.14296 0.16556,0.316 0.41074,0.49629 0.86932,0.63933 0.27979,0.0873 0.47518,0.10689 0.7581,0.0762 0.31271,-0.0339 0.31262,-0.034 0.20885,0.29176 -0.0241,0.0751 -0.0432,0.14894 -0.0432,0.16415 0,0.0576 0.48714,0.078 0.75383,0.0316 l 0.1461,-0.0255 -0.006,-0.0957 c -0.006,-0.0526 -0.01,-0.15612 -0.0191,-0.22996 -0.0105,-0.0852 -0.008,-0.14541 0.008,-0.16477 0.0132,-0.0168 0.10499,-0.0479 0.20339,-0.0692 0.26528,-0.0574 0.48032,-0.17478 0.67466,-0.36808 0.18134,-0.18042 0.52897,-0.66013 0.57526,-0.79373 0.0223,-0.065 0.0418,-0.0852 0.0827,-0.0852 0.045,0 0.0615,0.0241 0.10832,0.16153 0.15055,0.44225 0.21849,0.75441 0.23067,1.06143 0.01,0.23666 0.006,0.33163 -0.0273,0.44996 -0.0563,0.21746 -0.16543,0.43154 -0.28402,0.55838 -0.10758,0.11499 -0.1812,0.13899 -0.24149,0.0787 -0.0177,-0.0176 -0.0668,-0.19155 -0.10936,-0.3865 -0.0427,-0.19494 -0.0792,-0.35716 -0.0814,-0.3605 -0.006,-0.004 -0.0602,0.0186 -0.12882,0.0486 -0.0686,0.0301 -0.18179,0.0731 -0.25159,0.0957 -0.0698,0.0225 -0.13005,0.0437 -0.13396,0.0469 -0.006,0.003 0.008,0.0667 0.0268,0.1411 0.0711,0.28328 0.071,0.31999 -0.006,0.38817 -0.10149,0.0962 -0.41734,0.27566 -0.64383,0.36579 -0.22213,0.0884 -0.43839,0.14744 -0.81399,0.22212 -0.30688,0.061 -0.43384,0.0625 -0.45203,0.005 z m -0.43298,-0.63744 c 0.0841,-0.19547 0.0845,-0.1973 0.045,-0.19592 -0.0155,4.5e-4 -0.0722,0.0705 -0.12523,0.15538 -0.0707,0.11323 -0.0899,0.16217 -0.0722,0.1836 0.0474,0.057 0.079,0.0271 0.15214,-0.14306 z m 2.17253,0.014 0.0794,-0.067 -0.0428,-0.18736 c -0.0405,-0.17712 -0.077,-0.22746 -0.11745,-0.16195 -0.009,0.014 -0.0241,0.1018 -0.035,0.19514 -0.0109,0.0933 -0.0259,0.20762 -0.035,0.25392 -0.015,0.0777 -0.0123,0.0823 0.0273,0.0592 0.0241,-0.0137 0.0791,-0.0551 0.12272,-0.092 z m -1.46704,-0.5975 c 0.0182,-0.0603 0.0405,-0.12643 0.0486,-0.14701 0.01,-0.0231 0.006,-0.0426 -0.0209,-0.0512 -0.0509,-0.0196 -0.10495,0.006 -0.10613,0.0507 0,0.0209 -0.015,0.077 -0.0318,0.12475 -0.0273,0.0768 -0.0268,0.0894 0.006,0.1089 0.061,0.0356 0.0689,0.0291 0.10386,-0.0861 z m -3.35706,0.96337 c -0.007,-0.0575 -0.006,-0.0892 0.01,-0.21564 0.02,-0.16184 0.12828,-0.49968 0.15992,-0.49968 0.0118,0 0.0155,0.0182 0.007,0.0404 -0.0405,0.10474 -0.1044,0.42082 -0.10449,0.51729 0,0.0592 -0.006,0.12414 -0.0141,0.14422 -0.0155,0.0406 -0.0539,0.0494 -0.0581,0.0135 z m 7.22522,-0.10384 c 0,-0.0698 0.0109,-0.12691 0.0232,-0.12691 0.0132,0 0.0232,0.0571 0.0232,0.12691 0,0.0698 -0.0109,0.12691 -0.0232,0.12691 -0.0123,0 -0.0232,-0.0571 -0.0232,-0.12691 z m 0.36218,0.043 c -0.009,-0.009 -0.0159,-0.077 -0.0159,-0.15153 0,-0.0745 -0.0114,-0.2348 -0.025,-0.35614 -0.0137,-0.12134 -0.02,-0.22478 -0.0155,-0.22989 0.0182,-0.0186 0.088,0.32025 0.10153,0.49568 0.0132,0.16763 -0.008,0.27934 -0.0456,0.24188 z m -7.66934,-0.44098 c 0.0141,-0.13159 0.0974,-0.48756 0.1195,-0.50962 0.0327,-0.0322 0.0296,0.0319 -0.01,0.23998 -0.0236,0.1261 -0.0498,0.2682 -0.0581,0.31579 -0.025,0.14363 -0.0677,0.10544 -0.0515,-0.0462 z m 7.76024,0.0285 c -0.008,-0.0209 -0.015,-0.12285 -0.015,-0.22652 0,-0.10366 -0.0109,-0.25014 -0.0227,-0.3255 -0.025,-0.15303 -0.015,-0.19203 0.0236,-0.0912 0.0391,0.10224 0.0687,0.30354 0.07,0.47923 0.006,0.15694 -0.0273,0.23994 -0.0569,0.16395 z m 0.12322,-0.63998 c 0,-0.16815 -0.01,-0.34467 -0.0209,-0.39226 -0.0114,-0.0476 -0.0118,-0.0865 -0.006,-0.0865 0.0474,0 0.10795,0.50402 0.0819,0.67837 -0.03,0.20334 -0.0593,0.1074 -0.0599,-0.19957 z m -7.92548,0.20768 c 0.0309,-0.1498 0.0593,-0.24634 0.0765,-0.25704 0.01,-0.006 0.006,0.0662 -0.0173,0.16055 -0.0191,0.0943 -0.0437,0.17148 -0.0545,0.17148 -0.0109,0 -0.0132,-0.0338 -0.006,-0.075 z m -0.0545,-0.1673 c 0,-0.0254 0.015,-0.0877 0.0314,-0.13844 l 0.0314,-0.0923 -0.0132,0.0923 c -0.007,0.0508 -0.0214,0.11307 -0.0314,0.13844 l -0.0182,0.0462 z m 8.08886,-0.45634 c -0.007,-0.10436 -0.0195,-0.21571 -0.0268,-0.24743 -0.007,-0.0317 0.006,-0.0177 0.0214,0.0312 0.0446,0.11388 0.072,0.37318 0.0414,0.39195 -0.0141,0.009 -0.0277,-0.0601 -0.0364,-0.1757 z m -4.82187,-0.0924 c -0.0177,-0.0462 0.0414,-0.15384 0.27532,-0.50119 0.31094,-0.46194 0.45831,-0.66848 0.52311,-0.73325 l 0.0605,-0.0605 0.0598,0.0561 c 0.0327,0.0309 0.11759,0.14403 0.18839,0.25151 0.0708,0.10749 0.24059,0.31218 0.37737,0.45487 0.13682,0.14269 0.25582,0.28195 0.26455,0.30946 0.0405,0.12772 -0.0391,0.14034 -1.54866,0.24501 -0.15388,0.0107 -0.18921,0.007 -0.2003,-0.022 z m 1.10509,-0.14282 c 0.19093,-0.0313 0.36872,-0.0651 0.39514,-0.075 l 0.048,-0.018 -0.0498,-0.0621 c -0.0491,-0.0609 -0.0528,-0.0617 -0.2114,-0.0417 -0.0888,0.0112 -0.27569,0.0315 -0.41533,0.045 -0.53929,0.0522 -0.65184,0.074 -0.67775,0.1309 -0.0218,0.0476 -0.0173,0.053 0.0503,0.0614 0.22027,0.0275 0.53834,0.0126 0.861,-0.0403 z m -2.01389,-0.67389 c -0.0273,-0.005 -0.0557,-0.0245 -0.0622,-0.0419 -0.0155,-0.0395 0.50792,-1.05579 0.598,-1.16178 0.0296,-0.0348 0.11477,0.0512 0.20585,0.208 0.0681,0.11726 0.19412,0.27695 0.33726,0.42748 0.12573,0.13216 0.22854,0.25401 0.22854,0.27078 0,0.0548 -0.0551,0.0787 -0.37,0.16 -0.3575,0.0923 -0.82394,0.16073 -0.93749,0.13748 z m 1.0825,-0.26398 c 0.035,-0.0143 0.0634,-0.0336 0.0634,-0.043 0,-0.023 -0.14787,-0.21769 -0.26896,-0.35416 -0.0545,-0.0612 -0.14892,-0.18798 -0.21017,-0.28163 l -0.11132,-0.17029 -0.0551,0.10127 -0.0551,0.10128 0.0516,0.0419 c 0.0486,0.0395 0.21913,0.32827 0.3329,0.56352 0.0492,0.10115 0.0545,0.10533 0.12059,0.0867 0.0377,-0.0108 0.0978,-0.0313 0.13264,-0.0456 z m 1.14797,-0.15584 c -0.0684,-0.0207 -0.0681,-0.0693 0.006,-0.36071 0.025,-0.10152 0.0504,-0.29362 0.0569,-0.42688 0.0196,-0.40069 0.0273,-0.43842 0.0888,-0.43842 0.17793,0 1.16712,0.91443 1.16712,1.07885 0,0.0551 -0.0414,0.0748 -0.15765,0.0751 -0.0468,8e-5 -0.19889,0.0149 -0.33845,0.0329 -0.32271,0.0416 -0.74436,0.0618 -0.81921,0.0392 z m 0.66502,-0.11704 c 0.18175,-0.0237 0.33753,-0.0507 0.34617,-0.0598 0.0155,-0.0166 -0.44657,-10e-4 -0.78616,0.0268 -0.17965,0.0146 -0.23363,0.0433 -0.1154,0.0612 0.12736,0.0193 0.23149,0.014 0.55539,-0.0282 z m 0.39328,-0.19175 c -0.14787,-0.21162 -0.31385,-0.39806 -0.45312,-0.50916 -0.1958,-0.15613 -0.41984,-0.28479 -0.42234,-0.24246 -0.006,0.0168 -0.006,0.0493 -0.01,0.0722 -0.006,0.0266 0.0309,0.0759 0.0999,0.13651 0.0593,0.0522 0.21436,0.20387 0.34463,0.33704 0.23704,0.24235 0.27742,0.26726 0.45112,0.27825 0.0377,0.002 0.0373,-0.004 -0.0105,-0.0723 z m -0.966,4.06229 c 0,-0.0788 -0.0295,-0.0673 -0.0569,0.0219 -0.0114,0.0385 -0.006,0.0519 0.0209,0.0519 0.0255,0 0.0359,-0.0221 0.0359,-0.0738 z m -2.72282,-0.10657 c 0,-0.009 -0.0218,-0.0298 -0.0486,-0.0465 -0.0268,-0.0167 -0.0437,-0.0217 -0.0377,-0.0113 0.006,0.0104 0.0173,0.0379 0.0255,0.0609 0.0136,0.038 0.0614,0.0356 0.0614,-0.003 z m 0.0414,-4.6787 c 0.0545,-0.0181 0.13877,-0.0531 0.18711,-0.0778 0.0759,-0.0387 0.0898,-0.0582 0.10095,-0.14151 0.007,-0.0531 0.0295,-0.11323 0.0498,-0.13352 0.0337,-0.0338 0.0355,-0.0311 0.0241,0.032 -0.0191,0.10073 0.0587,0.21161 0.18852,0.269 0.2686,0.11881 0.65274,-0.004 0.95408,-0.3055 0.22454,-0.22452 0.32726,-0.45531 0.44608,-1.00218 0.006,-0.0276 0.0114,-0.016 0.0132,0.0293 0.006,0.0986 -0.0824,0.49291 -0.13823,0.63443 -0.0241,0.0611 -0.0436,0.11765 -0.0436,0.12575 0,0.0339 0.13141,-0.11203 0.28979,-0.32171 0.19389,-0.25681 0.30347,-0.4707 0.39319,-0.76769 0.0557,-0.18434 0.063,-0.24656 0.0646,-0.55379 0.006,-0.26726 -0.008,-0.38029 -0.0396,-0.49611 -0.0557,-0.20022 -0.17798,-0.44518 -0.29811,-0.59696 l -0.0981,-0.12393 -0.24736,-0.006 -0.2475,-0.006 0.0545,0.0953 c 0.0705,0.12344 0.13432,0.3222 0.12481,0.389 -0.006,0.0377 -0.0232,0.0102 -0.0624,-0.0975 -0.10072,-0.27481 -0.22281,-0.39886 -0.44653,-0.45369 -0.19134,-0.0469 -0.48995,-0.19134 -0.61113,-0.2956 -0.0764,-0.0658 -0.10627,-0.079 -0.13874,-0.0617 -0.0704,0.0377 -0.12277,0.10932 -0.18243,0.24938 l -0.0575,0.13469 0.0118,-0.13845 c 0.006,-0.0761 0.0182,-0.15921 0.0255,-0.1846 0.0114,-0.0397 -0.007,-0.0533 -0.13386,-0.0974 -0.13014,-0.0451 -0.16479,-0.0484 -0.29366,-0.0276 -0.45949,0.074 -0.93066,0.40287 -1.13114,0.78955 -0.12255,0.23627 -0.11082,0.15998 0.0141,-0.0927 0.15292,-0.309 0.39642,-0.55759 0.68134,-0.6955 0.10764,-0.0521 0.22904,-0.10138 0.26979,-0.10954 0.0409,-0.008 0.0742,-0.0252 0.0742,-0.038 0,-0.0248 -0.28902,-0.007 -0.49609,0.0306 -0.1627,0.0295 -0.51679,0.20989 -0.68198,0.34736 -0.26965,0.22444 -0.61437,0.70019 -0.75901,1.04783 -0.12946,0.31094 -0.17047,0.51787 -0.16893,0.85294 0.006,0.18915 0.0132,0.33833 0.0337,0.4038 l 0.0327,0.10383 0.0899,-0.25199 c 0.0491,-0.1386 0.0933,-0.2417 0.0975,-0.22912 0.006,0.0126 -0.0341,0.14448 -0.0855,0.29311 l -0.0932,0.27023 0.0857,0.17811 c 0.15247,0.31649 0.58258,0.68008 0.8666,0.73254 l 0.0863,0.016 -0.0498,-0.11213 c -0.0337,-0.0762 -0.0527,-0.17138 -0.0574,-0.29675 l -0.008,-0.18459 0.035,0.12432 c 0.11423,0.40417 0.41861,0.71233 0.77693,0.78654 0.12327,0.0256 0.36659,0.008 0.49891,-0.0359 z m -1.57354,-0.48456 c -0.0209,-0.0543 -0.0173,-0.16663 0.006,-0.18097 0.02,-0.0124 0.0492,0.0905 0.0492,0.17421 0,0.0527 -0.0359,0.0571 -0.0551,0.007 z m -0.20731,-0.13745 c -0.0332,-0.086 -0.006,-0.35677 0.0368,-0.35677 0.02,0 0.007,0.36488 -0.0136,0.38582 -0.006,0.005 -0.015,-0.008 -0.0232,-0.029 z m 1.85928,-0.12454 c -0.0423,-0.0105 -0.0812,-0.0242 -0.0873,-0.0303 -0.006,-0.006 0.006,-0.0854 0.0159,-0.17614 0.015,-0.0908 0.0214,-0.17097 0.0141,-0.17822 -0.007,-0.007 -0.0557,-0.0228 -0.10818,-0.0346 -0.12195,-0.0274 -0.16961,-0.001 -0.21721,0.11707 -0.0527,0.13203 -0.1014,0.1214 -0.28738,-0.0628 -0.24741,-0.24517 -0.56821,-0.77849 -0.59682,-0.99249 -0.0177,-0.13358 0.0241,-0.12918 0.19349,0.0203 0.20225,0.17832 0.27396,0.21783 0.53606,0.29531 0.27428,0.0811 0.42575,0.0888 0.68648,0.0349 0.10404,-0.0215 0.18357,-0.0277 0.19594,-0.0153 0.0114,0.0114 0.0291,0.0747 0.0396,0.14049 0.01,0.0658 0.0232,0.12406 0.0282,0.12941 0.006,0.005 0.0857,-0.0174 0.17852,-0.0504 l 0.16879,-0.0601 -0.0155,-0.10342 c -0.008,-0.0569 -0.0273,-0.12234 -0.0418,-0.14544 -0.0223,-0.0364 0.006,-0.069 0.18185,-0.24467 0.11445,-0.11145 0.25036,-0.25197 0.30188,-0.31225 0.0967,-0.11293 0.11372,-0.12224 0.16452,-0.09 0.0457,0.029 0.0813,0.31499 0.0671,0.53765 -0.0191,0.2914 -0.083,0.37073 -0.17489,0.21519 l -0.048,-0.0813 -0.0833,0.0922 -0.0833,0.0922 0.0741,0.12954 c 0.0859,0.15022 0.0823,0.16794 -0.0697,0.3397 -0.27074,0.30593 -0.74741,0.50576 -1.03402,0.4335 z m 0.53811,-0.16516 c 0.0693,-0.0259 0.17507,-0.0801 0.23513,-0.12054 0.11214,-0.0754 0.29002,-0.28672 0.26933,-0.32012 -0.0241,-0.0392 -0.0735,-0.0152 -0.18152,0.0884 -0.0637,0.0609 -0.18225,0.13916 -0.27533,0.1815 -0.18934,0.0862 -0.45676,0.16174 -0.50582,0.14292 -0.035,-0.0135 -0.0694,0.06 -0.0414,0.0889 0.0273,0.0286 0.373,-0.0136 0.49986,-0.061 z m -1.0432,-0.22679 c -0.006,-0.0244 -0.0703,-0.082 -0.14206,-0.1281 l -0.13045,-0.0837 0.13805,0.12808 c 0.0759,0.0704 0.13982,0.12809 0.14201,0.12809 0.006,0 -0.006,-0.02 -0.008,-0.0444 z m 0.0778,-0.0754 c -0.007,-0.0184 -0.0132,-0.013 -0.0141,0.014 -0.006,0.0243 0.006,0.038 0.0123,0.0303 0.008,-0.008 0.008,-0.0276 0.006,-0.0442 z m 0.37655,-0.005 c 0,-0.0641 -0.0373,-0.0827 -0.16593,-0.0827 -0.1,0 -0.13528,0.008 -0.12845,0.0289 0.01,0.0306 0.29438,0.0826 0.29438,0.0538 z m 1.10759,-0.25234 c 0,-0.0359 -0.10281,-0.15336 -0.13419,-0.15336 -0.0327,0 -0.006,0.1236 0.0373,0.15575 0.048,0.038 0.0967,0.0367 0.0967,-0.002 z m -0.0259,-0.30694 c 0.0617,-0.0838 0.0712,-0.10977 0.0462,-0.12566 -0.0551,-0.0349 -0.0761,-0.0219 -0.14255,0.0874 -0.0503,0.0832 -0.0581,0.1109 -0.0346,0.12583 0.0446,0.0283 0.0468,0.027 0.131,-0.0876 z m 0.27824,-0.38291 c 0.006,-0.12373 -0.008,-0.22497 -0.0191,-0.22497 -0.0909,0 -0.12991,0.32758 -0.0545,0.45883 0.0557,0.0975 0.0713,0.0484 0.0733,-0.23386 z m -3.34419,1.32107 c 0,-0.11228 0.0427,-0.30191 0.0755,-0.33462 0.0155,-0.0154 0.0177,-0.004 0.007,0.0346 -0.009,0.0317 -0.0218,0.12803 -0.0291,0.21401 -0.015,0.1731 -0.0533,0.23542 -0.0533,0.086 z m -0.12214,-0.10772 c -0.0296,-0.0477 0.0841,-0.51534 0.12514,-0.51534 0.01,0 0.007,0.0301 -0.006,0.0668 -0.0132,0.0367 -0.0414,0.15852 -0.0634,0.27063 -0.0218,0.1121 -0.0474,0.19215 -0.0563,0.1779 z m -0.17784,-0.71479 c 0,-0.0965 0.16679,-0.44665 0.21281,-0.44665 0.0159,0 0.0159,0.009 0,0.0289 -0.0132,0.0159 -0.0569,0.11192 -0.0969,0.21345 -0.0697,0.17643 -0.11563,0.25758 -0.11563,0.20436 z m 0.0587,-0.40626 c 0.0327,-0.10873 0.1722,-0.31765 0.1722,-0.25741 0,0.0245 -0.16183,0.30932 -0.1757,0.30932 -0.006,0 -0.006,-0.0233 0.006,-0.0519 z m 2.18781,-0.12165 c -0.01,-0.025 0.006,-0.0706 0.0255,-0.11299 0.12842,-0.21768 0.19676,-0.34325 0.19676,-0.36175 0,-0.0478 0.0456,-0.0107 0.21653,0.17598 0.10764,0.11764 0.17511,0.20991 0.16766,0.22931 -0.0177,0.0463 -0.15665,0.081 -0.38942,0.0972 -0.1807,0.0126 -0.20298,0.01 -0.21735,-0.0278 z m 0.46013,-0.12435 c 0.0359,-0.0352 -0.0432,-0.0632 -0.15138,-0.0534 -0.0808,0.007 -0.11686,0.0225 -0.13528,0.057 -0.0241,0.0458 -0.0214,0.0466 0.12159,0.0307 0.0808,-0.009 0.15502,-0.0244 0.16507,-0.0342 z m -1.05339,-0.19243 c -0.0759,-0.1003 -0.33781,-0.57388 -0.33781,-0.61094 0,-0.0391 0.12118,-0.0378 0.30429,0.004 0.0802,0.018 0.21163,0.0399 0.29225,0.0487 l 0.14655,0.016 -0.0141,0.0725 c -0.0273,0.14 -0.26033,0.54549 -0.31376,0.54549 -0.0114,0 -0.0462,-0.0338 -0.0776,-0.075 z m 0.22567,-0.27061 c 0.0456,-0.0865 0.0826,-0.16351 0.0826,-0.17117 0,-0.0407 -0.089,-0.007 -0.10059,0.038 -0.007,0.0285 -0.0498,0.10669 -0.0938,0.17364 -0.045,0.0683 -0.0747,0.1371 -0.0671,0.15675 0.0209,0.0546 0.0819,-0.0125 0.17898,-0.19721 z m 0.98436,-0.0182 c -0.0815,-0.0447 -0.19439,-0.12756 -0.25086,-0.18401 -0.0864,-0.0865 -0.0977,-0.10751 -0.071,-0.13342 0.0173,-0.017 0.16661,-0.0894 0.33158,-0.16107 0.16492,-0.0717 0.33449,-0.15161 0.37664,-0.17766 0.045,-0.0278 0.0852,-0.0389 0.0973,-0.0267 0.0218,0.0219 -0.24709,0.72215 -0.28879,0.75209 -0.0309,0.0221 -0.0241,0.0246 -0.19485,-0.0692 z m 0.24669,-0.29415 c 0.133,-0.26736 0.143,-0.30174 0.0778,-0.26687 -0.0236,0.0126 -0.0847,0.11025 -0.13591,0.217 -0.11877,0.24761 -0.13319,0.29244 -0.0935,0.29244 0.0173,0 0.0853,-0.10916 0.15156,-0.24257 z m 4.36639,2.02763 c 0.17825,-0.0852 0.27233,-0.17343 0.40888,-0.38354 0.1295,-0.19934 0.16765,-0.29163 0.20053,-0.48516 0.015,-0.0861 0.0368,-0.15362 0.0491,-0.14998 0.0123,0.004 0.0196,0.0783 0.0164,0.16814 l -0.006,0.16152 0.12741,-0.19613 c 0.14078,-0.21662 0.1963,-0.34786 0.27806,-0.65763 0.20516,-0.77715 0.0346,-1.70772 -0.40042,-2.18143 -0.14256,-0.15535 -0.36814,-0.30607 -0.51951,-0.3471 -0.0848,-0.023 -0.0924,-0.0202 -0.18985,0.0697 -0.0557,0.0515 -0.14273,0.11008 -0.19293,0.13019 -0.0694,0.0278 -0.11455,0.072 -0.18716,0.18352 -0.0528,0.0808 -0.1476,0.19957 -0.2109,0.2639 l -0.11513,0.11697 0.10558,0.18305 c 0.11723,0.20321 0.13623,0.25884 0.0468,0.13776 -0.0645,-0.0876 -0.21617,-0.22946 -0.24532,-0.22946 -0.01,0 -0.0684,0.0306 -0.12927,0.0681 -0.1657,0.10198 -0.41425,0.20153 -0.57617,0.23082 -0.15469,0.028 -0.28574,0.007 -0.39042,-0.0612 -0.0295,-0.0194 -0.0539,-0.0303 -0.0539,-0.0241 0,0.006 -0.0155,0.0982 -0.0332,0.20456 -0.0678,0.39052 -0.0861,0.69372 -0.0595,0.98181 0.035,0.37558 0.0633,0.54813 0.11923,0.71867 0.0462,0.14129 0.0468,0.21347 0.006,0.12742 -0.0522,-0.0974 -0.21176,-0.60744 -0.23386,-0.74614 -0.0462,-0.2895 -0.0277,-0.86888 0.035,-1.1182 l 0.0173,-0.0683 -0.10554,0.0914 c -0.0978,0.0847 -0.10185,0.0925 -0.0557,0.10638 0.0273,0.008 0.0377,0.0161 0.0241,0.0173 -0.0141,10e-4 -0.10513,0.054 -0.20198,0.1172 -0.11896,0.0777 -0.17598,0.10385 -0.17598,0.0808 0,-0.0424 -0.025,-0.0434 -0.0799,-0.003 -0.0295,0.0218 -0.045,0.0686 -0.0516,0.15575 -0.0141,0.19319 0.0114,0.20575 0.16297,0.082 0.0712,-0.058 0.15037,-0.11663 0.17593,-0.13029 0.0807,-0.0432 0.0503,0.014 -0.0414,0.0775 -0.14119,0.0979 -0.23636,0.20632 -0.21353,0.24332 0.0159,0.0258 0.0373,0.0177 0.10817,-0.0405 0.13596,-0.11206 0.17407,-0.0873 0.0474,0.0307 -0.0611,0.0569 -0.10681,0.11144 -0.10153,0.12114 0.006,0.01 0.0164,0.0374 0.0255,0.0617 0.015,0.0411 0.0209,0.0395 0.0843,-0.0216 0.0829,-0.0793 0.0929,-0.0331 0.0109,0.0491 -0.0446,0.0442 -0.0545,0.072 -0.0428,0.11798 0.0141,0.0554 0.0173,0.0569 0.045,0.0195 0.0164,-0.0223 0.0427,-0.0363 0.0587,-0.031 0.02,0.007 0.0132,0.0256 -0.0218,0.0603 -0.048,0.0483 -0.0492,0.0585 -0.0241,0.21777 0.0155,0.10102 0.0209,0.28289 0.0123,0.45987 -0.0132,0.28569 -0.0123,0.29545 0.0474,0.40381 0.0848,0.15407 0.34294,0.40326 0.493,0.476 0.15387,0.0746 0.35454,0.12824 0.55056,0.14729 l 0.14879,0.0145 -0.10168,-0.11798 c -0.10408,-0.12085 -0.21494,-0.30504 -0.19534,-0.32462 0.006,-0.006 0.0498,0.0301 0.0975,0.0801 0.16206,0.17036 0.38651,0.30173 0.64447,0.37725 0.12305,0.036 0.21281,0.0448 0.41124,0.0403 0.23,-0.005 0.26788,-0.0125 0.40384,-0.0774 z m -0.97491,-0.62437 c -0.0593,-0.0152 -0.0497,-0.0661 0.0427,-0.23195 0.0456,-0.0818 0.0743,-0.15603 0.0635,-0.16502 -0.0109,-0.009 -0.0563,-0.0431 -0.10099,-0.0757 l -0.0813,-0.0594 -0.0644,0.13706 c -0.0861,0.18329 -0.13973,0.17963 -0.21776,-0.0149 -0.03,-0.0757 -0.0944,-0.19508 -0.14232,-0.26536 -0.24787,-0.3635 -0.27101,-0.44368 -0.15088,-0.5224 0.0628,-0.0411 0.064,-0.0406 0.22654,0.0888 0.0563,0.0446 0.0907,0.0516 0.24232,0.0489 0.0973,-0.002 0.24877,-0.0201 0.33662,-0.041 0.10263,-0.0243 0.16779,-0.0299 0.18207,-0.0156 0.0141,0.0143 0,0.0818 -0.0391,0.18858 l -0.0616,0.16633 0.17957,-0.0152 c 0.24745,-0.0209 0.31916,-0.0432 0.3133,-0.0976 -0.006,-0.0242 -0.0114,-0.1016 -0.02,-0.17209 l -0.015,-0.12815 0.13837,-0.0737 c 0.0761,-0.0406 0.1446,-0.0738 0.15215,-0.0738 0.008,0 0.0255,0.0467 0.0396,0.10383 0.0286,0.11261 0.0446,0.11982 0.16211,0.0726 0.0427,-0.0172 0.0963,-0.0377 0.11886,-0.0457 0.0391,-0.0137 0.0387,-0.0194 -0.006,-0.10633 -0.0255,-0.0505 -0.0468,-0.10108 -0.0468,-0.1124 0,-0.0113 0.0634,-0.0922 0.14096,-0.17974 0.0775,-0.0875 0.17193,-0.2039 0.20971,-0.25856 0.13769,-0.19906 0.21326,-0.0591 0.19694,0.36474 -0.0123,0.32391 -0.069,0.50948 -0.23054,0.75684 -0.11204,0.17161 -0.32899,0.41996 -0.36682,0.41996 -0.0109,0 -0.0462,-0.0592 -0.0782,-0.13153 -0.0318,-0.0723 -0.0617,-0.13507 -0.0661,-0.13941 -0.006,-0.004 -0.0509,0.009 -0.10331,0.0303 l -0.0955,0.0382 0.0118,0.13633 c 0.007,0.075 0.006,0.15482 -0.01,0.17743 -0.0368,0.0684 -0.23827,0.16334 -0.37332,0.17578 -0.23377,0.0215 -0.44785,0.0302 -0.48846,0.0198 z m 0.7697,-0.27959 c 0.0114,-0.0294 0.0209,-0.085 0.0209,-0.12361 0,-0.0578 -0.007,-0.0673 -0.0405,-0.0536 -0.0223,0.009 -0.0587,0.0219 -0.0807,0.0282 -0.0223,0.006 -0.0405,0.0338 -0.0409,0.0608 0,0.0271 -0.007,0.0897 -0.0155,0.13917 l -0.015,0.09 0.0752,-0.0438 c 0.0414,-0.0241 0.0845,-0.0678 0.0959,-0.0972 z m 0.63687,-0.34706 c 0.1155,-0.13494 0.21867,-0.33208 0.27342,-0.52222 0.0396,-0.13803 0.0575,-0.61808 0.0241,-0.65137 -0.008,-0.008 -0.0332,0.01 -0.0545,0.041 -0.0318,0.0455 -0.0377,0.0984 -0.0327,0.2755 0.0109,0.34928 -0.0843,0.62146 -0.30147,0.86509 -0.0603,0.0676 -0.10968,0.13453 -0.10968,0.14866 0,0.0415 0.0943,-0.032 0.20094,-0.15667 z m -1.19772,-0.28763 c 0.0373,-0.10278 0.0364,-0.10797 -0.0255,-0.10797 -0.0391,0 -0.0603,0.0201 -0.0808,0.0766 -0.0373,0.10277 -0.0364,0.10796 0.0255,0.10796 0.0391,0 0.0602,-0.0201 0.0808,-0.0766 z m 0.74969,-0.24641 c -0.0136,-0.0518 -0.0259,-0.0555 -0.0759,-0.0227 -0.0309,0.0202 -0.0309,0.0252 0,0.0454 0.0562,0.037 0.0889,0.0272 0.0759,-0.0227 z m -2.45264,0.20767 c 0,-0.0127 0.0105,-0.0231 0.0232,-0.0231 0.0123,0 0.0232,0.0104 0.0232,0.0231 0,0.0127 -0.0109,0.0231 -0.0232,0.0231 -0.0132,0 -0.0232,-0.0104 -0.0232,-0.0231 z m 1.68444,-0.38925 c 0,-0.0237 0.0268,-0.11977 0.0587,-0.21344 0.0674,-0.19588 0.0949,-0.29639 0.11427,-0.41836 0.01,-0.0622 0.025,-0.0865 0.0545,-0.0865 0.0227,0 0.20631,0.0366 0.40856,0.0813 0.20221,0.0447 0.39101,0.0865 0.41957,0.0927 0.0282,0.006 0.0521,0.0254 0.0521,0.0426 0,0.056 -0.97314,0.54486 -1.08459,0.54486 -0.0123,0 -0.0232,-0.0194 -0.0232,-0.0431 z m 0.42434,-0.19507 c 0.15365,-0.0802 0.33094,-0.17815 0.39392,-0.21756 0.11391,-0.0714 0.11414,-0.0717 0.0509,-0.0875 -0.0491,-0.0123 -0.1175,0.0106 -0.30898,0.10397 -0.29565,0.14407 -0.43502,0.23665 -0.45153,0.29993 -0.006,0.0259 -0.006,0.047 0.0118,0.047 0.0132,0 0.14992,-0.0657 0.30357,-0.1459 z m -1.0773,-0.0958 c -0.1878,-0.0156 -0.35163,-0.0384 -0.36396,-0.0508 -0.0236,-0.0236 0.12337,-0.23828 0.16311,-0.23828 0.0114,0 0.069,-0.0675 0.12791,-0.15007 l 0.10713,-0.15007 0.0729,0.051 c 0.23254,0.16258 0.34781,0.29251 0.40383,0.45531 0.0446,0.12987 0.0486,0.12922 -0.51087,0.0829 z m 0.39919,-0.094 c 0,-0.0686 -0.0689,-0.16802 -0.18934,-0.27343 -0.12937,-0.11311 -0.15915,-0.12431 -0.20003,-0.0751 -0.02,0.0243 -0.006,0.0513 0.0847,0.12422 0.0608,0.0512 0.13595,0.13062 0.16719,0.17642 0.0574,0.0849 0.13751,0.11259 0.13751,0.0479 z m -1.7306,0.0399 c 0,-0.0343 0.15029,-0.13996 0.29025,-0.20403 0.15274,-0.0699 0.19589,-0.056 0.0521,0.0169 -0.0551,0.028 -0.14183,0.0789 -0.19257,0.11306 -0.13419,0.0903 -0.14997,0.0981 -0.14997,0.0741 z m 2.4099,-0.63392 c -0.006,-0.0164 0.006,-0.0748 0.0236,-0.12981 0.0195,-0.055 0.0355,-0.11461 0.0355,-0.13254 0,-0.0387 0.16256,-0.40001 0.17997,-0.40001 0.006,0 0.07,0.044 0.14101,0.0979 0.0709,0.0539 0.18875,0.13668 0.26164,0.1841 0.073,0.0474 0.13274,0.10108 0.13274,0.11929 0,0.0317 -0.15934,0.1017 -0.53611,0.23572 -0.1768,0.0629 -0.22204,0.0677 -0.23827,0.0254 z m 0.61004,-0.24478 c 0.025,-0.0156 0.0105,-0.0392 -0.0613,-0.10416 -0.10632,-0.0961 -0.25123,-0.19805 -0.28152,-0.19805 -0.0114,0 -0.0273,0.0219 -0.0364,0.0487 -0.0191,0.0592 0.0168,0.098 0.18043,0.19756 0.13196,0.0803 0.15129,0.0857 0.19835,0.0559 z m -3.23915,0.58728 c 0.29283,-0.0666 0.56107,-0.19136 0.78815,-0.36668 0.13351,-0.10305 0.1476,-0.12167 0.1331,-0.17485 -0.035,-0.12754 -0.048,-0.25921 -0.0377,-0.38167 0.0114,-0.13679 0.051,-0.17768 0.051,-0.0528 0,0.19222 0.10977,0.40289 0.24181,0.46556 0.10591,0.0502 0.34441,0.0462 0.52279,-0.009 0.4051,-0.1252 0.75874,-0.50692 0.96586,-1.04264 0.1144,-0.29589 0.20062,-0.85768 0.1782,-1.16183 -0.009,-0.11908 -0.006,-0.14333 0.01,-0.0923 0.0327,0.1063 0.0327,0.90349 0,1.03565 -0.0155,0.062 -0.0232,0.1171 -0.0182,0.12251 0.0177,0.0179 0.14733,-0.23235 0.20758,-0.40128 0.12009,-0.33695 0.16292,-0.64149 0.16319,-1.16069 0,-0.51939 -0.0255,-0.70851 -0.14769,-1.08257 -0.1732,-0.53014 -0.55097,-1.08042 -0.88428,-1.28825 -0.2847,-0.17754 -0.52419,-0.26544 -0.92307,-0.3388 l -0.20303,-0.0373 -0.38546,0.19162 c -0.38291,0.1904 -0.83526,0.44715 -0.83526,0.47415 0,0.008 0.0355,0.0976 0.0786,0.19966 0.0432,0.10206 0.0856,0.22189 0.0941,0.26631 0.0141,0.0723 0.006,0.0651 -0.0767,-0.0692 -0.051,-0.0825 -0.12437,-0.1939 -0.16366,-0.24757 l -0.0714,-0.0976 -0.11591,0.0457 c -0.15928,0.0628 -0.21662,0.058 -0.40901,-0.0342 -0.0916,-0.0439 -0.16666,-0.0751 -0.16666,-0.0693 0,0.006 0.0364,0.0612 0.0808,0.123 0.0844,0.11747 0.10058,0.18892 0.0521,0.22858 -0.0159,0.0129 -0.19357,0.0719 -0.39492,0.13115 -0.20134,0.0592 -0.45053,0.14696 -0.55379,0.19497 l -0.18771,0.0873 -0.10918,0.27916 c -0.1772,0.45308 -0.20603,0.57642 -0.22267,0.95094 l -0.015,0.33459 -0.0346,-0.17306 c -0.0214,-0.1077 -0.0332,-0.29508 -0.0327,-0.49611 0.006,-0.29465 0.008,-0.34079 0.0706,-0.52494 0.0378,-0.11105 0.0675,-0.20191 0.0662,-0.20191 -0.006,0 -0.12141,0.0526 -0.26679,0.11689 -0.14537,0.0643 -0.32834,0.13758 -0.40651,0.16287 l -0.14219,0.046 -0.0355,0.16594 c -0.16583,0.77842 -0.19211,1.30905 -0.0884,1.78117 0.0581,0.2634 0.15023,0.51048 0.15956,0.42688 0.0209,-0.18489 0.10822,-0.48261 0.13446,-0.45641 0.006,0.005 -0.01,0.0923 -0.0341,0.19286 -0.0843,0.34909 -0.0817,0.39635 0.0318,0.58951 0.13232,0.22475 0.36496,0.49209 0.53979,0.62039 0.14083,0.10333 0.51383,0.32755 0.52547,0.3159 0.006,-0.004 -0.0545,-0.12742 -0.12891,-0.27563 -0.13719,-0.27391 -0.16911,-0.39189 -0.1968,-0.72703 -0.015,-0.18083 0.0155,-0.18797 0.0492,-0.0115 0.0634,0.33295 0.29288,0.73235 0.56635,0.98558 0.28965,0.26819 0.5823,0.43743 0.86113,0.49798 0.13965,0.0303 0.43216,0.007 0.71531,-0.0576 z m -2.19114,-0.68747 c -0.0232,-0.0331 -0.0273,-0.0548 -0.0114,-0.0601 0.0327,-0.0109 0.1169,0.066 0.10094,0.0919 -0.0209,0.0335 -0.0515,0.0226 -0.0894,-0.0318 z m -0.17547,-0.15153 c -0.0287,-0.0957 -0.0118,-0.23489 0.0241,-0.19804 0.0237,0.0244 0.0387,0.2554 0.0182,0.27618 -0.008,0.008 -0.0268,-0.0273 -0.0418,-0.0781 z m -0.16392,-0.0543 c -0.0373,-0.0655 -0.0414,-0.42175 -0.006,-0.45791 0.0177,-0.0178 0.0291,0.0486 0.0396,0.23407 0.008,0.14245 0.0109,0.26322 0.006,0.26837 -0.006,0.005 -0.0232,-0.0149 -0.0405,-0.0446 z m 2.32281,-0.238 c -0.45699,-0.0731 -0.71285,-0.25298 -0.96154,-0.67583 -0.47963,-0.81551 -0.52192,-0.90527 -0.42702,-0.90527 0.0177,0 0.0972,0.0733 0.17684,0.16292 0.255,0.28698 0.54652,0.43262 0.80193,0.40071 0.13496,-0.0168 0.35973,-0.13747 0.42907,-0.23015 0.0551,-0.0741 0.11154,-0.0717 0.1597,0.007 0.0815,0.13281 0.0745,0.1285 0.14796,0.0905 0.058,-0.0301 0.39228,-0.11621 0.68444,-0.17638 0.0486,-0.01 0.0984,-0.0282 0.11077,-0.0406 0.0123,-0.0123 0.051,-0.10357 0.0866,-0.20281 l 0.0642,-0.18043 0.13073,-0.0307 c 0.0718,-0.0169 0.19048,-0.0447 0.26346,-0.0617 l 0.13264,-0.0311 0.035,-0.16735 c 0.0396,-0.18808 0.0704,-0.22257 0.21936,-0.2449 0.11763,-0.0177 0.12627,-0.0427 0.12627,-0.36637 0,-0.32298 0.0773,-0.38122 0.20426,-0.15393 0.0923,0.1651 0.11823,0.31199 0.11836,0.67158 0,0.34199 -0.0405,0.67922 -0.10654,0.88837 -0.0757,0.23906 -0.29493,0.58288 -0.42334,0.66421 l -0.0651,0.0412 -0.1079,-0.16233 c -0.0663,-0.0999 -0.12377,-0.16233 -0.14901,-0.16233 -0.0601,0 -0.57621,0.16023 -0.67066,0.20819 l -0.0807,0.041 0.008,0.23143 0.008,0.23143 -0.0772,0.0697 c -0.131,0.11834 -0.43434,0.14874 -0.83867,0.084 z m 0.66425,-0.14369 0.11049,-0.0396 -0.006,-0.1855 c -0.006,-0.18271 -0.007,-0.18541 -0.0643,-0.17902 -0.14837,0.0167 -0.14746,0.0156 -0.19816,0.23494 l -0.0486,0.20853 0.0486,1.3e-4 c 0.0268,7e-5 0.0979,-0.0177 0.15865,-0.0395 z m 1.38829,-0.68087 c 0.1616,-0.18879 0.27282,-0.50785 0.36081,-1.03478 0.045,-0.27032 0.048,-0.32743 0.0237,-0.48035 -0.015,-0.0955 -0.0545,-0.23121 -0.0878,-0.30166 l -0.0607,-0.1281 -0.0286,0.16152 c -0.0164,0.0944 -0.0236,0.25743 -0.0164,0.39227 0.0218,0.44099 -0.0921,0.96691 -0.27629,1.27222 -0.0725,0.12015 -0.0848,0.15631 -0.0627,0.18292 0.0409,0.0492 0.0563,0.0425 0.14765,-0.064 z m -4.56342,0.8206 c -0.0396,-0.0397 0.006,-0.44871 0.0551,-0.50192 0.0232,-0.0247 0,0.47423 -0.0232,0.50001 -0.009,0.01 -0.0232,0.0106 -0.0314,0.002 z m -0.16293,-0.2051 c -0.0355,-0.092 0.0109,-0.40476 0.0751,-0.50676 0.0255,-0.0406 0.0273,-0.0364 0.0141,0.0346 -0.008,0.0444 -0.0218,0.17088 -0.0309,0.28102 -0.0155,0.20378 -0.0327,0.25837 -0.058,0.19112 z m -0.25918,-0.67981 c 0.007,-0.11841 0.0983,-0.40803 0.12113,-0.38518 0.009,0.009 -0.035,0.18825 -0.10536,0.43133 -0.0218,0.075 -0.0232,0.0718 -0.0155,-0.0462 z m -0.0678,-0.28843 c 0.0159,-0.0888 0.0807,-0.25115 0.0948,-0.23715 0.0118,0.0117 -0.0702,0.29076 -0.0913,0.31057 -0.0114,0.0106 -0.0123,-0.0215 -0.006,-0.0734 z m 3.78336,-0.44419 c -0.0141,-0.0773 -0.0762,-0.25959 -0.0886,-0.25959 -0.0191,0 -0.67279,0.21268 -0.74077,0.24109 -0.0474,0.0197 -0.10004,0.0358 -0.1175,0.0358 -0.10449,0 0.0521,-0.2862 0.56139,-1.02683 0.14983,-0.21776 0.18866,-0.22193 0.37082,-0.0397 0.21326,0.21328 0.49232,0.57135 0.47686,0.61179 -0.0177,0.0464 -0.10277,0.0784 -0.29284,0.11033 l -0.15569,0.0262 0.015,0.19377 c 0.0155,0.19959 -0.006,0.26029 -0.0287,0.10725 z m 0.26742,-0.52106 c 0,-0.0723 -0.42698,-0.52306 -0.49546,-0.52306 -0.0364,0 -0.13473,0.10619 -0.12427,0.13421 0.006,0.0121 0.10058,0.12611 0.21339,0.25317 l 0.20508,0.23103 0.10063,-0.0373 c 0.0551,-0.0205 0.10063,-0.0466 0.10063,-0.0581 z m -2.39876,0.21643 c -0.0291,-0.0183 -0.025,-0.0593 0.0286,-0.29385 0.0341,-0.14992 0.0787,-0.38162 0.099,-0.51487 0.0486,-0.31932 0.12504,-0.62434 0.16028,-0.63786 0.0557,-0.0215 0.1743,0.0537 0.46627,0.29606 0.37555,0.31182 0.54293,0.48604 0.53297,0.55491 -0.006,0.0422 -0.0772,0.0811 -0.41116,0.22506 -0.22208,0.0957 -0.49459,0.22319 -0.60549,0.28327 -0.21799,0.11809 -0.2204,0.11887 -0.27033,0.0873 z m 0.35068,-0.23708 c 0.16019,-0.0712 0.47545,-0.23688 0.59163,-0.31092 0.0747,-0.0476 0.0282,-0.0753 -0.12732,-0.0758 -0.10086,-3.5e-4 -0.15742,0.0203 -0.37964,0.13817 -0.14369,0.0762 -0.26833,0.14628 -0.27715,0.15576 -0.009,0.009 -0.0232,0.051 -0.0314,0.0922 -0.0209,0.0972 0.006,0.0973 0.22418,3.5e-4 z m 0.66361,-0.47781 c 0,-0.056 -0.37323,-0.41075 -0.51496,-0.48941 -0.0833,-0.0462 -0.15729,-0.0783 -0.16438,-0.0711 -0.0309,0.031 -0.008,0.0921 0.0427,0.11532 0.03,0.0139 0.0847,0.0649 0.12059,0.1133 0.0359,0.0485 0.0993,0.12892 0.14092,0.1788 0.0414,0.0499 0.0755,0.10352 0.0755,0.11922 0,0.0157 0.0132,0.0338 0.0291,0.0401 0.0521,0.0209 0.27115,0.0158 0.27115,-0.006 z m 1.26019,-0.15877 c -0.006,-0.0104 -0.006,-0.14792 0.0105,-0.30574 0.0123,-0.15782 0.0296,-0.40635 0.0391,-0.5523 l 0.0173,-0.26537 0.0693,0.007 c 0.0377,0.004 0.20799,0.0744 0.37773,0.1563 0.1697,0.0819 0.36177,0.17103 0.42689,0.19807 0.13641,0.0567 0.21162,0.11846 0.18897,0.15518 -0.0373,0.0605 -0.32316,0.22886 -0.67111,0.39543 -0.20617,0.0987 -0.38191,0.19078 -0.39042,0.20463 -0.0182,0.0297 -0.0516,0.0328 -0.0679,0.006 z m 0.86883,-0.54737 c 0.0474,-0.0322 0.0861,-0.0668 0.0861,-0.0769 0,-0.0306 -0.31175,-0.19148 -0.56708,-0.29272 l -0.24054,-0.0953 v 0.0973 c 0,0.0903 0.006,0.0983 0.0712,0.11156 0.0736,0.0147 0.49177,0.25039 0.51715,0.29142 0.0209,0.0339 0.0377,0.0295 0.13314,-0.0354 z m 0.60108,0.10388 c -0.045,-0.16969 -0.20412,-0.38613 -0.51305,-0.69783 -0.1607,-0.16215 -0.2762,-0.28873 -0.25664,-0.28129 0.24559,0.0934 0.59431,0.39256 0.69867,0.59932 0.066,0.13065 0.11858,0.34119 0.10644,0.42594 -0.006,0.046 -0.0132,0.0372 -0.0355,-0.0462 z m -5.69284,0.23185 c 0.0227,-2.3e-4 0.18171,-0.21949 0.29293,-0.40412 0.0368,-0.0612 -0.17279,0.144 -0.36459,0.35667 l -0.0692,0.0768 0.0574,-0.0145 c 0.0314,-0.008 0.0692,-0.0147 0.0831,-0.0148 z m 0.42139,-0.10801 c 0.10622,-0.0303 0.30352,-0.10272 0.43839,-0.16084 0.13505,-0.0581 0.3389,-0.14543 0.45307,-0.19406 0.11427,-0.0486 0.36196,-0.16615 0.55062,-0.26118 0.18857,-0.095 0.3936,-0.18493 0.45571,-0.19982 0.0703,-0.0169 0.11286,-0.0396 0.11286,-0.0603 0,-0.0278 -0.0808,-0.2082 -0.10563,-0.23609 -0.006,-0.005 -0.12113,0.0451 -0.25982,0.11062 -0.31021,0.1466 -0.39806,0.16449 -0.48655,0.099 l -0.0645,-0.0477 -0.28792,0.12358 c -0.28038,0.12034 -0.51806,0.19603 -0.61564,0.19603 -0.0468,0 -0.0878,0.0561 -0.43444,0.59491 l -0.0784,0.12189 0.0647,-0.0155 c 0.0355,-0.008 0.15146,-0.0403 0.25764,-0.0706 z m -0.17216,-0.0217 c 0.025,-0.0645 0.34463,-0.56269 0.35477,-0.55255 0.0268,0.0266 -0.30334,0.58968 -0.34558,0.58968 -0.0132,0 -0.0173,-0.0167 -0.01,-0.0371 z m 0.17525,-0.0396 c 0,-0.04 0.16688,-0.37723 0.21894,-0.44245 0.02,-0.0256 0.0123,0.005 -0.0182,0.0692 -0.03,0.0635 -0.0785,0.17526 -0.10763,0.24844 -0.0528,0.13325 -0.0933,0.1873 -0.0933,0.12479 z m 0.23077,-0.14972 c 0,-0.0338 0.0951,-0.23999 0.10567,-0.22934 0.0141,0.0141 -0.0603,0.2228 -0.0847,0.23791 -0.0114,0.007 -0.0209,0.003 -0.0209,-0.009 z m 0.2319,-0.11967 c 0,-0.0412 0.0377,-0.10712 0.0533,-0.0916 0.006,0.006 -0.006,0.0368 -0.0209,0.0686 -0.0182,0.0334 -0.0318,0.0431 -0.0327,0.0231 z m 0.11923,-0.54351 c 0.0726,-0.0176 0.20489,-0.0688 0.2942,-0.11374 l 0.16228,-0.0817 v -0.10932 c 0,-0.0601 -0.008,-0.1216 -0.0177,-0.13662 -0.0132,-0.0199 -0.0889,-0.003 -0.28233,0.0629 -0.14574,0.0496 -0.32203,0.0986 -0.39183,0.10894 -0.13755,0.0203 -0.131,0.008 -0.10149,0.19006 0.0255,0.15879 0.0182,0.15697 0.33722,0.0795 z m 0.98177,-0.23858 c 0.41543,-0.13785 0.4348,-0.15055 0.36841,-0.24136 -0.0273,-0.0372 -0.0346,-0.0354 -0.10217,0.0245 -0.11091,0.0982 -0.31562,0.17391 -0.38487,0.14236 -0.10786,-0.0491 -0.15215,-0.22232 -0.0876,-0.3421 0.0468,-0.0866 0.27597,-0.23111 0.36741,-0.23159 0.0522,-2.3e-4 0.0645,-0.0332 0.0386,-0.10141 -0.0114,-0.0298 -0.0427,-0.0209 -0.19039,0.0537 -0.0972,0.0492 -0.22208,0.12856 -0.27755,0.17647 l -0.101,0.0871 0.0159,0.21974 c 0.015,0.1966 0.0396,0.30249 0.0714,0.30249 0.006,0 0.13292,-0.0404 0.28193,-0.0898 z m 1.48837,-0.19586 c 0.36186,-0.17651 0.76719,-0.41228 1.04762,-0.60931 0.0355,-0.025 0.015,-0.0276 -0.12669,-0.017 -0.21376,0.0161 -0.39219,0.0758 -0.69021,0.23084 -0.25718,0.13382 -0.27746,0.11734 -0.0773,-0.0627 0.0863,-0.0775 0.10822,-0.10975 0.0883,-0.12963 -0.0563,-0.0566 -0.16952,-0.0249 -0.43257,0.12137 -0.69007,0.38392 -0.7365,0.41394 -0.73745,0.47636 0,0.0323 -0.0132,0.0711 -0.0286,0.0861 -0.015,0.015 -0.0223,0.031 -0.0173,0.0354 0.035,0.0281 0.28529,0.0801 0.39688,0.0823 0.12345,0.002 0.1651,-0.013 0.57685,-0.2138 z m -2.49824,0.007 c 0.24863,-0.0467 0.42916,-0.12874 0.48254,-0.21912 0.0255,-0.0431 0.10122,-0.11375 0.16838,-0.15694 0.0671,-0.0432 0.19994,-0.14236 0.29515,-0.22037 0.2184,-0.17901 0.26524,-0.1928 0.34431,-0.10131 0.0327,0.0379 0.0699,0.0846 0.0826,0.10383 0.0432,0.0652 0.20231,0.004 0.49623,-0.18989 0.1522,-0.10058 0.27674,-0.19835 0.27674,-0.21727 0,-0.0574 -0.72281,-0.781148 -0.84836,-0.849478 -0.17079,-0.093 -0.32293,-0.12376 -0.88578,-0.17926 -0.66697,-0.0658 -0.99382,-0.0471 -1.59191,0.0908 -0.22026,0.0508 -0.44207,0.10107 -0.49282,0.11169 l -0.0923,0.0193 -0.0521,0.22995 c -0.0282,0.12648 -0.0492,0.26531 -0.0462,0.30851 l 0.006,0.0786 0.0772,-0.11317 c 0.1396,-0.20452 0.13724,-0.20375 0.66116,-0.21814 0.25382,-0.007 0.42516,-0.016 0.38078,-0.0202 -0.0446,-0.004 -0.1898,-0.0154 -0.32308,-0.025 l -0.24232,-0.0176 0.31758,0.003 c 0.28378,0.003 0.31898,-0.001 0.33035,-0.0373 0.0182,-0.0581 0.0533,-0.0497 0.0795,0.0189 0.0173,0.0453 0.0332,0.0558 0.0687,0.0446 0.0255,-0.008 0.0462,-0.004 0.0462,0.008 0,0.0126 -0.0182,0.0276 -0.0405,0.0335 -0.0377,0.01 -0.0377,0.0107 0,0.0132 0.0255,10e-4 0.0551,-0.028 0.0793,-0.0781 0.0456,-0.096 0.0844,-0.1073 0.0593,-0.0173 -0.01,0.0349 -0.0173,0.17768 -0.0168,0.31728 0.006,0.296368 0.0557,0.511248 0.12255,0.483348 0.0805,-0.0337 0.24314,-0.0795 0.27819,-0.0785 0.02,4.6e-4 -0.01,0.0254 -0.0672,0.0552 -0.0569,0.0298 -0.12282,0.0751 -0.14601,0.10081 -0.0396,0.0442 -0.0405,0.0499 -0.006,0.10629 0.048,0.073 0.008,0.0803 -0.0427,0.008 -0.0268,-0.038 -0.0368,-0.0423 -0.0373,-0.016 -0.006,0.0198 0.0132,0.0553 0.0305,0.0788 0.03,0.0411 0.0355,0.0412 0.13037,0.003 0.1245,-0.0498 0.40696,-0.08 0.38277,-0.0409 -0.009,0.0147 -0.0291,0.0267 -0.0446,0.0267 -0.0563,0 -0.35149,0.15723 -0.4061,0.21652 -0.0432,0.047 -0.0498,0.0672 -0.0291,0.0884 0.015,0.0151 0.0273,0.0741 0.0273,0.13123 0,0.12609 -0.0391,0.10207 -0.0522,-0.0323 -0.006,-0.0681 -0.0105,-0.0543 -0.0132,0.0524 -0.006,0.13854 -0.006,0.14422 0.048,0.13436 0.0282,-0.006 0.11941,-0.023 0.20189,-0.0385 z m -0.13615,-0.15399 c 0.006,-0.0893 0.006,-0.0989 0.0209,-0.0519 0.0268,0.0834 0.0268,0.16153 0,0.16153 -0.0132,0 -0.0218,-0.0494 -0.0209,-0.10961 z m 0.0808,0.004 c -0.008,-0.0214 -0.01,-0.0441 -0.006,-0.0504 0.006,-0.006 0.0182,0.006 0.0268,0.0274 0.008,0.0215 0.01,0.0441 0.006,0.0504 -0.006,0.006 -0.0182,-0.006 -0.0268,-0.0274 z m 0.1265,-0.0457 c 0.006,-0.0269 0.006,-0.0323 0.0141,-0.014 0.006,0.0166 0.006,0.0366 -0.006,0.0442 -0.008,0.008 -0.0132,-0.006 -0.0123,-0.0303 z m -0.20948,-0.44803 c -0.015,-0.0276 -0.0214,-0.0553 -0.0155,-0.0616 0.006,-0.006 0.0236,0.011 0.0387,0.0386 0.015,0.0276 0.0214,0.0553 0.0155,0.0616 -0.006,0.006 -0.0237,-0.011 -0.0387,-0.0386 z m 0.10281,-0.0247 c -0.008,-0.0136 -0.01,-0.0296 -0.006,-0.0356 0.006,-0.006 0.0173,0.005 0.025,0.0246 0.0155,0.0407 0.006,0.0478 -0.0209,0.011 z m 0.0933,-0.0677 c -0.008,-0.0127 -0.006,-0.0231 0.01,-0.0231 0.0132,0 0.0241,0.0104 0.0241,0.0231 0,0.0127 -0.006,0.0231 -0.01,0.0231 -0.006,0 -0.0164,-0.0104 -0.0241,-0.0231 z m -0.16565,-0.26738 c 0.0173,-0.10554 0.18984,-0.322318 0.33367,-0.418858 0.0291,-0.0194 0.0569,-0.031 0.0623,-0.0256 0.009,0.009 -0.19521,0.31248 -0.31189,0.463778 -0.0682,0.0885 -0.10045,0.0811 -0.0841,-0.0193 z m -0.79189,-0.632528 -0.1501,-0.0151 0.16597,-0.004 c 0.0913,-0.002 0.17238,0.006 0.18021,0.019 0.008,0.0127 0.006,0.0213 -0.0159,0.0191 -0.0164,-0.002 -0.0976,-0.0108 -0.18016,-0.0191 z m 0.38064,0 c 0.008,-0.0127 0.03,-0.0231 0.0492,-0.0231 0.0191,0 0.0282,0.0104 0.02,0.0231 -0.008,0.0127 -0.03,0.0231 -0.0486,0.0231 -0.0191,0 -0.0286,-0.0104 -0.02,-0.0231 z m 1.7768,1.491458 c 0.14014,-0.0376 0.32603,-0.12063 0.34745,-0.15529 0.0273,-0.0442 -0.0539,-0.0994 -0.14529,-0.0987 -0.0864,4.5e-4 -0.39119,0.11793 -0.47908,0.18424 -0.0456,0.0344 -0.0456,0.0352 -0.006,0.068 0.0557,0.0411 0.12945,0.0416 0.27824,0.002 z m 0.87123,-0.34132 c 0.18075,-0.0908 0.33167,-0.16739 0.3354,-0.17018 0.006,-0.003 -0.0309,-0.0687 -0.0762,-0.14641 l -0.0828,-0.14135 -0.0739,0.038 c -0.0409,0.0209 -0.19667,0.11594 -0.34681,0.21114 l -0.27292,0.17308 0.0575,0.0535 c 0.0314,0.0295 0.0644,0.0746 0.0726,0.10039 0.008,0.0258 0.025,0.0469 0.0368,0.0469 0.0123,0 0.16961,-0.0743 0.35032,-0.16511 z m -2.45186,0.0382 c 0,-0.0191 -0.0109,-0.0346 -0.0232,-0.0346 -0.0132,0 -0.0232,0.0156 -0.0232,0.0346 0,0.019 0.0109,0.0346 0.0232,0.0346 0.0132,0 0.0232,-0.0156 0.0232,-0.0346 z m 0.045,-0.0597 c -0.0141,-0.0265 -0.0305,-0.0436 -0.0364,-0.0379 -0.0159,0.0162 0.0164,0.086 0.0405,0.086 0.0118,0 0.01,-0.0217 -0.006,-0.0481 z"
         id="path4513-9" />
    </g>
  </g>
</svg>
