<?xml version="1.0" encoding="UTF-8" standalone="no"?>
<!-- Created with Inkscape (http://www.inkscape.org/) -->

<svg
   width="11.892609mm"
   height="17.469557mm"
   viewBox="0 0 11.89261 17.469556"
   version="1.1"
   id="svg5985"
   inkscape:version="1.2.2 (b0a8486541, 2022-12-01)"
   sodipodi:docname="mother_day.svg"
   xmlns:inkscape="http://www.inkscape.org/namespaces/inkscape"
   xmlns:sodipodi="http://sodipodi.sourceforge.net/DTD/sodipodi-0.dtd"
   xmlns="http://www.w3.org/2000/svg"
   xmlns:svg="http://www.w3.org/2000/svg">
  <sodipodi:namedview
     id="namedview5987"
     pagecolor="#ffffff"
     bordercolor="#000000"
     borderopacity="0.25"
     inkscape:showpageshadow="2"
     inkscape:pageopacity="0.0"
     inkscape:pagecheckerboard="0"
     inkscape:deskcolor="#d1d1d1"
     inkscape:document-units="mm"
     showgrid="false"
     inkscape:zoom="5.3088146"
     inkscape:cx="32.493129"
     inkscape:cy="33.811691"
     inkscape:window-width="796"
     inkscape:window-height="878"
     inkscape:window-x="160"
     inkscape:window-y="18"
     inkscape:window-maximized="1"
     inkscape:current-layer="g118372" />
  <defs
     id="defs5982">
    <clipPath
       clipPathUnits="userSpaceOnUse"
       id="clipPath25107-2">
      <path
         id="path25109-8"
         style="fill:#ff0000;fill-opacity:1;fill-rule:nonzero;stroke:none;stroke-width:323.257"
         d="m 422.36252,921.96649 -226.92065,0.0423 v 505.51131 c 0.43641,-0.046 0.8707,-0.085 1.30626,-0.1397 0.68488,-0.089 1.36171,-0.2666 2.04997,-0.3217 4.17402,-0.3344 0.72509,-0.042 3.72025,-0.085 0.49482,0 0.98626,-0.059 1.48023,-0.089 2.64088,-0.2032 5.26059,-0.4897 7.91163,-0.5206 3.07432,-0.042 0.33016,0.1185 2.88511,-0.059 0.13122,0 0.26667,-0.042 0.39789,-0.051 h 0.0423 c 0,0 0.0508,0 0.0677,0 0.0762,0 0.15238,-0.042 0.23281,-0.042 0.0423,0 0.0423,-0.042 0.0762,-0.042 0,0 0.0423,0 0.0508,0 0.0423,0 -0.0423,0.042 -0.0593,0.042 0.27937,-0.063 0.56212,-0.1186 0.84319,-0.182 0,-1.0295 0.0423,-2.0526 0.14815,-3.0752 0.0466,-0.4106 0.45037,-0.4813 0.95069,-0.4631 0.50075,0 1.09462,0.1185 1.50436,0.059 0.53757,0.042 1.07599,0.042 1.61229,0.089 0.3471,0.042 0.68615,0.1058 1.03324,0.1481 0.58837,0.072 1.18012,0.1439 1.76933,0.2074 0.31747,0.042 0.63451,0.042 0.9507,0.059 1.4197,0.093 2.84109,0.1481 4.25783,0.2709 2.80215,0.254 5.60133,0.5765 8.39967,0.8681 4.47624,0.4466 8.92158,1.1112 13.35973,1.8354 0.20741,-0.3598 0.82371,-0.4241 1.93441,-0.4233 0.0423,-0.11 0.2582,0 0.38942,0 h 1.05822 c 2.814,0.042 5.61953,-0.051 8.43268,-0.1227 0.85462,0.042 1.70965,0.051 2.56299,0.1058 1.42944,0.097 2.84575,0.3005 4.27434,0.4063 1.69102,0.127 2.27219,0.144 3.02564,0.2159 0.33016,-0.1608 0.64593,-0.3598 0.96721,-0.5375 1.05948,-0.5783 1.94118,-1.1218 3.11665,-1.4879 2.64468,-0.8241 5.46249,-0.6523 8.1766,-1.0417 3.19072,-0.2159 5.15688,-0.3979 8.32517,-0.4381 2.38479,-0.042 4.77508,-0.047 7.15945,0 2.09145,0.042 4.1774,0.1651 6.26673,0.2709 10.25282,0.5189 8.59735,0.4487 17.7911,1.1162 3.7719,0.2963 7.5476,0.5765 11.3178,0.8927 5.70631,0.4779 11.40203,1.0371 17.10496,1.5543 0.27513,-0.046 0.5545,-0.08 0.82667,-0.1397 0.54689,-0.1227 1.06837,-0.3301 1.60383,-0.4961 5.31265,-1.6994 -0.2709,0.1059 3.53866,-1.1657 1.99876,-0.6667 4.26968,-1.5183 6.40727,-1.3803 -0.26667,0.085 -1.08065,0.2963 -0.80212,0.2582 0.55916,-0.08 1.09503,-0.2921 1.65335,-0.381 1.27112,-0.1989 3.82607,-0.3132 4.95243,-0.3047 5.21403,0.042 5.28811,0.165 10.37515,0.6696 2.68701,0.3344 5.37953,0.6265 8.06062,1.0087 1.96616,0.2794 3.92004,0.6442 5.87816,0.9752 5.72916,0.9685 11.45537,1.9734 17.17945,2.9681 0.0931,-0.042 0.18201,-0.093 0.2709,-0.1227 0.8106,-0.2879 2.17103,-0.3937 3.32364,-0.3387 0.35133,-0.1777 0.70477,-0.3428 1.08319,-0.4546 0.62434,-0.182 1.14964,0.051 1.70287,0.1143 1.30711,0.444 2.65273,0.764 3.97677,1.1573 z m -2.62902,505.85881 c 0.11852,0.042 0.23704,-4e-4 0.35556,0.042 0.22857,0.081 0.93461,0.2752 0.69461,0.2328 -0.35556,-0.063 -0.70223,-0.1608 -1.04975,-0.2582 z m -4.34884,0.3556 c -0.36825,0.055 -0.66836,0.1185 -1.20678,0.4148 -0.0847,0.046 -0.24127,0.1524 -0.37249,0.2328 0.0847,0 0.18201,0.051 0.26243,0.059 0.43683,-0.2413 0.87663,-0.4674 1.3143,-0.7027 z m -196.68708,10.7311 c -0.16084,0 -0.35979,0.042 -0.53715,0.059 -0.98117,0.2285 -1.52552,0.2709 -2.65399,0.3809 -0.73652,0.042 -1.4705,0.093 -2.20744,0.1058 -2.54225,0.055 0.69081,-0.2031 -2.80257,0 -1.44001,0.076 -2.87707,0.2413 -4.31539,0.3641 0.0423,0.8525 0.0635,1.7189 0,2.662 -0.26244,4.0716 -0.67768,8.1343 -0.98371,12.2025 -0.055,0.6992 -0.12699,1.3989 -0.14815,2.0999 -0.0423,1.0692 0,2.138 0,3.2076 0.0931,4.1254 -0.002,8.2655 -0.26244,12.3845 -0.0804,1.3241 -0.19895,2.6481 -0.33016,3.9683 -0.32593,3.2991 -0.28784,0.8495 -0.25821,3.5217 0,0.3979 0.0508,0.7924 0.0423,1.1907 -0.14815,7.4566 -0.0593,0.326 -0.2963,5.8947 -0.26667,6.2498 0.0762,0.2159 -0.0762,5.3241 -0.0423,1.3939 -0.12275,2.7814 -0.18201,4.1749 -0.20741,4.6874 -1.00573,9.3254 -1.47981,13.9883 -0.17778,1.7604 -0.19471,2.4419 -0.31323,4.4064 -0.0423,0.6649 -0.0847,1.3265 -0.0931,1.9924 -0.0931,5.4299 0.10159,10.872 0.10582,16.3032 -0.003,0.9262 0,1.8515 0,2.7776 -8.5e-4,0.2074 0,5.57 0,6.4568 -0.002,1.8773 -0.0804,3.7545 0,5.6301 0.0423,0.5905 0.11429,1.1729 0.17355,1.7609 0.40635,1.8912 0.39789,3.8493 0.70307,5.7541 0.24974,1.5691 0.24974,0.9397 0.53715,2.042 0.21588,0.8376 0.40636,1.6808 0.61165,2.5215 0.89186,3.727 1.04848,7.5789 1.49674,11.3758 0.52275,3.6356 0.18201,7.3084 0.15661,10.9622 0.0889,2.1088 0.001,4.1753 -0.23281,6.2752 -0.34709,2.9287 -0.30476,0.5173 -0.26243,3.1166 0.0593,2.2384 -0.0466,4.486 0.10582,6.7214 0.0593,0.3979 0.11429,0.7932 0.17355,1.1903 h 0.0508 c 0.11429,1.0967 0.19894,2.1922 0.2963,3.2906 -4.2e-4,0.6235 -0.0593,1.2559 0,1.8764 0.0423,0.2625 0.16931,0.4974 0.24127,0.7526 0.0931,0.3386 0.17355,0.6819 0.25397,1.0252 0.33863,1.4544 0.64467,2.8864 0.90922,4.3569 0.4999,2.9592 0.0974,5.9662 0.10582,8.9448 -0.0423,1.5023 0.15662,3.0232 0.0423,4.5224 -0.0762,0.9169 -0.19894,1.8303 -0.2963,2.7446 -0.23281,1.4053 -0.56043,2.789 -0.91768,4.1668 -0.14392,0.5622 -0.23704,1.145 -0.44657,1.6868 -0.2328,0.6007 -0.4927,1.192 -0.74413,1.7854 -0.0635,0.8047 -0.11852,1.6098 -0.18202,2.414 -0.31746,0.6701 -0.62942,1.3418 -0.95069,2.0089 0,0.4944 0,0.1186 -0.0593,1.3478 -0.19048,1.8802 -0.11006,1.2817 -0.47959,3.4887 -0.0762,0.455 -0.20317,0.9046 -0.24127,1.3642 -0.0423,0.3133 0.0466,0.6223 0.0593,0.9342 0.0423,0.8953 0.0593,1.7914 0.10159,2.6871 0.12699,1.9763 0.0804,3.9564 0.0593,5.9357 0,1.1716 -0.13122,0.7018 0.11429,1.4053 0.50117,2.3776 0.80889,4.7924 1.27324,7.1759 0.45207,1.4633 0.33016,2.9867 0.3217,4.4894 v 0.042 c 0.0423,0.2032 0.0677,0.4106 0.10158,0.6117 -0.0466,-0.1185 -0.0762,-0.2455 -0.12275,-0.381 8.5e-4,0.1397 0,0.2836 0,0.4233 8.5e-4,0.042 0.0635,-0.042 0.0974,-0.042 0.0423,0 0.0423,0.059 0.0423,0.059 0.54774,1.4489 0.81822,2.2363 0.5871,4.7121 0,0.1058 0,0.2116 0,0.3132 4.18418,3.1348 4.34926,8.7836 -0.21587,12.6405 -0.0974,0.5897 -0.19048,1.1167 -0.33017,1.951 -0.36825,1.2482 -0.83091,2.7429 -1.46372,4.1253 -0.0974,0.6121 -0.21164,1.1865 -0.39788,1.5543 0.002,0.063 0,0.127 0,0.1905 0,1.76 0.0466,2.4512 -0.38943,4.4068 0,0.047 -0.0423,0.093 -0.0423,0.1397 0.0677,0.3048 0,0.6222 0,0.9342 -0.003,0.8355 -0.0508,1.669 -0.0508,2.505 0.002,1.9039 0,3.8091 0,5.7126 -0.0847,0.9622 0.0931,1.9493 0,2.9101 -0.0889,0.919 -0.20741,1.8362 -0.31323,2.7531 -0.93927,5.01 0.77038,-4.2511 -0.5126,3.5132 -0.0423,0.1778 -0.0423,0.1143 -0.0804,0.3387 0.0423,0.1524 0.0804,0.3005 0.10582,0.4546 0.0931,0.5054 8.4e-4,1.0328 0,1.5462 -0.002,0.6582 0,1.3093 0,1.9675 0,0.6967 -8.5e-4,1.3807 0,2.0669 0,0 0.0423,0.042 0.0593,0.068 0.0635,0.072 0.10159,0.1524 0.15661,0.2328 0.24128,0.3386 0.19471,0.2582 0.38096,0.5291 0.0974,0.1397 0.18625,0.2878 0.28783,0.4233 0.10159,0.042 0.20318,0.059 0.30477,0.097 0.20741,-0.1186 0.44657,-0.2244 0.71916,-0.3133 0.65948,-0.2201 0.49524,-0.1947 1.43028,-0.3217 0.21164,-0.042 0.4326,-0.042 0.64509,-0.051 0.86435,0 0.82794,0.042 1.57081,0.059 h 0.37249 c 0.2582,-0.047 0.51345,-0.1185 0.76869,-0.1736 0.21164,-0.042 0.41905,-0.051 0.62815,-0.068 h 0.0931 c 0,0.042 -0.10582,0.059 -0.0762,0.059 0.0762,0 0.14392,-0.051 0.21588,-0.076 0.34286,-0.1228 0.21587,-0.085 0.52106,-0.1736 0.17355,-0.042 0.35556,-0.051 0.52911,-0.076 h 0.12275 c 0.24551,0 0.48932,-0.042 0.73567,0 0.13545,0 0.2709,-8e-4 0.40636,0.042 0.2328,0.042 0.13545,0.042 0.40635,0.051 h 0.31323 c -3.85444,-2.5207 -1.74097,-7.835 4.97699,-7.1265 2.58712,0.2709 5.00704,1.2547 7.50654,1.9014 0.66413,0.1736 1.34012,0.3217 2.00891,0.4712 0.47238,-0.8128 0.95705,-1.6174 1.50478,-2.381 0.0593,-0.063 1.74012,0.042 1.92637,0.042 1.06668,0 2.08764,-0.1016 3.14966,-0.1481 0.47832,-0.042 0.96467,-0.1059 1.43875,-0.042 1.61272,0.2201 1.68086,0.3175 2.73654,0.8678 0.40212,0.2497 0.80466,0.4986 1.20678,0.7526 0,0.042 -0.0423,0 -0.0423,0 -0.27091,-0.1059 -1.05187,-0.4843 -0.8106,-0.3217 0.40636,0.2709 0.88763,0.4343 1.31473,0.6696 h 0.16508 c 0.25397,-0.1947 0.52233,-0.2582 0.81017,-0.1397 h 0.0677 c 0.0466,0 0.0931,-0.042 0.13969,-0.042 0.0423,0.072 0.0508,0.1524 0.0804,0.2243 0.0804,0.055 0.072,0.199 0.14815,0.2582 0.072,0 0.14392,0 0.21588,0 0.18624,-0.042 0.34286,-0.165 0.5291,-0.2074 0.37249,-0.08 0.74752,-0.1608 1.12425,-0.2074 0.6544,-0.063 0.97652,-0.042 1.49631,0 -0.0423,-0.051 -0.0677,-0.097 -0.0974,-0.1481 0.10158,0.051 0.20317,0.11 0.30476,0.165 0.0423,0 0.055,0 0.0974,0 0.16931,0.042 0.33439,0.068 0.50413,0.068 0.10159,0 0.21164,-0.042 0.31323,-0.042 0.18625,0 0.36826,0 0.55408,0 0.43133,0.042 0.86774,0.059 1.29779,0.097 1.33462,0.1101 0.29207,0.1058 1.2652,0.1058 0.75176,-0.068 1.49166,0.127 2.23199,0.2074 0.0466,0.042 0.10158,0 0.14815,0 0.20317,-0.042 0.40212,-0.042 0.60318,-0.042 1.47769,-0.042 2.9613,0 4.43983,0 1.17716,0 0.89779,-0.042 2.56257,0.2328 0.37249,0.059 0.73525,0.1693 1.10774,0.2328 2.8995,0.4953 -0.55239,-0.1566 1.81081,0.2074 0.44996,0.072 0.89187,0.1736 1.33928,0.2582 0.28783,0.081 0.56762,0.2074 0.86816,0.2498 0.0423,0 -0.0466,-0.1397 0,-0.1397 0.19048,-0.085 0.40635,-0.051 0.60318,-0.051 2.94056,0.042 0.81271,0.046 3.15813,0.1143 0.61207,0.042 1.22287,0.042 1.83536,0.042 0.43683,0 0.87747,8e-4 1.31473,0 2.57146,-0.042 0.86435,-0.042 2.81061,-0.042 0.2709,8e-4 0.54562,0 0.81863,0 0,0 0.0423,0 0.0593,-0.042 0.61758,0 1.23473,0 1.85188,0 0.003,0 0,0 0,0 0.29206,0 0.57863,-0.042 0.86816,-0.08 1.29779,-0.1608 2.58669,-0.419 3.8938,-0.4961 0.39788,-0.042 0.80508,-0.042 1.20721,-0.042 1.38837,0.1016 2.77675,0.059 4.16681,0.059 1.18139,0 2.33527,-0.326 3.51327,-0.3979 0.56255,-0.051 1.1234,-0.051 1.68679,-0.051 1.69653,0.072 3.39517,0.076 5.09255,0.076 1.04424,0 2.08891,0 3.13315,0 1.07176,-0.2709 2.19008,-0.2709 3.28216,-0.2709 0.11005,-5e-4 0.21587,0.042 0.32169,0 0.0593,0 -0.13121,0 -0.17354,-0.051 0.30053,-0.051 0.60064,-0.1143 0.90117,-0.1566 h 0.0889 0.0423 c 0.055,-0.042 0.11005,-0.047 0.16508,-0.068 0.055,0 0.10159,-0.051 0.15662,-0.068 h 0.0423 c 0.0974,-0.042 0.19047,-0.072 0.28783,-0.1058 0.85207,-0.1101 1.01715,-0.1355 1.25673,-0.1312 0.38519,-0.1439 0.77546,-0.2921 1.17377,-0.3895 0.58287,-0.1439 1.20467,0.127 1.79431,0.081 h 2.96765 c 0.0423,0 0.0804,0 0.12275,0 0,0 0,0 0,0 0.34286,-0.1609 0.70816,-0.2625 1.07472,-0.3471 0.52572,-0.364 1.12848,-0.6074 1.71981,-0.8432 0.15239,-0.4021 0.16085,-0.4428 0.50414,-1.1243 0.0762,-0.1523 0.0804,-0.4465 0.24973,-0.4465 0.0423,0 0,0 0,0.042 0,0 0,-0.051 0,-0.068 0,-0.042 0.0423,-0.047 0.0423,-0.072 0,0.055 -0.0423,0.1016 -0.0423,0.1566 -0.0423,0.2413 -0.0762,0.4813 -0.14815,0.7107 -0.072,0.2328 0.0423,-0.3555 0.11429,-0.6696 -0.0635,0.097 -0.22434,0.254 -0.22434,0.364 0,0.199 0.0423,0.5926 0.0423,0.8847 0.13545,-0.1397 0.29206,-0.3005 0.33016,-0.3386 0.17355,-0.1651 0.22434,-0.2074 0.2582,-0.2244 -0.0635,-0.4355 -0.10582,-0.8728 -0.11428,-1.2978 -0.0762,0.127 -0.15662,0.2625 -0.21588,0.3979 0.055,-0.2963 0.11852,-0.5943 0.25821,-0.8601 0.66328,-1.2762 0.98202,-1.399 1.86838,-1.9839 0.33016,-0.1905 0.67387,-0.3514 1.01673,-0.5211 0,0 0.0423,0 0.0508,-0.042 0.40636,-0.2921 0.91345,-0.5947 1.44679,-0.8102 0.0974,-1.3532 0.42837,-2.4491 0.90964,-3.2987 0.15662,-0.2963 -0.0423,-0.5879 0.18201,-0.9176 0.67726,-0.9973 1.90563,-1.3893 2.90205,-1.9184 0.16084,-0.042 0.31746,-0.097 0.47916,-0.097 3.45527,-0.436 -0.89314,0.2116 -1.04975,0.5375 -0.0423,0.047 -0.0931,0.3048 -0.12275,0.381 0.29629,-0.085 0.59302,-0.1397 0.8927,-0.1397 0.49144,4e-4 0.9833,0.127 1.44679,0.3556 0.24551,-0.4843 0.50117,-0.9651 0.7361,-1.4553 0.54519,0.2794 1.10985,0.5219 1.64488,0.8187 -0.055,-0.042 -0.10159,-0.072 -0.15661,-0.1059 -0.055,-0.042 0.19047,0.047 0.16508,0.097 0.0466,0.042 0.0931,0.051 0.13968,0.085 0.0804,0.046 0.17355,0.08 0.25821,0.1312 0.0423,0.042 0.055,0.051 0.0847,0.076 0.11006,0.068 0.22434,0.1312 0.33016,0.2074 0.16932,0.1185 0.27937,0.2201 0.43006,0.3301 0.469,-0.127 0.94816,-0.1989 1.43833,-0.1989 h 0.77715 c 0.81059,-0.042 1.61356,-0.042 2.42246,0.042 0.67006,0.059 0.46942,-0.063 0.71069,0.097 -0.055,0.046 -0.23704,0.1397 -0.16508,0.1397 0.20318,-0.042 0.38519,-0.1228 0.57863,-0.1821 0.30054,-0.093 0.60065,-0.182 0.90118,-0.2709 0.81271,-0.2455 1.09715,-0.3344 2.02542,-0.5375 h 0.10582 c 0.89652,-0.4331 1.19197,-0.4779 2.09145,-0.6282 0.38519,-0.042 0.76826,-0.072 1.15769,-0.1143 0.49397,-0.042 0.99302,-0.051 1.48784,-0.051 0.60403,-0.042 1.20594,-0.068 1.81082,-0.076 0.60445,0 1.20763,0 1.81039,0.076 0.6108,0.085 1.22795,0.1566 1.83536,0.2625 0.23704,0.042 0.46181,0.127 0.69461,0.1904 1.23642,0.3429 2.32257,0.6566 3.41422,1.4223 0.3344,0.2328 0.54731,0.5964 0.82668,0.8927 0.2709,0.6455 0.56889,1.2813 0.81863,1.9344 0.0423,0.089 0.0423,0.182 0.0423,0.2794 0.0423,0.309 0.0847,0.6214 0.0423,0.9261 -0.0423,0.4504 -0.17355,0.7755 -0.28784,1.1243 0,-0.1016 0.0423,-0.2074 0.0423,-0.3133 -0.38095,0.9998 -0.949,1.9357 -1.26477,2.9596 -0.0423,0.1016 -0.0423,0.144 -0.0423,0.1821 -0.0423,0.042 -0.0635,0.089 -0.0974,0.1312 0,0.042 -0.055,0.042 -0.0508,0.042 0,-0.064 0.13545,-0.2328 0.0889,-0.182 -0.4635,0.6417 -0.82117,1.371 -1.52933,1.8108 -0.30053,0.2244 -0.5545,0.5207 -0.8762,0.7107 -0.99726,0.5951 -1.77992,0.8508 -2.86056,1.0582 -0.10159,0.042 -0.20318,0.042 -0.30477,0.059 0.78816,0.4106 1.58309,0.8394 2.0504,1.5543 0.0889,-4e-4 0.17354,0 0.26243,0 h 0.46308 0.73567 c 0.11005,0 0.23704,-0.047 0.32169,0 0.0677,0.055 -0.16508,0 -0.24974,0.051 -0.0508,0 -0.0974,0.042 -0.14815,0.051 0.40636,-0.072 0.81906,-0.1566 1.23176,-0.199 1.41081,-0.1397 2.76617,0.4462 4.16682,0.3641 h 0.72763 c 0.0423,0 0.0762,8e-4 0.11429,-0.042 0.30053,-0.042 0.60657,-0.042 0.90964,-0.042 1.13229,0.042 1.10477,0 2.42204,0.1397 0.91514,0.097 -0.66118,0.1016 1.08318,0.1481 0.49144,0 0.97991,-0.042 1.47177,-0.042 0.78223,0 1.56573,0.047 2.34754,0.072 2.585,0.3047 5.18905,0.546 7.72199,1.1657 0.2836,0 0.56212,0 0.84318,0.051 0.11852,0 0.23704,0.042 0.35556,0.059 0.16508,0.042 0.48805,-0.051 0.58667,0 h 0.0423 c 1.56912,-0.6577 1.46372,-0.6599 3.3812,-1.1987 1.22838,-0.3429 0.54308,0.042 1.90987,-0.4148 0.51894,-0.1651 1.02054,-0.3937 1.52933,-0.5871 0.87323,-0.2498 1.73928,-0.4944 2.61251,-0.7442 0.52234,-0.072 1.04552,-0.1693 1.57081,-0.2158 4.25952,-0.3725 8.53809,-0.042 12.80607,-0.072 4.58757,-0.1143 9.07862,-0.5668 13.57476,-0.093 -0.0423,-0.5858 -0.0635,-1.1133 -0.0804,-2.0339 -0.309,0.1609 -0.60488,0.3386 -0.92573,0.4796 -0.52022,0.2286 -0.74159,-0.254 -0.83514,-0.9507 -0.39366,0 -0.77123,-0.042 -1.14075,0 0.36402,-2.1359 0.60868,-3.6428 0.83471,-4.9355 -0.055,-0.6311 -0.0423,-1.2665 0.0677,-1.9018 -0.055,-2.6583 0,-5.314 0.0762,-7.9697 0,-0.1989 0.0847,-1.357 0.10582,-1.7608 -1.04213,-0.059 -2.06817,-0.2201 -3.04215,-0.5042 -1.26985,-0.3682 -0.31746,-2.6307 -0.26244,-3.9517 0.28784,-7.4901 0.88086,-8.3921 2.59559,-15.8487 0.18201,-0.4385 0.34709,-0.9007 0.49609,-1.3638 0,-0.3175 0.0762,-0.8758 0.0847,-1.1082 0.23704,-1.4713 0.44021,-2.9515 0.63662,-4.4309 -1.48108,-0.875 -2.71368,-2.5118 -3.4557,-4.7704 -0.26244,-0.8043 -0.2709,-2.188 -0.14815,-3.8113 -0.76488,-0.051 -1.53187,-0.127 -2.28998,-0.2624 -0.99091,-0.1778 1.03028,-1.7537 1.75241,-2.4551 0.17354,-0.1693 0.66625,-0.5672 0.94265,-0.8106 0.75768,-4.9922 2.1541,-10.6096 2.49654,-11.5904 0.35979,-1.0311 0.86181,-1.9945 1.40573,-2.9431 0.0423,-1.6842 0.0635,-3.3689 0,-5.0515 -0.0423,-0.9676 -0.21588,-1.923 -0.3217,-2.8851 -0.12698,-1.4307 -0.2836,-2.8588 -0.38942,-4.2908 -0.0635,-0.8898 -0.0974,-1.7867 -0.12275,-2.6786 -0.11006,-3.5187 -0.13546,-4.8292 -0.0889,-8.1846 -0.11006,-0.2498 -0.22434,-0.4593 -0.33017,-0.7276 -0.12275,-0.3048 -0.0423,-0.6316 0.0804,-0.9592 -0.26244,-1.1632 -0.53249,-2.3251 0.33863,-2.7941 0.84572,-0.455 1.76637,-0.6464 2.72003,-0.7192 -0.0847,-0.237 -0.17355,-0.4766 -0.22434,-0.7196 -0.0847,-0.6108 -0.22011,-1.2203 -0.26244,-1.8353 -0.0466,-0.593 -0.0423,-1.1907 0,-1.7854 0.0423,-0.9825 0.0804,-1.9649 0.17355,-2.9431 0.0593,-0.6252 0.16931,-1.2394 0.2709,-1.8604 -0.11429,-0.6116 -0.25397,-1.2207 -0.35556,-1.8353 -0.23281,-1.4506 -0.538,-2.9986 -0.47112,-4.4725 0,-0.042 -0.004,-0.042 0,-0.068 -3.34099,-1.5966 -2.37039,-0.585 -0.95916,-5.6462 -0.11852,0 -0.22858,-0.042 -0.33863,-0.042 -0.31746,0.4398 -0.63112,0.8817 -0.95916,1.3143 0.0508,-0.1566 0.0466,-0.3471 0.14815,-0.4792 0.2328,-0.3048 0.49947,-0.5689 0.76868,-0.8436 0,0 0,0 -0.0423,-0.042 h 0.0423 c 0.0466,-0.063 0.0931,-0.127 0.13969,-0.1905 -0.0593,0.063 -0.11429,0.1185 -0.17355,0.182 -0.23281,-0.051 -0.43726,-0.1185 -0.41482,-0.3217 0.23704,-2.0825 1.28001,-4.0005 2.0669,-5.9442 -0.64043,0.051 -0.35556,-0.051 -0.8017,0.1058 0.2963,-0.1269 0.59937,-0.2285 0.90117,-0.3386 -0.62604,-1.3469 -0.99726,-2.8055 -1.52128,-4.1998 0,0 0.0423,-0.042 0.0593,-0.042 -1.24531,-0.2539 -4.2663,-0.5604 -4.35688,-2.3394 -0.0847,-1.6466 0.96213,-3.217 1.9014,-4.572 0,-4e-4 0.0423,0 0.0423,0 -0.11006,-0.5583 -0.21165,-1.153 -0.25821,-1.5128 -0.68064,-0.047 -1.3634,-0.072 -2.04192,-0.1397 -0.38096,-0.042 -1.07261,0.2032 -1.13272,-0.1735 -0.34286,-2.1342 0.0423,-4.3209 0.0677,-6.4818 0.76488,-0.2963 1.53399,9e-4 2.29844,-0.042 0.14815,0 1.01885,-0.08 1.52933,-0.1143 -0.28784,-0.8576 -0.40636,-1.7782 -0.59514,-2.6785 -1.1598,-0.085 -3.77486,-0.2752 -4.34037,-1.3973 -0.71704,-1.4235 -0.4364,-3.1666 -0.65313,-4.7454 0.74414,-0.2456 1.476,-0.5071 2.21548,-0.7687 -0.72975,-0.309 -1.23473,-0.7734 -1.09123,-1.4303 0.47365,-2.1706 2.38309,-3.8032 4.01782,-5.3076 0.26244,-0.2413 0.60826,-0.3259 0.97567,-0.364 4.3e-4,0 0,-0.042 0,-0.042 -2.27685,-0.7776 -2.38775,-1.5429 -1.22329,-3.4642 0,0 0,-0.042 0.0508,-0.051 0.0974,-1.5374 0.14392,-1.9378 2.06691,-2.3645 0.0931,-0.1185 0.17354,-0.2455 0.26243,-0.364 0.42498,-0.5439 0.85335,-1.0798 1.28171,-1.6203 0.0677,-0.4432 0.16085,-0.88 0.2709,-1.3148 -1.06879,-0.11 -2.1414,-0.2412 -3.20765,-0.3724 -0.51514,0.042 -1.07599,0.076 -1.55431,0.097 -1.95346,0.1058 -3.90649,0.1482 -5.86123,0.2159 -0.79874,0.237 -1.53821,0.3471 -1.96785,-0.2328 l -0.0423,-0.042 c -1.22202,0.3302 -2.50077,0.6472 -2.45547,0 0.14391,-2.1113 0.35979,-4.491 1.6288,-6.1672 -0.0508,-0.042 -0.10159,-0.063 -0.14815,-0.097 v 0 c 0,0 -0.0423,9e-4 -0.0508,-0.042 -0.0466,-0.042 -0.0847,-0.068 -0.13122,-0.1058 -1.60213,0.072 -1.15345,0.085 -0.14815,-0.1312 -0.91852,-0.7721 -1.69314,-1.4777 -2.26499,-2.108 -1.33886,-1.4777 -1.68595,-2.5778 -0.83515,-3.3567 -0.24973,-0.9845 -0.46053,-2.0038 -0.85165,-2.852 1.44891,-0.4022 1.74648,-0.4301 2.67855,-0.4796 0.309,-0.2117 0.63366,-0.3725 0.97567,-0.4881 -0.055,-0.2709 -0.10582,-0.5452 -0.14814,-0.8182 -0.072,-0.4902 0.938,-0.3302 1.40573,-0.4961 0.9418,-0.1312 1.88065,-0.3005 2.82712,-0.3894 1.14456,-0.1101 2.29039,-0.182 3.43919,-0.2413 -0.58117,-0.042 -1.26054,0.064 -1.64489,-0.3471 -1.23811,-1.3227 -2.5105,-2.8504 -2.85252,-4.6294 -0.0423,-0.1228 0,-0.2371 0,-0.3556 -0.43683,0.042 -0.43386,0.042 -1.23176,0.1058 h -0.20741 c -0.31323,0.1185 -0.64212,0.2667 -0.69461,0.042 h -0.27936 c -0.15662,-2.177 -0.73821,-4.365 -0.47112,-6.5313 0.0508,-0.4309 0.85715,-0.1016 1.28975,-0.1397 0.63493,-0.055 1.27451,-0.1016 1.90986,-0.1482 0.38519,-0.051 0.76488,-0.1058 1.14922,-0.1397 0.11005,0 0.22011,9e-4 0.33016,-0.042 -1.37271,-0.059 -3.31009,-0.1693 -4.18332,-0.5291 -0.8762,-0.3598 -1.52129,-1.1386 -2.28193,-1.7033 0.20317,-1.6224 0.0593,-3.3198 0.6036,-4.861 0.19048,-0.5371 0.92572,-0.6713 1.43875,-0.9177 0.12275,-0.059 0.25397,-0.11 0.38095,-0.1651 -0.10582,-0.4673 -0.22434,-0.9325 -0.38095,-1.3638 0.25397,-0.1524 0.49947,-0.3259 0.74371,-0.4961 -0.69969,-0.2328 -0.97229,-0.5977 -0.85123,-1.1987 -1.79515,-0.2836 -3.20596,-0.6502 -3.73676,-1.1327 -1.46753,-1.3334 1.17843,-3.7876 1.76891,-5.6797 3.93317,-0.5392 3.71898,-0.5905 6.34928,-0.5706 0.87662,0 2.06986,0.042 3.83623,0.042 1.29483,0 2.59093,0.042 3.88534,0.051 0,-0.1694 0.0423,-0.3429 0.0423,-0.5126 -1.38668,-0.042 -2.63029,-0.068 -3.46416,-0.1143 -0.37249,0.08 -0.74583,0.1608 -0.8762,0 -0.66795,0.051 -1.3888,0.1143 -1.41378,-0.4064 -0.0593,-1.186 0.0423,-2.3763 0.23281,-3.5552 -1.21483,-0.1777 -2.30606,-0.5443 -3.00109,-1.4878 -3.78671,-5.1408 -0.27514,-7.6052 2.80257,-8.6642 0.80551,-0.2752 1.66013,-0.4064 2.48849,-0.6036 -0.30899,-2.0432 -0.2582,-4.1719 -0.0593,-6.2168 0.0423,-0.381 0.50371,-0.4352 0.97525,-0.4716 -1.51282,-0.3767 -3.1903,-0.8639 -3.43919,-1.4878 -0.95112,-2.3861 -0.83768,-5.2327 -0.13968,-7.7051 0.36402,-1.2923 5.5954,-2.2904 6.21721,-2.4474 2.92871,-0.6976 1.88362,-0.4444 2.64553,-0.6282 -0.36826,-0.4673 -0.65821,-0.9587 -0.97567,-1.4387 -6.29425,3.879 -10.90637,-2.1528 -5.31604,-7.4155 -2.2832,-4.0077 -2.10754,-4.254 0.14815,-6.1838 0.51091,-0.3598 1.01631,-0.7298 1.5378,-1.0752 0.56932,-0.3767 1.1598,-0.7166 1.73589,-1.0827 0.15661,-0.097 0.309,-0.199 0.46307,-0.2963 -0.18201,0 -0.36825,0 -0.57016,0.051 -0.41059,0.097 -0.79832,0.254 -1.19917,0.3809 -1.16149,0.3133 -2.34458,0.6781 -3.54628,0.8271 -0.92827,0.1143 -1.86076,0.1778 -2.79453,0.2413 -0.0423,0 -0.0974,-0.042 -0.0762,-0.051 0.13968,-0.11 0.64,-0.2497 0.46307,-0.2624 -0.24974,-0.042 -0.46731,0.1608 -0.70265,0.2412 -0.10159,0.042 -0.47958,0.1651 -0.86816,0.2963 -0.65567,0.3725 -1.30245,0.7628 -1.98394,1.0832 -0.27513,0.1313 -0.59471,0.1313 -0.89313,0.1905 -0.58583,0.1143 -1.17208,0.2201 -1.76087,0.3132 -2.84278,0.4648 -5.72112,0.7857 -8.60623,0.6616 h -19.20487 -7.15945 c -5.62969,-0.042 -11.25219,0.127 -16.88188,0.089 -4.84662,-0.055 -7.92009,-0.064 -12.65707,-0.2497 -3.33084,-0.1312 -6.6587,-0.2667 -9.987,-0.455 -0.31323,0 -0.63027,-0.047 -0.94265,-0.068 -2.51855,0.1482 -5.03413,0.182 -7.55607,0.1397 -0.37672,0 -0.75683,0.042 -1.13271,0.059 -2.10753,0 -2.02753,0.042 -4.28237,-0.2328 -0.76827,-0.042 -1.53018,-0.063 -2.29844,-0.097 -0.62562,0.6032 -2.26077,0.3937 -3.25718,0.5537 h -0.21588 c -0.2455,0.076 -0.49693,0.1397 -0.73567,0.2328 -4.59222,1.76 -8.12157,0.9613 -10.06953,-0.9092 -1.67113,-0.1694 -3.34268,-0.3387 -5.01,-0.5376 -0.44911,0 -0.89906,8e-4 -1.34774,-0.042 -3.09929,-0.1143 -1.35875,-0.1863 -5.21657,-0.199 -2.28658,0 -4.56513,0.2413 -6.85383,0.08 -0.9617,0 -1.92383,-0.072 -2.88511,-0.1058 -1.39007,-0.089 -2.78691,-0.1439 -4.17486,-0.2624 -0.65652,-0.055 -1.30584,-0.1736 -1.95939,-0.2582 -1.23091,-0.1524 -2.4631,-0.2625 -3.6957,-0.3979 -0.69462,0.8817 -2.11389,1.6953 -2.96766,2.1494 -0.12698,0.063 -2.08806,1.0566 -2.19939,0.9842 -2.41907,-1.5759 -5.18863,-2.9084 -7.25003,-4.8945 -2.18669,-0.2201 -2.05081,-0.2032 -4.07581,-0.5041 -0.81059,-0.097 -1.62626,-0.2201 -2.43897,-0.2963 -0.62985,-0.059 -1.26223,-0.076 -1.89335,-0.1143 -2.49992,-0.1524 -5.00069,-0.2709 -7.49003,-0.5536 -0.75472,-0.1186 -1.51325,-0.2202 -2.26543,-0.3556 -1.6089,-0.2878 0.22434,-0.1101 -1.8269,-0.4148 -1.39218,-0.2032 -2.81696,-0.2032 -4.19983,-0.4877 -1.58351,-0.2328 -0.96255,-0.1481 -2.1414,-0.3132 -0.24551,-0.042 -0.49016,-0.08 -0.73567,-0.093 -0.9998,-0.059 -2.0106,0.059 -3.00913,-0.068 z m 180.23526,97.6612 h 0.21587 l 0.0423,-0.042 c -0.0889,0 -0.17354,0.042 -0.2582,0.042 z m -83.37575,178.623 c 0,0 0.0423,-0.042 0.0423,-0.042 0,0 0,0 0,0 0,0 0,0.042 0,0.059 z m -11.40881,-269.6043 -0.0423,0.042 z m 106.02786,24.8595 c -0.11852,0.042 -0.24127,0.059 -0.36402,0.093 0.11005,0.051 0.30899,0.2667 0.33016,0.1482 0,-0.081 -8.5e-4,-0.1609 0.0423,-0.2413 z m -3.4557,52.4146 v 0 h -0.13122 c 0.21588,0.042 0.16085,0.042 0.3471,0.059 -0.0423,-0.042 -0.12699,-0.059 -0.21588,-0.068 z m 0.0762,0.2793 c -0.0974,0.042 -0.19048,0.059 -0.28783,0.093 -0.4381,0.1651 -0.35556,0.5173 -0.11429,0.6616 0.13122,-0.2582 0.26667,-0.5049 0.41482,-0.7526 z m 6.35774,103.1182 c -0.18624,0.063 -0.37672,0.1736 -0.5291,0.2074 1.01461,0.549 1.15557,0.5876 0.5291,-0.2074 z m -208.75748,40.8733 c 0.23281,0.7674 0.26244,0.8085 0.43006,1.2648 v 0 c -4.2e-4,-0.089 0,-0.1821 0,-0.2709 -0.16508,-0.381 -0.54307,-1.338 -0.4381,-0.9922 z m -3.34014,26.4223 c 0.0677,0.1989 0.23704,0.7056 0.37249,1.0912 0.0423,-0.042 0.072,-0.08 0.10582,-0.1143 -0.072,-0.1439 -0.57228,-1.244 -0.47958,-0.9756 z m 1.1162,2.29 c -0.0804,0.127 -0.15238,0.2539 -0.2328,0.3809 0.20317,0.6345 0.41058,1.3279 0.62857,2.0999 -0.0423,-0.5773 -0.11852,-1.1644 -0.24127,-2.1498 -0.16508,-0.3514 -0.0423,-0.047 -0.15661,-0.3302 z m 0.24128,3.9848 c 8.4e-4,0 -4.3e-4,0.042 0,0.051 0,0 0,-0.042 0,-0.051 z m 0,0.051 c -0.15662,0.4457 -0.30477,0.8956 -0.43853,1.3477 -0.12275,0.4191 0.3471,-0.8068 0.43853,-1.2318 0,-0.051 0,-0.08 0,-0.1142 z m 130.79639,9.6399 c -0.0677,-0.042 -0.16085,-9e-4 -0.27937,0.042 -0.0466,0.042 -0.0804,0.055 -0.12275,0.085 h 0.47154 c -0.0423,-0.042 -0.0423,-0.093 -0.0677,-0.1058 z m -132.70626,2.1579 c 0,0 -0.0423,0.047 0,0.1227 0.24551,1.835 0.82033,3.6149 1.22372,5.4232 0.11852,-1.0942 0.12275,-1.7719 -0.43006,-3.7533 -0.14391,-0.5207 -0.709,-1.8735 -0.79366,-1.7939 z m 119.74357,0.5866 c -0.15661,0.4259 -0.25397,0.9706 -0.2709,1.7199 -0.0423,1.3384 1.05991,2.4216 1.78584,3.5877 0.13968,-0.7797 0.16508,-0.9405 0.6036,-1.8929 0,-0.097 -0.0508,-0.199 -0.0677,-0.2963 -0.86181,-0.4462 -0.85165,-1.3626 -1.10774,-2.1499 -0.0508,-0.042 -0.11005,-0.076 -0.15661,-0.1143 0.86731,1.3622 -0.25821,2.9914 -0.5126,1.8354 -0.0974,-0.447 -0.21588,-0.8855 -0.2709,-1.3393 v -0.7522 c -0.002,-0.2116 0.001,-0.4063 0,-0.5955 z m 1.61187,1.6204 c 0.002,0.2116 0.0423,0.4262 0,0.6366 0.0423,-0.042 0.0804,-0.055 0.12276,-0.072 v 0 c -0.0677,-0.1693 -0.11852,-0.3597 -0.13969,-0.5625 z m 0.13969,0.5625 c 0,0.042 -8.5e-4,0.042 0.0423,0.068 0.0466,0.097 0.11852,0.182 0.17354,0.2709 -0.0423,-0.1355 -0.055,-0.2709 -0.0762,-0.4064 v 0 c -0.0423,0.042 -0.0847,0.047 -0.12275,0.076 z m 0.12275,-0.076 c 0,0 0.0423,-0.042 0.0593,-0.042 -0.0423,-0.1439 -0.0847,-0.2921 -0.12275,-0.4381 0,0 0,0 0,0 0.0423,0.1651 0.055,0.3259 0.0804,0.4881 z m -6.15076,1.5378 c -0.0423,0.063 -0.13122,0.2032 -0.28783,0.4546 0.11429,0 0.23281,-0.042 0.34709,-0.042 0,-0.1397 -0.0423,-0.2794 -0.0593,-0.4233 z m 13.07063,0.4233 c -0.0423,0 -0.0762,0.051 -0.12276,0.068 0.0423,0.1016 0.055,0.199 0.0974,0.2963 0,-0.1227 -8.5e-4,-0.2412 0.0423,-0.364 z m -12.96311,0.3471 c -0.19895,0 -0.39789,0 -0.59514,0.042 -0.0423,0.051 -0.0593,0.093 -0.0931,0.1482 0,0.1989 0,0.4021 0.0423,0.6036 0.23704,0 0.48086,0 0.74414,0.042 0,-0.2709 -0.0466,-0.5426 -0.0847,-0.8186 z m 12.59908,0.4631 -0.0423,0.051 c 0.0423,0 0.13545,0.072 0.21588,0.1143 0.0423,0 0.0423,0 0.0593,0 -0.0889,-0.042 -0.18202,-0.076 -0.24974,-0.1313 0,-0.042 0.002,-0.042 0,-0.042 z m 0.24974,0.1735 c 0,0 0.0423,0 0.0508,0.042 h -0.0423 c 0,0 -0.0423,0 -0.0677,-0.042 -0.0593,0 -0.10159,-0.042 -0.14815,-0.042 v 0 c 0.0423,0.097 0.0466,0.2032 0.0762,0.2878 -0.12699,0 -0.24551,-0.042 -0.37249,-0.042 0,0.3005 0.0423,0.5871 0.23281,1.2068 0.0466,0.1524 0.16508,0.5947 0.20741,0.4381 0.055,-0.3852 0.0931,-0.7822 0.11428,-1.1738 0.25397,0.574 0.52572,0.7649 0.74414,0.8432 0.10159,-0.068 0.20318,-0.063 0.30476,-0.1312 0,-0.042 -8.4e-4,-0.055 0.0423,-0.1651 0.0804,-0.3386 0.10582,-0.5765 0.13969,-0.8351 -0.0423,0 -0.0635,-9e-4 -0.0974,0 h -0.13122 c 0.0466,0.042 0.10159,0.076 0.13969,0.1227 0.072,0.08 -0.16508,-0.08 -0.27937,-0.1397 -0.27937,-0.042 -0.55662,-0.059 -0.83472,-0.08 l -0.0423,-0.042 v 0.4063 c -0.055,-0.1227 -0.11429,-0.2582 -0.16508,-0.4232 h 0.16508 v -0.2625 c 0,0 -0.0423,0 -0.0593,0 z m -10.45811,0 c -0.0423,0 0.27937,0.1947 0.68615,0.4233 0.0677,0 0.13122,0 0.19894,0 -0.22434,-0.11 -0.45037,-0.2286 -0.67768,-0.3386 -0.12698,-0.059 -0.19048,-0.085 -0.20741,-0.08 z m -4.54693,0 c 0.0762,0 -0.16085,-8e-4 -0.2328,0.042 -0.0423,0 -0.0423,0 -0.0593,0.042 0.0974,0 0.19471,-0.042 0.28783,-0.068 z m 16.69987,0.4631 c 0.0593,0 0.0889,0.042 0.13969,0.042 0.0423,0 -0.0508,9e-4 -0.0847,-0.042 z m -25.03308,0.4796 c -0.24974,0.042 -0.48297,0.097 -0.90964,0.3132 -0.0423,0 -0.12699,0.059 -0.0847,0.059 0.33439,-0.1143 0.66244,-0.2413 0.99218,-0.3725 z m -1.85188,0.364 c -0.11852,0 -0.23704,0.042 -0.35556,0.042 -0.2328,0.1186 -0.5964,0.2879 -0.70265,0.3556 0,0 0.0423,0 0.0508,0 0.33862,-0.1185 0.67725,-0.254 1.00868,-0.3979 z m 70.24714,2.4055 c -0.0635,0 -0.17354,0.042 -0.26243,0.051 0.055,0.042 0.12275,0.063 0.15661,0.085 0.0593,-0.042 0.12275,-0.072 0.18201,-0.093 h 0.0762 c -0.0508,0 -0.10583,-0.042 -0.14815,-0.042 z m -73.76083,6.6803 0.0423,0.042 c -0.48889,0.1523 -1.15387,0.2328 -1.57081,0.2709 v 0 c 0.21588,-0.072 0.74414,-0.2328 0.55408,-0.1905 -0.38096,0.085 -0.74329,0.2413 -1.12424,0.3132 -1.19579,0.2244 -2.414,0.097 -3.62121,0.1397 h -1.87685 c -0.78604,0 -1.5725,0 -2.356,-0.076 0.10582,-0.042 0.43725,-0.1227 0.3217,-0.1227 -2.37675,0.4232 1.42604,0.042 -2.0504,0.3809 -0.12698,0 -0.38942,0.127 -0.38942,0 -0.003,-0.042 0.002,-0.068 0,-0.097 -0.0847,0 -0.16931,0.042 -0.26244,0.042 0,-0.1609 -0.0423,-0.3471 -0.0508,-0.5211 h -0.92615 -0.0804 c 0.18201,0.3259 0.48804,0.5287 1.00022,0.5291 h 0.0423 v 0.051 c -0.97948,-8e-4 -1.95516,-8e-4 -2.93506,0 -1.98394,0 -3.9683,0 -5.95224,0 -0.85969,0 -1.72446,4e-4 -2.58754,0 -0.0677,0.2413 -0.13968,0.4843 -0.20741,0.7272 h 1.38922 1.91791 2.05843 2.52998 2.18246 c 0.46773,0 0.93207,0 1.39726,0.051 0.20318,0.042 0.40212,0.063 0.60318,0.097 0.25821,0.042 0.52276,0.08 0.78562,0.093 0.25397,0 0.52741,4e-4 0.77715,-0.042 h 0.25821 0.86815 c 0.40636,0 0.82753,-0.076 1.23176,-0.1143 0.44572,-0.042 0.3471,-0.042 0.79366,-0.1058 0.0847,0 0.16085,-0.042 0.24974,-0.051 0.22011,-0.042 0.44022,-0.042 0.6616,-0.051 0.19471,0 0.63111,0.042 0.82667,0.042 h 0.26244 0.6036 c 0.38519,0 0.76361,0.068 1.1488,0.08 0.45757,0 0.89863,-0.042 1.35621,0 0.11852,0 0.66244,0.089 0.76022,0.097 h 0.15661 c 0.23281,-0.7611 0.91049,-2.1122 0.57017,0.042 h 0.2963 c 0.19047,-0.419 0.38942,-0.8402 0.6036,-1.2483 -0.0423,-0.042 -0.055,-0.072 -0.0762,-0.1058 h 0.12275 c 0.0423,-0.068 0.0762,-0.1439 0.11429,-0.2159 0,0 -8.5e-4,-0.042 0.0423,-0.042 h -0.20741 z m 0.55366,0.042 v 0 c 0,0 0.0423,0 0.0593,0 0,0 -0.0423,-0.042 -0.0508,-0.042 z m 0.0508,0.042 c 0,0 0.0423,0 0.0423,0 0.71663,0.051 -0.0508,-9e-4 0.31323,0.042 0.35133,0.042 0.34287,0.042 0.74414,0.042 1.07303,0.042 2.15791,0.089 3.22416,-0.068 h -1.36382 c -0.68445,0 -1.36594,0.042 -2.0504,0 H 301.151 c -0.10159,0 -0.21164,-0.042 -0.3217,-0.042 z m -12.68204,0.089 v 0.4961 c 0.32169,-0.072 0.54815,-0.2455 0.69418,-0.4961 -0.055,-4e-4 -0.11005,8e-4 -0.16508,0 z m -43.45319,0.2624 c -0.18625,0 -0.38096,0.042 -0.57017,0.042 -0.70392,0.042 -1.40319,0.089 -2.10838,0.1059 -0.68318,0 0.0466,-0.042 -0.86816,0 -0.16931,0 -0.33862,0.042 -0.50413,0.042 -0.26244,0 -0.5236,0.042 -0.78519,0.042 h -0.49609 -0.84319 c 0.5672,0.047 1.12806,0.097 1.69441,0.1482 h 0.41482 1.78584 c 1.07557,0 2.14902,0 3.22417,0.051 0.96339,0.042 1.92256,0.072 2.88511,0.1142 0.15238,0 0.30476,-4e-4 0.45503,0.042 -0.072,0 -0.14392,8e-4 -0.21588,-0.042 -0.40635,-0.055 -0.52699,-0.063 -1.00868,-0.1058 -0.34287,-0.042 -0.68657,0 -1.0252,-0.068 -0.8652,-0.1228 -1.42266,-0.2074 -1.94288,-0.364 h -0.0931 z m -17.95618,0.2074 c -0.0423,0 -0.0762,-8e-4 -0.11429,0.042 -0.42328,0.072 -0.84741,0.081 -1.27324,0.076 h -1.85991 c 0.61334,0.076 1.38541,0.2667 1.76086,0.381 0.12275,0.042 0.24974,0.051 0.37249,0.085 -0.0423,0 -0.11428,-0.042 -0.15661,-0.051 0.10582,0 0.19048,-9e-4 0.27937,0.042 0.0719,0.042 0.13121,0.059 0.19894,0.093 -0.11006,-0.042 -0.21164,-0.059 -0.3217,-0.085 0.20741,0.076 0.16508,0.046 0.73567,0.2624 -0.11429,-0.051 -0.2328,-0.1058 -0.34709,-0.1566 0.309,0.072 0.6163,0.1693 0.92572,0.2412 0.0847,-0.093 0.17355,-0.1904 0.25821,-0.2793 0.11428,-0.1312 0.2836,-0.2074 0.4381,-0.2879 0.36826,-0.1989 0.55281,-0.2412 0.76868,-0.3132 h -0.20741 -1.13271 -0.16508 -0.12275 c 0,0 8.4e-4,-8e-4 -0.0423,0 z" />
    </clipPath>
    <rect
       x="788.86603"
       y="2424.0505"
       width="618.71844"
       height="187.82526"
       id="rect98160-5-7-6" />
  </defs>
  <g
     inkscape:label="Layer 1"
     inkscape:groupmode="layer"
     id="layer1"
     transform="translate(0.06258698)">
    <g
       id="g118372"
       transform="translate(80.937536,-98.660824)"
       style="stroke-width:0.581868">
      <path
         style="fill:#000000;stroke-width:0.264585"
         d="m -70.912042,115.93045 c -0.506279,-0.0523 -0.745777,-0.15857 -0.777561,-0.34484 -0.03729,-0.21741 -0.369,-3.0659 -0.389645,-3.34436 -0.02001,-0.26688 -0.02001,-0.26688 -0.475085,-0.25257 -0.55757,0.0175 -0.52815,0.009 -0.52815,0.1647 0,0.0703 -0.02592,0.29682 -0.05711,0.50346 -0.06966,0.45759 -0.17511,1.2894 -0.290699,2.29192 -0.106403,0.92308 -0.07244,0.87978 -0.717538,0.91578 -0.983319,0.0549 -1.132829,-0.33751 -0.24832,-0.65166 0.142508,-0.0505 0.142508,-0.0505 0.161378,-0.59107 0.02865,-0.82016 0.103948,-1.89594 0.161242,-2.30304 0.06011,-0.42744 0.07812,-0.37223 -0.133095,-0.40873 -0.598904,-0.10352 -0.649923,-0.12876 -0.633098,-0.31287 0.04615,-0.50406 0.108631,-0.99342 0.167607,-1.31208 0.03774,-0.20342 0.06525,-0.3734 0.0613,-0.37776 -0.0291,-0.0317 -1.025198,0.79378 -1.070533,0.88691 -0.07071,0.14539 -0.149919,0.2253 -0.282605,0.28514 -0.149237,0.0672 -0.03638,0.73866 0.373911,2.22705 0.222901,0.80838 0.153966,1.02257 -0.329213,1.02257 -0.146054,0 -0.138415,-0.0685 -0.07553,0.67727 0.01455,0.17222 0.01864,0.33282 0.0095,0.3569 -0.01273,0.0327 0.005,0.0437 0.06698,0.0437 0.169699,0 0.460307,0.28728 0.355859,0.35183 -0.190071,0.11747 -0.962493,0.0368 -1.016877,-0.1064 -0.03001,-0.0793 -0.08662,-0.7648 -0.08662,-1.05191 0,-0.25236 -0.03274,-0.27425 -0.320391,-0.21325 -0.185433,0.0394 -0.352722,0.0219 -0.461444,-0.0482 -0.09131,-0.0589 -0.08208,-0.11179 -0.119772,0.68912 -0.03911,0.82848 -0.0045,0.75328 -0.368818,0.78889 -0.410471,0.0401 -0.634963,0.007 -0.646649,-0.0932 -0.01091,-0.0934 0.137096,-0.25378 0.255867,-0.27753 0.07935,-0.0159 0.07935,-0.0159 0.09822,-0.36728 0.03319,-0.61885 0.02728,-0.75962 -0.03183,-0.73618 -0.526968,0.2084 -0.669021,-0.0907 -0.459807,-0.96837 0.221991,-0.9314 0.244591,-1.03328 0.291608,-1.31457 0.02501,-0.15033 0.05425,-0.28799 0.06475,-0.3059 0.01046,-0.0179 -0.131412,0.11244 -0.315253,0.28967 -0.183886,0.17723 -0.464763,0.41561 -0.624231,0.52973 -0.289926,0.2075 -0.289926,0.2075 -0.340035,0.41743 -0.07175,0.30072 -0.19148,0.41062 -0.259506,0.23828 -0.06889,-0.17457 -0.05156,-0.16753 -0.413016,-0.16753 -0.370956,0 -0.44271,-0.0253 -0.375776,-0.13249 0.03001,-0.0482 0.02865,-0.0612 -0.0077,-0.0752 -0.0678,-0.026 -0.05288,-0.0955 0.02819,-0.13256 0.07271,-0.0331 0.07271,-0.0331 0.0077,-0.0658 -0.09353,-0.0466 -0.0808,-0.10796 0.03047,-0.14533 0.07294,-0.0246 0.08758,-0.0403 0.06166,-0.0661 -0.07448,-0.0745 0,-0.11765 0.28456,-0.16853 0.401604,-0.0714 0.421748,-0.0833 0.797114,-0.47011 0.454532,-0.46844 0.556206,-0.59844 0.57203,-0.73169 0.0068,-0.0604 0.02546,-0.14788 0.04047,-0.19455 0.01501,-0.0466 0.0241,-0.0877 0.02001,-0.0911 -0.005,-0.003 -0.06148,-0.0335 -0.127593,-0.0669 -0.966903,-0.48743 -0.526786,-3.00961 0.536245,-3.07294 0.137414,-0.009 0.16788,-0.0231 0.291107,-0.14269 0.573804,-0.55672 1.271608,-0.37172 1.864782,0.49439 0.187479,0.27373 0.619821,0.10491 1.236777,-0.4828 0.325211,-0.30983 0.624868,-0.92526 0.510098,-1.04764 -0.08053,-0.0859 -0.07285,-0.10707 0.308205,-0.84203 0.33176,-0.63999 0.460216,-0.80306 0.67857,-0.86145 0.161332,-0.0432 0.160014,-0.0553 -0.01273,-0.11661 -0.277967,-0.0987 -0.440254,-0.33302 -0.565028,-0.81569 -0.06425,-0.24859 -0.06425,-0.24859 -0.224719,-0.26745 -1.666936,-0.19592 -0.311434,-3.55508 1.403747,-3.47879 0.212943,0.01 0.267645,-0.005 0.193617,-0.0504 -0.118589,-0.0733 -0.176019,-0.414227 -0.09763,-0.579457 0.101583,-0.214093 0.398739,-0.22421 0.464854,-0.01578 0.01273,0.0407 0.05461,0.01228 0.211988,-0.14454 1.228274,-1.223872 2.284301,-0.04279 2.167212,2.423667 -0.04502,0.94828 -0.04365,1.14496 0.01,1.32536 0.0899,0.30267 0.361179,0.42308 0.543156,0.2411 0.218945,-0.21896 0.123137,0.22675 -0.110859,0.51567 -0.459261,0.56708 -1.641654,0.25575 -1.641654,-0.43226 0,-0.0983 -0.04365,-0.0336 -0.101583,0.14966 -0.103493,0.32854 -0.342445,0.67522 -0.586036,0.85014 -0.189843,0.13634 -0.174519,0.19866 0.04884,0.19866 0.454805,0 0.968677,0.28671 1.600093,0.89278 0.308387,0.29596 0.318027,0.31143 0.245,0.39211 -0.0432,0.0475 -0.03547,0.0641 0.10231,0.22997 0.625141,0.75117 0.716357,1.33612 0.237088,1.52026 -0.100901,0.0387 -0.947078,0.30234 -1.101408,0.34309 -0.06812,0.0179 -0.123819,0.0451 -0.123819,0.0602 0,0.0463 -0.21176,0.16897 -0.327758,0.18994 -0.13223,0.024 -0.133003,-0.0131 0.0068,0.3593 0.276966,0.73619 0.869595,2.93119 0.807981,2.99279 -0.01319,0.0132 -0.517737,0.17832 -0.655197,0.21443 -0.106267,0.028 -0.122091,0.0418 -0.110223,0.097 0.02001,0.092 0.06812,0.62861 0.105449,1.17143 0.13364,1.94516 0.153193,2.12615 0.230994,2.13561 0.519147,0.0633 0.98191,0.42111 0.828262,0.64046 -0.07598,0.10852 -0.489545,0.16442 -0.901289,0.12184 z m 0.721858,-0.11323 c 0.201848,-0.0409 0.124774,-0.26959 -0.131776,-0.39096 -0.287606,-0.13606 -0.296928,-0.13482 -0.403331,0.0537 -0.10613,0.188 -0.406469,0.19771 -0.850133,0.0274 -0.0291,-0.0111 -0.03592,0.01 -0.02728,0.0831 0.02274,0.19485 0.886374,0.33337 1.412705,0.22661 z m -3.671633,-0.0782 c 0.209623,-0.0385 0.254912,-0.0562 0.254912,-0.0997 0,-0.0291 0.0077,-0.072 0.01637,-0.0954 0.01364,-0.0354 -0.005,-0.0385 -0.109268,-0.0188 -0.445028,0.0838 -0.646648,0.0676 -0.716492,-0.0577 -0.07507,-0.13441 -0.119681,-0.12837 -0.324348,0.0438 -0.171973,0.14475 -0.197391,0.23958 -0.0678,0.25315 0.278331,0.0291 0.712946,0.0174 0.946715,-0.0254 z m -3.82942,-0.0228 c 0.20876,-0.12902 -0.31398,-0.32112 -0.577032,-0.21205 -0.0944,0.0392 -0.233086,0.16544 -0.233086,0.21227 0,0.0361 0.751688,0.0358 0.810118,0 z m 2.0353,-0.0279 c 0.09704,-0.097 -0.313525,-0.24772 -0.625823,-0.22964 -0.303794,0.0176 -0.379367,0.18771 -0.100128,0.22533 0.07612,0.0107 0.151511,0.0239 0.167562,0.0303 0.04825,0.0193 0.53579,-0.003 0.558389,-0.026 z m 4.871488,-0.28687 c 0.06407,-0.10724 0.06407,-0.10724 -0.07544,-0.14655 -0.139506,-0.0393 -0.139506,-0.0393 -0.173791,-0.43173 -0.06943,-0.79482 -0.189661,-2.324 -0.205485,-2.61448 -0.0141,-0.25634 -0.02319,-0.29733 -0.06307,-0.28582 -0.02592,0.007 -0.195482,0.0302 -0.377231,0.0507 -0.330441,0.0373 -0.330441,0.0373 -0.314162,0.14015 0.0086,0.0565 0.04979,0.41091 0.09072,0.78746 0.06889,0.63366 0.109131,0.98562 0.239043,2.0911 0.05511,0.4688 0.05752,0.47106 0.563118,0.52551 0.242408,0.0262 0.227993,0.0314 0.316344,-0.11639 z m -3.142165,0.0624 c 0.356359,-0.0437 0.34049,-0.0331 0.363407,-0.24034 0.04574,-0.41435 0.349539,-2.81917 0.380232,-3.01012 0.0191,-0.1197 0.0191,-0.1197 -0.311615,-0.15399 -0.181931,-0.0188 -0.35836,-0.0402 -0.392009,-0.0473 -0.05743,-0.0122 -0.06243,0.003 -0.08035,0.24139 -0.01046,0.13991 -0.04502,0.52315 -0.07689,0.85163 -0.03183,0.32848 -0.06657,0.94081 -0.07726,1.36074 -0.01955,0.76351 -0.01955,0.76351 -0.157877,0.81326 -0.138324,0.0498 -0.138324,0.0498 -0.07726,0.13236 0.06853,0.0926 0.08449,0.0945 0.429614,0.0523 z m -3.754528,-0.20284 c 0.01,-0.14569 0.01,-0.14569 -0.106448,-0.14599 -0.06402,0 -0.164334,-0.009 -0.222719,-0.0178 -0.09713,-0.0161 -0.189298,0.22293 -0.114725,0.29741 0.09881,0.0987 0.434798,-0.002 0.443892,-0.13356 z m 1.425483,0.11655 c 0.172382,0 0.172382,0 0.172382,-0.16279 0,-0.1628 0,-0.1628 -0.116498,-0.14567 -0.396965,0.0583 -0.358269,0.0402 -0.338671,0.15862 0.0095,0.0584 0.01773,0.12392 0.01773,0.14568 0,0.024 0.01864,0.0327 0.04643,0.0219 0.02546,-0.01 0.123682,-0.0176 0.21849,-0.0176 z m -1.400792,-0.52034 c 0,-0.0939 0.0086,-0.23114 0.01819,-0.30496 0.01864,-0.13424 0.01864,-0.13424 -0.07994,-0.10608 -0.05402,0.0155 -0.167244,0.0282 -0.251457,0.0282 -0.241953,0 -0.242135,0.51514 0,0.53206 0.352494,0.0247 0.313162,0.0435 0.313162,-0.14926 z m 1.453994,0.11691 c 0.08603,-0.0176 0.152374,-0.50536 0.07871,-0.57901 -0.09122,-0.0912 -0.45476,0.1103 -0.454487,0.25194 0,0.40336 0,0.40368 0.375777,0.32707 z m -1.43285,-0.70773 c 0.09517,-0.0589 0.106358,-0.0597 0.197164,-0.0163 0.164016,0.0782 0.286652,0.0873 0.473312,0.0348 0.160469,-0.0451 0.181886,-0.0453 0.264462,-0.003 0.123636,0.064 0.216762,0.0583 0.377731,-0.0229 0.107676,-0.0543 0.153193,-0.0631 0.210259,-0.0413 0.402058,0.15434 0.655061,-0.11716 0.521421,-0.55953 -0.329531,-1.09075 -0.639919,-2.63175 -0.548476,-2.7232 0.0191,-0.0192 0.03456,-0.007 0.0457,0.035 0.01682,0.0641 0.01682,0.0641 0.127183,0.007 0.321528,-0.16403 0.312707,-0.61526 -0.01546,-0.78985 -0.203439,-0.10826 -0.500959,0.14351 -0.497275,0.42084 0.005,0.31477 -0.209533,0.44788 -0.496321,0.30904 -0.136732,-0.0661 -0.136732,-0.0661 -0.197618,0.007 -0.143735,0.17466 -0.350039,0.19141 -0.500777,0.0406 -0.09717,-0.0971 -0.115952,-0.1611 -0.101583,-0.34525 0.01864,-0.2359 -0.769331,-0.0839 -0.961538,0.18564 -0.253276,0.35516 0.09153,0.76882 0.482906,0.57936 0.160787,-0.0779 0.198164,-0.0583 0.09763,0.0511 -0.08285,0.0901 -0.143598,0.30599 -0.214943,0.76445 -0.02637,0.16826 -0.07244,0.40544 -0.10272,0.52708 -0.03047,0.12165 -0.10081,0.42973 -0.156603,0.68465 -0.05575,0.2549 -0.11618,0.5057 -0.134232,0.55732 -0.0678,0.19412 0.160378,0.36829 0.398875,0.3045 0.164788,-0.0441 0.241089,-0.0419 0.330941,0.01 0.107676,0.0615 0.283469,0.0534 0.399921,-0.0186 z m 0.416518,-2.02887 c -0.425566,-0.28896 -0.344764,-0.82808 0.08767,-0.58506 0.110768,0.0623 0.110768,0.0623 0.189934,0 0.328258,-0.2582 0.523831,0.16392 0.227766,0.49161 -0.207031,0.2292 -0.284423,0.24349 -0.505369,0.0935 z m 0.389099,-0.10107 c 0.292972,-0.28208 0.181431,-0.66779 -0.114906,-0.39723 -0.07471,0.0683 -0.0964,0.0679 -0.187479,-0.003 -0.208986,-0.16348 -0.376048,0.0161 -0.231904,0.2495 0.158923,0.25717 0.363908,0.31514 0.534289,0.15109 z m -2.869018,0.79801 c 0.03365,-0.12463 0.06116,-0.25518 0.06116,-0.29016 0,-0.0349 0.01319,-0.0636 0.0291,-0.0636 0.01591,0 0.0291,0.0202 0.0291,0.0446 0,0.10523 0.666156,-0.43606 0.992913,-0.80686 0.213125,-0.24186 0.213125,-0.24186 0.09304,-0.26235 -0.144918,-0.0248 -0.265235,-0.084 -0.341491,-0.16826 -0.0547,-0.0605 -0.948397,0.74772 -0.948397,0.85776 0,0.0164 -0.157331,0.0547 -0.349584,0.0849 -0.339626,0.0534 -0.411561,0.0814 -0.291335,0.11281 0.09954,0.026 0.06434,0.0765 -0.08017,0.11496 -0.138369,0.0367 -0.138369,0.0367 0.02956,0.0515 0.210578,0.0183 0.215899,0.0584 0.01637,0.12286 -0.155103,0.05 -0.155103,0.05 4.09e-4,0.0333 0.206986,-0.0222 0.206577,0.0624 -4.09e-4,0.13267 -0.07494,0.0254 -0.145008,0.055 -0.155649,0.0659 -0.03865,0.0396 0.240999,0.057 0.413381,0.0258 0.206577,-0.0375 0.330168,-0.006 0.330168,0.0826 0,0.23066 0.09235,0.15625 0.171927,-0.13844 z m 7.438621,-1.06685 c 0.600222,-0.0637 1.625966,-0.29603 1.719319,-0.38939 0.06098,-0.061 -0.344582,-1.61137 -0.699623,-2.67468 -0.225175,-0.67447 -0.225175,-0.67447 -0.350357,-0.67494 -0.184114,-4.3e-4 -0.280286,-0.12715 -0.175975,-0.23146 0.02592,-0.0257 0.01591,-0.0406 -0.04092,-0.0624 -0.07662,-0.0291 -0.127547,-0.12433 -0.09481,-0.17724 0.01,-0.0161 0,-0.0576 -0.02592,-0.0922 -0.03138,-0.0448 -0.03592,-0.078 -0.01546,-0.1159 0.01955,-0.0362 0.01728,-0.0709 -0.0068,-0.10918 -0.05402,-0.0865 0.03365,-0.1977 0.186569,-0.23703 0.06812,-0.0175 0.134322,-0.0346 0.1471,-0.038 0.03592,-0.01 0.207986,-0.44861 0.279467,-0.71346 0.0643,-0.23846 0.0643,-0.23846 -0.04092,-0.37632 -0.20403,-0.26721 -0.0341,-0.16773 0.276693,0.16216 0.370274,0.39283 0.297156,0.39386 0.699669,-0.01 0.333987,-0.33492 0.333987,-0.33492 0.101492,-0.57142 -0.451168,-0.45889 -0.893968,-0.75412 -1.283203,-0.85549 -0.269964,-0.0703 -0.287379,-0.0651 -0.410425,0.12307 -0.126683,0.19382 -0.686618,0.76476 -0.74996,0.76476 -0.09199,0 -0.325575,-0.44528 -0.356723,-0.68005 -0.01864,-0.14107 -0.01864,-0.14107 -0.153011,-0.12193 -0.455078,0.0649 -0.520784,0.13209 -0.94485,0.96705 -0.357406,0.70372 -0.356632,0.71169 0.0823,0.86365 0.279649,0.0968 0.282332,0.096 0.21508,-0.0597 -0.113224,-0.26231 -0.106858,-0.39835 0.03092,-0.66312 0.105539,-0.20251 0.11909,-0.2493 0.103357,-0.35688 -0.02046,-0.14036 0.02319,-0.16889 0.06684,-0.0437 0.02774,0.0801 0.02774,0.0801 0.04934,0 0.01182,-0.044 0.03274,-0.0801 0.04729,-0.0801 0.0572,0 0.0191,0.12664 -0.11095,0.37022 -0.169244,0.31659 -0.182658,0.49434 -0.05957,0.78867 0.07648,0.18292 0.07648,0.18292 -0.03592,0.62638 -0.218217,0.86167 -0.413062,1.60695 -0.425157,1.62656 -0.0068,0.0109 0.0068,0.027 0.02956,0.0358 0.167471,0.0642 0.137915,0.31051 -0.03729,0.31051 -0.139369,0 -0.418791,1.28691 -0.487407,2.24485 -0.02001,0.27832 -0.02001,0.27832 0.311388,0.34211 0.791611,0.15237 1.439124,0.18492 2.158845,0.10855 z m 0.138324,-5.61708 c -0.225993,-0.1807 -0.195846,-0.54803 0.03865,-0.4724 0.03501,0.0113 0.132686,0.0185 0.216717,0.0159 0.137142,-0.005 0.15624,0.003 0.18616,0.0685 0.09094,0.19958 -0.275102,0.52123 -0.441618,0.38808 z m 0.223082,-0.11074 c 0.174565,-0.10787 0.167972,-0.27939 -0.0095,-0.2461 -0.06461,0.0122 -0.116952,0.005 -0.14569,-0.0183 -0.05661,-0.047 -0.161833,0.0661 -0.134322,0.14443 0.05807,0.16489 0.153056,0.20426 0.289425,0.11998 z m -5.419872,4.7916 c 0.117453,-0.0558 0.124955,-0.0858 0.02728,-0.11034 -0.03956,-0.01 -0.113724,-0.0703 -0.165107,-0.13425 -0.128093,-0.15935 -0.230221,-0.16252 -0.227311,-0.006 0.005,0.25392 0.149646,0.35379 0.364999,0.25161 z m 0.686755,-0.12235 c 0.04988,-0.0504 0.06252,-0.10523 0.05661,-0.2458 -0.0045,-0.12048 -0.09695,-0.1031 -0.188797,0.0358 -0.04229,0.0637 -0.11145,0.13862 -0.154011,0.1665 -0.07735,0.0506 -0.07735,0.0506 0.0077,0.0875 0.0989,0.0429 0.210214,0.0255 0.278921,-0.0438 z m -0.387462,-0.10543 c 0.198573,-0.10268 0.172155,-0.13175 -0.102993,-0.11321 -0.298929,0.0202 -0.309433,0.0249 -0.217808,0.0992 0.08171,0.0661 0.209078,0.0718 0.320801,0.014 z m -1.690536,-0.0709 c 0.142417,-0.10011 0.280059,-0.16078 0.438754,-0.19349 0.157467,-0.0325 0.157467,-0.0325 0.04688,-0.0976 -0.09244,-0.0545 -0.12491,-0.0602 -0.19821,-0.0347 -0.223856,0.078 -0.431433,-0.005 -0.489,-0.19831 -0.07639,-0.25506 0.06607,-0.49946 0.291245,-0.49946 0.137642,0 0.136778,0.003 0.0607,-0.21793 -0.05807,-0.16877 -0.05807,-0.16877 0.03683,-0.27404 0.248819,-0.27574 0.452168,-0.90437 0.337352,-1.04273 -0.08239,-0.0991 0.01955,-0.0641 0.180158,0.062 0.443664,0.34857 0.939985,0.46809 1.476684,0.35562 0.198437,-0.0416 0.227538,-0.0346 0.233086,0.0563 0.0077,0.12379 0.151283,0.41884 0.295928,0.6076 0.205712,0.26836 0.198892,0.59995 -0.01728,0.83875 -0.06684,0.0738 0,0.0652 0.130594,-0.0168 0.0597,-0.0376 0.14328,-0.0894 0.185614,-0.11517 0.254821,-0.15513 -0.459852,-1.71439 -1.03502,-2.25805 -0.431115,-0.40753 -1.009147,-0.41295 -1.408886,-0.0131 -0.09394,0.094 -0.141462,0.11796 -0.261597,0.13219 -0.671931,0.0796 -1.110502,0.94595 -0.996415,1.96822 0.07439,0.66652 0.418201,1.13366 0.692484,0.94089 z m 3.711785,-0.54759 c 0.275329,-0.21624 0.429705,-0.35677 0.429705,-0.39109 0,-0.0295 0.03274,-0.15566 0.07244,-0.28045 0.04001,-0.1248 0.07266,-0.25785 0.07285,-0.2957 4.09e-4,-0.0628 0.0095,-0.0671 0.10272,-0.0496 0.111177,0.0208 0.180157,-0.051 0.09854,-0.10254 -0.15383,-0.0974 -0.382824,-0.005 -0.371683,0.1492 0.01273,0.17692 -0.530424,0.5952 -1.175026,0.90472 -0.136687,0.0657 -0.136687,0.0657 -0.02183,0.17729 0.07398,0.0718 0.12732,0.15761 0.149465,0.24046 0.03456,0.12885 0.03456,0.12885 0.123682,0.0571 0.04906,-0.0395 0.282605,-0.22366 0.518965,-0.4093 z m -1.795438,0.33652 c 0.700168,-0.21626 1.016286,-0.79735 0.680252,-1.25059 -0.08053,-0.10865 -0.180112,-0.28883 -0.221309,-0.40042 -0.07494,-0.2029 -0.07494,-0.2029 -0.207805,-0.16291 -0.392736,0.11819 -1.021651,-0.0126 -1.379011,-0.2869 -0.133731,-0.10266 -0.133731,-0.10266 -0.168198,0.1194 -0.04047,0.2609 -0.160105,0.53317 -0.30425,0.6927 -0.102856,0.11384 -0.102856,0.11384 -0.04988,0.27317 0.09963,0.30003 0.08267,0.62552 -0.01864,0.36103 -0.09595,-0.24988 -0.442619,0.041 -0.357269,0.29972 0.05261,0.15943 0.321165,0.22133 0.440891,0.10159 0.01773,-0.0177 0.08658,0.007 0.189434,0.0693 0.430523,0.25926 0.936165,0.32582 1.396063,0.18378 z m -0.333215,-0.20283 c -0.337761,-0.0715 -0.413607,-0.41664 -0.09735,-0.44315 0.107949,-0.009 0.267827,-0.0436 0.355314,-0.0768 0.225447,-0.0857 0.231949,-0.0832 0.231949,0.0866 0,0.30857 -0.208486,0.49301 -0.489909,0.43345 z m 0.247638,-0.11292 c 0.10763,-0.0656 0.140279,-0.11974 0.163515,-0.27094 0.01955,-0.12789 0.01137,-0.12983 -0.212625,-0.051 -0.08812,0.031 -0.222491,0.0567 -0.29861,0.0573 -0.158241,9e-4 -0.174156,0.035 -0.0753,0.16068 0.119499,0.15197 0.279695,0.1913 0.423021,0.10395 z m -1.647384,-0.14809 c -0.08303,-0.0691 -0.142916,-0.0725 -0.210078,-0.0117 -0.07421,0.0672 -0.100309,-0.002 -0.02819,-0.0737 0.08208,-0.0821 0.219491,-0.0766 0.308296,0.0122 0.12491,0.12491 0.06589,0.1865 -0.07012,0.0732 z m 0.704943,-0.71832 c -0.02865,-0.0451 -0.06875,-0.0924 -0.08917,-0.10521 -0.05434,-0.0341 -0.04547,-0.0833 0.01364,-0.076 0.02819,0.003 0.07389,-0.004 0.101947,-0.0159 0.07553,-0.0328 0.134141,4.3e-4 0.156376,0.0893 0.04047,0.16113 -0.09735,0.2423 -0.182976,0.10776 z m 1.119142,-0.27359 c -0.06416,-0.0373 -0.06852,-0.20909 -0.0068,-0.26046 0.02455,-0.0202 0.0527,-0.0286 0.06293,-0.0183 0.01,0.01 0.03592,0.004 0.05757,-0.014 0.03137,-0.0261 0.03956,-0.0107 0.04274,0.0803 0.0068,0.22609 -0.03501,0.28314 -0.156422,0.21245 z m 1.285704,0.75404 c 0.365954,-0.2223 0.763738,-0.53053 0.759236,-0.58836 -0.01501,-0.19228 0.02865,-0.24421 0.232996,-0.27819 0.09026,-0.0151 0.531879,-1.47219 0.488726,-1.61261 -0.0045,-0.0127 -0.07512,0.0748 -0.158331,0.19439 -0.413608,0.59494 -1.063667,1.17171 -1.560715,1.38476 -0.13214,0.0566 -0.13214,0.0566 -0.06289,0.22808 0.09249,0.22885 0.158786,0.49022 0.158786,0.62555 0,0.1291 0.0045,0.13038 0.142189,0.0465 z m -0.113087,-1.07382 c 0.663291,-0.39441 1.231866,-0.97523 1.571719,-1.60553 0.12973,-0.24056 0.129866,-0.2397 -0.03865,-0.27014 -0.06211,-0.0113 -0.183159,-0.0515 -0.268918,-0.0894 -0.08571,-0.0379 -0.161014,-0.0599 -0.167198,-0.0489 -0.0059,0.011 -0.02774,0.0724 -0.04779,0.13653 -0.155421,0.49582 -0.436934,0.81545 -1.115322,1.26631 -0.252366,0.16769 -0.455396,0.31191 -0.451167,0.32047 0.05593,0.11438 0.244272,0.43712 0.255231,0.4375 0.0077,4.2e-4 0.126001,-0.0658 0.262188,-0.1468 z m 4.329832,-0.53692 c 0.05693,-0.0238 0.151601,-0.0812 0.210305,-0.1276 0.0763,-0.0603 0.251821,-0.12753 0.616501,-0.23611 0.907837,-0.27025 0.985502,-0.33261 0.901562,-0.72401 -0.13596,-0.63383 -0.601541,-1.0452 -0.876916,-0.77476 -0.24209,0.23778 -0.247183,0.24561 -0.192617,0.29502 0.03092,0.028 0.122273,0.14936 0.203166,0.26994 0.08094,0.12054 0.155285,0.21686 0.165243,0.21403 0.01,-0.003 0.04092,-0.014 0.06907,-0.025 0.07435,-0.0289 0.06502,0.0505 -0.01455,0.12466 -0.08981,0.0835 -0.463535,0.27901 -0.684662,0.35801 -0.10272,0.0367 -0.182068,0.0825 -0.182068,0.10491 0,0.0863 -0.05088,0.0318 -0.115133,-0.12329 -0.107404,-0.25915 -0.371456,-0.35136 -0.660427,-0.23062 -0.160287,0.067 -0.112496,0.11879 0.09872,0.10709 0.09776,-0.005 0.204804,-9.1e-4 0.237907,0.01 0.108767,0.0345 0.06289,0.0734 -0.0864,0.0734 -0.351539,0 -0.4428,0.13678 -0.101037,0.15147 0.242908,0.0107 0.269827,0.0609 0.04365,0.0818 -0.267645,0.0249 -0.317436,0.11586 -0.06384,0.11669 0.247865,9.1e-4 0.267599,0.0562 0.05684,0.15966 -0.186979,0.0918 -0.09826,0.18189 0.09872,0.10031 0.0688,-0.0284 0.09335,-0.0282 0.12109,9.1e-4 0.02683,0.0287 0.02683,0.04 0,0.0504 -0.05134,0.0188 -0.04547,0.0668 0.0086,0.0668 0.02455,0 0.09122,-0.0194 0.148237,-0.0433 z m 0.418064,-0.74492 c 0.163151,-0.0694 0.431569,-0.21282 0.520829,-0.27824 0.01455,-0.0107 -0.160787,-0.26461 -0.294336,-0.42637 -0.100719,-0.12195 -0.12109,-0.13428 -0.174792,-0.10553 -0.05402,0.0289 -0.08303,0.01 -0.263052,-0.17511 -0.223856,-0.22967 -0.224765,-0.23029 -0.224765,-0.1533 0,0.0817 -0.190344,0.63164 -0.258733,0.74749 -0.05979,0.10139 -0.05979,0.10139 0.03456,0.10139 0.14951,0 0.288834,0.0926 0.366636,0.24378 0.0382,0.0741 0.07294,0.13495 0.07707,0.13495 0.005,0 0.101719,-0.0401 0.216762,-0.089 z m -1.629559,-2.20233 c 0.1948,-0.20424 0.407515,-0.4788 0.405924,-0.52397 -4.1e-4,-0.0139 -0.0141,-0.002 -0.03047,0.0257 -0.04502,0.0769 -0.08508,0.0612 -0.08508,-0.0332 0,-0.0842 0,-0.0842 -0.239816,0.0194 -0.131913,0.0571 -0.301203,0.1096 -0.376231,0.1168 -0.102401,0.01 -0.140006,0.0268 -0.150783,0.0679 -0.0191,0.073 -0.07803,0.0703 -0.07803,-0.003 0,-0.0319 -0.01319,-0.0583 -0.0291,-0.0583 -0.05684,0 0.02137,0.27844 0.149965,0.53294 0.100765,0.19961 0.108404,0.19706 0.433706,-0.14398 z m -0.445346,-0.54955 c 0.863456,-0.1638 1.239186,-0.47519 1.495145,-1.2392 0.07444,-0.22241 0.08503,-0.28892 0.06884,-0.43255 -0.02183,-0.19448 0.03456,-0.3541 0.152921,-0.43165 0.09613,-0.063 0.120772,-0.0232 0.03956,0.0633 -0.06721,0.0716 -0.06721,0.0716 0.0241,0.17571 0.09313,0.10608 0.113723,0.17226 0.0632,0.20351 -0.01546,0.01 -0.04702,-0.0273 -0.06984,-0.0821 -0.08053,-0.19284 -0.151056,-0.16104 -0.118863,0.0536 0.04661,0.31082 0.420929,0.038 0.420929,-0.30673 0,-0.45523 -0.494183,-0.55266 -0.61059,-0.12038 -0.05338,0.19839 -0.09858,0.14202 -0.15965,-0.19933 -0.0241,-0.13538 -0.05334,-0.16782 -0.293154,-0.32657 -0.287243,-0.19013 -0.563481,-0.59114 -0.567801,-0.82421 0,-0.0346 -0.0472,0.0247 -0.114497,0.14567 -0.235724,0.4239 -0.651242,0.82599 -1.178028,1.13996 -0.23636,0.14089 -0.245955,0.15038 -0.167562,0.16606 0.04574,0.01 0.09163,0.0388 0.102083,0.066 0.02728,0.0709 0,0.0847 -0.08835,0.0445 -0.06744,-0.0308 -0.09131,-0.0256 -0.192163,0.0411 -0.131685,0.0871 -0.168153,0.077 -0.09958,-0.0276 0.04729,-0.0721 0.04729,-0.0721 -0.07621,-0.016 -0.06793,0.0309 -0.118908,0.0728 -0.113406,0.0932 0.402013,1.47723 0.511554,1.7112 0.840448,1.7957 0.28456,0.0731 0.3434,0.0748 0.642602,0.0181 z m -0.215126,-0.24598 c -0.102401,-0.0242 -0.223764,-0.10427 -0.328212,-0.2162 -0.0803,-0.086 -0.09758,-0.0752 0.259278,-0.16201 0.136232,-0.0331 0.327939,-0.0994 0.426021,-0.14754 0.228903,-0.1121 0.226084,-0.11286 0.206031,0.0564 -0.04183,0.35475 -0.264689,0.54038 -0.563118,0.46944 z m 0.299111,-0.14033 c 0.06889,-0.0558 0.121363,-0.14669 0.157559,-0.27291 0.02865,-0.10031 0.0391,-0.0993 -0.147964,-0.0126 -0.08389,0.0389 -0.236633,0.0935 -0.339444,0.12127 -0.152466,0.0413 -0.179885,0.0574 -0.148919,0.0878 0.128547,0.12646 0.369546,0.16492 0.478768,0.0764 z m -0.619775,-0.47053 c -0.12591,-0.0768 -0.141507,-0.11274 -0.07889,-0.18195 0.03683,-0.0408 0.05388,-0.10426 0.05388,-0.2021 0,-0.15329 0.04138,-0.17587 0.07707,-0.0421 0.01364,0.0502 0.0068,0.12682 -0.01773,0.19725 -0.03956,0.11514 -0.03956,0.11514 0.0597,0.17379 0.05475,0.0323 0.09945,0.0705 0.09945,0.0848 0,0.0441 -0.09685,0.0291 -0.193481,-0.0298 z m -0.550886,-0.51114 c -0.02319,-0.0556 -0.04229,-0.11457 -0.04229,-0.13111 0,-0.0166 -0.01319,-0.03 -0.0291,-0.03 -0.01591,0 -0.0291,-0.0192 -0.0291,-0.0427 0,-0.0247 0.01728,-0.0361 0.04093,-0.0271 0.02228,0.009 0.04943,0.002 0.06002,-0.0155 0.06384,-0.10331 0.219718,0.03 0.219718,0.18802 0,0.1808 -0.152011,0.22125 -0.219991,0.0585 z m 0.935392,-0.13854 c -0.08853,-0.12646 -0.05047,-0.31398 0.06375,-0.31398 0.04047,0 0.09058,-0.023 0.111041,-0.051 0.05279,-0.0721 0.0874,-0.0223 0.04665,0.0671 -0.01864,0.041 -0.02592,0.10672 -0.01591,0.146 0.03956,0.15708 -0.119453,0.27455 -0.205349,0.15186 z m -0.204894,-0.57509 c -0.04975,-0.0804 0.131685,-0.23416 0.27633,-0.23416 0.09199,0 0.231222,0.13636 0.165288,0.16196 -0.0291,0.0112 -0.0678,0.005 -0.0859,-0.0124 -0.05607,-0.0561 -0.174656,-0.0366 -0.256914,0.0422 -0.0522,0.05 -0.08535,0.0642 -0.09881,0.0425 z m 3.233153,1.43404 c 0.171382,-0.06 0.452531,-0.32078 0.503186,-0.4667 0.03092,-0.0887 0.0291,-0.093 -0.02183,-0.0655 -0.427477,0.22877 -0.663928,-0.17915 -0.641647,-1.10681 0.05616,-2.335407 -0.08999,-2.985698 -0.733135,-3.262355 -0.567801,-0.244254 -1.508559,0.191816 -1.416934,0.656798 0.05634,0.286047 0.162742,0.298717 0.37523,0.0447 0.274056,-0.327681 0.527286,-0.401158 0.67957,-0.197169 0.139233,0.186479 0.03683,0.470176 -0.223447,0.617586 -0.104311,0.0592 -0.104311,0.0592 0.113633,0.15721 0.734454,0.33051 1.044024,1.26175 0.635145,1.91041 -0.03001,0.0474 -0.02865,0.0911 0.0068,0.23469 0.0788,0.31691 -0.07166,0.59977 -0.342217,0.64303 -0.131003,0.0209 -0.136687,0.0421 -0.07112,0.26299 0.144827,0.48758 0.649969,0.74147 1.136513,0.5712 z m -4.275221,-0.51014 c -0.0077,-0.0201 -0.05134,-0.17716 -0.09781,-0.34913 -0.06257,-0.23183 -0.09572,-0.31095 -0.128138,-0.30589 -0.144872,0.0225 0.01455,-0.0906 0.407878,-0.2895 0.815575,-0.4125 1.240778,-0.81259 1.58918,-1.49542 0.0818,-0.16023 0.0818,-0.16023 0.120408,0.0268 0.08308,0.4018 0.276921,0.67532 0.621003,0.87631 0.197073,0.11508 0.243409,0.17552 0.278649,0.36344 0.02001,0.10639 0.02001,0.10639 0.07216,0.0206 0.106085,-0.17451 0.339035,-0.23878 0.487726,-0.13464 0.08585,0.0601 0.107222,0.0421 0.184978,-0.15519 0.346674,-0.88014 -0.427841,-1.82157 -1.377647,-1.67454 -0.19771,0.0306 -0.208441,0.029 -0.397875,-0.0599 -0.745776,-0.349807 -1.639789,0.0824 -2.148478,1.03869 -0.441618,0.83014 -0.486271,1.55658 -0.120272,1.95703 0.153466,0.16788 0.555979,0.31153 0.508234,0.18138 z m 2.209273,-3.23746 c 0,-0.002 0.04274,-0.0626 0.0919,-0.13475 0.205804,-0.301983 0.619321,-0.549343 0.619321,-0.370477 0,0.0466 -0.26228,0.303447 -0.434116,0.425267 -0.169745,0.12035 -0.07462,0.12437 0.179839,0.007 0.306341,-0.14061 0.416837,-0.337743 0.283924,-0.506692 -0.148692,-0.18902 -0.575168,0.101911 -0.858682,0.585802 -0.01819,0.0314 0.09567,0.0249 0.117816,-0.006 z m -0.522966,-0.18574 c -0.129321,-0.256195 -0.17411,-0.604533 -0.07776,-0.604533 0.06011,0 0.208441,0.303399 0.226447,0.462967 0.01773,0.155626 0.0663,0.151246 0.06484,-0.005 -0.0045,-0.408251 -0.282332,-0.682412 -0.420884,-0.414472 -0.109358,0.211433 0.05934,0.648468 0.269464,0.698388 0.0045,9.1e-4 -0.02365,-0.0603 -0.06207,-0.13652 z m -3.550498,7.27689 c -0.213761,-0.18816 -0.276602,-0.3728 -0.16688,-0.49054 0.07666,-0.0823 0.17943,-0.081 0.277512,0.003 0.07803,0.0671 0.07803,0.0671 0.159605,-0.0145 0.208486,-0.2085 0.399239,0.0161 0.264871,0.3119 -0.134005,0.29495 -0.334806,0.36622 -0.535108,0.1899 z m 0.381096,-0.10213 c 0.217717,-0.24797 0.113224,-0.53694 -0.115088,-0.31823 -0.08408,0.0805 -0.08408,0.0805 -0.154057,0.0147 -0.245637,-0.23079 -0.335716,0.0563 -0.09544,0.30432 0.179567,0.18541 0.201075,0.18535 0.36459,-9.1e-4 z m -1.703995,-0.92842 c -0.167608,-0.11547 -0.327849,-0.32701 -0.349721,-0.4617 -0.03683,-0.22575 0.230449,-0.3443 0.418746,-0.18586 0.0823,0.0691 0.0848,0.0694 0.11959,0.0137 0.09699,-0.15524 0.268782,-0.20172 0.370319,-0.1002 0.174565,0.17456 0.0086,0.6394 -0.280968,0.78941 -0.110541,0.0571 -0.116406,0.056 -0.277966,-0.0552 z m 0.361361,-0.13311 c 0.178566,-0.17856 0.246955,-0.48985 0.122318,-0.55655 -0.08339,-0.0447 -0.155967,-0.0136 -0.247046,0.10586 -0.07853,0.10299 -0.07853,0.10299 -0.140961,0.0446 -0.282514,-0.26459 -0.486863,-0.0147 -0.23386,0.28594 0.223128,0.2652 0.329077,0.2907 0.499549,0.12027 z m 1.433122,-0.51064 c -0.139324,-0.0914 -0.286834,-0.26383 -0.352267,-0.41165 -0.125092,-0.28288 0.143872,-0.4857 0.380277,-0.28676 0.08949,0.0752 0.08949,0.0752 0.177293,-0.0126 0.09658,-0.0966 0.185296,-0.1226 0.280786,-0.0825 0.24741,0.10394 0.08008,0.63712 -0.253366,0.80722 -0.132959,0.0678 -0.105903,0.0694 -0.232723,-0.0138 z m 0.29711,-0.15459 c 0.196891,-0.17749 0.28556,-0.44144 0.182841,-0.54416 -0.07062,-0.0706 -0.126047,-0.0556 -0.249275,0.0676 -0.113405,0.11339 -0.113405,0.11339 -0.203575,0.0291 -0.236133,-0.22056 -0.418473,-0.0109 -0.232041,0.26673 0.191526,0.28519 0.330668,0.33525 0.50205,0.1807 z m -3.308226,-0.29284 c -0.202211,-0.15077 -0.330804,-0.40961 -0.257368,-0.5181 0.0683,-0.10096 0.243681,-0.0996 0.356859,0.003 0.04615,0.0417 0.0522,0.0416 0.06839,-4.5e-4 0.02637,-0.0687 0.195391,-0.13214 0.260006,-0.0975 0.194572,0.10416 0.06089,0.50982 -0.215125,0.65253 -0.102447,0.053 -0.0844,0.0564 -0.212761,-0.0394 z m 0.214443,-0.0533 c 0.210851,-0.12454 0.312934,-0.4805 0.143462,-0.50016 -0.0557,-0.006 -0.09649,0.0152 -0.151328,0.0804 -0.07512,0.0893 -0.07512,0.0893 -0.150147,0.0142 -0.173337,-0.17337 -0.324029,-0.0107 -0.190343,0.20565 0.122409,0.19803 0.238588,0.2647 0.348356,0.19986 z m 1.123735,-0.87802 c -0.375958,-0.28472 -0.428477,-0.70581 -0.08808,-0.70581 0.08912,0 0.143053,0.0192 0.198664,0.0707 0.0763,0.0707 0.0763,0.0707 0.176111,-0.0291 0.263689,-0.26368 0.503005,0.0499 0.315708,0.41373 -0.166744,0.32385 -0.385461,0.41482 -0.602405,0.2505 z m 0.331896,-0.0666 c 0.121545,-0.088 0.263506,-0.32693 0.264143,-0.44446 0,-0.19263 -0.179157,-0.2255 -0.317345,-0.0579 -0.08881,0.10772 -0.08881,0.10772 -0.155057,0.0474 -0.236861,-0.21579 -0.443301,-0.0839 -0.300566,0.19218 0.136505,0.26402 0.352903,0.37578 0.508825,0.2628 z m 0.834945,-0.93888 c -0.08508,-0.085 -0.170199,-0.20296 -0.190116,-0.26332 -0.07794,-0.23615 0.166699,-0.37572 0.345356,-0.19705 0.05288,0.0529 0.05598,0.0524 0.123091,-0.0123 0.251502,-0.24299 0.432024,0.0798 0.217626,0.38915 -0.06571,0.0948 -0.259324,0.23755 -0.322165,0.23755 -0.01091,0 -0.08908,-0.0693 -0.173792,-0.15402 z m 0.43648,-0.13732 c 0.180704,-0.27344 0.04797,-0.48757 -0.160605,-0.25918 -0.06571,0.072 -0.08767,0.082 -0.10763,0.0493 -0.130822,-0.21571 -0.377413,-0.10826 -0.262325,0.11431 0.156785,0.30318 0.368227,0.34129 0.53056,0.0956 z"
         id="path23611-4"
         sodipodi:nodetypes="sssssssssssssssssssssssssssssssssssssssssssssssssssccssssssssscsssscssssssssssssssssssssssssssssssssssssscsscccssscssssssssssssssssssssssscssssssscsscssscccssssssssscssssssssssssssssssssssssssssssssssssssssssssssssssssssscsssssssssssssssssssssssssssssssssssssscssssssssssssssssssssssssssssssssssscssssssssscssssssssssssssssssssssssssssssssssssssssssssssssssssssssssssssscsccscssssssssssssssssssssssssccssssssssssssssssssssssssssssssssssssssssscssssssssssssssssssssssssssssssscssssssssssssssssssssssssssssssssssssssssssssssssssssssssssssssssssssssssssssssssssssssssssssssssssscsscssccssssssssssssssssssssssssssssss" />
    </g>
  </g>
</svg>
