<?xml version="1.0" encoding="UTF-8" standalone="no"?>
<!-- Created with Inkscape (http://www.inkscape.org/) -->

<svg
   width="9.8267632mm"
   height="11.399102mm"
   viewBox="0 0 9.8267643 11.399102"
   version="1.1"
   id="svg5985"
   inkscape:version="1.2.2 (b0a8486541, 2022-12-01)"
   sodipodi:docname="winter.svg"
   xmlns:inkscape="http://www.inkscape.org/namespaces/inkscape"
   xmlns:sodipodi="http://sodipodi.sourceforge.net/DTD/sodipodi-0.dtd"
   xmlns="http://www.w3.org/2000/svg"
   xmlns:svg="http://www.w3.org/2000/svg">
  <sodipodi:namedview
     id="namedview5987"
     pagecolor="#ffffff"
     bordercolor="#000000"
     borderopacity="0.25"
     inkscape:showpageshadow="2"
     inkscape:pageopacity="0.0"
     inkscape:pagecheckerboard="0"
     inkscape:deskcolor="#d1d1d1"
     inkscape:document-units="mm"
     showgrid="false"
     inkscape:zoom="5.3088146"
     inkscape:cx="41.063781"
     inkscape:cy="33.811691"
     inkscape:window-width="796"
     inkscape:window-height="878"
     inkscape:window-x="160"
     inkscape:window-y="18"
     inkscape:window-maximized="1"
     inkscape:current-layer="layer1" />
  <defs
     id="defs5982">
    <clipPath
       clipPathUnits="userSpaceOnUse"
       id="clipPath25107-2">
      <path
         id="path25109-8"
         style="fill:#ff0000;fill-opacity:1;fill-rule:nonzero;stroke:none;stroke-width:323.257"
         d="m 422.36252,921.96649 -226.92065,0.0423 v 505.51131 c 0.43641,-0.046 0.8707,-0.085 1.30626,-0.1397 0.68488,-0.089 1.36171,-0.2666 2.04997,-0.3217 4.17402,-0.3344 0.72509,-0.042 3.72025,-0.085 0.49482,0 0.98626,-0.059 1.48023,-0.089 2.64088,-0.2032 5.26059,-0.4897 7.91163,-0.5206 3.07432,-0.042 0.33016,0.1185 2.88511,-0.059 0.13122,0 0.26667,-0.042 0.39789,-0.051 h 0.0423 c 0,0 0.0508,0 0.0677,0 0.0762,0 0.15238,-0.042 0.23281,-0.042 0.0423,0 0.0423,-0.042 0.0762,-0.042 0,0 0.0423,0 0.0508,0 0.0423,0 -0.0423,0.042 -0.0593,0.042 0.27937,-0.063 0.56212,-0.1186 0.84319,-0.182 0,-1.0295 0.0423,-2.0526 0.14815,-3.0752 0.0466,-0.4106 0.45037,-0.4813 0.95069,-0.4631 0.50075,0 1.09462,0.1185 1.50436,0.059 0.53757,0.042 1.07599,0.042 1.61229,0.089 0.3471,0.042 0.68615,0.1058 1.03324,0.1481 0.58837,0.072 1.18012,0.1439 1.76933,0.2074 0.31747,0.042 0.63451,0.042 0.9507,0.059 1.4197,0.093 2.84109,0.1481 4.25783,0.2709 2.80215,0.254 5.60133,0.5765 8.39967,0.8681 4.47624,0.4466 8.92158,1.1112 13.35973,1.8354 0.20741,-0.3598 0.82371,-0.4241 1.93441,-0.4233 0.0423,-0.11 0.2582,0 0.38942,0 h 1.05822 c 2.814,0.042 5.61953,-0.051 8.43268,-0.1227 0.85462,0.042 1.70965,0.051 2.56299,0.1058 1.42944,0.097 2.84575,0.3005 4.27434,0.4063 1.69102,0.127 2.27219,0.144 3.02564,0.2159 0.33016,-0.1608 0.64593,-0.3598 0.96721,-0.5375 1.05948,-0.5783 1.94118,-1.1218 3.11665,-1.4879 2.64468,-0.8241 5.46249,-0.6523 8.1766,-1.0417 3.19072,-0.2159 5.15688,-0.3979 8.32517,-0.4381 2.38479,-0.042 4.77508,-0.047 7.15945,0 2.09145,0.042 4.1774,0.1651 6.26673,0.2709 10.25282,0.5189 8.59735,0.4487 17.7911,1.1162 3.7719,0.2963 7.5476,0.5765 11.3178,0.8927 5.70631,0.4779 11.40203,1.0371 17.10496,1.5543 0.27513,-0.046 0.5545,-0.08 0.82667,-0.1397 0.54689,-0.1227 1.06837,-0.3301 1.60383,-0.4961 5.31265,-1.6994 -0.2709,0.1059 3.53866,-1.1657 1.99876,-0.6667 4.26968,-1.5183 6.40727,-1.3803 -0.26667,0.085 -1.08065,0.2963 -0.80212,0.2582 0.55916,-0.08 1.09503,-0.2921 1.65335,-0.381 1.27112,-0.1989 3.82607,-0.3132 4.95243,-0.3047 5.21403,0.042 5.28811,0.165 10.37515,0.6696 2.68701,0.3344 5.37953,0.6265 8.06062,1.0087 1.96616,0.2794 3.92004,0.6442 5.87816,0.9752 5.72916,0.9685 11.45537,1.9734 17.17945,2.9681 0.0931,-0.042 0.18201,-0.093 0.2709,-0.1227 0.8106,-0.2879 2.17103,-0.3937 3.32364,-0.3387 0.35133,-0.1777 0.70477,-0.3428 1.08319,-0.4546 0.62434,-0.182 1.14964,0.051 1.70287,0.1143 1.30711,0.444 2.65273,0.764 3.97677,1.1573 z m -2.62902,505.85881 c 0.11852,0.042 0.23704,-4e-4 0.35556,0.042 0.22857,0.081 0.93461,0.2752 0.69461,0.2328 -0.35556,-0.063 -0.70223,-0.1608 -1.04975,-0.2582 z m -4.34884,0.3556 c -0.36825,0.055 -0.66836,0.1185 -1.20678,0.4148 -0.0847,0.046 -0.24127,0.1524 -0.37249,0.2328 0.0847,0 0.18201,0.051 0.26243,0.059 0.43683,-0.2413 0.87663,-0.4674 1.3143,-0.7027 z m -196.68708,10.7311 c -0.16084,0 -0.35979,0.042 -0.53715,0.059 -0.98117,0.2285 -1.52552,0.2709 -2.65399,0.3809 -0.73652,0.042 -1.4705,0.093 -2.20744,0.1058 -2.54225,0.055 0.69081,-0.2031 -2.80257,0 -1.44001,0.076 -2.87707,0.2413 -4.31539,0.3641 0.0423,0.8525 0.0635,1.7189 0,2.662 -0.26244,4.0716 -0.67768,8.1343 -0.98371,12.2025 -0.055,0.6992 -0.12699,1.3989 -0.14815,2.0999 -0.0423,1.0692 0,2.138 0,3.2076 0.0931,4.1254 -0.002,8.2655 -0.26244,12.3845 -0.0804,1.3241 -0.19895,2.6481 -0.33016,3.9683 -0.32593,3.2991 -0.28784,0.8495 -0.25821,3.5217 0,0.3979 0.0508,0.7924 0.0423,1.1907 -0.14815,7.4566 -0.0593,0.326 -0.2963,5.8947 -0.26667,6.2498 0.0762,0.2159 -0.0762,5.3241 -0.0423,1.3939 -0.12275,2.7814 -0.18201,4.1749 -0.20741,4.6874 -1.00573,9.3254 -1.47981,13.9883 -0.17778,1.7604 -0.19471,2.4419 -0.31323,4.4064 -0.0423,0.6649 -0.0847,1.3265 -0.0931,1.9924 -0.0931,5.4299 0.10159,10.872 0.10582,16.3032 -0.003,0.9262 0,1.8515 0,2.7776 -8.5e-4,0.2074 0,5.57 0,6.4568 -0.002,1.8773 -0.0804,3.7545 0,5.6301 0.0423,0.5905 0.11429,1.1729 0.17355,1.7609 0.40635,1.8912 0.39789,3.8493 0.70307,5.7541 0.24974,1.5691 0.24974,0.9397 0.53715,2.042 0.21588,0.8376 0.40636,1.6808 0.61165,2.5215 0.89186,3.727 1.04848,7.5789 1.49674,11.3758 0.52275,3.6356 0.18201,7.3084 0.15661,10.9622 0.0889,2.1088 0.001,4.1753 -0.23281,6.2752 -0.34709,2.9287 -0.30476,0.5173 -0.26243,3.1166 0.0593,2.2384 -0.0466,4.486 0.10582,6.7214 0.0593,0.3979 0.11429,0.7932 0.17355,1.1903 h 0.0508 c 0.11429,1.0967 0.19894,2.1922 0.2963,3.2906 -4.2e-4,0.6235 -0.0593,1.2559 0,1.8764 0.0423,0.2625 0.16931,0.4974 0.24127,0.7526 0.0931,0.3386 0.17355,0.6819 0.25397,1.0252 0.33863,1.4544 0.64467,2.8864 0.90922,4.3569 0.4999,2.9592 0.0974,5.9662 0.10582,8.9448 -0.0423,1.5023 0.15662,3.0232 0.0423,4.5224 -0.0762,0.9169 -0.19894,1.8303 -0.2963,2.7446 -0.23281,1.4053 -0.56043,2.789 -0.91768,4.1668 -0.14392,0.5622 -0.23704,1.145 -0.44657,1.6868 -0.2328,0.6007 -0.4927,1.192 -0.74413,1.7854 -0.0635,0.8047 -0.11852,1.6098 -0.18202,2.414 -0.31746,0.6701 -0.62942,1.3418 -0.95069,2.0089 0,0.4944 0,0.1186 -0.0593,1.3478 -0.19048,1.8802 -0.11006,1.2817 -0.47959,3.4887 -0.0762,0.455 -0.20317,0.9046 -0.24127,1.3642 -0.0423,0.3133 0.0466,0.6223 0.0593,0.9342 0.0423,0.8953 0.0593,1.7914 0.10159,2.6871 0.12699,1.9763 0.0804,3.9564 0.0593,5.9357 0,1.1716 -0.13122,0.7018 0.11429,1.4053 0.50117,2.3776 0.80889,4.7924 1.27324,7.1759 0.45207,1.4633 0.33016,2.9867 0.3217,4.4894 v 0.042 c 0.0423,0.2032 0.0677,0.4106 0.10158,0.6117 -0.0466,-0.1185 -0.0762,-0.2455 -0.12275,-0.381 8.5e-4,0.1397 0,0.2836 0,0.4233 8.5e-4,0.042 0.0635,-0.042 0.0974,-0.042 0.0423,0 0.0423,0.059 0.0423,0.059 0.54774,1.4489 0.81822,2.2363 0.5871,4.7121 0,0.1058 0,0.2116 0,0.3132 4.18418,3.1348 4.34926,8.7836 -0.21587,12.6405 -0.0974,0.5897 -0.19048,1.1167 -0.33017,1.951 -0.36825,1.2482 -0.83091,2.7429 -1.46372,4.1253 -0.0974,0.6121 -0.21164,1.1865 -0.39788,1.5543 0.002,0.063 0,0.127 0,0.1905 0,1.76 0.0466,2.4512 -0.38943,4.4068 0,0.047 -0.0423,0.093 -0.0423,0.1397 0.0677,0.3048 0,0.6222 0,0.9342 -0.003,0.8355 -0.0508,1.669 -0.0508,2.505 0.002,1.9039 0,3.8091 0,5.7126 -0.0847,0.9622 0.0931,1.9493 0,2.9101 -0.0889,0.919 -0.20741,1.8362 -0.31323,2.7531 -0.93927,5.01 0.77038,-4.2511 -0.5126,3.5132 -0.0423,0.1778 -0.0423,0.1143 -0.0804,0.3387 0.0423,0.1524 0.0804,0.3005 0.10582,0.4546 0.0931,0.5054 8.4e-4,1.0328 0,1.5462 -0.002,0.6582 0,1.3093 0,1.9675 0,0.6967 -8.5e-4,1.3807 0,2.0669 0,0 0.0423,0.042 0.0593,0.068 0.0635,0.072 0.10159,0.1524 0.15661,0.2328 0.24128,0.3386 0.19471,0.2582 0.38096,0.5291 0.0974,0.1397 0.18625,0.2878 0.28783,0.4233 0.10159,0.042 0.20318,0.059 0.30477,0.097 0.20741,-0.1186 0.44657,-0.2244 0.71916,-0.3133 0.65948,-0.2201 0.49524,-0.1947 1.43028,-0.3217 0.21164,-0.042 0.4326,-0.042 0.64509,-0.051 0.86435,0 0.82794,0.042 1.57081,0.059 h 0.37249 c 0.2582,-0.047 0.51345,-0.1185 0.76869,-0.1736 0.21164,-0.042 0.41905,-0.051 0.62815,-0.068 h 0.0931 c 0,0.042 -0.10582,0.059 -0.0762,0.059 0.0762,0 0.14392,-0.051 0.21588,-0.076 0.34286,-0.1228 0.21587,-0.085 0.52106,-0.1736 0.17355,-0.042 0.35556,-0.051 0.52911,-0.076 h 0.12275 c 0.24551,0 0.48932,-0.042 0.73567,0 0.13545,0 0.2709,-8e-4 0.40636,0.042 0.2328,0.042 0.13545,0.042 0.40635,0.051 h 0.31323 c -3.85444,-2.5207 -1.74097,-7.835 4.97699,-7.1265 2.58712,0.2709 5.00704,1.2547 7.50654,1.9014 0.66413,0.1736 1.34012,0.3217 2.00891,0.4712 0.47238,-0.8128 0.95705,-1.6174 1.50478,-2.381 0.0593,-0.063 1.74012,0.042 1.92637,0.042 1.06668,0 2.08764,-0.1016 3.14966,-0.1481 0.47832,-0.042 0.96467,-0.1059 1.43875,-0.042 1.61272,0.2201 1.68086,0.3175 2.73654,0.8678 0.40212,0.2497 0.80466,0.4986 1.20678,0.7526 0,0.042 -0.0423,0 -0.0423,0 -0.27091,-0.1059 -1.05187,-0.4843 -0.8106,-0.3217 0.40636,0.2709 0.88763,0.4343 1.31473,0.6696 h 0.16508 c 0.25397,-0.1947 0.52233,-0.2582 0.81017,-0.1397 h 0.0677 c 0.0466,0 0.0931,-0.042 0.13969,-0.042 0.0423,0.072 0.0508,0.1524 0.0804,0.2243 0.0804,0.055 0.072,0.199 0.14815,0.2582 0.072,0 0.14392,0 0.21588,0 0.18624,-0.042 0.34286,-0.165 0.5291,-0.2074 0.37249,-0.08 0.74752,-0.1608 1.12425,-0.2074 0.6544,-0.063 0.97652,-0.042 1.49631,0 -0.0423,-0.051 -0.0677,-0.097 -0.0974,-0.1481 0.10158,0.051 0.20317,0.11 0.30476,0.165 0.0423,0 0.055,0 0.0974,0 0.16931,0.042 0.33439,0.068 0.50413,0.068 0.10159,0 0.21164,-0.042 0.31323,-0.042 0.18625,0 0.36826,0 0.55408,0 0.43133,0.042 0.86774,0.059 1.29779,0.097 1.33462,0.1101 0.29207,0.1058 1.2652,0.1058 0.75176,-0.068 1.49166,0.127 2.23199,0.2074 0.0466,0.042 0.10158,0 0.14815,0 0.20317,-0.042 0.40212,-0.042 0.60318,-0.042 1.47769,-0.042 2.9613,0 4.43983,0 1.17716,0 0.89779,-0.042 2.56257,0.2328 0.37249,0.059 0.73525,0.1693 1.10774,0.2328 2.8995,0.4953 -0.55239,-0.1566 1.81081,0.2074 0.44996,0.072 0.89187,0.1736 1.33928,0.2582 0.28783,0.081 0.56762,0.2074 0.86816,0.2498 0.0423,0 -0.0466,-0.1397 0,-0.1397 0.19048,-0.085 0.40635,-0.051 0.60318,-0.051 2.94056,0.042 0.81271,0.046 3.15813,0.1143 0.61207,0.042 1.22287,0.042 1.83536,0.042 0.43683,0 0.87747,8e-4 1.31473,0 2.57146,-0.042 0.86435,-0.042 2.81061,-0.042 0.2709,8e-4 0.54562,0 0.81863,0 0,0 0.0423,0 0.0593,-0.042 0.61758,0 1.23473,0 1.85188,0 0.003,0 0,0 0,0 0.29206,0 0.57863,-0.042 0.86816,-0.08 1.29779,-0.1608 2.58669,-0.419 3.8938,-0.4961 0.39788,-0.042 0.80508,-0.042 1.20721,-0.042 1.38837,0.1016 2.77675,0.059 4.16681,0.059 1.18139,0 2.33527,-0.326 3.51327,-0.3979 0.56255,-0.051 1.1234,-0.051 1.68679,-0.051 1.69653,0.072 3.39517,0.076 5.09255,0.076 1.04424,0 2.08891,0 3.13315,0 1.07176,-0.2709 2.19008,-0.2709 3.28216,-0.2709 0.11005,-5e-4 0.21587,0.042 0.32169,0 0.0593,0 -0.13121,0 -0.17354,-0.051 0.30053,-0.051 0.60064,-0.1143 0.90117,-0.1566 h 0.0889 0.0423 c 0.055,-0.042 0.11005,-0.047 0.16508,-0.068 0.055,0 0.10159,-0.051 0.15662,-0.068 h 0.0423 c 0.0974,-0.042 0.19047,-0.072 0.28783,-0.1058 0.85207,-0.1101 1.01715,-0.1355 1.25673,-0.1312 0.38519,-0.1439 0.77546,-0.2921 1.17377,-0.3895 0.58287,-0.1439 1.20467,0.127 1.79431,0.081 h 2.96765 c 0.0423,0 0.0804,0 0.12275,0 0,0 0,0 0,0 0.34286,-0.1609 0.70816,-0.2625 1.07472,-0.3471 0.52572,-0.364 1.12848,-0.6074 1.71981,-0.8432 0.15239,-0.4021 0.16085,-0.4428 0.50414,-1.1243 0.0762,-0.1523 0.0804,-0.4465 0.24973,-0.4465 0.0423,0 0,0 0,0.042 0,0 0,-0.051 0,-0.068 0,-0.042 0.0423,-0.047 0.0423,-0.072 0,0.055 -0.0423,0.1016 -0.0423,0.1566 -0.0423,0.2413 -0.0762,0.4813 -0.14815,0.7107 -0.072,0.2328 0.0423,-0.3555 0.11429,-0.6696 -0.0635,0.097 -0.22434,0.254 -0.22434,0.364 0,0.199 0.0423,0.5926 0.0423,0.8847 0.13545,-0.1397 0.29206,-0.3005 0.33016,-0.3386 0.17355,-0.1651 0.22434,-0.2074 0.2582,-0.2244 -0.0635,-0.4355 -0.10582,-0.8728 -0.11428,-1.2978 -0.0762,0.127 -0.15662,0.2625 -0.21588,0.3979 0.055,-0.2963 0.11852,-0.5943 0.25821,-0.8601 0.66328,-1.2762 0.98202,-1.399 1.86838,-1.9839 0.33016,-0.1905 0.67387,-0.3514 1.01673,-0.5211 0,0 0.0423,0 0.0508,-0.042 0.40636,-0.2921 0.91345,-0.5947 1.44679,-0.8102 0.0974,-1.3532 0.42837,-2.4491 0.90964,-3.2987 0.15662,-0.2963 -0.0423,-0.5879 0.18201,-0.9176 0.67726,-0.9973 1.90563,-1.3893 2.90205,-1.9184 0.16084,-0.042 0.31746,-0.097 0.47916,-0.097 3.45527,-0.436 -0.89314,0.2116 -1.04975,0.5375 -0.0423,0.047 -0.0931,0.3048 -0.12275,0.381 0.29629,-0.085 0.59302,-0.1397 0.8927,-0.1397 0.49144,4e-4 0.9833,0.127 1.44679,0.3556 0.24551,-0.4843 0.50117,-0.9651 0.7361,-1.4553 0.54519,0.2794 1.10985,0.5219 1.64488,0.8187 -0.055,-0.042 -0.10159,-0.072 -0.15661,-0.1059 -0.055,-0.042 0.19047,0.047 0.16508,0.097 0.0466,0.042 0.0931,0.051 0.13968,0.085 0.0804,0.046 0.17355,0.08 0.25821,0.1312 0.0423,0.042 0.055,0.051 0.0847,0.076 0.11006,0.068 0.22434,0.1312 0.33016,0.2074 0.16932,0.1185 0.27937,0.2201 0.43006,0.3301 0.469,-0.127 0.94816,-0.1989 1.43833,-0.1989 h 0.77715 c 0.81059,-0.042 1.61356,-0.042 2.42246,0.042 0.67006,0.059 0.46942,-0.063 0.71069,0.097 -0.055,0.046 -0.23704,0.1397 -0.16508,0.1397 0.20318,-0.042 0.38519,-0.1228 0.57863,-0.1821 0.30054,-0.093 0.60065,-0.182 0.90118,-0.2709 0.81271,-0.2455 1.09715,-0.3344 2.02542,-0.5375 h 0.10582 c 0.89652,-0.4331 1.19197,-0.4779 2.09145,-0.6282 0.38519,-0.042 0.76826,-0.072 1.15769,-0.1143 0.49397,-0.042 0.99302,-0.051 1.48784,-0.051 0.60403,-0.042 1.20594,-0.068 1.81082,-0.076 0.60445,0 1.20763,0 1.81039,0.076 0.6108,0.085 1.22795,0.1566 1.83536,0.2625 0.23704,0.042 0.46181,0.127 0.69461,0.1904 1.23642,0.3429 2.32257,0.6566 3.41422,1.4223 0.3344,0.2328 0.54731,0.5964 0.82668,0.8927 0.2709,0.6455 0.56889,1.2813 0.81863,1.9344 0.0423,0.089 0.0423,0.182 0.0423,0.2794 0.0423,0.309 0.0847,0.6214 0.0423,0.9261 -0.0423,0.4504 -0.17355,0.7755 -0.28784,1.1243 0,-0.1016 0.0423,-0.2074 0.0423,-0.3133 -0.38095,0.9998 -0.949,1.9357 -1.26477,2.9596 -0.0423,0.1016 -0.0423,0.144 -0.0423,0.1821 -0.0423,0.042 -0.0635,0.089 -0.0974,0.1312 0,0.042 -0.055,0.042 -0.0508,0.042 0,-0.064 0.13545,-0.2328 0.0889,-0.182 -0.4635,0.6417 -0.82117,1.371 -1.52933,1.8108 -0.30053,0.2244 -0.5545,0.5207 -0.8762,0.7107 -0.99726,0.5951 -1.77992,0.8508 -2.86056,1.0582 -0.10159,0.042 -0.20318,0.042 -0.30477,0.059 0.78816,0.4106 1.58309,0.8394 2.0504,1.5543 0.0889,-4e-4 0.17354,0 0.26243,0 h 0.46308 0.73567 c 0.11005,0 0.23704,-0.047 0.32169,0 0.0677,0.055 -0.16508,0 -0.24974,0.051 -0.0508,0 -0.0974,0.042 -0.14815,0.051 0.40636,-0.072 0.81906,-0.1566 1.23176,-0.199 1.41081,-0.1397 2.76617,0.4462 4.16682,0.3641 h 0.72763 c 0.0423,0 0.0762,8e-4 0.11429,-0.042 0.30053,-0.042 0.60657,-0.042 0.90964,-0.042 1.13229,0.042 1.10477,0 2.42204,0.1397 0.91514,0.097 -0.66118,0.1016 1.08318,0.1481 0.49144,0 0.97991,-0.042 1.47177,-0.042 0.78223,0 1.56573,0.047 2.34754,0.072 2.585,0.3047 5.18905,0.546 7.72199,1.1657 0.2836,0 0.56212,0 0.84318,0.051 0.11852,0 0.23704,0.042 0.35556,0.059 0.16508,0.042 0.48805,-0.051 0.58667,0 h 0.0423 c 1.56912,-0.6577 1.46372,-0.6599 3.3812,-1.1987 1.22838,-0.3429 0.54308,0.042 1.90987,-0.4148 0.51894,-0.1651 1.02054,-0.3937 1.52933,-0.5871 0.87323,-0.2498 1.73928,-0.4944 2.61251,-0.7442 0.52234,-0.072 1.04552,-0.1693 1.57081,-0.2158 4.25952,-0.3725 8.53809,-0.042 12.80607,-0.072 4.58757,-0.1143 9.07862,-0.5668 13.57476,-0.093 -0.0423,-0.5858 -0.0635,-1.1133 -0.0804,-2.0339 -0.309,0.1609 -0.60488,0.3386 -0.92573,0.4796 -0.52022,0.2286 -0.74159,-0.254 -0.83514,-0.9507 -0.39366,0 -0.77123,-0.042 -1.14075,0 0.36402,-2.1359 0.60868,-3.6428 0.83471,-4.9355 -0.055,-0.6311 -0.0423,-1.2665 0.0677,-1.9018 -0.055,-2.6583 0,-5.314 0.0762,-7.9697 0,-0.1989 0.0847,-1.357 0.10582,-1.7608 -1.04213,-0.059 -2.06817,-0.2201 -3.04215,-0.5042 -1.26985,-0.3682 -0.31746,-2.6307 -0.26244,-3.9517 0.28784,-7.4901 0.88086,-8.3921 2.59559,-15.8487 0.18201,-0.4385 0.34709,-0.9007 0.49609,-1.3638 0,-0.3175 0.0762,-0.8758 0.0847,-1.1082 0.23704,-1.4713 0.44021,-2.9515 0.63662,-4.4309 -1.48108,-0.875 -2.71368,-2.5118 -3.4557,-4.7704 -0.26244,-0.8043 -0.2709,-2.188 -0.14815,-3.8113 -0.76488,-0.051 -1.53187,-0.127 -2.28998,-0.2624 -0.99091,-0.1778 1.03028,-1.7537 1.75241,-2.4551 0.17354,-0.1693 0.66625,-0.5672 0.94265,-0.8106 0.75768,-4.9922 2.1541,-10.6096 2.49654,-11.5904 0.35979,-1.0311 0.86181,-1.9945 1.40573,-2.9431 0.0423,-1.6842 0.0635,-3.3689 0,-5.0515 -0.0423,-0.9676 -0.21588,-1.923 -0.3217,-2.8851 -0.12698,-1.4307 -0.2836,-2.8588 -0.38942,-4.2908 -0.0635,-0.8898 -0.0974,-1.7867 -0.12275,-2.6786 -0.11006,-3.5187 -0.13546,-4.8292 -0.0889,-8.1846 -0.11006,-0.2498 -0.22434,-0.4593 -0.33017,-0.7276 -0.12275,-0.3048 -0.0423,-0.6316 0.0804,-0.9592 -0.26244,-1.1632 -0.53249,-2.3251 0.33863,-2.7941 0.84572,-0.455 1.76637,-0.6464 2.72003,-0.7192 -0.0847,-0.237 -0.17355,-0.4766 -0.22434,-0.7196 -0.0847,-0.6108 -0.22011,-1.2203 -0.26244,-1.8353 -0.0466,-0.593 -0.0423,-1.1907 0,-1.7854 0.0423,-0.9825 0.0804,-1.9649 0.17355,-2.9431 0.0593,-0.6252 0.16931,-1.2394 0.2709,-1.8604 -0.11429,-0.6116 -0.25397,-1.2207 -0.35556,-1.8353 -0.23281,-1.4506 -0.538,-2.9986 -0.47112,-4.4725 0,-0.042 -0.004,-0.042 0,-0.068 -3.34099,-1.5966 -2.37039,-0.585 -0.95916,-5.6462 -0.11852,0 -0.22858,-0.042 -0.33863,-0.042 -0.31746,0.4398 -0.63112,0.8817 -0.95916,1.3143 0.0508,-0.1566 0.0466,-0.3471 0.14815,-0.4792 0.2328,-0.3048 0.49947,-0.5689 0.76868,-0.8436 0,0 0,0 -0.0423,-0.042 h 0.0423 c 0.0466,-0.063 0.0931,-0.127 0.13969,-0.1905 -0.0593,0.063 -0.11429,0.1185 -0.17355,0.182 -0.23281,-0.051 -0.43726,-0.1185 -0.41482,-0.3217 0.23704,-2.0825 1.28001,-4.0005 2.0669,-5.9442 -0.64043,0.051 -0.35556,-0.051 -0.8017,0.1058 0.2963,-0.1269 0.59937,-0.2285 0.90117,-0.3386 -0.62604,-1.3469 -0.99726,-2.8055 -1.52128,-4.1998 0,0 0.0423,-0.042 0.0593,-0.042 -1.24531,-0.2539 -4.2663,-0.5604 -4.35688,-2.3394 -0.0847,-1.6466 0.96213,-3.217 1.9014,-4.572 0,-4e-4 0.0423,0 0.0423,0 -0.11006,-0.5583 -0.21165,-1.153 -0.25821,-1.5128 -0.68064,-0.047 -1.3634,-0.072 -2.04192,-0.1397 -0.38096,-0.042 -1.07261,0.2032 -1.13272,-0.1735 -0.34286,-2.1342 0.0423,-4.3209 0.0677,-6.4818 0.76488,-0.2963 1.53399,9e-4 2.29844,-0.042 0.14815,0 1.01885,-0.08 1.52933,-0.1143 -0.28784,-0.8576 -0.40636,-1.7782 -0.59514,-2.6785 -1.1598,-0.085 -3.77486,-0.2752 -4.34037,-1.3973 -0.71704,-1.4235 -0.4364,-3.1666 -0.65313,-4.7454 0.74414,-0.2456 1.476,-0.5071 2.21548,-0.7687 -0.72975,-0.309 -1.23473,-0.7734 -1.09123,-1.4303 0.47365,-2.1706 2.38309,-3.8032 4.01782,-5.3076 0.26244,-0.2413 0.60826,-0.3259 0.97567,-0.364 4.3e-4,0 0,-0.042 0,-0.042 -2.27685,-0.7776 -2.38775,-1.5429 -1.22329,-3.4642 0,0 0,-0.042 0.0508,-0.051 0.0974,-1.5374 0.14392,-1.9378 2.06691,-2.3645 0.0931,-0.1185 0.17354,-0.2455 0.26243,-0.364 0.42498,-0.5439 0.85335,-1.0798 1.28171,-1.6203 0.0677,-0.4432 0.16085,-0.88 0.2709,-1.3148 -1.06879,-0.11 -2.1414,-0.2412 -3.20765,-0.3724 -0.51514,0.042 -1.07599,0.076 -1.55431,0.097 -1.95346,0.1058 -3.90649,0.1482 -5.86123,0.2159 -0.79874,0.237 -1.53821,0.3471 -1.96785,-0.2328 l -0.0423,-0.042 c -1.22202,0.3302 -2.50077,0.6472 -2.45547,0 0.14391,-2.1113 0.35979,-4.491 1.6288,-6.1672 -0.0508,-0.042 -0.10159,-0.063 -0.14815,-0.097 v 0 c 0,0 -0.0423,9e-4 -0.0508,-0.042 -0.0466,-0.042 -0.0847,-0.068 -0.13122,-0.1058 -1.60213,0.072 -1.15345,0.085 -0.14815,-0.1312 -0.91852,-0.7721 -1.69314,-1.4777 -2.26499,-2.108 -1.33886,-1.4777 -1.68595,-2.5778 -0.83515,-3.3567 -0.24973,-0.9845 -0.46053,-2.0038 -0.85165,-2.852 1.44891,-0.4022 1.74648,-0.4301 2.67855,-0.4796 0.309,-0.2117 0.63366,-0.3725 0.97567,-0.4881 -0.055,-0.2709 -0.10582,-0.5452 -0.14814,-0.8182 -0.072,-0.4902 0.938,-0.3302 1.40573,-0.4961 0.9418,-0.1312 1.88065,-0.3005 2.82712,-0.3894 1.14456,-0.1101 2.29039,-0.182 3.43919,-0.2413 -0.58117,-0.042 -1.26054,0.064 -1.64489,-0.3471 -1.23811,-1.3227 -2.5105,-2.8504 -2.85252,-4.6294 -0.0423,-0.1228 0,-0.2371 0,-0.3556 -0.43683,0.042 -0.43386,0.042 -1.23176,0.1058 h -0.20741 c -0.31323,0.1185 -0.64212,0.2667 -0.69461,0.042 h -0.27936 c -0.15662,-2.177 -0.73821,-4.365 -0.47112,-6.5313 0.0508,-0.4309 0.85715,-0.1016 1.28975,-0.1397 0.63493,-0.055 1.27451,-0.1016 1.90986,-0.1482 0.38519,-0.051 0.76488,-0.1058 1.14922,-0.1397 0.11005,0 0.22011,9e-4 0.33016,-0.042 -1.37271,-0.059 -3.31009,-0.1693 -4.18332,-0.5291 -0.8762,-0.3598 -1.52129,-1.1386 -2.28193,-1.7033 0.20317,-1.6224 0.0593,-3.3198 0.6036,-4.861 0.19048,-0.5371 0.92572,-0.6713 1.43875,-0.9177 0.12275,-0.059 0.25397,-0.11 0.38095,-0.1651 -0.10582,-0.4673 -0.22434,-0.9325 -0.38095,-1.3638 0.25397,-0.1524 0.49947,-0.3259 0.74371,-0.4961 -0.69969,-0.2328 -0.97229,-0.5977 -0.85123,-1.1987 -1.79515,-0.2836 -3.20596,-0.6502 -3.73676,-1.1327 -1.46753,-1.3334 1.17843,-3.7876 1.76891,-5.6797 3.93317,-0.5392 3.71898,-0.5905 6.34928,-0.5706 0.87662,0 2.06986,0.042 3.83623,0.042 1.29483,0 2.59093,0.042 3.88534,0.051 0,-0.1694 0.0423,-0.3429 0.0423,-0.5126 -1.38668,-0.042 -2.63029,-0.068 -3.46416,-0.1143 -0.37249,0.08 -0.74583,0.1608 -0.8762,0 -0.66795,0.051 -1.3888,0.1143 -1.41378,-0.4064 -0.0593,-1.186 0.0423,-2.3763 0.23281,-3.5552 -1.21483,-0.1777 -2.30606,-0.5443 -3.00109,-1.4878 -3.78671,-5.1408 -0.27514,-7.6052 2.80257,-8.6642 0.80551,-0.2752 1.66013,-0.4064 2.48849,-0.6036 -0.30899,-2.0432 -0.2582,-4.1719 -0.0593,-6.2168 0.0423,-0.381 0.50371,-0.4352 0.97525,-0.4716 -1.51282,-0.3767 -3.1903,-0.8639 -3.43919,-1.4878 -0.95112,-2.3861 -0.83768,-5.2327 -0.13968,-7.7051 0.36402,-1.2923 5.5954,-2.2904 6.21721,-2.4474 2.92871,-0.6976 1.88362,-0.4444 2.64553,-0.6282 -0.36826,-0.4673 -0.65821,-0.9587 -0.97567,-1.4387 -6.29425,3.879 -10.90637,-2.1528 -5.31604,-7.4155 -2.2832,-4.0077 -2.10754,-4.254 0.14815,-6.1838 0.51091,-0.3598 1.01631,-0.7298 1.5378,-1.0752 0.56932,-0.3767 1.1598,-0.7166 1.73589,-1.0827 0.15661,-0.097 0.309,-0.199 0.46307,-0.2963 -0.18201,0 -0.36825,0 -0.57016,0.051 -0.41059,0.097 -0.79832,0.254 -1.19917,0.3809 -1.16149,0.3133 -2.34458,0.6781 -3.54628,0.8271 -0.92827,0.1143 -1.86076,0.1778 -2.79453,0.2413 -0.0423,0 -0.0974,-0.042 -0.0762,-0.051 0.13968,-0.11 0.64,-0.2497 0.46307,-0.2624 -0.24974,-0.042 -0.46731,0.1608 -0.70265,0.2412 -0.10159,0.042 -0.47958,0.1651 -0.86816,0.2963 -0.65567,0.3725 -1.30245,0.7628 -1.98394,1.0832 -0.27513,0.1313 -0.59471,0.1313 -0.89313,0.1905 -0.58583,0.1143 -1.17208,0.2201 -1.76087,0.3132 -2.84278,0.4648 -5.72112,0.7857 -8.60623,0.6616 h -19.20487 -7.15945 c -5.62969,-0.042 -11.25219,0.127 -16.88188,0.089 -4.84662,-0.055 -7.92009,-0.064 -12.65707,-0.2497 -3.33084,-0.1312 -6.6587,-0.2667 -9.987,-0.455 -0.31323,0 -0.63027,-0.047 -0.94265,-0.068 -2.51855,0.1482 -5.03413,0.182 -7.55607,0.1397 -0.37672,0 -0.75683,0.042 -1.13271,0.059 -2.10753,0 -2.02753,0.042 -4.28237,-0.2328 -0.76827,-0.042 -1.53018,-0.063 -2.29844,-0.097 -0.62562,0.6032 -2.26077,0.3937 -3.25718,0.5537 h -0.21588 c -0.2455,0.076 -0.49693,0.1397 -0.73567,0.2328 -4.59222,1.76 -8.12157,0.9613 -10.06953,-0.9092 -1.67113,-0.1694 -3.34268,-0.3387 -5.01,-0.5376 -0.44911,0 -0.89906,8e-4 -1.34774,-0.042 -3.09929,-0.1143 -1.35875,-0.1863 -5.21657,-0.199 -2.28658,0 -4.56513,0.2413 -6.85383,0.08 -0.9617,0 -1.92383,-0.072 -2.88511,-0.1058 -1.39007,-0.089 -2.78691,-0.1439 -4.17486,-0.2624 -0.65652,-0.055 -1.30584,-0.1736 -1.95939,-0.2582 -1.23091,-0.1524 -2.4631,-0.2625 -3.6957,-0.3979 -0.69462,0.8817 -2.11389,1.6953 -2.96766,2.1494 -0.12698,0.063 -2.08806,1.0566 -2.19939,0.9842 -2.41907,-1.5759 -5.18863,-2.9084 -7.25003,-4.8945 -2.18669,-0.2201 -2.05081,-0.2032 -4.07581,-0.5041 -0.81059,-0.097 -1.62626,-0.2201 -2.43897,-0.2963 -0.62985,-0.059 -1.26223,-0.076 -1.89335,-0.1143 -2.49992,-0.1524 -5.00069,-0.2709 -7.49003,-0.5536 -0.75472,-0.1186 -1.51325,-0.2202 -2.26543,-0.3556 -1.6089,-0.2878 0.22434,-0.1101 -1.8269,-0.4148 -1.39218,-0.2032 -2.81696,-0.2032 -4.19983,-0.4877 -1.58351,-0.2328 -0.96255,-0.1481 -2.1414,-0.3132 -0.24551,-0.042 -0.49016,-0.08 -0.73567,-0.093 -0.9998,-0.059 -2.0106,0.059 -3.00913,-0.068 z m 180.23526,97.6612 h 0.21587 l 0.0423,-0.042 c -0.0889,0 -0.17354,0.042 -0.2582,0.042 z m -83.37575,178.623 c 0,0 0.0423,-0.042 0.0423,-0.042 0,0 0,0 0,0 0,0 0,0.042 0,0.059 z m -11.40881,-269.6043 -0.0423,0.042 z m 106.02786,24.8595 c -0.11852,0.042 -0.24127,0.059 -0.36402,0.093 0.11005,0.051 0.30899,0.2667 0.33016,0.1482 0,-0.081 -8.5e-4,-0.1609 0.0423,-0.2413 z m -3.4557,52.4146 v 0 h -0.13122 c 0.21588,0.042 0.16085,0.042 0.3471,0.059 -0.0423,-0.042 -0.12699,-0.059 -0.21588,-0.068 z m 0.0762,0.2793 c -0.0974,0.042 -0.19048,0.059 -0.28783,0.093 -0.4381,0.1651 -0.35556,0.5173 -0.11429,0.6616 0.13122,-0.2582 0.26667,-0.5049 0.41482,-0.7526 z m 6.35774,103.1182 c -0.18624,0.063 -0.37672,0.1736 -0.5291,0.2074 1.01461,0.549 1.15557,0.5876 0.5291,-0.2074 z m -208.75748,40.8733 c 0.23281,0.7674 0.26244,0.8085 0.43006,1.2648 v 0 c -4.2e-4,-0.089 0,-0.1821 0,-0.2709 -0.16508,-0.381 -0.54307,-1.338 -0.4381,-0.9922 z m -3.34014,26.4223 c 0.0677,0.1989 0.23704,0.7056 0.37249,1.0912 0.0423,-0.042 0.072,-0.08 0.10582,-0.1143 -0.072,-0.1439 -0.57228,-1.244 -0.47958,-0.9756 z m 1.1162,2.29 c -0.0804,0.127 -0.15238,0.2539 -0.2328,0.3809 0.20317,0.6345 0.41058,1.3279 0.62857,2.0999 -0.0423,-0.5773 -0.11852,-1.1644 -0.24127,-2.1498 -0.16508,-0.3514 -0.0423,-0.047 -0.15661,-0.3302 z m 0.24128,3.9848 c 8.4e-4,0 -4.3e-4,0.042 0,0.051 0,0 0,-0.042 0,-0.051 z m 0,0.051 c -0.15662,0.4457 -0.30477,0.8956 -0.43853,1.3477 -0.12275,0.4191 0.3471,-0.8068 0.43853,-1.2318 0,-0.051 0,-0.08 0,-0.1142 z m 130.79639,9.6399 c -0.0677,-0.042 -0.16085,-9e-4 -0.27937,0.042 -0.0466,0.042 -0.0804,0.055 -0.12275,0.085 h 0.47154 c -0.0423,-0.042 -0.0423,-0.093 -0.0677,-0.1058 z m -132.70626,2.1579 c 0,0 -0.0423,0.047 0,0.1227 0.24551,1.835 0.82033,3.6149 1.22372,5.4232 0.11852,-1.0942 0.12275,-1.7719 -0.43006,-3.7533 -0.14391,-0.5207 -0.709,-1.8735 -0.79366,-1.7939 z m 119.74357,0.5866 c -0.15661,0.4259 -0.25397,0.9706 -0.2709,1.7199 -0.0423,1.3384 1.05991,2.4216 1.78584,3.5877 0.13968,-0.7797 0.16508,-0.9405 0.6036,-1.8929 0,-0.097 -0.0508,-0.199 -0.0677,-0.2963 -0.86181,-0.4462 -0.85165,-1.3626 -1.10774,-2.1499 -0.0508,-0.042 -0.11005,-0.076 -0.15661,-0.1143 0.86731,1.3622 -0.25821,2.9914 -0.5126,1.8354 -0.0974,-0.447 -0.21588,-0.8855 -0.2709,-1.3393 v -0.7522 c -0.002,-0.2116 0.001,-0.4063 0,-0.5955 z m 1.61187,1.6204 c 0.002,0.2116 0.0423,0.4262 0,0.6366 0.0423,-0.042 0.0804,-0.055 0.12276,-0.072 v 0 c -0.0677,-0.1693 -0.11852,-0.3597 -0.13969,-0.5625 z m 0.13969,0.5625 c 0,0.042 -8.5e-4,0.042 0.0423,0.068 0.0466,0.097 0.11852,0.182 0.17354,0.2709 -0.0423,-0.1355 -0.055,-0.2709 -0.0762,-0.4064 v 0 c -0.0423,0.042 -0.0847,0.047 -0.12275,0.076 z m 0.12275,-0.076 c 0,0 0.0423,-0.042 0.0593,-0.042 -0.0423,-0.1439 -0.0847,-0.2921 -0.12275,-0.4381 0,0 0,0 0,0 0.0423,0.1651 0.055,0.3259 0.0804,0.4881 z m -6.15076,1.5378 c -0.0423,0.063 -0.13122,0.2032 -0.28783,0.4546 0.11429,0 0.23281,-0.042 0.34709,-0.042 0,-0.1397 -0.0423,-0.2794 -0.0593,-0.4233 z m 13.07063,0.4233 c -0.0423,0 -0.0762,0.051 -0.12276,0.068 0.0423,0.1016 0.055,0.199 0.0974,0.2963 0,-0.1227 -8.5e-4,-0.2412 0.0423,-0.364 z m -12.96311,0.3471 c -0.19895,0 -0.39789,0 -0.59514,0.042 -0.0423,0.051 -0.0593,0.093 -0.0931,0.1482 0,0.1989 0,0.4021 0.0423,0.6036 0.23704,0 0.48086,0 0.74414,0.042 0,-0.2709 -0.0466,-0.5426 -0.0847,-0.8186 z m 12.59908,0.4631 -0.0423,0.051 c 0.0423,0 0.13545,0.072 0.21588,0.1143 0.0423,0 0.0423,0 0.0593,0 -0.0889,-0.042 -0.18202,-0.076 -0.24974,-0.1313 0,-0.042 0.002,-0.042 0,-0.042 z m 0.24974,0.1735 c 0,0 0.0423,0 0.0508,0.042 h -0.0423 c 0,0 -0.0423,0 -0.0677,-0.042 -0.0593,0 -0.10159,-0.042 -0.14815,-0.042 v 0 c 0.0423,0.097 0.0466,0.2032 0.0762,0.2878 -0.12699,0 -0.24551,-0.042 -0.37249,-0.042 0,0.3005 0.0423,0.5871 0.23281,1.2068 0.0466,0.1524 0.16508,0.5947 0.20741,0.4381 0.055,-0.3852 0.0931,-0.7822 0.11428,-1.1738 0.25397,0.574 0.52572,0.7649 0.74414,0.8432 0.10159,-0.068 0.20318,-0.063 0.30476,-0.1312 0,-0.042 -8.4e-4,-0.055 0.0423,-0.1651 0.0804,-0.3386 0.10582,-0.5765 0.13969,-0.8351 -0.0423,0 -0.0635,-9e-4 -0.0974,0 h -0.13122 c 0.0466,0.042 0.10159,0.076 0.13969,0.1227 0.072,0.08 -0.16508,-0.08 -0.27937,-0.1397 -0.27937,-0.042 -0.55662,-0.059 -0.83472,-0.08 l -0.0423,-0.042 v 0.4063 c -0.055,-0.1227 -0.11429,-0.2582 -0.16508,-0.4232 h 0.16508 v -0.2625 c 0,0 -0.0423,0 -0.0593,0 z m -10.45811,0 c -0.0423,0 0.27937,0.1947 0.68615,0.4233 0.0677,0 0.13122,0 0.19894,0 -0.22434,-0.11 -0.45037,-0.2286 -0.67768,-0.3386 -0.12698,-0.059 -0.19048,-0.085 -0.20741,-0.08 z m -4.54693,0 c 0.0762,0 -0.16085,-8e-4 -0.2328,0.042 -0.0423,0 -0.0423,0 -0.0593,0.042 0.0974,0 0.19471,-0.042 0.28783,-0.068 z m 16.69987,0.4631 c 0.0593,0 0.0889,0.042 0.13969,0.042 0.0423,0 -0.0508,9e-4 -0.0847,-0.042 z m -25.03308,0.4796 c -0.24974,0.042 -0.48297,0.097 -0.90964,0.3132 -0.0423,0 -0.12699,0.059 -0.0847,0.059 0.33439,-0.1143 0.66244,-0.2413 0.99218,-0.3725 z m -1.85188,0.364 c -0.11852,0 -0.23704,0.042 -0.35556,0.042 -0.2328,0.1186 -0.5964,0.2879 -0.70265,0.3556 0,0 0.0423,0 0.0508,0 0.33862,-0.1185 0.67725,-0.254 1.00868,-0.3979 z m 70.24714,2.4055 c -0.0635,0 -0.17354,0.042 -0.26243,0.051 0.055,0.042 0.12275,0.063 0.15661,0.085 0.0593,-0.042 0.12275,-0.072 0.18201,-0.093 h 0.0762 c -0.0508,0 -0.10583,-0.042 -0.14815,-0.042 z m -73.76083,6.6803 0.0423,0.042 c -0.48889,0.1523 -1.15387,0.2328 -1.57081,0.2709 v 0 c 0.21588,-0.072 0.74414,-0.2328 0.55408,-0.1905 -0.38096,0.085 -0.74329,0.2413 -1.12424,0.3132 -1.19579,0.2244 -2.414,0.097 -3.62121,0.1397 h -1.87685 c -0.78604,0 -1.5725,0 -2.356,-0.076 0.10582,-0.042 0.43725,-0.1227 0.3217,-0.1227 -2.37675,0.4232 1.42604,0.042 -2.0504,0.3809 -0.12698,0 -0.38942,0.127 -0.38942,0 -0.003,-0.042 0.002,-0.068 0,-0.097 -0.0847,0 -0.16931,0.042 -0.26244,0.042 0,-0.1609 -0.0423,-0.3471 -0.0508,-0.5211 h -0.92615 -0.0804 c 0.18201,0.3259 0.48804,0.5287 1.00022,0.5291 h 0.0423 v 0.051 c -0.97948,-8e-4 -1.95516,-8e-4 -2.93506,0 -1.98394,0 -3.9683,0 -5.95224,0 -0.85969,0 -1.72446,4e-4 -2.58754,0 -0.0677,0.2413 -0.13968,0.4843 -0.20741,0.7272 h 1.38922 1.91791 2.05843 2.52998 2.18246 c 0.46773,0 0.93207,0 1.39726,0.051 0.20318,0.042 0.40212,0.063 0.60318,0.097 0.25821,0.042 0.52276,0.08 0.78562,0.093 0.25397,0 0.52741,4e-4 0.77715,-0.042 h 0.25821 0.86815 c 0.40636,0 0.82753,-0.076 1.23176,-0.1143 0.44572,-0.042 0.3471,-0.042 0.79366,-0.1058 0.0847,0 0.16085,-0.042 0.24974,-0.051 0.22011,-0.042 0.44022,-0.042 0.6616,-0.051 0.19471,0 0.63111,0.042 0.82667,0.042 h 0.26244 0.6036 c 0.38519,0 0.76361,0.068 1.1488,0.08 0.45757,0 0.89863,-0.042 1.35621,0 0.11852,0 0.66244,0.089 0.76022,0.097 h 0.15661 c 0.23281,-0.7611 0.91049,-2.1122 0.57017,0.042 h 0.2963 c 0.19047,-0.419 0.38942,-0.8402 0.6036,-1.2483 -0.0423,-0.042 -0.055,-0.072 -0.0762,-0.1058 h 0.12275 c 0.0423,-0.068 0.0762,-0.1439 0.11429,-0.2159 0,0 -8.5e-4,-0.042 0.0423,-0.042 h -0.20741 z m 0.55366,0.042 v 0 c 0,0 0.0423,0 0.0593,0 0,0 -0.0423,-0.042 -0.0508,-0.042 z m 0.0508,0.042 c 0,0 0.0423,0 0.0423,0 0.71663,0.051 -0.0508,-9e-4 0.31323,0.042 0.35133,0.042 0.34287,0.042 0.74414,0.042 1.07303,0.042 2.15791,0.089 3.22416,-0.068 h -1.36382 c -0.68445,0 -1.36594,0.042 -2.0504,0 H 301.151 c -0.10159,0 -0.21164,-0.042 -0.3217,-0.042 z m -12.68204,0.089 v 0.4961 c 0.32169,-0.072 0.54815,-0.2455 0.69418,-0.4961 -0.055,-4e-4 -0.11005,8e-4 -0.16508,0 z m -43.45319,0.2624 c -0.18625,0 -0.38096,0.042 -0.57017,0.042 -0.70392,0.042 -1.40319,0.089 -2.10838,0.1059 -0.68318,0 0.0466,-0.042 -0.86816,0 -0.16931,0 -0.33862,0.042 -0.50413,0.042 -0.26244,0 -0.5236,0.042 -0.78519,0.042 h -0.49609 -0.84319 c 0.5672,0.047 1.12806,0.097 1.69441,0.1482 h 0.41482 1.78584 c 1.07557,0 2.14902,0 3.22417,0.051 0.96339,0.042 1.92256,0.072 2.88511,0.1142 0.15238,0 0.30476,-4e-4 0.45503,0.042 -0.072,0 -0.14392,8e-4 -0.21588,-0.042 -0.40635,-0.055 -0.52699,-0.063 -1.00868,-0.1058 -0.34287,-0.042 -0.68657,0 -1.0252,-0.068 -0.8652,-0.1228 -1.42266,-0.2074 -1.94288,-0.364 h -0.0931 z m -17.95618,0.2074 c -0.0423,0 -0.0762,-8e-4 -0.11429,0.042 -0.42328,0.072 -0.84741,0.081 -1.27324,0.076 h -1.85991 c 0.61334,0.076 1.38541,0.2667 1.76086,0.381 0.12275,0.042 0.24974,0.051 0.37249,0.085 -0.0423,0 -0.11428,-0.042 -0.15661,-0.051 0.10582,0 0.19048,-9e-4 0.27937,0.042 0.0719,0.042 0.13121,0.059 0.19894,0.093 -0.11006,-0.042 -0.21164,-0.059 -0.3217,-0.085 0.20741,0.076 0.16508,0.046 0.73567,0.2624 -0.11429,-0.051 -0.2328,-0.1058 -0.34709,-0.1566 0.309,0.072 0.6163,0.1693 0.92572,0.2412 0.0847,-0.093 0.17355,-0.1904 0.25821,-0.2793 0.11428,-0.1312 0.2836,-0.2074 0.4381,-0.2879 0.36826,-0.1989 0.55281,-0.2412 0.76868,-0.3132 h -0.20741 -1.13271 -0.16508 -0.12275 c 0,0 8.4e-4,-8e-4 -0.0423,0 z" />
    </clipPath>
  </defs>
  <g
     inkscape:label="Layer 1"
     inkscape:groupmode="layer"
     id="layer1"
     transform="translate(0.06258698)">
    <g
       id="g18"
       transform="matrix(0.45471398,0,0,0.45471398,-1871.568,-176.73458)"
       style="stroke-width:0.581868">
      <path
         style="fill:#000000;stroke-width:0.581865"
         d="m 4118.418,413.21586 c -1.1971,-0.0917 -1.8798,-0.7464 -1.1786,-1.13002 0.048,-0.0261 0.1071,-0.26888 0.1321,-0.53957 0.1219,-1.3182 1.3034,-2.08992 2.8137,-1.83766 0.7096,0.11844 0.7245,0.0739 0.4022,-1.20296 -0.207,-0.82008 0.048,-1.25387 0.7363,-1.25387 0.2047,0 0.2338,-0.0275 0.3098,-0.2949 0.1209,-0.42446 0.1247,-0.41892 -0.3473,-0.49906 -0.6424,-0.10921 -1.269,-0.26351 -1.6391,-0.40395 -0.3775,-0.14324 -0.3915,-0.19661 -0.212,-0.8097 0.091,-0.31212 0.099,-0.44041 0.032,-0.58124 -0.1775,-0.37922 0.6516,-2.40001 1.0075,-2.45588 0.1965,-0.0309 0.224,-0.0755 0.3878,-0.63058 0.2287,-0.77488 0.2269,-0.80997 -0.045,-0.86277 -0.5653,-0.10986 -1.6856,-0.93741 -2.0064,-1.48206 -0.3027,-0.5139 -0.4332,-0.66971 -0.5899,-0.70454 -0.4109,-0.0913 -0.8393,-0.81052 -0.7553,-1.26835 0.039,-0.21146 0.022,-0.23141 -0.3654,-0.42473 -1.6229,-0.81078 -0.7838,-3.24837 1.1204,-3.25466 0.584,-0.001 0.9593,0.10493 1.3148,0.37429 0.2047,0.15516 0.3677,0.22172 0.5431,0.22191 0.3345,3.2e-4 0.69,0.2017 0.8104,0.45904 0.1313,0.28047 0.2388,0.23045 0.2752,-0.12814 0.056,-0.5552 0.4824,-1.11932 1.2784,-1.6933 0.395,-0.28486 0.4117,-0.30992 0.43,-0.64531 0.032,-0.58731 0.3689,-1.03943 1.2371,-1.65942 0.3128,-0.2234 0.5805,-0.43228 0.595,-0.4642 0.4226,-0.92986 2.0088,-1.38707 3.1148,-0.89776 0.247,0.10921 0.3801,0.1221 0.8674,0.0839 1.3288,-0.10397 2.2618,0.55139 3.3227,2.33452 0.7277,1.22293 1.025,1.51234 1.2389,1.2059 0.3409,-0.48825 1.1989,-0.50202 1.3351,-0.0216 0.04,0.14419 0.088,0.16479 0.3761,0.16479 0.6831,0 0.9653,0.7594 0.4435,1.19335 -0.1498,0.12448 -0.1687,0.17685 -0.104,0.28424 0.1907,0.31535 -0.1548,0.88018 -0.5816,0.95107 -0.2368,0.0393 -0.3343,0.0183 -0.7128,-0.1558 -0.026,-0.0111 -0.064,0.0393 -0.086,0.11319 -0.045,0.15182 -0.3313,0.26903 -0.6577,0.26903 -0.1767,0 -0.2279,0.035 -0.2673,0.18255 -0.027,0.10032 -0.129,0.27777 -0.2267,0.39417 -0.1078,0.1283 -0.1479,0.22812 -0.1016,0.25342 0.3002,0.16424 0.4949,0.90885 0.3411,1.30414 -0.1121,0.28823 -0.1121,0.28823 0.2131,0.58706 0.1789,0.16443 0.5176,0.52287 0.7527,0.79669 0.235,0.27382 0.6074,0.70694 0.8275,0.96249 0.4266,0.49535 1.0177,1.02117 1.2964,1.1532 0.1182,0.056 0.1662,0.13482 0.1583,0.26011 -0.014,0.22706 0.1252,0.44615 0.4801,0.75393 0.2708,0.23488 0.4017,0.65382 0.2042,0.65382 -0.041,0 -0.075,0.0971 -0.076,0.21574 0,0.29915 -0.096,0.40617 -0.3227,0.36775 -0.2355,-0.0398 -0.2739,0.0529 -0.3217,0.77727 -0.1167,1.76475 -2.0174,2.47736 -3.2176,1.20636 -0.2579,-0.27319 -0.2981,-0.29253 -0.4663,-0.22468 -0.1975,0.0795 -0.194,0.0189 -0.048,0.83848 0.046,0.25838 -0.1699,0.40098 -0.6095,0.40313 -0.042,1.9e-4 -0.1092,0.0676 -0.1499,0.1496 -0.065,0.131 -0.1308,0.14992 -0.538,0.15294 -0.2553,0.001 -0.4473,-0.0205 -0.4268,-0.0497 0.021,-0.0294 -0.065,-0.0534 -0.1894,-0.0534 -0.1501,0 -0.254,0.0448 -0.3071,0.13274 -0.099,0.1637 -0.2781,0.16991 -0.474,0.0163 -0.1455,-0.11399 -0.1474,-0.11113 -0.1003,0.14929 0.027,0.14594 0.048,0.29947 0.049,0.34094 3e-4,0.0415 0.1549,0.096 0.3436,0.12098 0.6831,0.0906 0.7208,0.22706 0.4487,1.62494 -0.1633,0.83939 -0.201,0.80063 0.778,0.80063 1.5915,0 2.5105,0.6063 2.6158,1.72582 0.024,0.25502 0.088,0.42167 0.2116,0.55271 0.5138,0.54387 0.086,0.8527 -1.4135,1.01914 -1.0405,0.11558 -12.969,0.18031 -14.3064,0.0777 z m 7.0582,-0.26671 c 0.1495,-0.20885 0.079,-0.46484 -0.103,-0.3735 -0.6118,0.307 -7.3396,0.0404 -7.7747,-0.3081 -0.1674,-0.13419 -0.2085,-0.13085 -0.3025,0.0247 -0.2015,0.33333 0.113,0.57199 0.9283,0.70431 0.7634,0.12384 7.1593,0.082 7.252,-0.0472 z m 5.7554,0.0781 c 1.7515,-0.0789 2.4987,-0.17338 2.7029,-0.34187 0.333,-0.27459 0.065,-0.67985 -0.2939,-0.44482 -0.454,0.29714 -0.8932,0.33529 -4.2541,0.36961 -2.1174,0.0215 -3.2417,0.01 -3.3932,-0.0377 -0.2234,-0.069 -0.2266,-0.0668 -0.2266,0.1577 0,0.24401 0.043,0.26714 0.5999,0.31776 0.561,0.0512 3.5548,0.0383 4.865,-0.0208 z m -6.2577,-0.53034 c 0.6098,-0.0884 0.7167,-0.33864 0.4462,-1.04383 -0.1249,-0.32548 -0.1192,-0.52972 0.044,-1.5793 0.1294,-0.83161 0.1016,-1.65023 -0.054,-1.58799 -0.4404,0.17612 -3.3165,0.0717 -3.9752,-0.14419 -0.5043,-0.16534 -0.5976,-0.5673 -0.1492,-0.64373 0.1426,-0.0244 0.1362,-0.0302 -0.041,-0.0378 -0.5083,-0.0219 -0.6415,0.31024 -0.4356,1.08619 0.3589,1.35249 0.2921,1.50028 -0.6164,1.36271 -1.5143,-0.22927 -2.5772,0.46826 -2.5944,1.70254 -0.01,0.46863 0.073,0.57667 0.503,0.68206 0.8226,0.20169 5.8561,0.35065 6.872,0.20338 z m 6.5668,-0.062 c 2.139,-0.0846 2.5721,-0.40184 1.9813,-1.45136 -0.3991,-0.70891 -0.9472,-0.93669 -2.2641,-0.94086 -1.1641,-0.003 -1.1565,0.005 -0.9547,-1.04869 0.2062,-1.07549 0.2117,-1.13867 0.1119,-1.24518 -0.1216,-0.12972 -0.2524,-0.1267 -0.1955,0.005 0.2054,0.47391 -2.5014,0.90121 -4.0683,0.64221 -0.4416,-0.073 -0.4664,0.15088 -0.2045,1.84551 0.082,0.52841 0.077,0.68057 -0.036,1.20083 -0.148,0.68169 -0.1079,0.92893 0.1604,0.99532 0.2598,0.0642 3.8231,0.0626 5.4693,-10e-4 z m -5.0176,-5.09756 c -0.083,-0.60395 -0.1145,-0.68021 -0.2334,-0.5749 -0.113,0.1 0.029,1.4175 0.1602,1.49031 0.1471,0.0812 0.1705,-0.21162 0.073,-0.91541 z m 0.3349,0.46217 c -0.076,-0.84289 -0.1213,-1.07865 -0.2068,-1.07865 -0.08,0 -0.035,0.95229 0.065,1.39979 0.091,0.40395 0.187,0.18628 0.1415,-0.32114 z m 0.293,-0.23231 c -0.056,-0.7864 -0.07,-0.84634 -0.1985,-0.84634 -0.078,0 -0.029,1.20479 0.061,1.47693 0.1193,0.36217 0.1864,0.055 0.1376,-0.63059 z m 0.3396,0.19913 c 0,-0.70668 -0.065,-1.04547 -0.1979,-1.04547 -0.1005,0 -0.088,0.98132 0.017,1.44374 0.079,0.34336 0.1812,0.117 0.1806,-0.39827 z m 0.3489,0.29871 c -0.025,-0.13688 -0.047,-0.49535 -0.047,-0.79655 0,-0.44219 -0.022,-0.54763 -0.1134,-0.54763 -0.09,0 -0.1125,0.0986 -0.1125,0.48859 0,0.71559 0.073,1.1045 0.2075,1.1045 0.088,0 0.102,-0.0541 0.066,-0.24891 z m 0.332,-0.51334 c -0.015,-0.76462 -0.03,-0.83084 -0.189,-0.83084 -0.095,0 -0.093,1.24901 0,1.51564 0.1091,0.30479 0.1996,-0.027 0.1868,-0.6848 z m -5.0379,-0.11193 c 0.083,-0.67849 0.075,-0.8662 -0.033,-0.7704 -0.047,0.0413 -0.2547,1.19696 -0.2568,1.42677 -0.01,0.48762 0.2091,0.003 0.29,-0.65637 z m 0.2217,0.5257 c 0.01,-0.15516 0.05,-0.46133 0.089,-0.68039 0.09,-0.49795 0.091,-0.63057 0.01,-0.63057 -0.069,0 -0.1886,0.52267 -0.2784,1.21139 -0.041,0.3086 -0.029,0.38168 0.059,0.38168 0.075,0 0.1137,-0.0878 0.1256,-0.28211 z m 0.3446,-0.26553 c 0.027,-0.30117 0.067,-0.66318 0.091,-0.80444 0.033,-0.19827 0.019,-0.25001 -0.059,-0.22689 -0.1713,0.0504 -0.3488,1.57897 -0.1833,1.57897 0.076,0 0.1164,-0.14721 0.1518,-0.54764 z m 0.2963,0.19915 c 0.1124,-0.98121 0.1218,-1.24458 0.045,-1.24458 -0.1168,0 -0.1389,0.094 -0.2057,0.8795 -0.065,0.76368 0.077,1.08825 0.1602,0.36508 z m 0.3003,0.24349 c 0.07,-0.1619 0.053,-1.4217 -0.019,-1.4217 -0.059,0 -0.1596,0.81829 -0.1607,1.31096 -3e-4,0.22654 0.1015,0.28959 0.179,0.11082 z m 0.3011,-0.40943 c 0.028,-0.28293 0.071,-0.62644 0.095,-0.76335 0.034,-0.19343 0.019,-0.24892 -0.068,-0.24892 -0.1265,0 -0.2058,0.42619 -0.2068,1.11185 0,0.58312 0.1182,0.51709 0.18,-0.0997 z m 0.3143,-0.29886 c 0.038,-0.51922 0.029,-0.71341 -0.034,-0.71341 -0.048,0 -0.088,0.0971 -0.092,0.21573 0,0.1186 -0.029,0.44878 -0.059,0.73364 -0.03,0.28484 -0.038,0.53176 -0.019,0.54871 0.097,0.0862 0.155,-0.13783 0.2022,-0.78467 z m 1.2693,0.0998 c -0.029,-0.39248 -0.087,-0.74344 -0.129,-0.77994 -0.075,-0.0656 -0.03,0.90134 0.061,1.31096 0.088,0.39384 0.1189,0.14833 0.068,-0.53102 z m 2.3332,0.30554 c -0.027,-0.2244 -0.048,-0.53057 -0.049,-0.68037 0,-0.27936 -0.1016,-0.50226 -0.1907,-0.42336 -0.1098,0.0973 0.052,1.51175 0.1732,1.51175 0.096,0 0.107,-0.0671 0.066,-0.40802 z m 0.3,0 c -0.027,-0.2244 -0.048,-0.56791 -0.048,-0.76333 0,-0.27836 -0.025,-0.35535 -0.1175,-0.35535 -0.1107,0 -0.094,1.30255 0.019,1.47691 0.1188,0.1832 0.1899,0.01 0.1466,-0.35823 z m 0.3551,0.12066 c -0.019,-0.11573 -0.059,-0.43213 -0.088,-0.70297 -0.033,-0.30136 -0.09,-0.50322 -0.1473,-0.52022 -0.088,-0.0257 -0.069,1.16186 0.023,1.42639 0.064,0.18275 0.2475,0.008 0.2124,-0.2032 z m -6.7117,-0.10079 c 0.1339,-0.55208 0.1849,-1.18322 0.1,-1.2298 -0.082,-0.0447 -0.1138,0.0536 -0.2344,0.72173 -0.04,0.21904 -0.095,0.49535 -0.1232,0.614 -0.041,0.16972 -0.027,0.21572 0.064,0.21572 0.078,0 0.1411,-0.10588 0.1935,-0.32165 z m 0.2371,0.30506 c 0,-0.01 0.051,-0.25555 0.1111,-0.54761 0.1277,-0.62567 0.1404,-0.96248 0.036,-0.96248 -0.041,0 -0.075,0.0374 -0.076,0.083 0,0.0456 -0.064,0.38914 -0.1407,0.76335 -0.115,0.5616 -0.1214,0.68037 -0.036,0.68037 0.056,0 0.1043,-0.008 0.1058,-0.0163 z m 2.4948,-0.89609 c 0.021,-0.30119 0.013,-0.54763 -0.021,-0.54763 -0.081,0 -0.1544,0.53219 -0.1464,1.05472 0.01,0.58247 0.1126,0.26613 0.1662,-0.50709 z m 4.2514,0.80923 c 0,-0.30777 -0.1833,-1.35686 -0.237,-1.35686 -0.086,0 -0.079,0.26353 0.023,0.91269 0.074,0.46999 0.2137,0.75995 0.2137,0.44417 z m -7.2844,-0.3778 c 0.2163,-1.12765 0.1583,-1.44953 -0.087,-0.48123 -0.1977,0.78085 -0.21,0.89611 -0.096,0.89611 0.067,0 0.1301,-0.14182 0.1825,-0.41488 z m 3.3374,0.107 c 0.1006,-0.65004 0.026,-1.26063 -0.1269,-1.03728 -0.1101,0.16096 -0.1383,1.34524 -0.032,1.34524 0.076,0 0.1266,-0.0989 0.159,-0.30796 z m 4.6844,-1.709 c 0.023,-0.39955 0.01,-0.49327 -0.092,-0.52682 -0.066,-0.0224 -0.1201,-0.0111 -0.1201,0.0248 0,0.0361 -0.079,0.17704 -0.1755,0.31323 -0.2733,0.38569 -0.339,0.71253 -0.09,0.44804 0.1023,-0.10874 0.2066,-0.28055 0.2317,-0.38166 0.059,-0.23939 0.2079,-0.24065 0.1562,-0.001 -0.128,0.59276 -0.1383,0.78026 -0.038,0.69482 0.06,-0.0505 0.1112,-0.2822 0.1278,-0.5711 z m -4.9097,0.33814 c 0.1511,-0.53297 0.143,-0.8898 -0.021,-0.92777 -0.1662,-0.0385 -0.1629,-0.2977 0.01,-0.48894 0.045,-0.0505 0.01,-0.089 -0.1229,-0.11733 -0.2534,-0.0565 -0.2404,-0.11287 0.1004,-0.43635 0.2899,-0.27516 0.2899,-0.27516 0.3038,-1.31652 0.01,-0.57278 0.045,-1.47453 0.084,-2.00388 0.038,-0.52937 0.071,-1.04213 0.072,-1.13945 0,-0.17703 0,-0.17703 -0.8796,-0.20213 -1.4395,-0.041 -2.8451,-0.69864 -3.5521,-1.66175 -0.2312,-0.31502 -0.2312,-0.31502 -0.4456,-0.17976 -0.2708,0.17063 -0.9118,0.36715 -1.5156,0.46454 -0.2567,0.0415 -0.5077,0.0862 -0.5577,0.0995 -0.3291,0.0878 0.9502,1.49503 1.6666,1.83311 0.6726,0.3175 0.7139,0.30329 0.9332,-0.32079 0.3856,-1.09777 0.4143,-0.72379 0.038,0.48615 -0.3254,1.04428 -0.4974,1.74275 -0.4469,1.81507 0.074,0.10572 0.7571,0.27033 1.2876,0.31031 0.7516,0.0566 0.7252,0.0143 0.5507,0.88937 -0.3392,1.70213 -0.2336,1.55769 -1.1258,1.53811 -0.6879,-0.0143 -1.3254,-0.10604 -1.7357,-0.24779 -0.1452,-0.0502 -0.4508,0.918 -0.3215,1.01838 0.3795,0.29459 2.3991,0.59205 4.7194,0.6951 0.2474,0.0111 0.5559,0.0256 0.6855,0.0325 0.1891,0.0111 0.2441,-0.0183 0.2787,-0.13958 z m 4.1514,-0.14164 c 0.057,-0.16827 0.064,-0.27882 0.019,-0.29259 -0.1277,-0.0386 -0.079,-0.22389 0.1193,-0.45386 0.2052,-0.23818 0.1948,-0.48649 -0.021,-0.48649 -0.2234,0 -0.3171,0.21656 -0.3196,0.73862 0,0.57531 -0.1451,0.80254 -0.3487,0.55613 -0.1029,-0.12449 -0.1078,-0.12417 -0.2211,0.0192 -0.221,0.27929 -0.5448,0.1027 -0.4761,-0.25949 0.01,-0.0505 -0.01,-0.1442 -0.04,-0.2082 -0.081,-0.16443 0,-0.40502 0.2212,-0.6349 0.2307,-0.24276 0.2426,-0.45231 0.029,-0.51233 -0.253,-0.0711 -0.3981,0.11319 -0.3796,0.48216 0.017,0.34938 -0.1229,0.65594 -0.2911,0.63538 -0.059,-0.008 -0.1763,0.0819 -0.2593,0.1984 -0.1804,0.25299 -0.4051,0.31494 -0.4607,0.12703 -0.025,-0.0859 -0.084,-0.12035 -0.1717,-0.1 -0.1942,0.0448 -0.2456,-0.14786 -0.1138,-0.4268 0.085,-0.18014 0.092,-0.25817 0.028,-0.31158 -0.061,-0.0512 -0.096,-0.0477 -0.1204,0.0111 -0.019,0.0456 -0.1075,0.0833 -0.1969,0.0835 -0.1016,2.5e-4 -0.2102,0.0749 -0.2902,0.19912 -0.07,0.10938 -0.181,0.1987 -0.2461,0.1987 -0.1188,0 -0.2748,-0.25532 -0.2128,-0.34846 0.019,-0.0273 0,-0.0497 -0.037,-0.0497 -0.038,0 -0.093,0.21214 -0.1222,0.47143 -0.029,0.25929 -0.072,0.51543 -0.095,0.56922 -0.037,0.0849 0.2192,0.0955 1.9362,0.0812 1.9786,-0.0163 1.9786,-0.0163 2.0701,-0.28709 z m 1.6967,0.11112 c 0.021,-0.0639 0.059,-0.25805 0.085,-0.43147 0.068,-0.44335 0.189,-0.39274 0.189,0.079 0,0.22679 0.037,0.41449 0.087,0.44178 0.064,0.035 0.075,-0.0852 0.043,-0.46153 -0.043,-0.50732 0.025,-0.61324 0.1727,-0.2686 0.08,0.18617 0.2223,0.21274 0.2223,0.0416 0,-0.24567 -0.2113,-0.41438 -0.4277,-0.34154 -0.1089,0.0367 -0.2404,0.0525 -0.292,0.0346 -0.051,-0.0183 -0.147,0.0399 -0.212,0.12783 -0.169,0.22834 -0.1431,0.3622 0.032,0.16423 0.148,-0.16753 0.2054,-0.0862 0.085,0.12051 -0.1086,0.18652 -0.1734,0.60964 -0.093,0.60964 0.041,0 0.09,-0.0521 0.1096,-0.11606 z m -2.4691,-0.48118 c 0.1193,-0.3764 0.1084,-0.66385 -0.025,-0.66385 -0.095,0 -0.2849,0.22017 -0.3428,0.39828 -0.048,0.14959 -0.031,0.14307 0.178,-0.0664 0.2319,-0.23233 0.2319,-0.23233 0.084,0.0664 -0.1488,0.30091 -0.2063,0.76825 -0.086,0.70269 0.035,-0.0194 0.1218,-0.21612 0.192,-0.43712 z m 3.46,0.29326 c 0.1407,-0.0334 0.1498,-0.068 0.099,-0.38076 -0.03,-0.18921 -0.058,-0.39523 -0.061,-0.45785 -0.01,-0.11891 -0.2857,-0.29086 -0.3626,-0.22269 -0.025,0.0215 0.031,0.15867 0.1238,0.30432 0.214,0.33694 0.1913,0.63181 -0.048,0.62435 -0.093,-0.003 -0.1687,0.0342 -0.1687,0.083 0,0.0927 0.1573,0.11129 0.4171,0.0496 z m -4.699,-0.41722 c 0.038,-0.13259 0.09,-0.35319 0.1166,-0.4901 0.027,-0.13688 0.085,-0.24891 0.1291,-0.24891 0.051,0 0.065,0.0901 0.036,0.24891 -0.024,0.13688 -0.013,0.29373 0.027,0.34849 0.05,0.0696 0.072,-0.0143 0.072,-0.28212 0,-0.33452 -0.017,-0.38166 -0.1452,-0.38166 -0.08,0 -0.1767,-0.0481 -0.214,-0.10731 -0.059,-0.0933 -0.1013,-0.0803 -0.3225,0.0976 -0.14,0.11256 -0.2188,0.20577 -0.175,0.20683 0.043,7.3e-4 0.1485,-0.055 0.2326,-0.12431 0.3036,-0.25038 0.354,-0.069 0.1443,0.51873 -0.2269,0.63595 -0.2282,0.64455 -0.082,0.53712 0.061,-0.0453 0.1426,-0.19078 0.1804,-0.32342 z m 7.9382,-0.21985 c 0.6491,-0.39529 0.7991,-1.15835 0.3511,-1.78641 -0.4099,-0.5749 -0.8164,-0.75135 -1.1765,-0.51075 -0.6222,0.41577 -1.2497,0.61574 -1.9668,0.62692 -0.6766,0.0111 -0.6766,0.0111 -0.6496,0.53101 0.035,0.67517 0.2069,0.803 0.6828,0.50799 0.1755,-0.10875 0.1853,-0.10652 0.3353,0.0784 0.6787,0.83543 1.6108,1.04809 2.4237,0.55298 z m -9.2178,-0.33734 c 0.2591,-0.71921 0.25,-0.84353 -0.025,-0.34777 -0.2408,0.43352 -0.3499,0.88566 -0.1928,0.79974 0.038,-0.0208 0.1363,-0.22418 0.2184,-0.45197 z m 4.2128,0.11574 c 0.2213,-0.23602 0.1072,-0.56301 -0.1962,-0.56301 -0.2159,0 -0.3151,0.26138 -0.191,0.50271 0.095,0.18359 0.2491,0.20764 0.3872,0.0602 z m -4.3393,-0.66875 c 0.3614,-0.52799 0.5329,-0.47902 0.4786,0.13672 -0.028,0.31629 -0.019,0.42408 0.03,0.33416 0.1472,-0.27715 0.098,-0.8961 -0.072,-0.8961 -0.084,0 -0.1718,-0.0448 -0.1955,-0.0997 -0.024,-0.0546 -0.08,-0.0997 -0.1249,-0.0997 -0.1492,0 -0.6504,0.34716 -0.6018,0.41676 0.027,0.0377 0.013,0.0496 -0.029,0.0265 -0.09,-0.0491 -0.369,0.20062 -0.2964,0.26493 0.028,0.0238 0.2551,-0.0978 0.5066,-0.27071 0.5097,-0.35039 0.7076,-0.35778 0.2658,-0.01 -0.3746,0.29513 -0.6475,0.62907 -0.6475,0.79256 0,0.18871 0.3669,-0.1302 0.6857,-0.59568 z m 5.5516,0.53719 c 0.1667,-0.32374 -0.1849,-0.65151 -0.4485,-0.4182 -0.1262,0.11177 -0.1119,0.35604 0.028,0.47982 0.1703,0.15071 0.3229,0.12846 0.4207,-0.0617 z m -2.3906,-0.10095 c 0.2203,-0.2784 -0.085,-0.66535 -0.3636,-0.46072 -0.1318,0.097 -0.1431,0.40511 -0.019,0.5151 0.1313,0.11622 0.2621,0.0978 0.3825,-0.0544 z m -1.8505,-0.6211 c 0.068,-0.16827 0.063,-0.22928 -0.03,-0.32351 -0.2605,-0.26408 -0.4276,-0.10509 -0.4989,0.47424 -0.057,0.46279 0.3242,0.35425 0.5293,-0.15072 z m 3.6157,0.2905 c 0.1902,-0.22747 0.4558,-0.26141 0.6564,-0.0838 0.1652,0.1461 0.1285,-0.46933 -0.1614,-2.70596 -0.1097,-0.84592 -0.1991,-1.92955 -0.207,-2.50331 -0.017,-1.169 0.064,-1.08739 -0.8897,-0.91189 -1.1028,0.20291 -1.2742,0.27108 -1.5858,0.63078 -0.977,1.12801 -2.1844,3.98034 -1.8136,4.28452 0.1039,0.0852 0.1888,0.19898 0.1888,0.25283 0,0.17082 0.3638,0.37172 0.5982,0.3302 0.2231,-0.0394 0.5266,0.1515 0.5266,0.33142 0,0.15707 0.3158,0.23577 0.5056,0.12591 0.222,-0.1283 0.5264,-0.0571 0.6319,0.14785 0.1154,0.22446 0.2828,0.26101 0.4725,0.10334 0.2251,-0.18718 0.5186,-0.17356 0.6702,0.0313 0.1576,0.21272 0.2054,0.20883 0.4074,-0.0333 z m -8.5442,-0.21573 c 0.043,-0.19167 0.1312,-0.60239 0.1962,-0.91269 0.065,-0.31033 0.1306,-0.61664 0.1453,-0.68067 0.03,-0.12941 -0.043,-0.15071 -0.743,-0.21845 -0.2457,-0.0237 -0.6807,-0.11988 -0.9667,-0.21377 -0.612,-0.2008 -0.5988,-0.20819 -0.9091,0.51044 -0.1631,0.37786 -0.4896,1.3314 -0.4896,1.42999 0,0.50209 2.6553,0.58382 2.7669,0.0852 z m 5.54,0.17885 c 0.26,-0.16114 0.183,-0.56045 -0.1078,-0.56045 -0.1724,0 -0.4047,0.28141 -0.3532,0.42776 0.086,0.24291 0.2206,0.28178 0.4611,0.13275 z m -1.0015,-0.84587 c 0.1345,-0.33313 -0.285,-0.52123 -0.5149,-0.23084 -0.1465,0.18537 -0.1471,0.28071 0,0.4091 0.1555,0.13752 0.4274,0.044 0.517,-0.17831 z m -0.6983,-0.1974 c 0.048,-0.10127 0.1263,-0.20582 0.1751,-0.23234 0.049,-0.0264 0.15,-0.25729 0.2251,-0.51283 0.3102,-1.05598 1.2004,-2.83103 1.8014,-3.5921 0.3259,-0.41266 0.3259,-0.41266 -0.1793,-0.22237 -0.278,0.10477 -0.9296,0.28437 -1.4483,0.39936 -0.9833,0.21798 -1.0701,0.3878 -1.0157,1.98798 0,0.0913 -0.019,0.41983 -0.048,0.73014 -0.04,0.4247 -0.033,0.53549 0.03,0.44807 0.096,-0.13433 0.3056,-0.15182 0.4359,-0.0366 0.2056,0.18195 -0.013,0.56115 -0.2795,0.48611 -0.086,-0.0241 -0.1527,-0.094 -0.1494,-0.15532 0.01,-0.069 0.021,-0.08 0.043,-0.0286 0.059,0.12973 0.3035,0.0973 0.3458,-0.046 0.067,-0.22803 -0.192,-0.28958 -0.366,-0.0868 -0.2349,0.27388 -0.131,1.28507 0.1189,1.15853 0.1229,-0.0623 0.2622,-0.19593 0.3097,-0.2972 z m -0.2582,-3.345 c -0.1039,-0.0919 -0.048,-0.41694 0.083,-0.47878 0.288,-0.13656 0.5394,0.23297 0.3017,0.44339 -0.098,0.0868 -0.3052,0.10588 -0.3849,0.0354 z m 7.5993,3.22619 c 1.0609,-0.36214 1.2673,-0.69146 0.8804,-1.40487 -0.2653,-0.48932 -0.3329,-0.52042 -0.6702,-0.30788 -0.3076,0.19399 -0.9799,0.36996 -1.6295,0.42664 -0.5026,0.0439 -0.5392,0.0575 -0.5032,0.18758 0.022,0.0771 0.063,0.37435 0.092,0.66041 0.061,0.60195 0.097,0.63044 0.8017,0.63726 0.3128,0.003 0.5996,-0.0526 1.0293,-0.19914 z m 3.0738,-0.4905 c 0,-0.0897 -0.039,-0.23903 -0.087,-0.33217 -0.1029,-0.19993 -0.039,-0.2888 0.1229,-0.17009 0.094,0.069 0.1141,0.0656 0.1141,-0.0189 0,-0.27086 -0.3593,-0.3778 -0.6001,-0.17867 -0.2149,0.17776 -0.3074,0.46439 -0.1497,0.46439 0.041,0 0.075,-0.0448 0.075,-0.0997 0,-0.19596 0.1319,-0.0943 0.2585,0.19912 0.1412,0.32726 0.2664,0.39113 0.2664,0.13593 z m -1.2899,-0.37166 c 0.029,-0.22017 -0.214,-0.42365 -0.4326,-0.36224 -0.1182,0.0333 -0.1461,0.0789 -0.1098,0.18014 0.027,0.0747 0.059,0.18418 0.072,0.24356 0.013,0.0593 0.027,0.11732 0.03,0.12909 0.032,0.1194 0.4218,-0.0489 0.4404,-0.19041 z m -0.6086,-0.48686 c -0.028,-0.0638 0,-0.0822 0.099,-0.0598 0.1882,0.0436 0.5964,-0.17884 0.6454,-0.35178 0.022,-0.077 0.1625,-0.19178 0.3125,-0.25514 0.2728,-0.1151 0.2728,-0.1151 -0.1859,-0.49129 -0.2522,-0.20688 -0.6782,-0.62023 -0.9464,-0.91857 -0.2682,-0.29831 -0.5129,-0.52236 -0.5438,-0.49783 -0.031,0.0245 -0.035,0.0111 -0.01,-0.0304 0.049,-0.0755 -1.0801,-1.31761 -1.3114,-1.44286 -0.2526,-0.13672 -0.3911,0.0731 -0.208,0.3152 0.2748,0.36303 1.0955,1.93958 1.3954,2.68025 0.063,0.15564 0.1779,0.32227 0.2556,0.37041 0.1243,0.0771 0.2374,0.26607 0.3932,0.65765 0.025,0.0639 0.067,0.11606 0.094,0.11606 0.027,0 0.03,-0.0414 0.01,-0.0921 z m 1.4336,0.0127 c 0.1248,-0.1105 0.1124,-0.25302 -0.034,-0.39635 -0.1526,-0.14912 -0.4435,-0.15867 -0.5052,-0.0163 -0.1315,0.30333 0.2946,0.62942 0.5393,0.41274 z m -3.0219,-0.29101 c 0.9341,-0.29487 0.9227,-0.2315 0.2804,-1.5543 -0.9013,-1.85625 -1.0923,-2.09057 -1.6376,-2.0096 -0.5085,0.0754 -0.534,0.22321 -0.3688,2.14235 0.1575,1.82998 0.2335,1.89263 1.726,1.42155 z m -7.0889,-2.42183 c 0.6096,-0.0889 1.5706,-0.33388 2.1472,-0.54755 0.5979,-0.22162 1.3754,-0.42896 1.8914,-0.50441 2.4384,-0.35654 2.8716,-0.56099 2.7469,-1.29652 -0.1459,-0.86123 -0.8239,-0.86401 -2.0848,-0.01 -0.2001,0.13561 -0.3832,0.22935 -0.407,0.20822 -0.1106,-0.0978 0.4725,-0.47993 1.2386,-0.81167 0.9545,-0.4133 1.1484,-0.58929 1.203,-1.09135 0.065,-0.598 -0.1201,-0.70685 -0.565,-0.33269 -1.7102,1.43787 -5.4105,1.92527 -8.0049,1.05443 -1.3851,-0.46491 -1.5893,-0.53573 -1.8852,-0.65368 -0.1708,-0.068 -0.4664,-0.22904 -0.6568,-0.35773 -0.492,-0.33239 -0.6265,-0.28084 -0.7221,0.27662 -0.1092,0.63703 0.1548,1.07645 0.8306,1.38171 0.3865,0.17465 0.8213,0.53932 0.8213,0.6889 0,0.0658 -0.087,0.0254 -0.2546,-0.11844 -0.733,-0.62884 -1.2061,-0.75365 -1.2302,-0.32449 -0.09,1.60206 2.3582,2.81197 4.9316,2.43719 z m -6.3713,-1.37078 c 1.2358,-0.29897 1.3518,-0.45102 1.0336,-1.3543 -0.1548,-0.43964 -0.1548,-0.43964 -0.6129,-0.25627 -0.6126,0.24521 -1.3434,0.43999 -1.869,0.49813 -0.5154,0.0569 -0.6113,0.1626 -0.51,0.5616 0.1826,0.71935 0.6817,0.85971 1.9583,0.55084 z m -0.8829,-1.35735 c 0.8607,-0.14546 1.6615,-0.57161 1.7254,-0.91806 0.03,-0.16424 0.1014,-0.44804 0.1583,-0.63058 0.1286,-0.4133 0.046,-0.6606 -0.2681,-0.80443 -0.4292,-0.1965 -0.8826,-0.008 -0.8826,0.36862 0,0.0754 -0.031,0.13704 -0.069,0.13704 -0.038,0 -0.1907,0.10096 -0.3385,0.22446 -0.1639,0.13689 -0.2881,0.19687 -0.3182,0.1539 -0.028,-0.039 0.092,-0.18122 0.2636,-0.31646 0.1721,-0.13529 0.3128,-0.28733 0.3128,-0.33814 0,-0.0507 0.052,-0.15866 0.1166,-0.23969 0.362,-0.45761 -1.2055,-0.90255 -1.9637,-0.5574 -1.3717,0.62433 -1.4469,2.21586 -0.1347,2.8471 0.4714,0.22676 0.4882,0.22763 1.3987,0.0738 z m 9.2574,-0.53137 c 0.3455,-0.2964 0.3711,-0.41748 0.1396,-0.66099 -0.21,-0.22094 -0.2027,-0.41802 0.021,-0.57365 0.1222,-0.0851 0.7761,-0.0876 0.717,-0.003 -0.017,0.0248 0,0.0639 0.045,0.0868 0.2169,0.1186 0.014,0.63126 -0.25,0.63126 -0.1172,0 -0.2103,0.0679 -0.2962,0.21573 -0.069,0.1186 -0.181,0.28355 -0.2491,0.36645 -0.093,0.11383 -0.098,0.1434 -0.021,0.12082 0.057,-0.0163 0.3907,-0.0781 0.7413,-0.13704 1.2788,-0.21467 1.6574,-0.43027 1.1998,-0.68326 -0.085,-0.0469 -0.1499,-0.15469 -0.1499,-0.2483 0,-0.21881 -0.2182,-0.40255 -0.5419,-0.45629 -0.2817,-0.0468 -0.4599,-0.18517 -0.5406,-0.41967 -0.042,-0.12161 -0.08,-0.1364 -0.2248,-0.0877 -0.1936,0.0652 -0.4925,-0.072 -0.4925,-0.22608 0,-0.0507 -0.085,-0.0874 -0.2016,-0.0874 -0.1173,0 -0.2576,-0.0611 -0.3353,-0.14611 -0.1248,-0.1364 -0.145,-0.1391 -0.3024,-0.0415 -0.1965,0.12193 -0.5925,0.13799 -0.7154,0.0294 -0.064,-0.0561 -0.1578,-0.0497 -0.3712,0.0247 -0.1649,0.0577 -0.3496,0.0793 -0.436,0.0513 -0.099,-0.0321 -0.2107,-0.008 -0.3289,0.075 -0.098,0.0679 -0.2418,0.12353 -0.3187,0.12353 -0.088,0 -0.1397,0.0473 -0.1397,0.12909 0,0.17411 -0.2788,0.33565 -0.5791,0.33565 -0.2102,0 -0.2458,0.0233 -0.2458,0.16113 0,0.0927 -0.079,0.21649 -0.1874,0.29167 -0.103,0.0717 -0.1874,0.17995 -0.1874,0.24044 0,0.0604 -0.048,0.19173 -0.1062,0.29173 -0.118,0.20193 0.061,0.28381 1.3247,0.6034 0.5566,0.14086 0.5742,0.13545 0.3562,-0.10985 -0.082,-0.0928 -0.1499,-0.20718 -0.1499,-0.25413 0,-0.0469 -0.1016,-0.10509 -0.2256,-0.12925 -0.3868,-0.0752 -0.5179,-0.53387 -0.2077,-0.72627 0.5169,-0.32042 1.0882,0.13561 0.692,0.55227 -0.2152,0.22641 -0.161,0.418 0.2029,0.71679 0.3812,0.31309 1.9777,0.275 2.3639,-0.0565 z m 3.0429,-0.59403 c 0.1962,-0.0914 0.1962,-0.0914 0.032,-0.37551 -1.2784,-2.21352 -5.845,-2.52294 -7.959,-0.53931 -0.2701,0.25349 -0.4911,0.50513 -0.4911,0.5592 0,0.0541 -0.042,0.10079 -0.094,0.10381 -0.1291,0.008 0.6249,0.31725 0.7847,0.3223 0.165,0.005 0.3087,-0.23119 0.2552,-0.41983 -0.033,-0.11749 0.01,-0.16115 0.1914,-0.2238 0.2134,-0.0713 0.2292,-0.0971 0.1901,-0.3108 -0.043,-0.23303 -0.043,-0.23303 0.2894,-0.22024 0.4174,0.0163 0.645,-0.1426 0.4999,-0.34813 -0.131,-0.18558 -0.1249,-0.19019 0.2015,-0.15151 0.2411,0.0286 0.311,0.0111 0.3907,-0.1027 0.083,-0.11733 0.146,-0.13163 0.4299,-0.0973 0.2709,0.0329 0.3517,0.0183 0.4341,-0.0824 0.1118,-0.13529 0.3312,-0.19273 0.3052,-0.08 -0.06,0.26173 0.5388,0.24109 0.889,-0.0306 0.1666,-0.12941 0.2569,-0.10032 0.2569,0.0827 0,0.21416 0.1895,0.28224 0.4515,0.16224 0.2691,-0.12321 0.3427,-0.0992 0.2396,0.0779 -0.1339,0.22985 0.2439,0.4395 0.397,0.22031 0.07,-0.10047 0.1634,-0.0236 0.2217,0.18301 0.103,0.3661 0.4378,0.53134 0.6398,0.31592 0.1376,-0.14674 0.1938,-0.1221 0.1906,0.083 0,0.16972 0.017,0.1816 0.2782,0.16791 0.3067,-0.0163 0.368,0.0684 0.1312,0.18049 -0.082,0.0391 -0.15,0.12861 -0.15,0.19914 0,0.13736 0.2436,0.29189 0.3364,0.21338 0.031,-0.0261 0.032,0.0512 0,0.17175 -0.057,0.23696 0.031,0.22862 0.6549,-0.0615 z m -5.9346,-0.14102 c 0.01,-0.11812 0.017,-0.12432 0.044,-0.0296 0.041,0.13863 0.1641,0.12066 0.2792,-0.0409 0.097,-0.13561 -0.019,-0.33293 -0.2145,-0.367 -0.4318,-0.0752 -0.7223,0.24861 -0.4184,0.46639 0.2218,0.15898 0.2993,0.15167 0.3099,-0.0291 z m 3.7456,-0.0581 c 0.076,-0.12559 -0.1909,-0.45639 -0.3682,-0.45639 -0.2225,0 -0.418,0.25147 -0.3293,0.42366 0.1004,0.19495 0.2425,0.23195 0.2425,0.0631 0,-0.10969 0.1041,-0.0672 0.1218,0.0497 0.019,0.11637 0.029,0.12273 0.1427,0.0841 0.063,-0.0213 0.1486,-0.0954 0.1902,-0.16426 z m 3.0933,-0.34277 c 0.6558,-0.54035 0.6341,-1.34322 -0.053,-1.94284 -0.1697,-0.14817 -0.4638,-0.4184 -0.6536,-0.6006 -1.6838,-1.61661 -4.9561,-1.87828 -7.1877,-0.57474 -2.8804,1.68255 -3.4122,2.54989 -1.9999,3.26174 0.1598,0.0804 0.2975,0.13783 0.3057,0.12718 0.01,-0.0111 0.089,-0.12862 0.18,-0.26216 1.6514,-2.43237 7.1834,-2.41498 8.6345,0.0272 0.2337,0.39341 0.254,0.39247 0.7738,-0.0358 z m 1.658,0.11383 c 0.065,-0.0573 0.118,-0.17191 0.118,-0.25443 0,-0.24022 0.08,-0.24884 0.3507,-0.038 0.3196,0.24831 0.5024,0.24917 0.7798,0.003 0.2899,-0.25659 0.2851,-0.48081 -0.014,-0.68842 -0.2337,-0.16188 -0.2337,-0.16188 0.035,-0.2066 0.6087,-0.10111 0.6891,-0.80693 0.1124,-0.98706 -0.068,-0.0211 -0.2417,0.0183 -0.3862,0.0862 -0.2626,0.12464 -0.2626,0.12464 -0.2626,-0.11828 0,-0.58918 -0.8773,-0.64492 -1.0323,-0.0655 -0.055,0.20584 0.3734,0.43882 0.8297,0.45125 0.8231,0.0224 0.2127,0.50113 -0.983,0.77107 -0.2842,0.0641 -0.4576,0.12734 -0.3854,0.1407 0.1491,0.0273 0.1665,0.0892 0.053,0.18942 -0.054,0.0477 -0.038,0.18505 0.053,0.44473 0.1421,0.40833 0.4487,0.52214 0.7319,0.27154 z m -0.1072,-1.28763 c 0.5954,-0.15262 0.8253,-0.35255 0.4701,-0.40892 -0.948,-0.15055 -1.3684,-0.53007 -2.306,-2.08226 -0.5832,-0.96538 -1.086,-1.51165 -1.6214,-1.76149 -0.099,-0.046 -0.1965,-0.10429 -0.217,-0.12941 -0.08,-0.0973 -0.5634,-0.19955 -0.8923,-0.18891 -0.3267,0.0111 -0.3301,0.0127 -0.064,0.0372 0.1546,0.0143 0.2811,0.0582 0.2811,0.0976 0,0.12989 -0.8378,0.01 -1.4588,-0.21019 -1.316,-0.46496 -1.7462,-0.33265 -3.0142,0.92712 -0.1286,0.12782 -0.4225,0.35859 -0.6532,0.5129 -1.1033,0.73828 -1.4978,1.98832 -0.4236,1.34248 2.4808,-1.49161 5.8011,-1.38461 7.5918,0.24466 1.0266,0.93403 1.2652,1.19412 1.3526,1.47467 0.099,0.31662 0.2146,0.33416 0.9547,0.14451 z"
         id="path121723"
         sodipodi:nodetypes="sssssssssssssssssssssssssscsssssssssssssscsssssssscsssssssssssssssssscssscsssssssssssssssssssssssssssssssssssssssssssssssscsscscsssscscccsssssssssssssssssssssssssscsssssssssssscssssssssssssssssssscsscsscsssssssscsscssssssssssssssssssssscssssssssssssssssssssscsssscssssssssssssssssssssssssssssssssssssssssssscsssssssscsssssssssssssscssssssssssssssssssssssssssssssssssssssssssssssssssssssssssssssssssssssscssssssssssssssssssssssssssssssssssssssssssssssssssssssssssssssssssssssssssssssssssssssssssssssssssssssscssssssssssssssssssssssssssssssssssssssssssssssssssssssssscsssscssssssssssssssssscssscssssssssssssssssssssssssssssssssss" />
      <circle
         style="fill:#000000;fill-opacity:1;stroke:#000000;stroke-width:0.219919;stroke-dasharray:0, 7.25728;stroke-dashoffset:0.131951;stroke-opacity:0.947252"
         id="path17"
         cx="4126.1665"
         cy="394.67389"
         r="0.255292" />
      <circle
         style="fill:#000000;fill-opacity:1;stroke:#000000;stroke-width:0.219919;stroke-dasharray:0, 7.25728;stroke-dashoffset:0.131951;stroke-opacity:0.947252"
         id="path17-8"
         cx="4127.4536"
         cy="394.69211"
         r="0.255292" />
    </g>
  </g>
</svg>
